<?xml version="1.0" encoding="utf-8"?>
<!-- Generator: Adobe Illustrator 22.1.0, SVG Export Plug-In . SVG Version: 6.00 Build 0)  -->
<svg version="1.1" id="Layer_1" xmlns="http://www.w3.org/2000/svg" xmlns:xlink="http://www.w3.org/1999/xlink" x="0px" y="0px"
	 viewBox="0 0 612 792" style="enable-background:new 0 0 612 792;" xml:space="preserve">
<style type="text/css">
	.st0{fill:#604D48;}
	.st1{clip-path:url(#SVGID_2_);}
	.st2{fill:#77655F;}
	.st3{fill:#FFFAEF;}
	.st4{fill:#CFA2AB;}

	.st0:hover
	{
	fill:red;


</style>
<g>
	<path class="st0" d="M305.8,290.7c-59.3,0-107.3,48.1-107.3,107.3c0,59.3,48.1,107.3,107.3,107.3S413.1,457.3,413.1,398
		C413.1,338.7,365,290.7,305.8,290.7z M305.8,499.3c-55.9,0-101.3-45.5-101.3-101.3c0-55.9,45.5-101.3,101.3-101.3
		S407.1,342.1,407.1,398C407.1,453.9,361.6,499.3,305.8,499.3z"/>
	<path class="st0" d="M381.7,398c0,41.9-34,75.9-75.9,75.9c-41.9,0-75.9-34-75.9-75.9c0-41.9,34-75.9,75.9-75.9
		C347.7,322.1,381.7,356.1,381.7,398z"/>
	<g>
		<g>
			<path class="st0" d="M378.9,394.6c2,40.3-29,74.5-69.3,76.5c-40.3,2-74.5-29-76.5-69.3c-2-40.3,29-74.5,69.3-76.5
				C342.7,323.3,376.9,354.4,378.9,394.6z"/>
			<g>
				<defs>
					<path id="SVGID_1_" d="M378.9,394.6c2,40.3-29,74.5-69.3,76.5c-40.3,2-74.5-29-76.5-69.3c-2-40.3,29-74.5,69.3-76.5
						C342.7,323.3,376.9,354.4,378.9,394.6z"/>
				</defs>
				<clipPath id="SVGID_2_">
					<use xlink:href="#SVGID_1_"  style="overflow:visible;"/>
				</clipPath>
				<g class="st1">
					<g>
						<path class="st2" d="M231.5,321.5c0,1.6-1.3,2.9-2.9,2.9c-1.6,0-2.9-1.3-2.9-2.9c0-1.6,1.3-2.9,2.9-2.9
							C230.2,318.6,231.5,319.9,231.5,321.5z"/>
						<path class="st2" d="M243.4,321.5c0,1.6-1.3,2.9-2.9,2.9c-1.6,0-2.9-1.3-2.9-2.9c0-1.6,1.3-2.9,2.9-2.9
							C242.1,318.6,243.4,319.9,243.4,321.5z"/>
						<path class="st2" d="M255.3,321.5c0,1.6-1.3,2.9-2.9,2.9c-1.6,0-2.9-1.3-2.9-2.9c0-1.6,1.3-2.9,2.9-2.9
							C254,318.6,255.3,319.9,255.3,321.5z"/>
						<path class="st2" d="M267.2,321.5c0,1.6-1.3,2.9-2.9,2.9c-1.6,0-2.9-1.3-2.9-2.9c0-1.6,1.3-2.9,2.9-2.9
							C265.9,318.6,267.2,319.9,267.2,321.5z"/>
						<path class="st2" d="M279.1,321.5c0,1.6-1.3,2.9-2.9,2.9c-1.6,0-2.9-1.3-2.9-2.9c0-1.6,1.3-2.9,2.9-2.9
							C277.8,318.6,279.1,319.9,279.1,321.5z"/>
						<path class="st2" d="M291,321.5c0,1.6-1.3,2.9-2.9,2.9c-1.6,0-2.9-1.3-2.9-2.9c0-1.6,1.3-2.9,2.9-2.9
							C289.7,318.6,291,319.9,291,321.5z"/>
						<path class="st2" d="M302.9,321.5c0,1.6-1.3,2.9-2.9,2.9c-1.6,0-2.9-1.3-2.9-2.9c0-1.6,1.3-2.9,2.9-2.9
							C301.6,318.6,302.9,319.9,302.9,321.5z"/>
						<path class="st2" d="M314.8,321.5c0,1.6-1.3,2.9-2.9,2.9c-1.6,0-2.9-1.3-2.9-2.9c0-1.6,1.3-2.9,2.9-2.9
							C313.5,318.6,314.8,319.9,314.8,321.5z"/>
						<path class="st2" d="M326.7,321.5c0,1.6-1.3,2.9-2.9,2.9c-1.6,0-2.9-1.3-2.9-2.9c0-1.6,1.3-2.9,2.9-2.9
							C325.4,318.6,326.7,319.9,326.7,321.5z"/>
						<path class="st2" d="M338.6,321.5c0,1.6-1.3,2.9-2.9,2.9c-1.6,0-2.9-1.3-2.9-2.9c0-1.6,1.3-2.9,2.9-2.9
							C337.3,318.6,338.6,319.9,338.6,321.5z"/>
						<path class="st2" d="M350.5,321.5c0,1.6-1.3,2.9-2.9,2.9c-1.6,0-2.9-1.3-2.9-2.9c0-1.6,1.3-2.9,2.9-2.9
							C349.2,318.6,350.5,319.9,350.5,321.5z"/>
						<path class="st2" d="M362.4,321.5c0,1.6-1.3,2.9-2.9,2.9c-1.6,0-2.9-1.3-2.9-2.9c0-1.6,1.3-2.9,2.9-2.9
							C361.1,318.6,362.4,319.9,362.4,321.5z"/>
						<path class="st2" d="M374.4,321.5c0,1.6-1.3,2.9-2.9,2.9c-1.6,0-2.9-1.3-2.9-2.9c0-1.6,1.3-2.9,2.9-2.9
							C373,318.6,374.4,319.9,374.4,321.5z"/>
						<path class="st2" d="M386.3,321.5c0,1.6-1.3,2.9-2.9,2.9c-1.6,0-2.9-1.3-2.9-2.9c0-1.6,1.3-2.9,2.9-2.9
							C384.9,318.6,386.3,319.9,386.3,321.5z"/>
					</g>
					<g>
						<path class="st2" d="M225.6,330.1c0,1.6-1.3,2.9-2.9,2.9c-1.6,0-2.9-1.3-2.9-2.9c0-1.6,1.3-2.9,2.9-2.9
							C224.3,327.2,225.6,328.5,225.6,330.1z"/>
						<path class="st2" d="M237.5,330.1c0,1.6-1.3,2.9-2.9,2.9c-1.6,0-2.9-1.3-2.9-2.9c0-1.6,1.3-2.9,2.9-2.9
							C236.2,327.2,237.5,328.5,237.5,330.1z"/>
						<path class="st2" d="M249.4,330.1c0,1.6-1.3,2.9-2.9,2.9c-1.6,0-2.9-1.3-2.9-2.9c0-1.6,1.3-2.9,2.9-2.9
							C248.1,327.2,249.4,328.5,249.4,330.1z"/>
						<path class="st2" d="M261.3,330.1c0,1.6-1.3,2.9-2.9,2.9c-1.6,0-2.9-1.3-2.9-2.9c0-1.6,1.3-2.9,2.9-2.9
							C260,327.2,261.3,328.5,261.3,330.1z"/>
						<path class="st2" d="M273.2,330.1c0,1.6-1.3,2.9-2.9,2.9c-1.6,0-2.9-1.3-2.9-2.9c0-1.6,1.3-2.9,2.9-2.9
							C271.9,327.2,273.2,328.5,273.2,330.1z"/>
						<path class="st2" d="M285.1,330.1c0,1.6-1.3,2.9-2.9,2.9c-1.6,0-2.9-1.3-2.9-2.9c0-1.6,1.3-2.9,2.9-2.9
							C283.8,327.2,285.1,328.5,285.1,330.1z"/>
						<path class="st2" d="M297,330.1c0,1.6-1.3,2.9-2.9,2.9c-1.6,0-2.9-1.3-2.9-2.9c0-1.6,1.3-2.9,2.9-2.9
							C295.7,327.2,297,328.5,297,330.1z"/>
						<path class="st2" d="M308.9,330.1c0,1.6-1.3,2.9-2.9,2.9c-1.6,0-2.9-1.3-2.9-2.9c0-1.6,1.3-2.9,2.9-2.9
							C307.6,327.2,308.9,328.5,308.9,330.1z"/>
						<path class="st2" d="M320.8,330.1c0,1.6-1.3,2.9-2.9,2.9c-1.6,0-2.9-1.3-2.9-2.9c0-1.6,1.3-2.9,2.9-2.9
							C319.5,327.2,320.8,328.5,320.8,330.1z"/>
						<path class="st2" d="M332.7,330.1c0,1.6-1.3,2.9-2.9,2.9c-1.6,0-2.9-1.3-2.9-2.9c0-1.6,1.3-2.9,2.9-2.9
							C331.4,327.2,332.7,328.5,332.7,330.1z"/>
						<path class="st2" d="M344.6,330.1c0,1.6-1.3,2.9-2.9,2.9c-1.6,0-2.9-1.3-2.9-2.9c0-1.6,1.3-2.9,2.9-2.9
							C343.3,327.2,344.6,328.5,344.6,330.1z"/>
						<path class="st2" d="M356.5,330.1c0,1.6-1.3,2.9-2.9,2.9c-1.6,0-2.9-1.3-2.9-2.9c0-1.6,1.3-2.9,2.9-2.9
							C355.2,327.2,356.5,328.5,356.5,330.1z"/>
						<path class="st2" d="M368.4,330.1c0,1.6-1.3,2.9-2.9,2.9c-1.6,0-2.9-1.3-2.9-2.9c0-1.6,1.3-2.9,2.9-2.9
							C367.1,327.2,368.4,328.5,368.4,330.1z"/>
						<path class="st2" d="M380.3,330.1c0,1.6-1.3,2.9-2.9,2.9c-1.6,0-2.9-1.3-2.9-2.9c0-1.6,1.3-2.9,2.9-2.9
							C379,327.2,380.3,328.5,380.3,330.1z"/>
						<path class="st2" d="M392.2,330.1c0,1.6-1.3,2.9-2.9,2.9c-1.6,0-2.9-1.3-2.9-2.9c0-1.6,1.3-2.9,2.9-2.9
							C390.9,327.2,392.2,328.5,392.2,330.1z"/>
					</g>
					<g>
						<path class="st2" d="M231.5,339.6c0,1.6-1.3,2.9-2.9,2.9c-1.6,0-2.9-1.3-2.9-2.9c0-1.6,1.3-2.9,2.9-2.9
							C230.2,336.7,231.5,338,231.5,339.6z"/>
						<path class="st2" d="M243.4,339.6c0,1.6-1.3,2.9-2.9,2.9c-1.6,0-2.9-1.3-2.9-2.9c0-1.6,1.3-2.9,2.9-2.9
							C242.1,336.7,243.4,338,243.4,339.6z"/>
						<path class="st2" d="M255.3,339.6c0,1.6-1.3,2.9-2.9,2.9c-1.6,0-2.9-1.3-2.9-2.9c0-1.6,1.3-2.9,2.9-2.9
							C254,336.7,255.3,338,255.3,339.6z"/>
						<path class="st2" d="M267.2,339.6c0,1.6-1.3,2.9-2.9,2.9c-1.6,0-2.9-1.3-2.9-2.9c0-1.6,1.3-2.9,2.9-2.9
							C265.9,336.7,267.2,338,267.2,339.6z"/>
						<path class="st2" d="M279.1,339.6c0,1.6-1.3,2.9-2.9,2.9c-1.6,0-2.9-1.3-2.9-2.9c0-1.6,1.3-2.9,2.9-2.9
							C277.8,336.7,279.1,338,279.1,339.6z"/>
						<path class="st2" d="M291,339.6c0,1.6-1.3,2.9-2.9,2.9c-1.6,0-2.9-1.3-2.9-2.9c0-1.6,1.3-2.9,2.9-2.9
							C289.7,336.7,291,338,291,339.6z"/>
						<path class="st2" d="M302.9,339.6c0,1.6-1.3,2.9-2.9,2.9c-1.6,0-2.9-1.3-2.9-2.9c0-1.6,1.3-2.9,2.9-2.9
							C301.6,336.7,302.9,338,302.9,339.6z"/>
						<path class="st2" d="M314.8,339.6c0,1.6-1.3,2.9-2.9,2.9c-1.6,0-2.9-1.3-2.9-2.9c0-1.6,1.3-2.9,2.9-2.9
							C313.5,336.7,314.8,338,314.8,339.6z"/>
						<path class="st2" d="M326.7,339.6c0,1.6-1.3,2.9-2.9,2.9c-1.6,0-2.9-1.3-2.9-2.9c0-1.6,1.3-2.9,2.9-2.9
							C325.4,336.7,326.7,338,326.7,339.6z"/>
						<path class="st2" d="M338.6,339.6c0,1.6-1.3,2.9-2.9,2.9c-1.6,0-2.9-1.3-2.9-2.9c0-1.6,1.3-2.9,2.9-2.9
							C337.3,336.7,338.6,338,338.6,339.6z"/>
						<path class="st2" d="M350.5,339.6c0,1.6-1.3,2.9-2.9,2.9c-1.6,0-2.9-1.3-2.9-2.9c0-1.6,1.3-2.9,2.9-2.9
							C349.2,336.7,350.5,338,350.5,339.6z"/>
						<path class="st2" d="M362.4,339.6c0,1.6-1.3,2.9-2.9,2.9c-1.6,0-2.9-1.3-2.9-2.9c0-1.6,1.3-2.9,2.9-2.9
							C361.1,336.7,362.4,338,362.4,339.6z"/>
						<path class="st2" d="M374.4,339.6c0,1.6-1.3,2.9-2.9,2.9c-1.6,0-2.9-1.3-2.9-2.9c0-1.6,1.3-2.9,2.9-2.9
							C373,336.7,374.4,338,374.4,339.6z"/>
						<path class="st2" d="M386.3,339.6c0,1.6-1.3,2.9-2.9,2.9c-1.6,0-2.9-1.3-2.9-2.9c0-1.6,1.3-2.9,2.9-2.9
							C384.9,336.7,386.3,338,386.3,339.6z"/>
					</g>
					<g>
						<path class="st2" d="M225.6,348.2c0,1.6-1.3,2.9-2.9,2.9c-1.6,0-2.9-1.3-2.9-2.9c0-1.6,1.3-2.9,2.9-2.9
							C224.3,345.3,225.6,346.6,225.6,348.2z"/>
						<path class="st2" d="M237.5,348.2c0,1.6-1.3,2.9-2.9,2.9c-1.6,0-2.9-1.3-2.9-2.9c0-1.6,1.3-2.9,2.9-2.9
							C236.2,345.3,237.5,346.6,237.5,348.2z"/>
						<path class="st2" d="M249.4,348.2c0,1.6-1.3,2.9-2.9,2.9c-1.6,0-2.9-1.3-2.9-2.9c0-1.6,1.3-2.9,2.9-2.9
							C248.1,345.3,249.4,346.6,249.4,348.2z"/>
						<path class="st2" d="M261.3,348.2c0,1.6-1.3,2.9-2.9,2.9c-1.6,0-2.9-1.3-2.9-2.9c0-1.6,1.3-2.9,2.9-2.9
							C260,345.3,261.3,346.6,261.3,348.2z"/>
						<path class="st2" d="M273.2,348.2c0,1.6-1.3,2.9-2.9,2.9c-1.6,0-2.9-1.3-2.9-2.9c0-1.6,1.3-2.9,2.9-2.9
							C271.9,345.3,273.2,346.6,273.2,348.2z"/>
						<path class="st2" d="M285.1,348.2c0,1.6-1.3,2.9-2.9,2.9c-1.6,0-2.9-1.3-2.9-2.9c0-1.6,1.3-2.9,2.9-2.9
							C283.8,345.3,285.1,346.6,285.1,348.2z"/>
						<path class="st2" d="M297,348.2c0,1.6-1.3,2.9-2.9,2.9c-1.6,0-2.9-1.3-2.9-2.9c0-1.6,1.3-2.9,2.9-2.9
							C295.7,345.3,297,346.6,297,348.2z"/>
						<path class="st2" d="M308.9,348.2c0,1.6-1.3,2.9-2.9,2.9c-1.6,0-2.9-1.3-2.9-2.9c0-1.6,1.3-2.9,2.9-2.9
							C307.6,345.3,308.9,346.6,308.9,348.2z"/>
						<path class="st2" d="M320.8,348.2c0,1.6-1.3,2.9-2.9,2.9c-1.6,0-2.9-1.3-2.9-2.9c0-1.6,1.3-2.9,2.9-2.9
							C319.5,345.3,320.8,346.6,320.8,348.2z"/>
						<path class="st2" d="M332.7,348.2c0,1.6-1.3,2.9-2.9,2.9c-1.6,0-2.9-1.3-2.9-2.9c0-1.6,1.3-2.9,2.9-2.9
							C331.4,345.3,332.7,346.6,332.7,348.2z"/>
						<path class="st2" d="M344.6,348.2c0,1.6-1.3,2.9-2.9,2.9c-1.6,0-2.9-1.3-2.9-2.9c0-1.6,1.3-2.9,2.9-2.9
							C343.3,345.3,344.6,346.6,344.6,348.2z"/>
						<path class="st2" d="M356.5,348.2c0,1.6-1.3,2.9-2.9,2.9c-1.6,0-2.9-1.3-2.9-2.9c0-1.6,1.3-2.9,2.9-2.9
							C355.2,345.3,356.5,346.6,356.5,348.2z"/>
						<path class="st2" d="M368.4,348.2c0,1.6-1.3,2.9-2.9,2.9c-1.6,0-2.9-1.3-2.9-2.9c0-1.6,1.3-2.9,2.9-2.9
							C367.1,345.3,368.4,346.6,368.4,348.2z"/>
						<path class="st2" d="M380.3,348.2c0,1.6-1.3,2.9-2.9,2.9c-1.6,0-2.9-1.3-2.9-2.9c0-1.6,1.3-2.9,2.9-2.9
							C379,345.3,380.3,346.6,380.3,348.2z"/>
						<path class="st2" d="M392.2,348.2c0,1.6-1.3,2.9-2.9,2.9c-1.6,0-2.9-1.3-2.9-2.9c0-1.6,1.3-2.9,2.9-2.9
							C390.9,345.3,392.2,346.6,392.2,348.2z"/>
					</g>
					<g>
						<path class="st2" d="M231.5,357.7c0,1.6-1.3,2.9-2.9,2.9c-1.6,0-2.9-1.3-2.9-2.9c0-1.6,1.3-2.9,2.9-2.9
							C230.2,354.8,231.5,356.1,231.5,357.7z"/>
						<path class="st2" d="M243.4,357.7c0,1.6-1.3,2.9-2.9,2.9c-1.6,0-2.9-1.3-2.9-2.9c0-1.6,1.3-2.9,2.9-2.9
							C242.1,354.8,243.4,356.1,243.4,357.7z"/>
						<path class="st2" d="M255.3,357.7c0,1.6-1.3,2.9-2.9,2.9c-1.6,0-2.9-1.3-2.9-2.9c0-1.6,1.3-2.9,2.9-2.9
							C254,354.8,255.3,356.1,255.3,357.7z"/>
						<path class="st2" d="M267.2,357.7c0,1.6-1.3,2.9-2.9,2.9c-1.6,0-2.9-1.3-2.9-2.9c0-1.6,1.3-2.9,2.9-2.9
							C265.9,354.8,267.2,356.1,267.2,357.7z"/>
						<path class="st2" d="M279.1,357.7c0,1.6-1.3,2.9-2.9,2.9c-1.6,0-2.9-1.3-2.9-2.9c0-1.6,1.3-2.9,2.9-2.9
							C277.8,354.8,279.1,356.1,279.1,357.7z"/>
						<path class="st2" d="M291,357.7c0,1.6-1.3,2.9-2.9,2.9c-1.6,0-2.9-1.3-2.9-2.9c0-1.6,1.3-2.9,2.9-2.9
							C289.7,354.8,291,356.1,291,357.7z"/>
						<path class="st2" d="M302.9,357.7c0,1.6-1.3,2.9-2.9,2.9c-1.6,0-2.9-1.3-2.9-2.9c0-1.6,1.3-2.9,2.9-2.9
							C301.6,354.8,302.9,356.1,302.9,357.7z"/>
						<path class="st2" d="M314.8,357.7c0,1.6-1.3,2.9-2.9,2.9c-1.6,0-2.9-1.3-2.9-2.9c0-1.6,1.3-2.9,2.9-2.9
							C313.5,354.8,314.8,356.1,314.8,357.7z"/>
						<path class="st2" d="M326.7,357.7c0,1.6-1.3,2.9-2.9,2.9c-1.6,0-2.9-1.3-2.9-2.9c0-1.6,1.3-2.9,2.9-2.9
							C325.4,354.8,326.7,356.1,326.7,357.7z"/>
						<path class="st2" d="M338.6,357.7c0,1.6-1.3,2.9-2.9,2.9c-1.6,0-2.9-1.3-2.9-2.9c0-1.6,1.3-2.9,2.9-2.9
							C337.3,354.8,338.6,356.1,338.6,357.7z"/>
						<path class="st2" d="M350.5,357.7c0,1.6-1.3,2.9-2.9,2.9c-1.6,0-2.9-1.3-2.9-2.9c0-1.6,1.3-2.9,2.9-2.9
							C349.2,354.8,350.5,356.1,350.5,357.7z"/>
						<path class="st2" d="M362.4,357.7c0,1.6-1.3,2.9-2.9,2.9c-1.6,0-2.9-1.3-2.9-2.9c0-1.6,1.3-2.9,2.9-2.9
							C361.1,354.8,362.4,356.1,362.4,357.7z"/>
						<path class="st2" d="M374.4,357.7c0,1.6-1.3,2.9-2.9,2.9c-1.6,0-2.9-1.3-2.9-2.9c0-1.6,1.3-2.9,2.9-2.9
							C373,354.8,374.4,356.1,374.4,357.7z"/>
						<path class="st2" d="M386.3,357.7c0,1.6-1.3,2.9-2.9,2.9c-1.6,0-2.9-1.3-2.9-2.9c0-1.6,1.3-2.9,2.9-2.9
							C384.9,354.8,386.3,356.1,386.3,357.7z"/>
					</g>
					<g>
						<path class="st2" d="M225.6,366.3c0,1.6-1.3,2.9-2.9,2.9c-1.6,0-2.9-1.3-2.9-2.9c0-1.6,1.3-2.9,2.9-2.9
							C224.3,363.4,225.6,364.7,225.6,366.3z"/>
						<path class="st2" d="M237.5,366.3c0,1.6-1.3,2.9-2.9,2.9c-1.6,0-2.9-1.3-2.9-2.9c0-1.6,1.3-2.9,2.9-2.9
							C236.2,363.4,237.5,364.7,237.5,366.3z"/>
						<path class="st2" d="M249.4,366.3c0,1.6-1.3,2.9-2.9,2.9c-1.6,0-2.9-1.3-2.9-2.9c0-1.6,1.3-2.9,2.9-2.9
							C248.1,363.4,249.4,364.7,249.4,366.3z"/>
						<path class="st2" d="M261.3,366.3c0,1.6-1.3,2.9-2.9,2.9c-1.6,0-2.9-1.3-2.9-2.9c0-1.6,1.3-2.9,2.9-2.9
							C260,363.4,261.3,364.7,261.3,366.3z"/>
						<path class="st2" d="M273.2,366.3c0,1.6-1.3,2.9-2.9,2.9c-1.6,0-2.9-1.3-2.9-2.9c0-1.6,1.3-2.9,2.9-2.9
							C271.9,363.4,273.2,364.7,273.2,366.3z"/>
						<path class="st2" d="M285.1,366.3c0,1.6-1.3,2.9-2.9,2.9c-1.6,0-2.9-1.3-2.9-2.9c0-1.6,1.3-2.9,2.9-2.9
							C283.8,363.4,285.1,364.7,285.1,366.3z"/>
						<path class="st2" d="M297,366.3c0,1.6-1.3,2.9-2.9,2.9c-1.6,0-2.9-1.3-2.9-2.9c0-1.6,1.3-2.9,2.9-2.9
							C295.7,363.4,297,364.7,297,366.3z"/>
						<path class="st2" d="M308.9,366.3c0,1.6-1.3,2.9-2.9,2.9c-1.6,0-2.9-1.3-2.9-2.9c0-1.6,1.3-2.9,2.9-2.9
							C307.6,363.4,308.9,364.7,308.9,366.3z"/>
						<path class="st2" d="M320.8,366.3c0,1.6-1.3,2.9-2.9,2.9c-1.6,0-2.9-1.3-2.9-2.9c0-1.6,1.3-2.9,2.9-2.9
							C319.5,363.4,320.8,364.7,320.8,366.3z"/>
						<path class="st2" d="M332.7,366.3c0,1.6-1.3,2.9-2.9,2.9c-1.6,0-2.9-1.3-2.9-2.9c0-1.6,1.3-2.9,2.9-2.9
							C331.4,363.4,332.7,364.7,332.7,366.3z"/>
						<path class="st2" d="M344.6,366.3c0,1.6-1.3,2.9-2.9,2.9c-1.6,0-2.9-1.3-2.9-2.9c0-1.6,1.3-2.9,2.9-2.9
							C343.3,363.4,344.6,364.7,344.6,366.3z"/>
						<path class="st2" d="M356.5,366.3c0,1.6-1.3,2.9-2.9,2.9c-1.6,0-2.9-1.3-2.9-2.9c0-1.6,1.3-2.9,2.9-2.9
							C355.2,363.4,356.5,364.7,356.5,366.3z"/>
						<path class="st2" d="M368.4,366.3c0,1.6-1.3,2.9-2.9,2.9c-1.6,0-2.9-1.3-2.9-2.9c0-1.6,1.3-2.9,2.9-2.9
							C367.1,363.4,368.4,364.7,368.4,366.3z"/>
						<path class="st2" d="M380.3,366.3c0,1.6-1.3,2.9-2.9,2.9c-1.6,0-2.9-1.3-2.9-2.9c0-1.6,1.3-2.9,2.9-2.9
							C379,363.4,380.3,364.7,380.3,366.3z"/>
						<path class="st2" d="M392.2,366.3c0,1.6-1.3,2.9-2.9,2.9c-1.6,0-2.9-1.3-2.9-2.9c0-1.6,1.3-2.9,2.9-2.9
							C390.9,363.4,392.2,364.7,392.2,366.3z"/>
					</g>
					<g>
						<path class="st2" d="M231.5,375.8c0,1.6-1.3,2.9-2.9,2.9c-1.6,0-2.9-1.3-2.9-2.9c0-1.6,1.3-2.9,2.9-2.9
							C230.2,372.9,231.5,374.2,231.5,375.8z"/>
						<path class="st2" d="M243.4,375.8c0,1.6-1.3,2.9-2.9,2.9c-1.6,0-2.9-1.3-2.9-2.9c0-1.6,1.3-2.9,2.9-2.9
							C242.1,372.9,243.4,374.2,243.4,375.8z"/>
						<path class="st2" d="M255.3,375.8c0,1.6-1.3,2.9-2.9,2.9c-1.6,0-2.9-1.3-2.9-2.9c0-1.6,1.3-2.9,2.9-2.9
							C254,372.9,255.3,374.2,255.3,375.8z"/>
						<path class="st2" d="M267.2,375.8c0,1.6-1.3,2.9-2.9,2.9c-1.6,0-2.9-1.3-2.9-2.9c0-1.6,1.3-2.9,2.9-2.9
							C265.9,372.9,267.2,374.2,267.2,375.8z"/>
						<path class="st2" d="M279.1,375.8c0,1.6-1.3,2.9-2.9,2.9c-1.6,0-2.9-1.3-2.9-2.9c0-1.6,1.3-2.9,2.9-2.9
							C277.8,372.9,279.1,374.2,279.1,375.8z"/>
						<path class="st2" d="M291,375.8c0,1.6-1.3,2.9-2.9,2.9c-1.6,0-2.9-1.3-2.9-2.9c0-1.6,1.3-2.9,2.9-2.9
							C289.7,372.9,291,374.2,291,375.8z"/>
						<path class="st2" d="M302.9,375.8c0,1.6-1.3,2.9-2.9,2.9c-1.6,0-2.9-1.3-2.9-2.9c0-1.6,1.3-2.9,2.9-2.9
							C301.6,372.9,302.9,374.2,302.9,375.8z"/>
						<path class="st2" d="M314.8,375.8c0,1.6-1.3,2.9-2.9,2.9c-1.6,0-2.9-1.3-2.9-2.9c0-1.6,1.3-2.9,2.9-2.9
							C313.5,372.9,314.8,374.2,314.8,375.8z"/>
						<path class="st2" d="M326.7,375.8c0,1.6-1.3,2.9-2.9,2.9c-1.6,0-2.9-1.3-2.9-2.9c0-1.6,1.3-2.9,2.9-2.9
							C325.4,372.9,326.7,374.2,326.7,375.8z"/>
						<path class="st2" d="M338.6,375.8c0,1.6-1.3,2.9-2.9,2.9c-1.6,0-2.9-1.3-2.9-2.9c0-1.6,1.3-2.9,2.9-2.9
							C337.3,372.9,338.6,374.2,338.6,375.8z"/>
						<path class="st2" d="M350.5,375.8c0,1.6-1.3,2.9-2.9,2.9c-1.6,0-2.9-1.3-2.9-2.9c0-1.6,1.3-2.9,2.9-2.9
							C349.2,372.9,350.5,374.2,350.5,375.8z"/>
						<path class="st2" d="M362.4,375.8c0,1.6-1.3,2.9-2.9,2.9c-1.6,0-2.9-1.3-2.9-2.9c0-1.6,1.3-2.9,2.9-2.9
							C361.1,372.9,362.4,374.2,362.4,375.8z"/>
						<path class="st2" d="M374.4,375.8c0,1.6-1.3,2.9-2.9,2.9c-1.6,0-2.9-1.3-2.9-2.9c0-1.6,1.3-2.9,2.9-2.9
							C373,372.9,374.4,374.2,374.4,375.8z"/>
						<path class="st2" d="M386.3,375.8c0,1.6-1.3,2.9-2.9,2.9c-1.6,0-2.9-1.3-2.9-2.9c0-1.6,1.3-2.9,2.9-2.9
							C384.9,372.9,386.3,374.2,386.3,375.8z"/>
					</g>
					<g>
						<path class="st2" d="M225.6,384.4c0,1.6-1.3,2.9-2.9,2.9c-1.6,0-2.9-1.3-2.9-2.9c0-1.6,1.3-2.9,2.9-2.9
							C224.3,381.5,225.6,382.8,225.6,384.4z"/>
						<path class="st2" d="M237.5,384.4c0,1.6-1.3,2.9-2.9,2.9c-1.6,0-2.9-1.3-2.9-2.9c0-1.6,1.3-2.9,2.9-2.9
							C236.2,381.5,237.5,382.8,237.5,384.4z"/>
						<path class="st2" d="M249.4,384.4c0,1.6-1.3,2.9-2.9,2.9c-1.6,0-2.9-1.3-2.9-2.9c0-1.6,1.3-2.9,2.9-2.9
							C248.1,381.5,249.4,382.8,249.4,384.4z"/>
						<path class="st2" d="M261.3,384.4c0,1.6-1.3,2.9-2.9,2.9c-1.6,0-2.9-1.3-2.9-2.9c0-1.6,1.3-2.9,2.9-2.9
							C260,381.5,261.3,382.8,261.3,384.4z"/>
						<path class="st2" d="M273.2,384.4c0,1.6-1.3,2.9-2.9,2.9c-1.6,0-2.9-1.3-2.9-2.9c0-1.6,1.3-2.9,2.9-2.9
							C271.9,381.5,273.2,382.8,273.2,384.4z"/>
						<path class="st2" d="M285.1,384.4c0,1.6-1.3,2.9-2.9,2.9c-1.6,0-2.9-1.3-2.9-2.9c0-1.6,1.3-2.9,2.9-2.9
							C283.8,381.5,285.1,382.8,285.1,384.4z"/>
						<path class="st2" d="M297,384.4c0,1.6-1.3,2.9-2.9,2.9c-1.6,0-2.9-1.3-2.9-2.9c0-1.6,1.3-2.9,2.9-2.9
							C295.7,381.5,297,382.8,297,384.4z"/>
						<path class="st2" d="M308.9,384.4c0,1.6-1.3,2.9-2.9,2.9c-1.6,0-2.9-1.3-2.9-2.9c0-1.6,1.3-2.9,2.9-2.9
							C307.6,381.5,308.9,382.8,308.9,384.4z"/>
						<path class="st2" d="M320.8,384.4c0,1.6-1.3,2.9-2.9,2.9c-1.6,0-2.9-1.3-2.9-2.9c0-1.6,1.3-2.9,2.9-2.9
							C319.5,381.5,320.8,382.8,320.8,384.4z"/>
						<path class="st2" d="M332.7,384.4c0,1.6-1.3,2.9-2.9,2.9c-1.6,0-2.9-1.3-2.9-2.9c0-1.6,1.3-2.9,2.9-2.9
							C331.4,381.5,332.7,382.8,332.7,384.4z"/>
						<path class="st2" d="M344.6,384.4c0,1.6-1.3,2.9-2.9,2.9c-1.6,0-2.9-1.3-2.9-2.9c0-1.6,1.3-2.9,2.9-2.9
							C343.3,381.5,344.6,382.8,344.6,384.4z"/>
						<path class="st2" d="M356.5,384.4c0,1.6-1.3,2.9-2.9,2.9c-1.6,0-2.9-1.3-2.9-2.9c0-1.6,1.3-2.9,2.9-2.9
							C355.2,381.5,356.5,382.8,356.5,384.4z"/>
						<path class="st2" d="M368.4,384.4c0,1.6-1.3,2.9-2.9,2.9c-1.6,0-2.9-1.3-2.9-2.9c0-1.6,1.3-2.9,2.9-2.9
							C367.1,381.5,368.4,382.8,368.4,384.4z"/>
						<path class="st2" d="M380.3,384.4c0,1.6-1.3,2.9-2.9,2.9c-1.6,0-2.9-1.3-2.9-2.9c0-1.6,1.3-2.9,2.9-2.9
							C379,381.5,380.3,382.8,380.3,384.4z"/>
						<path class="st2" d="M392.2,384.4c0,1.6-1.3,2.9-2.9,2.9c-1.6,0-2.9-1.3-2.9-2.9c0-1.6,1.3-2.9,2.9-2.9
							C390.9,381.5,392.2,382.8,392.2,384.4z"/>
					</g>
					<g>
						<path class="st2" d="M231.5,393.9c0,1.6-1.3,2.9-2.9,2.9c-1.6,0-2.9-1.3-2.9-2.9c0-1.6,1.3-2.9,2.9-2.9
							C230.2,391,231.5,392.3,231.5,393.9z"/>
						<path class="st2" d="M243.4,393.9c0,1.6-1.3,2.9-2.9,2.9c-1.6,0-2.9-1.3-2.9-2.9c0-1.6,1.3-2.9,2.9-2.9
							C242.1,391,243.4,392.3,243.4,393.9z"/>
						<path class="st2" d="M255.3,393.9c0,1.6-1.3,2.9-2.9,2.9c-1.6,0-2.9-1.3-2.9-2.9c0-1.6,1.3-2.9,2.9-2.9
							C254,391,255.3,392.3,255.3,393.9z"/>
						<path class="st2" d="M267.2,393.9c0,1.6-1.3,2.9-2.9,2.9c-1.6,0-2.9-1.3-2.9-2.9c0-1.6,1.3-2.9,2.9-2.9
							C265.9,391,267.2,392.3,267.2,393.9z"/>
						<path class="st2" d="M279.1,393.9c0,1.6-1.3,2.9-2.9,2.9c-1.6,0-2.9-1.3-2.9-2.9c0-1.6,1.3-2.9,2.9-2.9
							C277.8,391,279.1,392.3,279.1,393.9z"/>
						<path class="st2" d="M291,393.9c0,1.6-1.3,2.9-2.9,2.9c-1.6,0-2.9-1.3-2.9-2.9c0-1.6,1.3-2.9,2.9-2.9
							C289.7,391,291,392.3,291,393.9z"/>
						<path class="st2" d="M302.9,393.9c0,1.6-1.3,2.9-2.9,2.9c-1.6,0-2.9-1.3-2.9-2.9c0-1.6,1.3-2.9,2.9-2.9
							C301.6,391,302.9,392.3,302.9,393.9z"/>
						<path class="st2" d="M314.8,393.9c0,1.6-1.3,2.9-2.9,2.9c-1.6,0-2.9-1.3-2.9-2.9c0-1.6,1.3-2.9,2.9-2.9
							C313.5,391,314.8,392.3,314.8,393.9z"/>
						<path class="st2" d="M326.7,393.9c0,1.6-1.3,2.9-2.9,2.9c-1.6,0-2.9-1.3-2.9-2.9c0-1.6,1.3-2.9,2.9-2.9
							C325.4,391,326.7,392.3,326.7,393.9z"/>
						<path class="st2" d="M338.6,393.9c0,1.6-1.3,2.9-2.9,2.9c-1.6,0-2.9-1.3-2.9-2.9c0-1.6,1.3-2.9,2.9-2.9
							C337.3,391,338.6,392.3,338.6,393.9z"/>
						<path class="st2" d="M350.5,393.9c0,1.6-1.3,2.9-2.9,2.9c-1.6,0-2.9-1.3-2.9-2.9c0-1.6,1.3-2.9,2.9-2.9
							C349.2,391,350.5,392.3,350.5,393.9z"/>
						<path class="st2" d="M362.4,393.9c0,1.6-1.3,2.9-2.9,2.9c-1.6,0-2.9-1.3-2.9-2.9c0-1.6,1.3-2.9,2.9-2.9
							C361.1,391,362.4,392.3,362.4,393.9z"/>
						<path class="st2" d="M374.4,393.9c0,1.6-1.3,2.9-2.9,2.9c-1.6,0-2.9-1.3-2.9-2.9c0-1.6,1.3-2.9,2.9-2.9
							C373,391,374.4,392.3,374.4,393.9z"/>
						<path class="st2" d="M386.3,393.9c0,1.6-1.3,2.9-2.9,2.9c-1.6,0-2.9-1.3-2.9-2.9c0-1.6,1.3-2.9,2.9-2.9
							C384.9,391,386.3,392.3,386.3,393.9z"/>
					</g>
					<g>
						<path class="st2" d="M225.6,402.5c0,1.6-1.3,2.9-2.9,2.9c-1.6,0-2.9-1.3-2.9-2.9c0-1.6,1.3-2.9,2.9-2.9
							C224.3,399.6,225.6,400.9,225.6,402.5z"/>
						<path class="st2" d="M237.5,402.5c0,1.6-1.3,2.9-2.9,2.9c-1.6,0-2.9-1.3-2.9-2.9c0-1.6,1.3-2.9,2.9-2.9
							C236.2,399.6,237.5,400.9,237.5,402.5z"/>
						<path class="st2" d="M249.4,402.5c0,1.6-1.3,2.9-2.9,2.9c-1.6,0-2.9-1.3-2.9-2.9c0-1.6,1.3-2.9,2.9-2.9
							C248.1,399.6,249.4,400.9,249.4,402.5z"/>
						<path class="st2" d="M261.3,402.5c0,1.6-1.3,2.9-2.9,2.9c-1.6,0-2.9-1.3-2.9-2.9c0-1.6,1.3-2.9,2.9-2.9
							C260,399.6,261.3,400.9,261.3,402.5z"/>
						<path class="st2" d="M273.2,402.5c0,1.6-1.3,2.9-2.9,2.9c-1.6,0-2.9-1.3-2.9-2.9c0-1.6,1.3-2.9,2.9-2.9
							C271.9,399.6,273.2,400.9,273.2,402.5z"/>
						<path class="st2" d="M285.1,402.5c0,1.6-1.3,2.9-2.9,2.9c-1.6,0-2.9-1.3-2.9-2.9c0-1.6,1.3-2.9,2.9-2.9
							C283.8,399.6,285.1,400.9,285.1,402.5z"/>
						<path class="st2" d="M297,402.5c0,1.6-1.3,2.9-2.9,2.9c-1.6,0-2.9-1.3-2.9-2.9c0-1.6,1.3-2.9,2.9-2.9
							C295.7,399.6,297,400.9,297,402.5z"/>
						<path class="st2" d="M308.9,402.5c0,1.6-1.3,2.9-2.9,2.9c-1.6,0-2.9-1.3-2.9-2.9c0-1.6,1.3-2.9,2.9-2.9
							C307.6,399.6,308.9,400.9,308.9,402.5z"/>
						<path class="st2" d="M320.8,402.5c0,1.6-1.3,2.9-2.9,2.9c-1.6,0-2.9-1.3-2.9-2.9c0-1.6,1.3-2.9,2.9-2.9
							C319.5,399.6,320.8,400.9,320.8,402.5z"/>
						<path class="st2" d="M332.7,402.5c0,1.6-1.3,2.9-2.9,2.9c-1.6,0-2.9-1.3-2.9-2.9c0-1.6,1.3-2.9,2.9-2.9
							C331.4,399.6,332.7,400.9,332.7,402.5z"/>
						<path class="st2" d="M344.6,402.5c0,1.6-1.3,2.9-2.9,2.9c-1.6,0-2.9-1.3-2.9-2.9c0-1.6,1.3-2.9,2.9-2.9
							C343.3,399.6,344.6,400.9,344.6,402.5z"/>
						<path class="st2" d="M356.5,402.5c0,1.6-1.3,2.9-2.9,2.9c-1.6,0-2.9-1.3-2.9-2.9c0-1.6,1.3-2.9,2.9-2.9
							C355.2,399.6,356.5,400.9,356.5,402.5z"/>
						<path class="st2" d="M368.4,402.5c0,1.6-1.3,2.9-2.9,2.9c-1.6,0-2.9-1.3-2.9-2.9c0-1.6,1.3-2.9,2.9-2.9
							C367.1,399.6,368.4,400.9,368.4,402.5z"/>
						<path class="st2" d="M380.3,402.5c0,1.6-1.3,2.9-2.9,2.9c-1.6,0-2.9-1.3-2.9-2.9c0-1.6,1.3-2.9,2.9-2.9
							C379,399.6,380.3,400.9,380.3,402.5z"/>
						<path class="st2" d="M392.2,402.5c0,1.6-1.3,2.9-2.9,2.9c-1.6,0-2.9-1.3-2.9-2.9c0-1.6,1.3-2.9,2.9-2.9
							C390.9,399.6,392.2,400.9,392.2,402.5z"/>
					</g>
					<g>
						<path class="st2" d="M231.5,412c0,1.6-1.3,2.9-2.9,2.9c-1.6,0-2.9-1.3-2.9-2.9c0-1.6,1.3-2.9,2.9-2.9
							C230.2,409.1,231.5,410.4,231.5,412z"/>
						<path class="st2" d="M243.4,412c0,1.6-1.3,2.9-2.9,2.9c-1.6,0-2.9-1.3-2.9-2.9c0-1.6,1.3-2.9,2.9-2.9
							C242.1,409.1,243.4,410.4,243.4,412z"/>
						<path class="st2" d="M255.3,412c0,1.6-1.3,2.9-2.9,2.9c-1.6,0-2.9-1.3-2.9-2.9c0-1.6,1.3-2.9,2.9-2.9
							C254,409.1,255.3,410.4,255.3,412z"/>
						<path class="st2" d="M267.2,412c0,1.6-1.3,2.9-2.9,2.9c-1.6,0-2.9-1.3-2.9-2.9c0-1.6,1.3-2.9,2.9-2.9
							C265.9,409.1,267.2,410.4,267.2,412z"/>
						<path class="st2" d="M279.1,412c0,1.6-1.3,2.9-2.9,2.9c-1.6,0-2.9-1.3-2.9-2.9c0-1.6,1.3-2.9,2.9-2.9
							C277.8,409.1,279.1,410.4,279.1,412z"/>
						<path class="st2" d="M291,412c0,1.6-1.3,2.9-2.9,2.9c-1.6,0-2.9-1.3-2.9-2.9c0-1.6,1.3-2.9,2.9-2.9
							C289.7,409.1,291,410.4,291,412z"/>
						<path class="st2" d="M302.9,412c0,1.6-1.3,2.9-2.9,2.9c-1.6,0-2.9-1.3-2.9-2.9c0-1.6,1.3-2.9,2.9-2.9
							C301.6,409.1,302.9,410.4,302.9,412z"/>
						<path class="st2" d="M314.8,412c0,1.6-1.3,2.9-2.9,2.9c-1.6,0-2.9-1.3-2.9-2.9c0-1.6,1.3-2.9,2.9-2.9
							C313.5,409.1,314.8,410.4,314.8,412z"/>
						<path class="st2" d="M326.7,412c0,1.6-1.3,2.9-2.9,2.9c-1.6,0-2.9-1.3-2.9-2.9c0-1.6,1.3-2.9,2.9-2.9
							C325.4,409.1,326.7,410.4,326.7,412z"/>
						<path class="st2" d="M338.6,412c0,1.6-1.3,2.9-2.9,2.9c-1.6,0-2.9-1.3-2.9-2.9c0-1.6,1.3-2.9,2.9-2.9
							C337.3,409.1,338.6,410.4,338.6,412z"/>
						<path class="st2" d="M350.5,412c0,1.6-1.3,2.9-2.9,2.9c-1.6,0-2.9-1.3-2.9-2.9c0-1.6,1.3-2.9,2.9-2.9
							C349.2,409.1,350.5,410.4,350.5,412z"/>
						<path class="st2" d="M362.4,412c0,1.6-1.3,2.9-2.9,2.9c-1.6,0-2.9-1.3-2.9-2.9c0-1.6,1.3-2.9,2.9-2.9
							C361.1,409.1,362.4,410.4,362.4,412z"/>
						<path class="st2" d="M374.4,412c0,1.6-1.3,2.9-2.9,2.9c-1.6,0-2.9-1.3-2.9-2.9c0-1.6,1.3-2.9,2.9-2.9
							C373,409.1,374.4,410.4,374.4,412z"/>
						<path class="st2" d="M386.3,412c0,1.6-1.3,2.9-2.9,2.9c-1.6,0-2.9-1.3-2.9-2.9c0-1.6,1.3-2.9,2.9-2.9
							C384.9,409.1,386.3,410.4,386.3,412z"/>
					</g>
					<g>
						<path class="st2" d="M225.6,420.6c0,1.6-1.3,2.9-2.9,2.9c-1.6,0-2.9-1.3-2.9-2.9c0-1.6,1.3-2.9,2.9-2.9
							C224.3,417.7,225.6,419,225.6,420.6z"/>
						<path class="st2" d="M237.5,420.6c0,1.6-1.3,2.9-2.9,2.9c-1.6,0-2.9-1.3-2.9-2.9c0-1.6,1.3-2.9,2.9-2.9
							C236.2,417.7,237.5,419,237.5,420.6z"/>
						<path class="st2" d="M249.4,420.6c0,1.6-1.3,2.9-2.9,2.9c-1.6,0-2.9-1.3-2.9-2.9c0-1.6,1.3-2.9,2.9-2.9
							C248.1,417.7,249.4,419,249.4,420.6z"/>
						<path class="st2" d="M261.3,420.6c0,1.6-1.3,2.9-2.9,2.9c-1.6,0-2.9-1.3-2.9-2.9c0-1.6,1.3-2.9,2.9-2.9
							C260,417.7,261.3,419,261.3,420.6z"/>
						<path class="st2" d="M273.2,420.6c0,1.6-1.3,2.9-2.9,2.9c-1.6,0-2.9-1.3-2.9-2.9c0-1.6,1.3-2.9,2.9-2.9
							C271.9,417.7,273.2,419,273.2,420.6z"/>
						<path class="st2" d="M285.1,420.6c0,1.6-1.3,2.9-2.9,2.9c-1.6,0-2.9-1.3-2.9-2.9c0-1.6,1.3-2.9,2.9-2.9
							C283.8,417.7,285.1,419,285.1,420.6z"/>
						<path class="st2" d="M297,420.6c0,1.6-1.3,2.9-2.9,2.9c-1.6,0-2.9-1.3-2.9-2.9c0-1.6,1.3-2.9,2.9-2.9
							C295.7,417.7,297,419,297,420.6z"/>
						<path class="st2" d="M308.9,420.6c0,1.6-1.3,2.9-2.9,2.9c-1.6,0-2.9-1.3-2.9-2.9c0-1.6,1.3-2.9,2.9-2.9
							C307.6,417.7,308.9,419,308.9,420.6z"/>
						<path class="st2" d="M320.8,420.6c0,1.6-1.3,2.9-2.9,2.9c-1.6,0-2.9-1.3-2.9-2.9c0-1.6,1.3-2.9,2.9-2.9
							C319.5,417.7,320.8,419,320.8,420.6z"/>
						<path class="st2" d="M332.7,420.6c0,1.6-1.3,2.9-2.9,2.9c-1.6,0-2.9-1.3-2.9-2.9c0-1.6,1.3-2.9,2.9-2.9
							C331.4,417.7,332.7,419,332.7,420.6z"/>
						<path class="st2" d="M344.6,420.6c0,1.6-1.3,2.9-2.9,2.9c-1.6,0-2.9-1.3-2.9-2.9c0-1.6,1.3-2.9,2.9-2.9
							C343.3,417.7,344.6,419,344.6,420.6z"/>
						<path class="st2" d="M356.5,420.6c0,1.6-1.3,2.9-2.9,2.9c-1.6,0-2.9-1.3-2.9-2.9c0-1.6,1.3-2.9,2.9-2.9
							C355.2,417.7,356.5,419,356.5,420.6z"/>
						<path class="st2" d="M368.4,420.6c0,1.6-1.3,2.9-2.9,2.9c-1.6,0-2.9-1.3-2.9-2.9c0-1.6,1.3-2.9,2.9-2.9
							C367.1,417.7,368.4,419,368.4,420.6z"/>
						<path class="st2" d="M380.3,420.6c0,1.6-1.3,2.9-2.9,2.9c-1.6,0-2.9-1.3-2.9-2.9c0-1.6,1.3-2.9,2.9-2.9
							C379,417.7,380.3,419,380.3,420.6z"/>
						<path class="st2" d="M392.2,420.6c0,1.6-1.3,2.9-2.9,2.9c-1.6,0-2.9-1.3-2.9-2.9c0-1.6,1.3-2.9,2.9-2.9
							C390.9,417.7,392.2,419,392.2,420.6z"/>
					</g>
					<g>
						<path class="st2" d="M231.5,430.1c0,1.6-1.3,2.9-2.9,2.9c-1.6,0-2.9-1.3-2.9-2.9c0-1.6,1.3-2.9,2.9-2.9
							C230.2,427.2,231.5,428.5,231.5,430.1z"/>
						<path class="st2" d="M243.4,430.1c0,1.6-1.3,2.9-2.9,2.9c-1.6,0-2.9-1.3-2.9-2.9c0-1.6,1.3-2.9,2.9-2.9
							C242.1,427.2,243.4,428.5,243.4,430.1z"/>
						<path class="st2" d="M255.3,430.1c0,1.6-1.3,2.9-2.9,2.9c-1.6,0-2.9-1.3-2.9-2.9c0-1.6,1.3-2.9,2.9-2.9
							C254,427.2,255.3,428.5,255.3,430.1z"/>
						<path class="st2" d="M267.2,430.1c0,1.6-1.3,2.9-2.9,2.9c-1.6,0-2.9-1.3-2.9-2.9c0-1.6,1.3-2.9,2.9-2.9
							C265.9,427.2,267.2,428.5,267.2,430.1z"/>
						<path class="st2" d="M279.1,430.1c0,1.6-1.3,2.9-2.9,2.9c-1.6,0-2.9-1.3-2.9-2.9c0-1.6,1.3-2.9,2.9-2.9
							C277.8,427.2,279.1,428.5,279.1,430.1z"/>
						<path class="st2" d="M291,430.1c0,1.6-1.3,2.9-2.9,2.9c-1.6,0-2.9-1.3-2.9-2.9c0-1.6,1.3-2.9,2.9-2.9
							C289.7,427.2,291,428.5,291,430.1z"/>
						<path class="st2" d="M302.9,430.1c0,1.6-1.3,2.9-2.9,2.9c-1.6,0-2.9-1.3-2.9-2.9c0-1.6,1.3-2.9,2.9-2.9
							C301.6,427.2,302.9,428.5,302.9,430.1z"/>
						<path class="st2" d="M314.8,430.1c0,1.6-1.3,2.9-2.9,2.9c-1.6,0-2.9-1.3-2.9-2.9c0-1.6,1.3-2.9,2.9-2.9
							C313.5,427.2,314.8,428.5,314.8,430.1z"/>
						<path class="st2" d="M326.7,430.1c0,1.6-1.3,2.9-2.9,2.9c-1.6,0-2.9-1.3-2.9-2.9c0-1.6,1.3-2.9,2.9-2.9
							C325.4,427.2,326.7,428.5,326.7,430.1z"/>
						<path class="st2" d="M338.6,430.1c0,1.6-1.3,2.9-2.9,2.9c-1.6,0-2.9-1.3-2.9-2.9c0-1.6,1.3-2.9,2.9-2.9
							C337.3,427.2,338.6,428.5,338.6,430.1z"/>
						<path class="st2" d="M350.5,430.1c0,1.6-1.3,2.9-2.9,2.9c-1.6,0-2.9-1.3-2.9-2.9c0-1.6,1.3-2.9,2.9-2.9
							C349.2,427.2,350.5,428.5,350.5,430.1z"/>
						<path class="st2" d="M362.4,430.1c0,1.6-1.3,2.9-2.9,2.9c-1.6,0-2.9-1.3-2.9-2.9c0-1.6,1.3-2.9,2.9-2.9
							C361.1,427.2,362.4,428.5,362.4,430.1z"/>
						<path class="st2" d="M374.4,430.1c0,1.6-1.3,2.9-2.9,2.9c-1.6,0-2.9-1.3-2.9-2.9c0-1.6,1.3-2.9,2.9-2.9
							C373,427.2,374.4,428.5,374.4,430.1z"/>
						<path class="st2" d="M386.3,430.1c0,1.6-1.3,2.9-2.9,2.9c-1.6,0-2.9-1.3-2.9-2.9c0-1.6,1.3-2.9,2.9-2.9
							C384.9,427.2,386.3,428.5,386.3,430.1z"/>
					</g>
					<g>
						<path class="st2" d="M225.6,438.7c0,1.6-1.3,2.9-2.9,2.9c-1.6,0-2.9-1.3-2.9-2.9c0-1.6,1.3-2.9,2.9-2.9
							C224.3,435.8,225.6,437.1,225.6,438.7z"/>
						<path class="st2" d="M237.5,438.7c0,1.6-1.3,2.9-2.9,2.9c-1.6,0-2.9-1.3-2.9-2.9c0-1.6,1.3-2.9,2.9-2.9
							C236.2,435.8,237.5,437.1,237.5,438.7z"/>
						<path class="st2" d="M249.4,438.7c0,1.6-1.3,2.9-2.9,2.9c-1.6,0-2.9-1.3-2.9-2.9c0-1.6,1.3-2.9,2.9-2.9
							C248.1,435.8,249.4,437.1,249.4,438.7z"/>
						<path class="st2" d="M261.3,438.7c0,1.6-1.3,2.9-2.9,2.9c-1.6,0-2.9-1.3-2.9-2.9c0-1.6,1.3-2.9,2.9-2.9
							C260,435.8,261.3,437.1,261.3,438.7z"/>
						<path class="st2" d="M273.2,438.7c0,1.6-1.3,2.9-2.9,2.9c-1.6,0-2.9-1.3-2.9-2.9c0-1.6,1.3-2.9,2.9-2.9
							C271.9,435.8,273.2,437.1,273.2,438.7z"/>
						<path class="st2" d="M285.1,438.7c0,1.6-1.3,2.9-2.9,2.9c-1.6,0-2.9-1.3-2.9-2.9c0-1.6,1.3-2.9,2.9-2.9
							C283.8,435.8,285.1,437.1,285.1,438.7z"/>
						<path class="st2" d="M297,438.7c0,1.6-1.3,2.9-2.9,2.9c-1.6,0-2.9-1.3-2.9-2.9c0-1.6,1.3-2.9,2.9-2.9
							C295.7,435.8,297,437.1,297,438.7z"/>
						<path class="st2" d="M308.9,438.7c0,1.6-1.3,2.9-2.9,2.9c-1.6,0-2.9-1.3-2.9-2.9c0-1.6,1.3-2.9,2.9-2.9
							C307.6,435.8,308.9,437.1,308.9,438.7z"/>
						<path class="st2" d="M320.8,438.7c0,1.6-1.3,2.9-2.9,2.9c-1.6,0-2.9-1.3-2.9-2.9c0-1.6,1.3-2.9,2.9-2.9
							C319.5,435.8,320.8,437.1,320.8,438.7z"/>
						<path class="st2" d="M332.7,438.7c0,1.6-1.3,2.9-2.9,2.9c-1.6,0-2.9-1.3-2.9-2.9c0-1.6,1.3-2.9,2.9-2.9
							C331.4,435.8,332.7,437.1,332.7,438.7z"/>
						<path class="st2" d="M344.6,438.7c0,1.6-1.3,2.9-2.9,2.9c-1.6,0-2.9-1.3-2.9-2.9c0-1.6,1.3-2.9,2.9-2.9
							C343.3,435.8,344.6,437.1,344.6,438.7z"/>
						<path class="st2" d="M356.5,438.7c0,1.6-1.3,2.9-2.9,2.9c-1.6,0-2.9-1.3-2.9-2.9c0-1.6,1.3-2.9,2.9-2.9
							C355.2,435.8,356.5,437.1,356.5,438.7z"/>
						<path class="st2" d="M368.4,438.7c0,1.6-1.3,2.9-2.9,2.9c-1.6,0-2.9-1.3-2.9-2.9c0-1.6,1.3-2.9,2.9-2.9
							C367.1,435.8,368.4,437.1,368.4,438.7z"/>
						<path class="st2" d="M380.3,438.7c0,1.6-1.3,2.9-2.9,2.9c-1.6,0-2.9-1.3-2.9-2.9c0-1.6,1.3-2.9,2.9-2.9
							C379,435.8,380.3,437.1,380.3,438.7z"/>
						<path class="st2" d="M392.2,438.7c0,1.6-1.3,2.9-2.9,2.9c-1.6,0-2.9-1.3-2.9-2.9c0-1.6,1.3-2.9,2.9-2.9
							C390.9,435.8,392.2,437.1,392.2,438.7z"/>
					</g>
					<g>
						<path class="st2" d="M231.5,448.2c0,1.6-1.3,2.9-2.9,2.9c-1.6,0-2.9-1.3-2.9-2.9c0-1.6,1.3-2.9,2.9-2.9
							C230.2,445.3,231.5,446.6,231.5,448.2z"/>
						<path class="st2" d="M243.4,448.2c0,1.6-1.3,2.9-2.9,2.9c-1.6,0-2.9-1.3-2.9-2.9c0-1.6,1.3-2.9,2.9-2.9
							C242.1,445.3,243.4,446.6,243.4,448.2z"/>
						<path class="st2" d="M255.3,448.2c0,1.6-1.3,2.9-2.9,2.9c-1.6,0-2.9-1.3-2.9-2.9c0-1.6,1.3-2.9,2.9-2.9
							C254,445.3,255.3,446.6,255.3,448.2z"/>
						<path class="st2" d="M267.2,448.2c0,1.6-1.3,2.9-2.9,2.9c-1.6,0-2.9-1.3-2.9-2.9c0-1.6,1.3-2.9,2.9-2.9
							C265.9,445.3,267.2,446.6,267.2,448.2z"/>
						<path class="st2" d="M279.1,448.2c0,1.6-1.3,2.9-2.9,2.9c-1.6,0-2.9-1.3-2.9-2.9c0-1.6,1.3-2.9,2.9-2.9
							C277.8,445.3,279.1,446.6,279.1,448.2z"/>
						<path class="st2" d="M291,448.2c0,1.6-1.3,2.9-2.9,2.9c-1.6,0-2.9-1.3-2.9-2.9c0-1.6,1.3-2.9,2.9-2.9
							C289.7,445.3,291,446.6,291,448.2z"/>
						<path class="st2" d="M302.9,448.2c0,1.6-1.3,2.9-2.9,2.9c-1.6,0-2.9-1.3-2.9-2.9c0-1.6,1.3-2.9,2.9-2.9
							C301.6,445.3,302.9,446.6,302.9,448.2z"/>
						<path class="st2" d="M314.8,448.2c0,1.6-1.3,2.9-2.9,2.9c-1.6,0-2.9-1.3-2.9-2.9c0-1.6,1.3-2.9,2.9-2.9
							C313.5,445.3,314.8,446.6,314.8,448.2z"/>
						<path class="st2" d="M326.7,448.2c0,1.6-1.3,2.9-2.9,2.9c-1.6,0-2.9-1.3-2.9-2.9c0-1.6,1.3-2.9,2.9-2.9
							C325.4,445.3,326.7,446.6,326.7,448.2z"/>
						<path class="st2" d="M338.6,448.2c0,1.6-1.3,2.9-2.9,2.9c-1.6,0-2.9-1.3-2.9-2.9c0-1.6,1.3-2.9,2.9-2.9
							C337.3,445.3,338.6,446.6,338.6,448.2z"/>
						<path class="st2" d="M350.5,448.2c0,1.6-1.3,2.9-2.9,2.9c-1.6,0-2.9-1.3-2.9-2.9c0-1.6,1.3-2.9,2.9-2.9
							C349.2,445.3,350.5,446.6,350.5,448.2z"/>
						<path class="st2" d="M362.4,448.2c0,1.6-1.3,2.9-2.9,2.9c-1.6,0-2.9-1.3-2.9-2.9c0-1.6,1.3-2.9,2.9-2.9
							C361.1,445.3,362.4,446.6,362.4,448.2z"/>
						<path class="st2" d="M374.4,448.2c0,1.6-1.3,2.9-2.9,2.9c-1.6,0-2.9-1.3-2.9-2.9c0-1.6,1.3-2.9,2.9-2.9
							C373,445.3,374.4,446.6,374.4,448.2z"/>
						<path class="st2" d="M386.3,448.2c0,1.6-1.3,2.9-2.9,2.9c-1.6,0-2.9-1.3-2.9-2.9c0-1.6,1.3-2.9,2.9-2.9
							C384.9,445.3,386.3,446.6,386.3,448.2z"/>
					</g>
					<g>
						<path class="st2" d="M225.6,456.8c0,1.6-1.3,2.9-2.9,2.9c-1.6,0-2.9-1.3-2.9-2.9c0-1.6,1.3-2.9,2.9-2.9
							C224.3,453.9,225.6,455.2,225.6,456.8z"/>
						<path class="st2" d="M237.5,456.8c0,1.6-1.3,2.9-2.9,2.9c-1.6,0-2.9-1.3-2.9-2.9c0-1.6,1.3-2.9,2.9-2.9
							C236.2,453.9,237.5,455.2,237.5,456.8z"/>
						<path class="st2" d="M249.4,456.8c0,1.6-1.3,2.9-2.9,2.9c-1.6,0-2.9-1.3-2.9-2.9c0-1.6,1.3-2.9,2.9-2.9
							C248.1,453.9,249.4,455.2,249.4,456.8z"/>
						<path class="st2" d="M261.3,456.8c0,1.6-1.3,2.9-2.9,2.9c-1.6,0-2.9-1.3-2.9-2.9c0-1.6,1.3-2.9,2.9-2.9
							C260,453.9,261.3,455.2,261.3,456.8z"/>
						<path class="st2" d="M273.2,456.8c0,1.6-1.3,2.9-2.9,2.9c-1.6,0-2.9-1.3-2.9-2.9c0-1.6,1.3-2.9,2.9-2.9
							C271.9,453.9,273.2,455.2,273.2,456.8z"/>
						<path class="st2" d="M285.1,456.8c0,1.6-1.3,2.9-2.9,2.9c-1.6,0-2.9-1.3-2.9-2.9c0-1.6,1.3-2.9,2.9-2.9
							C283.8,453.9,285.1,455.2,285.1,456.8z"/>
						<path class="st2" d="M297,456.8c0,1.6-1.3,2.9-2.9,2.9c-1.6,0-2.9-1.3-2.9-2.9c0-1.6,1.3-2.9,2.9-2.9
							C295.7,453.9,297,455.2,297,456.8z"/>
						<path class="st2" d="M308.9,456.8c0,1.6-1.3,2.9-2.9,2.9c-1.6,0-2.9-1.3-2.9-2.9c0-1.6,1.3-2.9,2.9-2.9
							C307.6,453.9,308.9,455.2,308.9,456.8z"/>
						<path class="st2" d="M320.8,456.8c0,1.6-1.3,2.9-2.9,2.9c-1.6,0-2.9-1.3-2.9-2.9c0-1.6,1.3-2.9,2.9-2.9
							C319.5,453.9,320.8,455.2,320.8,456.8z"/>
						<path class="st2" d="M332.7,456.8c0,1.6-1.3,2.9-2.9,2.9c-1.6,0-2.9-1.3-2.9-2.9c0-1.6,1.3-2.9,2.9-2.9
							C331.4,453.9,332.7,455.2,332.7,456.8z"/>
						<path class="st2" d="M344.6,456.8c0,1.6-1.3,2.9-2.9,2.9c-1.6,0-2.9-1.3-2.9-2.9c0-1.6,1.3-2.9,2.9-2.9
							C343.3,453.9,344.6,455.2,344.6,456.8z"/>
						<path class="st2" d="M356.5,456.8c0,1.6-1.3,2.9-2.9,2.9c-1.6,0-2.9-1.3-2.9-2.9c0-1.6,1.3-2.9,2.9-2.9
							C355.2,453.9,356.5,455.2,356.5,456.8z"/>
						<path class="st2" d="M368.4,456.8c0,1.6-1.3,2.9-2.9,2.9c-1.6,0-2.9-1.3-2.9-2.9c0-1.6,1.3-2.9,2.9-2.9
							C367.1,453.9,368.4,455.2,368.4,456.8z"/>
						<path class="st2" d="M380.3,456.8c0,1.6-1.3,2.9-2.9,2.9c-1.6,0-2.9-1.3-2.9-2.9c0-1.6,1.3-2.9,2.9-2.9
							C379,453.9,380.3,455.2,380.3,456.8z"/>
						<path class="st2" d="M392.2,456.8c0,1.6-1.3,2.9-2.9,2.9c-1.6,0-2.9-1.3-2.9-2.9c0-1.6,1.3-2.9,2.9-2.9
							C390.9,453.9,392.2,455.2,392.2,456.8z"/>
					</g>
					<g>
						<path class="st2" d="M231.5,466.3c0,1.6-1.3,2.9-2.9,2.9c-1.6,0-2.9-1.3-2.9-2.9c0-1.6,1.3-2.9,2.9-2.9
							C230.2,463.4,231.5,464.7,231.5,466.3z"/>
						<path class="st2" d="M243.4,466.3c0,1.6-1.3,2.9-2.9,2.9c-1.6,0-2.9-1.3-2.9-2.9c0-1.6,1.3-2.9,2.9-2.9
							C242.1,463.4,243.4,464.7,243.4,466.3z"/>
						<path class="st2" d="M255.3,466.3c0,1.6-1.3,2.9-2.9,2.9c-1.6,0-2.9-1.3-2.9-2.9c0-1.6,1.3-2.9,2.9-2.9
							C254,463.4,255.3,464.7,255.3,466.3z"/>
						<path class="st2" d="M267.2,466.3c0,1.6-1.3,2.9-2.9,2.9c-1.6,0-2.9-1.3-2.9-2.9c0-1.6,1.3-2.9,2.9-2.9
							C265.9,463.4,267.2,464.7,267.2,466.3z"/>
						<path class="st2" d="M279.1,466.3c0,1.6-1.3,2.9-2.9,2.9c-1.6,0-2.9-1.3-2.9-2.9c0-1.6,1.3-2.9,2.9-2.9
							C277.8,463.4,279.1,464.7,279.1,466.3z"/>
						<path class="st2" d="M291,466.3c0,1.6-1.3,2.9-2.9,2.9c-1.6,0-2.9-1.3-2.9-2.9c0-1.6,1.3-2.9,2.9-2.9
							C289.7,463.4,291,464.7,291,466.3z"/>
						<path class="st2" d="M302.9,466.3c0,1.6-1.3,2.9-2.9,2.9c-1.6,0-2.9-1.3-2.9-2.9c0-1.6,1.3-2.9,2.9-2.9
							C301.6,463.4,302.9,464.7,302.9,466.3z"/>
						<path class="st2" d="M314.8,466.3c0,1.6-1.3,2.9-2.9,2.9c-1.6,0-2.9-1.3-2.9-2.9c0-1.6,1.3-2.9,2.9-2.9
							C313.5,463.4,314.8,464.7,314.8,466.3z"/>
						<path class="st2" d="M326.7,466.3c0,1.6-1.3,2.9-2.9,2.9c-1.6,0-2.9-1.3-2.9-2.9c0-1.6,1.3-2.9,2.9-2.9
							C325.4,463.4,326.7,464.7,326.7,466.3z"/>
						<path class="st2" d="M338.6,466.3c0,1.6-1.3,2.9-2.9,2.9c-1.6,0-2.9-1.3-2.9-2.9c0-1.6,1.3-2.9,2.9-2.9
							C337.3,463.4,338.6,464.7,338.6,466.3z"/>
						<path class="st2" d="M350.5,466.3c0,1.6-1.3,2.9-2.9,2.9c-1.6,0-2.9-1.3-2.9-2.9c0-1.6,1.3-2.9,2.9-2.9
							C349.2,463.4,350.5,464.7,350.5,466.3z"/>
						<path class="st2" d="M362.4,466.3c0,1.6-1.3,2.9-2.9,2.9c-1.6,0-2.9-1.3-2.9-2.9c0-1.6,1.3-2.9,2.9-2.9
							C361.1,463.4,362.4,464.7,362.4,466.3z"/>
						<path class="st2" d="M374.4,466.3c0,1.6-1.3,2.9-2.9,2.9c-1.6,0-2.9-1.3-2.9-2.9c0-1.6,1.3-2.9,2.9-2.9
							C373,463.4,374.4,464.7,374.4,466.3z"/>
						<path class="st2" d="M386.3,466.3c0,1.6-1.3,2.9-2.9,2.9c-1.6,0-2.9-1.3-2.9-2.9c0-1.6,1.3-2.9,2.9-2.9
							C384.9,463.4,386.3,464.7,386.3,466.3z"/>
					</g>
					<g>
						<path class="st2" d="M225.6,474.9c0,1.6-1.3,2.9-2.9,2.9c-1.6,0-2.9-1.3-2.9-2.9c0-1.6,1.3-2.9,2.9-2.9
							C224.3,472,225.6,473.3,225.6,474.9z"/>
						<path class="st2" d="M237.5,474.9c0,1.6-1.3,2.9-2.9,2.9c-1.6,0-2.9-1.3-2.9-2.9c0-1.6,1.3-2.9,2.9-2.9
							C236.2,472,237.5,473.3,237.5,474.9z"/>
						<path class="st2" d="M249.4,474.9c0,1.6-1.3,2.9-2.9,2.9c-1.6,0-2.9-1.3-2.9-2.9c0-1.6,1.3-2.9,2.9-2.9
							C248.1,472,249.4,473.3,249.4,474.9z"/>
						<path class="st2" d="M261.3,474.9c0,1.6-1.3,2.9-2.9,2.9c-1.6,0-2.9-1.3-2.9-2.9c0-1.6,1.3-2.9,2.9-2.9
							C260,472,261.3,473.3,261.3,474.9z"/>
						<path class="st2" d="M273.2,474.9c0,1.6-1.3,2.9-2.9,2.9c-1.6,0-2.9-1.3-2.9-2.9c0-1.6,1.3-2.9,2.9-2.9
							C271.9,472,273.2,473.3,273.2,474.9z"/>
						<path class="st2" d="M285.1,474.9c0,1.6-1.3,2.9-2.9,2.9c-1.6,0-2.9-1.3-2.9-2.9c0-1.6,1.3-2.9,2.9-2.9
							C283.8,472,285.1,473.3,285.1,474.9z"/>
						<path class="st2" d="M297,474.9c0,1.6-1.3,2.9-2.9,2.9c-1.6,0-2.9-1.3-2.9-2.9c0-1.6,1.3-2.9,2.9-2.9
							C295.7,472,297,473.3,297,474.9z"/>
						<path class="st2" d="M308.9,474.9c0,1.6-1.3,2.9-2.9,2.9c-1.6,0-2.9-1.3-2.9-2.9c0-1.6,1.3-2.9,2.9-2.9
							C307.6,472,308.9,473.3,308.9,474.9z"/>
						<path class="st2" d="M320.8,474.9c0,1.6-1.3,2.9-2.9,2.9c-1.6,0-2.9-1.3-2.9-2.9c0-1.6,1.3-2.9,2.9-2.9
							C319.5,472,320.8,473.3,320.8,474.9z"/>
						<path class="st2" d="M332.7,474.9c0,1.6-1.3,2.9-2.9,2.9c-1.6,0-2.9-1.3-2.9-2.9c0-1.6,1.3-2.9,2.9-2.9
							C331.4,472,332.7,473.3,332.7,474.9z"/>
						<path class="st2" d="M344.6,474.9c0,1.6-1.3,2.9-2.9,2.9c-1.6,0-2.9-1.3-2.9-2.9c0-1.6,1.3-2.9,2.9-2.9
							C343.3,472,344.6,473.3,344.6,474.9z"/>
						<path class="st2" d="M356.5,474.9c0,1.6-1.3,2.9-2.9,2.9c-1.6,0-2.9-1.3-2.9-2.9c0-1.6,1.3-2.9,2.9-2.9
							C355.2,472,356.5,473.3,356.5,474.9z"/>
						<path class="st2" d="M368.4,474.9c0,1.6-1.3,2.9-2.9,2.9c-1.6,0-2.9-1.3-2.9-2.9c0-1.6,1.3-2.9,2.9-2.9
							C367.1,472,368.4,473.3,368.4,474.9z"/>
						<path class="st2" d="M380.3,474.9c0,1.6-1.3,2.9-2.9,2.9c-1.6,0-2.9-1.3-2.9-2.9c0-1.6,1.3-2.9,2.9-2.9
							C379,472,380.3,473.3,380.3,474.9z"/>
						<path class="st2" d="M392.2,474.9c0,1.6-1.3,2.9-2.9,2.9c-1.6,0-2.9-1.3-2.9-2.9c0-1.6,1.3-2.9,2.9-2.9
							C390.9,472,392.2,473.3,392.2,474.9z"/>
					</g>
				</g>
			</g>
			<g>
				<path class="st3" d="M440,380.1c-2.3-5.6-9.4-10.1-21.6-13.9c-9.5-2.9-20.1-4.7-29.8-5c-7.5-0.3-14.2,0.3-19.8,1.7
					c-8.2,2-16.5,5.4-23.2,9.5c-8.7,5.3-13.7,12.3-14.7,20.7c-0.7,5.5-0.2,11.2,1.6,17.9c2,7.5,4,16.3,4,16.4l0.2,1
					c0.2,0.8,0.6,1.5,1.3,1.9l0.8,0.6c1.1,0.7,10.9,7.1,22.2,7.8c0.3,0,0.5,0,0.8,0c0.3,0,0.6,0,0.9,0c5,0,8.8-1.2,11.4-3.7
					c0.4-0.4,0.8-0.8,1.1-1.3c5.4-0.6,11.7-2.1,14.5-6c1.1-1.5,1.8-3.2,2.1-5c9-0.5,14.8-2.5,17.4-6c1.4-1.9,2.1-4.1,2-6.3
					c3.8-0.8,8.2-2.3,11.7-5.3c3.7-3.3,3.8-6.9,3.5-8.8c-0.1-0.4-0.1-0.8-0.2-1.2c7.2-0.9,11.6-2.9,13.5-6.3
					C441,386.1,441.1,383,440,380.1z"/>
				<path class="st3" d="M281,392.7c-0.9-8.4-5.7-15.5-14.4-21c-6.7-4.2-14.9-7.8-23-9.9c-5.6-1.5-12.3-2.2-19.8-2
					c-9.7,0.2-20.3,1.8-29.8,4.5c-12.3,3.5-19.5,7.9-21.8,13.5c-1.2,2.9-1.1,6,0.3,8.7c1.8,3.4,6.2,5.5,13.3,6.5
					c-0.1,0.4-0.2,0.8-0.3,1.2c-0.3,1.9-0.3,5.5,3.4,8.8c3.4,3.1,7.7,4.7,11.6,5.5c-0.1,2.2,0.5,4.5,1.9,6.4
					c2.5,3.5,8.3,5.7,17.3,6.3c0.3,1.8,0.9,3.5,2,5.1c2.7,3.9,9,5.5,14.4,6.2c0.3,0.4,0.7,0.9,1.1,1.3c2.5,2.6,6.3,3.9,11.3,3.9
					c0.3,0,0.6,0,0.9,0c0.3,0,0.5,0,0.8,0c11.3-0.5,21.2-6.7,22.3-7.4l0.8-0.5c0.7-0.4,1.1-1.1,1.3-1.9l0.2-1
					c0-0.1,2.2-8.9,4.3-16.4C280.9,404,281.5,398.3,281,392.7z"/>
				<path class="st0" d="M417.5,369.2c-9.3-2.8-19.5-4.5-29-4.9c-7.2-0.3-13.6,0.3-18.9,1.6c-7.9,1.9-15.8,5.2-22.3,9.2
					c-7.9,4.8-12.3,11-13.3,18.5c-0.6,5.1-0.2,10.4,1.5,16.7c2,7.6,4,16.5,4,16.6l0.2,1l0.8,0.6c0.4,0.3,9.9,6.6,20.7,7.2
					c0.2,0,0.5,0,0.7,0l0,0c4.6,0.2,7.9-0.8,10-2.8c0.7-0.7,1.1-1.4,1.4-2c4-0.3,11.3-1.4,13.8-4.8c1.5-2.1,1.8-4.3,1.6-6.2
					c5.7-0.1,15-0.9,17.9-4.9c1.2-1.6,1.6-3.4,1.3-5.2c-0.1-0.7-0.3-1.3-0.6-1.9c4.1-0.4,9.5-1.7,13.4-5.1c2.5-2.2,2.7-4.5,2.5-6
					c-0.2-1.6-1.1-3.1-2.2-4.3c6.7-0.3,13.8-1.5,15.8-5.1c1.1-1.9,1.2-4,0.3-6C435.2,376.7,428.6,372.6,417.5,369.2z M352.2,428.6
					c1-1.6,2-3.8,1.8-6.1c0,0,1.2,0.4,2.9,0.6c0.9,0.9,2.6,2.4,4.8,3.6c3.6,1.9,6.2,3,6.2,3S363.9,433.9,352.2,428.6z M383.3,418.5
					c0,0,1.1,2.2,0,4.2c-2.2,0.1-6.3-0.1-12.8-1.5c0,0,2.7,2.1,11.2,3c-2.1,1.1-5.6,1.3-7.4,1.6c-5,0.6-9.3-1-13.8-2.7
					c2.1-0.3,4.5-1.1,6.7-2.8c3.2-2.5,3.8-4.8,3.9-6.2C376.1,417.5,381.1,418.3,383.3,418.5L383.3,418.5z M403,410.6
					c0.1,0.7,0,1.2-0.3,1.7c-3.2-0.2-8.9-0.8-17.5-2.7c0,0,8.1,3.3,16,3.9c-3.7,1.8-11.9,1.4-13.9,1.3c-2.7-0.1-5.5-0.2-8.2-0.6
					c-0.5-0.1-5.8-0.9-7.9-1.5c0,0,0,0,0,0s5.2,1.6,10.3-3.7c2.4-2.5,2.9-4.6,2.8-6.1c2.8,1.5,6,2.4,9,3.3c3.6,1.1,8.8,2,8.8,2
					S402.8,409.5,403,410.6z M402.3,403c-3.8-0.1-7.7-0.2-11.4-1c-1.7-0.4-5-1.3-6.3-1.7c2.2-0.3,6.6-1.5,9.5-6.1
					c1.4-2.3,1.2-4.5,0.4-6.4c1.9,0.5,7.5,2,9.3,2.3c3.6,0.6,7.6,1.3,10.9,3.1c2.3,1.3,3.1,2.9,2.7,4.4c-4.2,0.4-12.4,0.8-20.6-1.2
					c0,0,9.6,3.7,19.4,3.2c-0.6,0.6-1.3,1.1-2.3,1.5C410.5,402.7,406.2,403.2,402.3,403z M421.9,387.3c-6.7,0.4-13.5,0.6-20.1-0.2
					c-0.6-0.1-6.2-0.6-8.6-1.4c-1.1-1.5-2.4-2.6-3.1-3.1c1.3-5.2-8.7-10.7-8.7-10.7s8.1,6.3,5.3,10.9c-2.7,4.7-16,2.8-16,2.8
					s12.5,4.7,8.3,10.1c-4.3,5.4-15.6,2.6-15.6,2.6s8,3.1,3.7,7.1c-4.3,4.1-12.3,0.2-12.3,0.2s4.9,4.3,1,7.7c-3.5,3-6.5,1.9-6.5,1.9
					s2,1.3,6,0.2c6.3-1.8,3.3-6.8,3.3-6.8s4.7,1.6,8.8-0.9c5.1-3.1,2.1-6.9,2.1-6.9s6.5,0.7,10.8-3.7c4.3-4.3-1.1-9-1.1-9
					s7.6,0.7,10.4-4.7c0.1-0.2,0.2-0.4,0.3-0.7c0.8,0.6,4.8,3.8,2.2,9.9c-2.5,5.9-11.7,6.5-11.7,6.5s3.5,3.8-0.5,8.5
					c-4.1,4.7-11,4.1-11,4.1s0.7,3.1-3.4,7.3c-4,4.2-13.6,1-13.6,1c0.5,3-0.9,5.7-2.2,7.4c-2.3-0.8-5.5-2-5.7-3
					c-0.6-2.6-2.2-9.6-3.8-15.7c-1.5-5.6-1.9-10.3-1.4-14.8c0.7-5.9,4.4-10.8,10.9-14.8c6.1-3.7,13.5-6.8,20.9-8.6
					c4.9-1.2,10.8-1.7,17.6-1.4c9,0.3,18.9,2,27.7,4.7c9.2,2.8,13.3,5.5,15.1,7.3c-23-5.2-36.4-3.2-36.4-3.2
					c14.5,1.6,31.6,5.2,37.8,6.6c0,0.1-0.1,0.1-0.1,0.2C431.1,387.3,424.1,387.2,421.9,387.3z"/>
				<path class="st0" d="M175,379c-0.9,2-0.8,4.1,0.2,6c1.9,3.6,9,4.9,15.7,5.3c-1.1,1.2-2,2.7-2.3,4.3c-0.2,1.5,0,3.8,2.4,6.1
					c3.8,3.5,9.2,4.8,13.3,5.3c-0.3,0.6-0.5,1.2-0.7,1.9c-0.4,1.8,0,3.6,1.2,5.2c2.8,4,12.1,5,17.8,5.2c-0.2,1.9,0.1,4.1,1.5,6.2
					c2.4,3.5,9.7,4.7,13.7,5.1c0.3,0.6,0.7,1.3,1.4,2c2,2.1,5.4,3.1,9.9,3l0,0c0.2,0,0.5,0,0.7,0c10.7-0.5,20.4-6.6,20.8-6.9
					l0.8-0.5l0.2-1c0-0.1,2.2-9,4.3-16.5c1.8-6.2,2.4-11.5,1.8-16.7c-0.8-7.5-5.1-13.8-12.9-18.7c-6.4-4.1-14.3-7.5-22.2-9.5
					c-5.3-1.4-11.7-2.1-18.9-1.9c-9.4,0.2-19.8,1.8-29.1,4.4C183.6,370.5,176.9,374.4,175,379z M243.2,428.5c0,0,2.6-1,6.3-2.9
					c2.2-1.2,3.9-2.6,4.8-3.5c1.8-0.1,2.9-0.5,2.9-0.5c-0.3,2.3,0.7,4.5,1.7,6.1C247.2,432.9,243.2,428.5,243.2,428.5z M228.1,417.1
					c2.2-0.1,7.2-0.8,12.1-4.3c0,1.4,0.6,3.8,3.8,6.3c2.2,1.8,4.5,2.6,6.6,2.9c-4.5,1.7-8.8,3.2-13.8,2.5c-1.8-0.3-5.3-0.5-7.3-1.7
					c8.6-0.8,11.3-2.8,11.3-2.8c-6.5,1.3-10.6,1.4-12.8,1.3C226.9,419.3,228.1,417.1,228.1,417.1L228.1,417.1z M209.6,406.5
					c0,0,5.2-0.8,8.9-1.9c3.1-0.9,6.2-1.7,9.1-3.2c-0.1,1.5,0.3,3.6,2.6,6.2c5.1,5.4,10.3,3.9,10.3,3.9s0,0,0,0
					c-2.2,0.6-7.5,1.3-8,1.4c-2.7,0.4-5.5,0.5-8.2,0.5c-2,0-10.2,0.3-13.9-1.6c7.9-0.4,16.1-3.6,16.1-3.6
					c-8.7,1.7-14.3,2.2-17.6,2.4c-0.3-0.5-0.4-1-0.3-1.7C208.8,407.8,209.6,406.5,209.6,406.5z M197.7,399.2c-0.9-0.4-1.7-1-2.2-1.6
					c9.7,0.7,19.4-2.9,19.4-2.9c-8.2,1.8-16.4,1.3-20.6,0.8c-0.3-1.6,0.5-3.2,2.8-4.4c3.3-1.7,7.3-2.4,11-2.9
					c1.8-0.2,7.5-1.7,9.4-2.1c-0.9,1.9-1.1,4.1,0.3,6.4c2.8,4.6,7.2,5.9,9.4,6.3c-1.4,0.4-4.7,1.3-6.4,1.6
					c-3.7,0.8-7.6,0.8-11.4,0.8C205.5,401.4,201.2,400.9,197.7,399.2z M179.6,382.7c0-0.1-0.1-0.2-0.1-0.2
					c6.2-1.2,23.4-4.5,37.9-5.9c0,0-13.3-2.2-36.5,2.5c1.9-1.8,6-4.4,15.2-7c8.9-2.5,18.8-4,27.8-4.2c6.7-0.1,12.6,0.4,17.5,1.7
					c7.4,1.9,14.8,5.1,20.8,8.9c6.4,4.1,10,9.2,10.7,15c0.5,4.5-0.1,9.2-1.7,14.8c-1.7,6.1-3.5,13.1-4.1,15.7
					c-0.2,0.9-3.4,2.1-5.7,2.9c-1.3-1.8-2.7-4.5-2.1-7.5c0,0-9.6,3-13.6-1.3c-4-4.2-3.3-7.4-3.3-7.4s-7,0.5-11-4.3
					c-4-4.8-0.4-8.5-0.4-8.5s-9.2-0.8-11.6-6.7c-2.5-6.1,1.5-9.3,2.4-9.9c0.1,0.2,0.1,0.4,0.3,0.7c2.8,5.5,10.3,4.9,10.3,4.9
					s-5.5,4.6-1.3,9c4.2,4.4,10.7,3.9,10.7,3.9s-3,3.7,2,6.9c4.1,2.6,8.8,1.1,8.8,1.1s-3,5,3.2,6.9c4,1.2,6-0.1,6-0.1s-3,1.1-6.4-2
					c-3.8-3.4,1.1-7.7,1.1-7.7s-8.1,3.7-12.3-0.4c-4.2-4.1,3.8-7.1,3.8-7.1s-11.4,2.6-15.6-2.9c-4.1-5.4,8.4-9.9,8.4-9.9
					s-13.3,1.6-15.9-3.1c-2.7-4.7,5.5-10.9,5.5-10.9s-10.1,5.3-8.8,10.6c-0.7,0.5-2,1.6-3.1,3c-2.4,0.7-8,1.2-8.6,1.3
					c-6.7,0.7-13.5,0.4-20.1-0.1C187.9,385.1,180.9,385.1,179.6,382.7z"/>
				<path class="st3" d="M357.9,391.1c-1.7-12.2-11.9-21.9-24.2-23c-0.9-0.1-1.9-0.1-2.8-0.1c-12.7-0.1-20.7,6.7-24.8,11.8
					c-4.1-5.1-11.9-12.1-24.6-12.2c-0.9,0-1.8,0-2.8,0.1c-12.3,0.9-22.6,10.3-24.6,22.6c-1.2,7.6-1.2,33.8,49.7,54.7
					c0.2,0.1,0.3,0.2,0.5,0.2c0.4,0.1,0.8,0.2,1.1,0.2c0.3,0,0.6,0,0.8-0.1c0.3-0.1,0.5-0.1,0.8-0.3
					C358.5,424.9,359,398.6,357.9,391.1z"/>
			</g>
			<path id="change4" class="st4" d="M333.4,371.9c-19.1-1.7-27.1,14.4-27.3,14.8c-0.2-0.4-8-16.6-27-15.3
				c-23.9,1.7-41.5,42.1,26.6,69.8l0,0c0,0,0,0,0,0c0,0,0,0,0,0l0,0C374.1,414.8,357.3,374,333.4,371.9z"/>
		</g>
	</g>
	<g>
		<path class="st0" d="M241.2,350l-11.5-8.1l-0.4,0.5l0.1,0.1c0.4,0.5,0.7,1.2,0.7,1.9c0,0.9-0.3,1.7-0.8,2.6l-0.1,0.2l0.5,0.4
			l0.6-0.9l8.8,6.2l-0.7,1l0.5,0.4l3.5-4.9L242,349L241.2,350z"/>
		<path class="st0" d="M249.7,340.2l-2.7-2.6l1.5-1.5l-0.5-0.5l-1.5,1.5l-6.6-6.3l-0.1-0.1l-1.2,1.2l2.5,11l0,0.1l0.4,0.4l3.1-3.3
			l2.7,2.6l-1,1l0.5,0.5l4.2-4.5l-0.5-0.4L249.7,340.2z M241.7,342.3l-1.5-6.4l4,3.8L241.7,342.3z"/>
		<path class="st0" d="M263.4,322.3c1.1-0.5,1.9-0.3,2.6,0.8l0.1,0.2l0.6-0.3l-2.5-4.3l-0.6,0.3l0.1,0.2c0.5,1,0.2,1.8-0.7,2.5
			c-0.2,0.2-0.7,0.5-1,0.7l-0.6,0.3l-3.1-5.3l0.8-0.5c0.9-0.5,1.8-1,2.6-1.1l0.1,0c0.8,0,1.5,0.5,2.2,1.4l0.1,0.1l0.6-0.3l-1.9-3.2
			l-9,5.3l0.3,0.6l1-0.6l6.6,11.3l-1,0.6l0.3,0.6l5.2-3.1L266,328l-1.1,0.7l-3.2-5.4l0.5-0.3C262.6,322.7,263,322.4,263.4,322.3z"/>
		<path class="st0" d="M282,317l0.1,0.2c0.4,1.3,0.3,2.3-0.2,3c-0.5,0.7-1.6,1.2-2.4,1.5l-1.5,0.5l-2.1-5.9l0.7-0.2
			c0.4-0.2,1-0.4,1.4-0.4c1.2-0.3,1.9,0.1,2.4,1.3l0.1,0.2l0.6-0.2l-1.7-4.7l-0.6,0.2l0,0.2c0.3,1-0.1,1.8-1.2,2.3
			c-0.2,0.1-0.8,0.3-1.3,0.5l-0.7,0.3l-2.1-5.8l1-0.4c0.9-0.3,2-0.7,2.7-0.6c0.8,0.1,1.4,0.7,2,1.8l0.1,0.2l0.6-0.2l-1.2-3.4
			l-9.9,3.6l0.2,0.6l1.1-0.4l4.4,12.3l-1.1,0.4l0.2,0.6l10.3-3.7l-1.4-4L282,317z"/>
		<path class="st0" d="M298.6,310.8c-0.6-0.3-1.3-0.5-2.1-0.6c0.3-0.2,0.6-0.4,0.9-0.6c0.7-0.7,1.1-1.6,0.9-2.7
			c-0.2-1.2-0.9-2.1-2-2.4c-0.9-0.3-2-0.3-3.5-0.1c-0.6,0.1-1.1,0.2-1.5,0.3c-0.4,0.1-0.9,0.2-1.4,0.2l-3.2,0.5l0.1,0.7l1.2-0.2
			l1.8,13l-1.2,0.2l0.1,0.7l3.3-0.5c0.2,0,0.5-0.1,0.7-0.1c0.2,0,0.5,0,0.7-0.1c0.1,0,0.3,0,0.4,0c0.1,0,0.2,0,0.4,0
			c0.3,0,0.6-0.1,0.9-0.1c2-0.3,3.4-0.8,4.3-1.5c1.1-0.9,1.6-2.1,1.4-3.6C300.5,312.4,299.8,311.4,298.6,310.8z M293.5,305.3
			c0.7,0.3,1.1,0.9,1.2,2c0.1,1-0.1,1.9-0.6,2.5c-0.5,0.5-1.1,0.8-1.9,0.9l-0.7-5.3C292.3,305.1,293,305.1,293.5,305.3z
			 M295.3,311.5c0.9,0.4,1.5,1.3,1.7,2.6c0.2,1.4-0.1,2.5-0.8,3.2c-0.6,0.6-1.6,1-2.9,1l-1-7C293.5,311.1,294.5,311.2,295.3,311.5z"
			/>
		<path class="st0" d="M318.1,316.6c-0.1,0-0.1,0.1-0.1,0.2c0,0,0,0.1-0.1,0.1c-0.1,0.1-0.2,0.2-0.4,0.2c0,0,0,0,0,0
			c-0.3,0-0.4-0.2-0.5-0.5c-0.1-0.4-0.1-1,0-1.8c0.1-1.1-0.1-2-0.6-2.6c-0.4-0.5-1-0.9-1.8-1.1c0.6-0.1,1.2-0.4,1.6-0.7
			c0.9-0.6,1.4-1.5,1.5-2.6c0.1-1.4-0.5-2.5-1.7-3.3c-1.3-0.8-2.9-1-3.3-1c-0.6,0-1.1-0.1-1.6-0.1c-0.4,0-0.9,0-1.4,0l-3.4-0.2
			l0,0.7l1.2,0.1l-0.9,13l-1.2-0.1l0,0.7l6,0.4l0-0.7l-1.2-0.1l0.4-6c1.1,0.1,1.9,0.2,2.3,0.7c0.4,0.5,0.5,1.4,0.4,3.3
			c-0.1,2.1,0.7,3.3,2.6,3.4c0.1,0,0.2,0,0.3,0c0.8,0,1.4-0.3,1.7-0.6c0.5-0.4,0.7-0.8,0.8-1.1l0-0.2L318.1,316.6L318.1,316.6z
			 M314.1,307.4c-0.2,2.3-1.3,3.3-3.5,3.2l0.4-6.4c1,0,1.8,0.2,2.2,0.6C314,305.3,314.2,306.2,314.1,307.4z"/>
		<path class="st0" d="M340.1,310.2l0.2-0.6l-3-0.9l-0.2,0.6l1.1,0.3l-2.3,7.7c-0.5,1.6-1.1,2.6-2.1,3.3c-1,0.7-2.3,0.9-3.6,0.5
			c-1-0.3-1.4-1-1.4-2.1c0-1.1,0.4-2.4,0.8-3.8l2.3-7.6l1.1,0.3l0.2-0.6l-5.8-1.7l-0.2,0.6l1.1,0.3l-1.9,6.4
			c-0.4,1.2-0.7,2.4-0.8,3.5c-0.1,1.2,0.1,2.2,0.7,3c0.7,1,1.9,1.7,3.6,2.2c0.6,0.2,1.2,0.3,1.7,0.3c0.9,0,1.8-0.3,2.6-0.8
			c1.4-1,2-2.3,2.5-4.1l2.2-7.3L340.1,310.2z"/>
		<path class="st0" d="M351.4,314.5l-12.5,9.4l-1-0.5l-0.3,0.6l2.7,1.4l0.3-0.6l-1-0.5l4.1-3.1l3.6,1.9l-0.6,5l-1-0.5l-0.3,0.6
			l5.4,2.9l0.3-0.6l-1-0.5l1.8-15.1L351.4,314.5z M347.9,318l-0.5,4.4l-3.1-1.7L347.9,318z"/>
		<path class="st0" d="M369.4,332.7c0.9-1,1.1-2.3,0.6-3.7c-0.6-1.4-1.7-2.5-2-2.8c-0.4-0.4-0.9-0.7-1.2-1c-0.3-0.2-0.7-0.5-1.1-0.8
			l-2.6-2.2l-0.4,0.5l0.9,0.8l-8.5,9.9l-0.9-0.8l-0.4,0.5l4.5,3.9l0.4-0.5l-0.9-0.8l3.9-4.6c0.8,0.7,1.4,1.3,1.4,1.9
			c0,0.6-0.4,1.5-1.6,2.9c-0.7,0.8-1,1.5-1,2.2c0,0.7,0.3,1.5,1.1,2.1c0.7,0.6,1.4,0.8,1.9,0.8h0.1c0.6,0,1-0.3,1.3-0.5l0.1-0.1
			l-0.3-0.5l-0.1,0c-0.1,0-0.1,0-0.2,0.1c0,0-0.1,0-0.1,0c-0.2,0-0.3,0-0.4-0.1c-0.2-0.2-0.2-0.4-0.1-0.7c0.1-0.3,0.5-0.8,1-1.5
			c0.7-0.9,1.1-1.7,1.1-2.5c0-0.7-0.3-1.3-0.8-2c0.6,0.3,1.2,0.4,1.7,0.4C367.7,333.9,368.7,333.5,369.4,332.7z M366.8,330.2
			c-0.8,0.9-1.7,1.4-2.5,1.4h0c-0.7,0-1.4-0.3-2.2-0.9l4.2-4.8c0.8,0.6,1.3,1.2,1.4,1.8C367.9,328.4,367.6,329.2,366.8,330.2z
			 M363.4,340.8L363.4,340.8L363.4,340.8L363.4,340.8z"/>
		<polygon class="st0" points="383.2,342.9 382.6,343.3 383.3,344.2 376.9,345.1 379.3,339.1 380,339.9 380.5,339.5 376.6,334.5
			376.1,334.9 376.8,335.8 373.8,343.4 369,347.1 368.3,346.2 367.8,346.6 371.4,351.3 372,350.9 371.2,350 376.5,345.8
			383.8,344.8 384.5,345.7 385,345.3 		"/>
	</g>
	<g>
		<polygon class="st0" points="237.4,446.2 238.1,447.2 238.7,446.8 235.5,441.7 234.9,442.1 235.5,443.1 230.2,446.5 227.7,442.6
			233,439.2 233.7,440.2 234.3,439.9 231,434.8 230.5,435.2 231.1,436.2 220.1,443.2 219.4,442.2 218.9,442.5 222.1,447.6
			222.6,447.2 222,446.2 227.2,442.9 229.6,446.8 224.5,450.1 223.8,449.1 223.3,449.5 226.4,454.4 226.5,454.5 227,454.2
			226.4,453.2 		"/>
		<path class="st0" d="M244.3,452.4l-0.4-0.4l-14.9,4.6l-0.8-0.9l-0.5,0.4l2,2.3l0.5-0.5l-0.7-0.8l4.9-1.5l2.7,3l-2.2,4.5l-0.7-0.8
			l-0.5,0.4l4.1,4.5l0.5-0.4l-0.8-0.9L244.3,452.4z M239.4,454.2l-1.9,3.9l-2.4-2.6L239.4,454.2z"/>
		<path class="st0" d="M254.8,468.4c0.7-0.8,1-1.8,1-2.8c0-0.8-0.3-1.6-0.9-2.5c-0.4-0.6-1-1.3-1.5-1.7c-0.4-0.3-0.8-0.6-1.2-0.9
			c-0.4-0.3-0.8-0.6-1.1-0.8l-2.6-2.1l-0.4,0.5l0.9,0.8l-8.2,10.2l-0.9-0.8l-0.4,0.5l4.7,3.8l0.4-0.5l-0.9-0.8l2.7-3.4
			c0.9,0.9,2.3,2,4,2.3C252,470.6,253.5,470,254.8,468.4z M251.9,466.1c-0.9,1.1-1.7,1.7-2.5,2c-0.9,0.3-1.8,0-2.7-0.7l5.1-6.3
			c0.7,0.5,1.1,1.2,1.2,1.9C253.2,463.9,252.8,465,251.9,466.1z"/>
		<path class="st0" d="M265,469.7c-0.5-0.6-1.1-1.1-1.7-1.5c-0.4-0.2-0.8-0.5-1.3-0.7c-0.5-0.3-0.9-0.5-1.3-0.7l-2.9-1.7l-0.4,0.6
			l1,0.6l-6.7,11.2l-1-0.6l-0.3,0.6l5.2,3.1l0.3-0.6l-1-0.6l2.2-3.7c1.1,0.8,2.6,1.6,4.2,1.8c0.1,0,0.2,0,0.3,0c1.6,0,3-0.8,3.9-2.5
			c0.6-0.9,0.7-1.9,0.5-2.9C266,471.2,265.6,470.4,265,469.7z M262.5,473.1c-0.7,1.2-1.4,2-2.2,2.3c-0.3,0.2-0.7,0.2-1,0.2
			c-0.5,0-1.1-0.2-1.7-0.6l4.1-6.9c0.7,0.4,1.3,1,1.5,1.7C263.4,470.8,263.2,471.9,262.5,473.1z"/>
		<polygon class="st0" points="277.6,475.9 278.6,476.2 273.5,480.2 272.6,473.8 273.6,474.2 273.8,473.6 268.1,471.3 267.9,471.2
			267.7,471.8 268.8,472.3 269.9,480.4 267.7,485.9 266.6,485.5 266.3,486.1 271.9,488.4 272.1,487.7 271,487.3 273.5,481.1
			279.3,476.6 280.4,477 280.6,476.4 277.8,475.2 		"/>
		<polygon class="st0" points="302.7,480.8 302.8,480.1 299.8,479.8 299.8,480.5 300.9,480.6 296.5,488.9 294.2,479.8 295.3,479.9
			295.4,479.3 289.4,478.6 289.3,479.3 290.4,479.4 294,493.9 294.6,494 301.6,480.7 		"/>
		<path class="st0" d="M314.2,493.5l-5.8-13.9l-0.1-0.1l-0.5,0l-6.2,14.3l-1.2,0l0,0.7l3.1-0.1l0-0.7l-1.1,0l2-4.7l4.1-0.1l1.9,4.6
			l-1.1,0l0,0.7l5.9-0.1l0.2,0l0-0.7L314.2,493.5z M304.7,488.4l1.8-4.1l1.7,4L304.7,488.4z"/>
		<path class="st0" d="M326.8,487.9l0,0.2c0.2,1.4-0.1,2.3-0.7,3c-0.7,0.6-1.8,0.9-2.6,1.1l-1.2,0.2l-2.2-12.9l1.4-0.2l-0.1-0.7
			l-6.1,1.1l0.1,0.7l1.2-0.2l2.2,12.9l-1.2,0.2l0.1,0.7l10.5-1.8l-0.7-4.2L326.8,487.9z"/>
		<path class="st0" d="M338.8,484.3l0,0.2c0.3,1.3,0.2,2.3-0.3,3c-0.6,0.7-1.6,1.1-2.5,1.4l-1.5,0.5l-1.9-5.9l0.7-0.2
			c0.5-0.1,1-0.3,1.4-0.4c1.2-0.3,1.9,0.2,2.4,1.4l0.1,0.2l0.6-0.2l-1.5-4.8l-0.6,0.2l0,0.2c0.2,1.1-0.1,1.8-1.3,2.2
			c-0.2,0.1-0.7,0.3-1.2,0.4l-0.8,0.3l-1.8-5.8l1-0.3c1-0.3,2-0.6,2.8-0.5c0.8,0.2,1.4,0.7,1.9,1.9l0.1,0.2l0.6-0.2l-1.1-3.5
			l-10.1,3.2l0.2,0.6l1.1-0.4l3.9,12.5l-1.1,0.4l0.2,0.6l10.5-3.3l-1.3-4.1L338.8,484.3z"/>
		<polygon class="st0" points="348.7,469.3 348.4,468.7 345.6,470 345.9,470.6 346.9,470.1 350,476.4 342.4,471.7 342.3,471.7
			337.4,474 337.7,474.6 338.8,474.1 344.6,485.8 343.5,486.4 343.8,487 346.6,485.6 346.3,485 345.2,485.5 339.7,474.3
			353.1,482.6 353.2,482.6 353.8,482.4 347.6,469.8 		"/>
		<path class="st0" d="M362.9,475.3l-7.4-10.7c0.8-0.5,1.6-1,2.3-1.1c0.8-0.1,1.6,0.3,2.4,1.3l0.1,0.1l0.6-0.4l-2.1-3l-10.3,7.1
			l2.1,3l0.6-0.4l-0.1-0.2c-0.6-1-0.7-1.9-0.3-2.7c0.3-0.7,1.1-1.2,1.9-1.8l7.4,10.7l-1,0.7l0.4,0.6l4.7-3.3l0.2-0.1l-0.4-0.6
			L362.9,475.3z"/>
		<polygon class="st0" points="371.6,468.2 363,458.4 363.9,457.6 363.5,457.1 359,461.1 359.4,461.6 360.3,460.8 368.9,470.6
			368,471.4 368.5,471.9 373,468 372.6,467.5 		"/>
		<polygon class="st0" points="373.5,447.3 373,446.8 370.9,449.2 371.4,449.6 372.2,448.7 377.5,453.4 368.6,451.9 368.5,451.9
			364.9,456 365.4,456.4 366.2,455.5 376,464.2 375.2,465.1 375.7,465.5 377.8,463.2 377.3,462.7 376.5,463.6 367.1,455.3
			382.7,457.9 382.8,457.9 383.2,457.4 372.7,448.2 		"/>
		<path class="st0" d="M388.4,441.6l-0.4,0.6l0.2,0.1c1.1,0.8,1.7,1.6,1.7,2.5c0,0.9-0.5,1.9-1,2.7l-0.8,1.3l-5.3-3.3l0.4-0.6
			c0.2-0.4,0.6-0.9,0.8-1.2c0.8-1,1.6-1.1,2.7-0.5l0.2,0.1l0.4-0.6l-4.2-2.7l-0.3,0.6l0.1,0.1c0.9,0.7,1,1.4,0.5,2.5
			c-0.1,0.3-0.4,0.8-0.7,1.2l-0.4,0.7l-5.2-3.3l0.6-0.9c0.6-0.9,1.1-1.7,1.8-2.1c0.7-0.4,1.6-0.3,2.7,0.2l0.2,0.1l0.4-0.6l-3.1-2
			l-5.5,8.7l-0.1,0.2l0.6,0.4l0.6-1l11,7l-0.6,1l0.6,0.4l5.9-9.3L388.4,441.6z"/>
	</g>
</g>
</svg>
