<?xml version="1.0" encoding="utf-8"?>
<!-- Generator: Adobe Illustrator 22.1.0, SVG Export Plug-In . SVG Version: 6.00 Build 0)  -->
<svg version="1.1" id="Layer_1" xmlns="http://www.w3.org/2000/svg" xmlns:xlink="http://www.w3.org/1999/xlink" x="0px" y="0px"
	 viewBox="0 0 612 792" style="enable-background:new 0 0 612 792;" xml:space="preserve">
<style type="text/css">
	.st0{fill:#604D48;}
	.st1{fill:#FFFAEF;}
	.st2{fill:#CFA2AB;}

	.st2:hover
	{
	fill:red;
	}
	
</style>
<g>
	<g>
		<path class="st0" d="M407.9,452.2c-2.9,0-5.2-2.3-5.2-5.2s2.3-5.2,5.2-5.2c0,0,0.1,0,0.1,0v-6.3c0,0-0.1,0-0.1,0
			c-2.9,0-5.2-2.3-5.2-5.2s2.3-5.2,5.2-5.2c0,0,0.1,0,0.1,0v-6.3c0,0-0.1,0-0.1,0c-2.9,0-5.2-2.3-5.2-5.2s2.3-5.2,5.2-5.2
			c0,0,0.1,0,0.1,0v-6.3c0,0-0.1,0-0.1,0c-2.9,0-5.2-2.3-5.2-5.2s2.3-5.2,5.2-5.2c0,0,0.1,0,0.1,0V385c0,0-0.1,0-0.1,0
			c-2.9,0-5.2-2.3-5.2-5.2c0-2.9,2.3-5.2,5.2-5.2c0,0,0.1,0,0.1,0v-6.3c0,0-0.1,0-0.1,0c-2.9,0-5.2-2.3-5.2-5.2
			c0-2.9,2.3-5.2,5.2-5.2c0,0,0.1,0,0.1,0v-6.3c0,0-0.1,0-0.1,0c-2.9,0-5.2-2.3-5.2-5.2s2.3-5.2,5.2-5.2c0,0,0.1,0,0.1,0v-6.3
			c0,0-0.1,0-0.1,0c-2.9,0-5.2-2.3-5.2-5.2s2.3-5.2,5.2-5.2c0,0,0.1,0,0.1,0v-6.3c0,0-0.1,0-0.1,0c-2.9,0-5.2-2.3-5.2-5.2
			c0-2.9,2.3-5.2,5.2-5.2c0,0,0.1,0,0.1,0v-6.3c0,0-0.1,0-0.1,0c-2.9,0-5.2-2.3-5.2-5.2s2.3-5.2,5.2-5.2c0,0,0.1,0,0.1,0v-6.3
			c0,0-0.1,0-0.1,0c-2.9,0-5.2-2.3-5.2-5.2s2.3-5.2,5.2-5.2c0,0,0.1,0,0.1,0v-6.3c0,0-0.1,0-0.1,0c-2.9,0-5.2-2.3-5.2-5.2
			c0-0.5,0.1-1,0.2-1.5h-8.5c0.1,0.4,0.2,0.9,0.2,1.4c0,2.9-2.3,5.2-5.2,5.2c-2.9,0-5.2-2.3-5.2-5.2c0-0.5,0.1-0.9,0.2-1.4h-6.7
			c0.1,0.4,0.2,0.9,0.2,1.4c0,2.9-2.3,5.2-5.2,5.2c-2.9,0-5.2-2.3-5.2-5.2c0-0.5,0.1-0.9,0.2-1.4h-6.7c0.1,0.4,0.2,0.9,0.2,1.4
			c0,2.9-2.3,5.2-5.2,5.2c-2.9,0-5.2-2.3-5.2-5.2c0-0.5,0.1-0.9,0.2-1.4H344c0.1,0.4,0.2,0.9,0.2,1.4c0,2.9-2.3,5.2-5.2,5.2
			c-2.9,0-5.2-2.3-5.2-5.2c0-0.5,0.1-0.9,0.2-1.4h-6.7c0.1,0.4,0.2,0.9,0.2,1.4c0,2.9-2.3,5.2-5.2,5.2c-2.9,0-5.2-2.3-5.2-5.2
			c0-0.5,0.1-0.9,0.2-1.4h-6.7c0.1,0.4,0.2,0.9,0.2,1.4c0,2.9-2.3,5.2-5.2,5.2c-2.9,0-5.2-2.3-5.2-5.2c0-0.5,0.1-0.9,0.2-1.4h-6.7
			c0.1,0.4,0.2,0.9,0.2,1.4c0,2.9-2.3,5.2-5.2,5.2c-2.9,0-5.2-2.3-5.2-5.2c0-0.5,0.1-0.9,0.2-1.4h-6.7c0.1,0.4,0.2,0.9,0.2,1.4
			c0,2.9-2.3,5.2-5.2,5.2c-2.9,0-5.2-2.3-5.2-5.2c0-0.5,0.1-0.9,0.2-1.4H260c0.1,0.4,0.2,0.9,0.2,1.4c0,2.9-2.3,5.2-5.2,5.2
			c-2.9,0-5.2-2.3-5.2-5.2c0-0.5,0.1-0.9,0.2-1.4h-6.7c0.1,0.4,0.2,0.9,0.2,1.4c0,2.9-2.3,5.2-5.2,5.2c-2.9,0-5.2-2.3-5.2-5.2
			c0-0.5,0.1-0.9,0.2-1.4h-6.7c0.1,0.4,0.2,0.9,0.2,1.4c0,2.9-2.3,5.2-5.2,5.2s-5.2-2.3-5.2-5.2c0-0.5,0.1-0.9,0.2-1.4h-6.7
			c0.1,0.5,0.2,1,0.2,1.5c0,2.8-2.2,5-4.9,5.2v6.4c2.7,0.2,4.9,2.4,4.9,5.2c0,2.8-2.2,5-4.9,5.2v6.4c2.7,0.2,4.9,2.4,4.9,5.2
			c0,2.8-2.2,5-4.9,5.2v6.4c2.7,0.2,4.9,2.4,4.9,5.2c0,2.8-2.2,5-4.9,5.2v6.4c2.7,0.2,4.9,2.4,4.9,5.2c0,2.8-2.2,5-4.9,5.2v6.4
			c2.7,0.2,4.9,2.4,4.9,5.2c0,2.8-2.2,5-4.9,5.2v6.4c2.7,0.2,4.9,2.4,4.9,5.2c0,2.8-2.2,5-4.9,5.2v6.4c2.7,0.2,4.9,2.4,4.9,5.2
			c0,2.8-2.2,5-4.9,5.2v6.4c2.7,0.2,4.9,2.4,4.9,5.2c0,2.8-2.2,5-4.9,5.2v6.4c2.7,0.2,4.9,2.4,4.9,5.2s-2.2,5-4.9,5.2v6.4
			c2.7,0.2,4.9,2.4,4.9,5.2s-2.2,5-4.9,5.2v6.4c2.7,0.2,4.9,2.4,4.9,5.2c0,2.8-2.2,5-4.9,5.2v6.4c2.7,0.2,4.9,2.4,4.9,5.2
			c0,0,0,0,0,0.1h6.3c0-2.9,2.4-5.2,5.2-5.2c2.9,0,5.2,2.3,5.2,5.2h6.3c0-2.9,2.4-5.2,5.2-5.2c2.9,0,5.2,2.3,5.2,5.2h6.3
			c0-2.9,2.4-5.2,5.2-5.2c2.9,0,5.2,2.3,5.2,5.2h6.3c0-2.9,2.4-5.2,5.2-5.2c2.9,0,5.2,2.3,5.2,5.2h6.3c0-2.9,2.4-5.2,5.2-5.2
			c2.9,0,5.2,2.3,5.2,5.2h6.3c0-2.9,2.4-5.2,5.2-5.2c2.9,0,5.2,2.3,5.2,5.2h6.3c0-2.9,2.4-5.2,5.2-5.2c2.9,0,5.2,2.3,5.2,5.2h6.3
			c0-2.9,2.4-5.2,5.2-5.2c2.9,0,5.2,2.3,5.2,5.2h6.3c0-2.9,2.4-5.2,5.2-5.2c2.9,0,5.2,2.3,5.2,5.2h6.3c0-2.9,2.4-5.2,5.2-5.2
			c2.9,0,5.2,2.3,5.2,5.2h6.3c0-2.9,2.4-5.2,5.2-5.2c2.9,0,5.2,2.3,5.2,5.2h8.1c0,0,0,0,0-0.1c0-2.9,2.3-5.2,5.2-5.2
			c0,0,0.1,0,0.1,0L407.9,452.2C408,452.2,407.9,452.2,407.9,452.2z"/>
		<path class="st1" d="M402.9,464h-8.5l0-0.2c0-2.7-2.3-5-5-5c-2.7,0-5,2.2-5,5l0,0.2h-6.7l0-0.2c0-2.7-2.3-5-5-5c-2.7,0-5,2.2-5,5
			v0.2h-6.7l0-0.2c0-2.7-2.3-5-5-5c-2.7,0-5,2.2-5,5l0,0.2H344l0-0.2c0-2.7-2.3-5-5-5c-2.7,0-5,2.2-5,5l0,0.2h-6.7l0-0.2
			c0-2.7-2.3-5-5-5c-2.7,0-5,2.2-5,5l0,0.2h-6.7l0-0.2c0-2.7-2.3-5-5-5c-2.7,0-5,2.2-5,5l0,0.2h-6.7l0-0.2c0-2.7-2.3-5-5-5
			c-2.7,0-5,2.2-5,5l0,0.2h-6.7l0-0.2c0-2.7-2.3-5-5-5c-2.7,0-5,2.2-5,5l0,0.2H260l0-0.2c0-2.7-2.3-5-5-5c-2.7,0-5,2.2-5,5l0,0.2
			h-6.7l0-0.2c0-2.7-2.3-5-5-5c-2.7,0-5,2.2-5,5l0,0.2h-6.7l0-0.2c0-2.7-2.3-5-5-5c-2.7,0-5,2.2-5,5l0,0.2h-6.7l0-0.3
			c0-2.6-2.1-4.8-4.7-5l-0.2,0V452l0.2,0c2.6-0.2,4.7-2.4,4.7-5c0-2.6-2.1-4.8-4.7-5l-0.2,0v-6.7l0.2,0c2.6-0.2,4.7-2.4,4.7-5
			c0-2.6-2.1-4.8-4.7-5l-0.2,0v-6.8l0.2,0c2.6-0.2,4.7-2.4,4.7-5c0-2.6-2.1-4.8-4.7-5l-0.2,0v-6.8l0.2,0c2.6-0.2,4.7-2.4,4.7-5
			c0-2.6-2.1-4.8-4.7-5l-0.2,0v-6.7l0.2,0c2.6-0.2,4.7-2.4,4.7-5c0-2.6-2.1-4.8-4.7-5l-0.2,0V368l0.2,0c2.6-0.2,4.7-2.4,4.7-5
			c0-2.6-2.1-4.8-4.7-5l-0.2,0v-6.8l0.2,0c2.6-0.2,4.7-2.4,4.7-5c0-2.6-2.1-4.8-4.7-5l-0.2,0v-6.7l0.2,0c2.6-0.2,4.7-2.4,4.7-5
			c0-2.6-2.1-4.8-4.7-5l-0.2,0v-6.8l0.2,0c2.6-0.2,4.7-2.4,4.7-5c0-2.6-2.1-4.8-4.7-5l-0.2,0v-6.7l0.2,0c2.6-0.2,4.7-2.4,4.7-5
			c0-2.6-2.1-4.8-4.7-5l-0.2,0v-6.8l0.2,0c2.6-0.2,4.7-2.4,4.7-5c0-2.6-2.1-4.8-4.7-5l-0.2,0v-6.8l0.2,0c2.6-0.2,4.7-2.4,4.7-5
			c0-0.4-0.1-0.9-0.2-1.4l-0.1-0.3h7.3l-0.1,0.3c-0.1,0.5-0.2,0.9-0.2,1.3c0,2.8,2.3,5,5,5c2.8,0,5-2.3,5-5c0-0.4-0.1-0.8-0.2-1.3
			l-0.1-0.3h7.2l-0.1,0.3c-0.1,0.5-0.2,0.9-0.2,1.3c0,2.8,2.3,5,5,5c2.8,0,5-2.3,5-5c0-0.4-0.1-0.8-0.2-1.3l-0.1-0.3h7.2l-0.1,0.3
			c-0.1,0.5-0.2,0.9-0.2,1.3c0,2.8,2.3,5,5,5c2.8,0,5-2.3,5-5c0-0.4-0.1-0.8-0.2-1.3l-0.1-0.3h7.2l-0.1,0.3
			c-0.1,0.5-0.2,0.9-0.2,1.3c0,2.8,2.3,5,5,5c2.8,0,5-2.3,5-5c0-0.4-0.1-0.8-0.2-1.3l-0.1-0.3h7.2l-0.1,0.3
			c-0.1,0.5-0.2,0.9-0.2,1.3c0,2.8,2.3,5,5,5c2.8,0,5-2.3,5-5c0-0.4-0.1-0.8-0.2-1.3l-0.1-0.3h7.2l-0.1,0.3
			c-0.1,0.5-0.2,0.9-0.2,1.3c0,2.8,2.3,5,5,5c2.8,0,5-2.3,5-5c0-0.4-0.1-0.8-0.2-1.3l-0.1-0.3h7.2l-0.1,0.3
			c-0.1,0.5-0.2,0.9-0.2,1.3c0,2.8,2.3,5,5,5c2.8,0,5-2.3,5-5c0-0.4-0.1-0.8-0.2-1.3l-0.1-0.3h7.2l-0.1,0.3
			c-0.1,0.5-0.2,0.9-0.2,1.3c0,2.8,2.3,5,5,5c2.8,0,5-2.3,5-5c0-0.4-0.1-0.8-0.2-1.3l-0.1-0.3h7.2l-0.1,0.3
			c-0.1,0.5-0.2,0.9-0.2,1.3c0,2.8,2.3,5,5,5c2.8,0,5-2.3,5-5c0-0.4-0.1-0.8-0.2-1.3l-0.1-0.3h7.2l-0.1,0.3
			c-0.1,0.5-0.2,0.9-0.2,1.3c0,2.8,2.3,5,5,5c2.8,0,5-2.3,5-5c0-0.4-0.1-0.8-0.2-1.3l-0.1-0.3h7.2l-0.1,0.3
			c-0.1,0.5-0.2,0.9-0.2,1.3c0,2.8,2.3,5,5,5c2.8,0,5-2.3,5-5c0-0.4-0.1-0.8-0.2-1.3l-0.1-0.3h9.1l-0.1,0.3c-0.2,0.5-0.2,1-0.2,1.4
			c0,2.8,2.3,5,5,5c0,0,0.1,0,0.1,0h0.2v6.7l-0.3,0c0,0,0,0,0,0c-2.8,0-5,2.3-5,5c0,2.8,2.3,5,5,5c0,0,0.1,0,0.1,0h0.2v6.7l-0.3,0
			c0,0,0,0,0,0c-2.8,0-5,2.3-5,5c0,2.8,2.3,5,5,5c0,0,0.1,0,0.1,0h0.2v6.7l-0.3,0c0,0,0,0,0,0c-2.8,0-5.1,2.3-5.1,5c0,2.8,2.3,5,5,5
			c0,0,0.1,0,0.1,0h0.2v6.7l-0.3,0c0,0,0,0,0,0c-2.8,0-5,2.3-5,5c0,2.8,2.3,5,5,5c0,0,0.1,0,0.1,0h0.2v6.7l-0.3,0c0,0,0,0,0,0
			c-2.8,0-5.1,2.3-5.1,5c0,2.8,2.3,5,5,5c0,0,0.1,0,0.1,0h0.2v6.7l-0.3,0c0,0,0,0,0,0c-2.8,0-5,2.3-5,5c0,2.8,2.3,5,5,5
			c0,0,0.1,0,0.1,0h0.2v6.7l-0.3,0c0,0,0,0,0,0c-2.8,0-5,2.3-5,5c0,2.8,2.3,5,5,5c0,0,0.1,0,0.1,0h0.2v6.7l-0.3,0c0,0,0,0,0,0
			c-2.8,0-5.1,2.3-5.1,5c0,2.8,2.3,5,5,5c0,0,0.1,0,0.1,0h0.2v6.7l-0.3,0c0,0,0,0,0,0c-2.8,0-5,2.3-5,5c0,2.8,2.3,5,5,5
			c0,0,0.1,0,0.1,0h0.2v6.7l-0.3,0c0,0,0,0,0,0c-2.8,0-5,2.3-5,5c0,2.8,2.3,5,5,5c0,0,0.1,0,0.1,0h0.2v6.7l-0.3,0c0,0,0,0,0,0
			c-2.8,0-5.1,2.3-5.1,5c0,2.8,2.3,5,5,5c0,0,0.1,0,0.1,0h0.2v6.7l-0.3,0c0,0,0,0,0,0c-2.8,0-5,2.3-5,5L402.9,464z M394.7,463.6h7.7
			c0.1-2.9,2.4-5.2,5.3-5.3v-5.9c-2.9-0.1-5.3-2.5-5.3-5.4c0-3,2.4-5.4,5.3-5.4v-5.9c-2.9-0.1-5.3-2.5-5.3-5.4c0-3,2.4-5.4,5.3-5.4
			v-5.9c-2.9-0.1-5.3-2.5-5.3-5.4c0-3,2.4-5.4,5.3-5.4V402c-2.9-0.1-5.3-2.5-5.3-5.4c0-3,2.4-5.4,5.3-5.4v-5.9
			c-2.9-0.1-5.3-2.5-5.3-5.4s2.4-5.4,5.3-5.4v-5.9c-2.9-0.1-5.3-2.5-5.3-5.4c0-3,2.4-5.4,5.3-5.4v-5.9c-2.9-0.1-5.3-2.5-5.3-5.4
			c0-3,2.4-5.4,5.3-5.4v-5.9c-2.9-0.1-5.3-2.5-5.3-5.4s2.4-5.4,5.3-5.4v-5.9c-2.9-0.1-5.3-2.5-5.3-5.4c0-3,2.4-5.4,5.3-5.4v-5.9
			c-2.9-0.1-5.3-2.5-5.3-5.4c0-3,2.4-5.4,5.3-5.4v-5.9c-2.9-0.1-5.3-2.5-5.3-5.4s2.4-5.4,5.3-5.4v-5.9c-2.9-0.1-5.3-2.5-5.3-5.4
			c0-0.4,0.1-0.8,0.2-1.3h-8c0.1,0.4,0.1,0.8,0.1,1.2c0,3-2.4,5.4-5.4,5.4s-5.4-2.4-5.4-5.4c0-0.4,0-0.7,0.1-1.2h-6.2
			c0.1,0.4,0.1,0.8,0.1,1.2c0,3-2.4,5.4-5.4,5.4s-5.4-2.4-5.4-5.4c0-0.4,0-0.7,0.1-1.2H361c0.1,0.4,0.1,0.8,0.1,1.2
			c0,3-2.4,5.4-5.4,5.4s-5.4-2.4-5.4-5.4c0-0.4,0-0.7,0.1-1.2h-6.2c0.1,0.4,0.1,0.8,0.1,1.2c0,3-2.4,5.4-5.4,5.4s-5.4-2.4-5.4-5.4
			c0-0.4,0-0.7,0.1-1.2h-6.2c0.1,0.4,0.1,0.8,0.1,1.2c0,3-2.4,5.4-5.4,5.4c-3,0-5.4-2.4-5.4-5.4c0-0.4,0-0.7,0.1-1.2h-6.2
			c0.1,0.4,0.1,0.8,0.1,1.2c0,3-2.4,5.4-5.4,5.4c-3,0-5.4-2.4-5.4-5.4c0-0.4,0-0.7,0.1-1.2h-6.2c0.1,0.4,0.1,0.8,0.1,1.2
			c0,3-2.4,5.4-5.4,5.4c-3,0-5.4-2.4-5.4-5.4c0-0.4,0-0.7,0.1-1.2h-6.2c0.1,0.4,0.1,0.8,0.1,1.2c0,3-2.4,5.4-5.4,5.4
			c-3,0-5.4-2.4-5.4-5.4c0-0.4,0-0.7,0.1-1.2h-6.2c0.1,0.4,0.1,0.8,0.1,1.2c0,3-2.4,5.4-5.4,5.4c-3,0-5.4-2.4-5.4-5.4
			c0-0.4,0-0.7,0.1-1.2h-6.2c0.1,0.4,0.1,0.8,0.1,1.2c0,3-2.4,5.4-5.4,5.4c-3,0-5.4-2.4-5.4-5.4c0-0.4,0-0.7,0.1-1.2h-6.2
			c0.1,0.4,0.1,0.8,0.1,1.2c0,3-2.4,5.4-5.4,5.4c-3,0-5.4-2.4-5.4-5.4c0-0.4,0-0.7,0.1-1.2h-6.2c0.1,0.5,0.2,0.9,0.2,1.3
			c0,2.8-2.1,5.1-4.9,5.4v6c2.8,0.3,4.9,2.6,4.9,5.4s-2.1,5.1-4.9,5.4v6c2.8,0.3,4.9,2.6,4.9,5.4s-2.1,5.1-4.9,5.4v6
			c2.8,0.3,4.9,2.6,4.9,5.4c0,2.8-2.1,5.1-4.9,5.4v6c2.8,0.3,4.9,2.6,4.9,5.4s-2.1,5.1-4.9,5.4v6c2.8,0.3,4.9,2.6,4.9,5.4
			c0,2.8-2.1,5.1-4.9,5.4v6c2.8,0.3,4.9,2.6,4.9,5.4s-2.1,5.1-4.9,5.4v6c2.8,0.3,4.9,2.6,4.9,5.4s-2.1,5.1-4.9,5.4v6
			c2.8,0.3,4.9,2.6,4.9,5.4c0,2.8-2.1,5.1-4.9,5.4v6c2.8,0.3,4.9,2.6,4.9,5.4c0,2.8-2.1,5.1-4.9,5.4v6c2.8,0.3,4.9,2.6,4.9,5.4
			c0,2.8-2.1,5.1-4.9,5.4v6c2.8,0.3,4.9,2.6,4.9,5.4c0,2.8-2.1,5.1-4.9,5.4v6c2.7,0.3,4.8,2.5,4.9,5.3h5.9c0.1-2.9,2.5-5.2,5.4-5.2
			c2.9,0,5.3,2.3,5.4,5.2h5.9c0.1-2.9,2.5-5.2,5.4-5.2c2.9,0,5.3,2.3,5.4,5.2h5.9c0.1-2.9,2.5-5.2,5.4-5.2c2.9,0,5.3,2.3,5.4,5.2
			h5.9c0.1-2.9,2.5-5.2,5.4-5.2c2.9,0,5.3,2.3,5.4,5.2h5.9c0.1-2.9,2.5-5.2,5.4-5.2c2.9,0,5.3,2.3,5.4,5.2h5.9
			c0.1-2.9,2.5-5.2,5.4-5.2c2.9,0,5.3,2.3,5.4,5.2h5.9c0.1-2.9,2.5-5.2,5.4-5.2c2.9,0,5.3,2.3,5.4,5.2h5.9c0.1-2.9,2.5-5.2,5.4-5.2
			c2.9,0,5.3,2.3,5.4,5.2h5.9c0.1-2.9,2.5-5.2,5.4-5.2c2.9,0,5.3,2.3,5.4,5.2h5.9c0.1-2.9,2.5-5.2,5.4-5.2c2.9,0,5.3,2.3,5.4,5.2
			h5.9c0.1-2.9,2.5-5.2,5.4-5.2C392.2,458.4,394.6,460.7,394.7,463.6z"/>
	</g>
	<rect x="220.1" y="277.5" class="st1" width="172.7" height="169.6"/>
	<g>
		<path class="st0" d="M385.6,411.3c-1,0-4.2,0-5.4,0c-1.2,0-1.2,2.6-1.8,6c-0.6,3.6-2.2,6-5.2,9.9c-2.9,3.8-8.3,6.8-14,6.8
			c-5.7,0-11.1,0.1-11.1,0.1s0-25.7,0-27.7c0-2,2-2,4.2-2c2.2,0,4.8,0.4,7.6,2.5c2.7,2.1,3.5,5.9,3.7,7.9c0.2,1.9,0.8,2.8,1.6,2.8
			c0.7,0,1.6,0,3.4,0c1.8,0,1.8-0.9,1.8-2.4c0-1.5,0-26.9,0-28.2c0-1.3-0.4-1.9-1.1-1.9c-0.7,0-4.3,0-4.9,0c-0.6,0-1.1,0.3-1.1,0.9
			c0,0.6,0,2,0,3.9c0,1.9-1,2.9-3.8,5.7c-2.8,2.8-7.4,2.5-9.6,2.5c-2.2,0-2.2-0.8-2.2-1.6c0-0.7,0-26.6,0-27.4
			c0-0.8,0.4-1.1,0.9-1.1c0.4,0,1.3,0,8.3,0s14.6,5.9,17.5,9.5c2.9,3.6,4.3,9.9,4.5,11.3c0.2,1.5,0.8,1.5,1.6,1.5c0.8,0,3.1,0,4.6,0
			c1.5,0,1.3-1.3,1.3-2c0-1,0-18.9,0-22.8c0-4-3.1-4-3.1-4l-77.4,0l0-40.8l-8.5,0c0,0,0,3.6,0,7.8c0,4.2-3.5,9.7-8.1,16.8
			c-4.7,7.1-8.5,9.3-13.5,9.3c-5,0-16.1,0-16.1,0s0-47.8,0-56.9c0-9.2,10.4-6.9,10.4-6.9v-7.4l-43.9,0c0,0,0,3.5,0,4.8
			c0,1.3,0.7,1.6,1.6,1.6c0.9,0,5,0.9,6.4,2.3c1.4,1.4,2.1,3,2.2,6.3c0,3.3,0.2,43.9,0.2,48.2c0,4.4-1.2,5.8-2.5,7.2
			c-1.4,1.4-3.8,1.7-6,1.7c-2.6,0-2.5,1.9-2.5,3c0,1.1,0,5.7,0,7c0,1.3,0.8,2.5,1.5,2.5c0.7,0,4.2-0.3,5.5,0c1.3,0.3,3,2.8,3.6,4.1
			c0.7,1.3,23.6,66.2,24.2,68c0.6,1.8,2.3,2,3.3,2c1,0,5.8,0,7.4,0c1.6,0,2.7-1.3,3.3-2.7c0.6-1.4,19.5-60.3,20.5-62.9
			c1-2.7,2.3-5.1,3.5-6.6c1.2-1.5,2.8-2.2,3.9-2.2c1,0,10,0,13.5,0c3.5,0,4.7,0.6,6.5,2.2c1.9,1.6,2,4,2,6.8c0,2.7,0,49.9,0,51.7
			c0,1.8-0.5,2.9-1.8,4.1c-1.3,1.2-2.3,1.6-3.7,1.6c-1.4,0-5.6,0-6.5,0c-0.8,0-1.3,0.7-1.3,1.4c0,0.7,0,2.1,0,4.3
			c0,2.2,1.6,2.4,3.2,2.4c1.4,0,68.6,0,70.2,0c1.6,0,2.3-0.9,2.3-2.3c0-1.3,0-26.6,0-27.2C386.4,412.2,386.5,411.3,385.6,411.3z
			 M286.9,375.5c-0.6,2.4-11.3,33.7-11.3,33.7s-11.1-30.1-12.1-33.7c-1-3.6,0.3-5.3,1.3-6.4c1-1.1,2.8-1.3,4.5-1.3
			c1,0,1.2-0.5,1.2-1.2c0-0.7,0-2.3,0-3.4s1-1.7,1.8-1.7c0.8,0,4.3,0,6,0c1.5,0,1.5,1.4,1.5,1.7c0,0.4,0,2.9,0,3.4
			c0,0.5,0.1,1.2,0.9,1.3c1.2,0.2,3.1-0.2,5.3,1.7C287.7,371.1,287.4,373.1,286.9,375.5z"/>
	</g>
	<g>
		<path class="st0" d="M206.9,474.2l1.9,0.2c1.1,0.2,1.7,1.6,1.7,3.7v16.5c0,2.4-0.5,3.5-1.7,3.7l-1.9,0.2v2.9h14.3v-2.9l-1.8-0.3
			c-1.7-0.4-2.3-1.3-2.3-3.6v-7.3h5.5v-3.6H217v-6.1c0-2.2,1.1-3.2,3.6-3.2c2.8,0,5.8,1.9,5.8,5.3v2.1h4.3v-10.6h-23.9V474.2z"/>
		<path class="st0" d="M258.2,481.8c-0.1-6.3-5-10.9-11.7-10.9c-7.3,0-11.7,5.5-11.7,10.9l-0.1,9.1c0,3,1,5.6,2.9,7.6
			c2.1,2.1,5.2,3.3,8.9,3.3c3.4,0,6.4-1.2,8.6-3.4c2-2.1,3.2-4.8,3.1-7.8V481.8z M246.6,498.5c-3.4,0-3.9-3.2-3.9-6.4v-12.7
			c0-2.4,0.4-5.2,3.9-5.2c2.6,0,3.9,1.6,3.9,5.2v12.7C250.4,496.4,249.2,498.5,246.6,498.5z"/>
		<path class="st0" d="M287.3,501.8c3.9,0,5.5-2.5,5.5-8.4v-2.3h-3.4v2.3c0,0.9-0.2,2.5-1,2.5c-0.8,0-1-1.3-1.3-3.9
			c-0.3-2.9-1.1-4.5-2.9-5.6c1.6-0.8,4.1-2.6,4.1-7c0-5.2-3.8-8-10.6-8h-15.9v2.9l1.9,0.2c1.1,0.2,1.7,1.6,1.7,3.7v16.5
			c0,2.4-0.5,3.5-1.7,3.7l-1.9,0.2v2.9h14v-2.9l-1.4-0.2c-1.8-0.2-2.5-1.3-2.5-3.8v-6.2h5.2c2,0,3.3,1.9,3.7,5.7
			C281.6,499.8,283.2,501.8,287.3,501.8z M271.9,478.4c0-2.3,0.7-2.8,1.8-2.8h4c1.7,0,3.7,1.1,3.7,4.1c0,2.5-1.9,3.9-3.7,3.9h-5.8
			V478.4z"/>
		<path class="st0" d="M317.4,490.5h-3.7v2.4c0,3.6-1.5,5.3-4.8,5.3c-2.5,0-3.6-1-3.6-3.2v-7.7h5.5v-3.6h-5.5v-6.1
			c0-1.9,0.6-3.2,3.6-3.2c2.4,0,4.8,1.6,4.8,5.3v2.1h3.7v-10.6h-22.2v2.9l1.9,0.2c1.1,0.2,1.7,1.6,1.7,3.7v16.5
			c0,2.4-0.5,3.5-1.7,3.7l-1.9,0.2v2.9h22.2V490.5z"/>
		<path class="st0" d="M324.4,477.5l5.5,23.9l0,0.1h6.2l7-21.9l0.1-0.2c0.9-3,1.5-4.8,2.7-4.9l1.9-0.3v-2.9h-11v2.9l1.9,0.3
			c0.6,0.1,1,0.3,1.2,0.7c0.3,0.6,0.3,1.4-0.1,2.6l-5,15.8l-3.8-16c-0.3-1.2-0.2-2,0.1-2.5c0.2-0.3,0.6-0.5,1-0.5l1.9-0.3v-2.9
			h-13.8v2.9l1.9,0.3C323.3,474.6,324.1,476.1,324.4,477.5z"/>
		<path class="st0" d="M372.4,490.5h-3.7v2.4c0,3.6-1.5,5.3-4.8,5.3c-2.5,0-3.6-1-3.6-3.2v-7.7h5.5v-3.6h-5.5v-6.1
			c0-1.9,0.6-3.2,3.6-3.2c2.4,0,4.8,1.6,4.8,5.3v2.1h3.7v-10.6h-22.2v2.9l1.9,0.2c1.1,0.2,1.7,1.6,1.7,3.7v16.5
			c0,2.4-0.5,3.5-1.7,3.7l-1.9,0.2v2.9h22.2V490.5z"/>
		<path class="st0" d="M403.9,491.1v2.3c0,0.9-0.2,2.5-1,2.5c-0.8,0-1-1.3-1.3-3.9c-0.3-2.9-1.1-4.5-2.9-5.6c1.6-0.8,4.1-2.6,4.1-7
			c0-5.2-3.8-8-10.6-8h-15.9v2.9l1.9,0.2c1.1,0.2,1.7,1.6,1.7,3.7v16.5c0,2.4-0.5,3.5-1.7,3.7l-1.9,0.2v2.9h14v-2.9l-1.4-0.2
			c-1.8-0.2-2.5-1.3-2.5-3.8v-6.2h5.2c2,0,3.3,1.9,3.7,5.7c0.8,5.8,2.4,7.7,6.5,7.7c3.9,0,5.5-2.5,5.5-8.4v-2.3H403.9z M386.4,478.4
			c0-2.3,0.7-2.8,1.8-2.8h4c1.7,0,3.7,1.1,3.7,4.1c0,2.5-1.9,3.9-3.7,3.9h-5.8V478.4z"/>
		<path class="st0" d="M209.1,518h3v-2.4c0-2.4,0.7-5,2.7-5c1.3,0,1.9,1.3,1.9,3.9v13.1c0,2-0.5,3-1.5,3.2l-1.6,0.2v2.5h11.8v-2.5
			l-1.6-0.2c-1.1-0.2-1.5-1.1-1.5-3.2v-13.1c0-2.6,0.6-3.9,1.9-3.9c2,0,2.7,2.6,2.7,5v2.4h3v-10.4h-20.8V518z"/>
		<path class="st0" d="M243.6,507.3c-6.3,0-10,4.7-10,9.3l0,7.8c0,2.6,0.8,4.8,2.5,6.5c1.8,1.8,4.5,2.8,7.6,2.8c2.9,0,5.5-1,7.4-2.9
			c1.8-1.8,2.7-4.2,2.7-6.7v-7.5C253.6,511.2,249.4,507.3,243.6,507.3z M243.6,530.9c-2.9,0-3.3-2.8-3.3-5.5v-10.9
			c0-3.1,1-4.4,3.3-4.4c2.3,0,3.3,1.4,3.3,4.4v10.9C246.9,529.1,245.8,530.9,243.6,530.9z"/>
		<path class="st0" d="M270.6,524.9h0.9c1,0,1.6,0.7,1.6,2.1c0,2.7-1.4,3.9-4.2,3.9c-2.9,0-4.3-3.2-4.3-5.5v-10.9
			c0-3,1.1-4.4,3.4-4.4c3.7,0,5.1,5.7,5.2,9.5l0,0.1h5.1v-12.3h-3.5v0.1c0,0.4-0.1,1.2-0.7,1.2c-0.5,0-1.2-0.2-1.8-0.5
			c-0.2-0.1-0.3-0.1-0.5-0.2c-1.3-0.5-2.6-0.8-3.9-0.8c-6.5,0-10,4.8-10,9.3v6.8c0,4.8,2.7,10.3,10.2,10.3c1.7,0,3.1-0.2,3.8-0.4
			l0.3-0.1c0.6-0.2,1.2-0.5,1.6-0.5c0.5,0,0.8,0.4,1,0.7l0,0.1h2.7v-6.5c0-1.4,0.4-2,1.3-2h1.7v-3.3h-10V524.9z"/>
		<path class="st0" d="M283,510.1l1.6,0.2c0.9,0.2,1.5,1.3,1.5,3.2v14.1c0,2-0.5,3-1.4,3.2l-1.6,0.2v2.5H302V524h-3.2v2.1
			c0,3.1-1.3,4.5-4.1,4.5c-2.1,0-3.1-0.9-3.1-2.7v-6.6h4.8v-3.1h-4.8V513c0-1.7,0.5-2.8,3.1-2.8c2,0,4.1,1.4,4.1,4.6v1.8h3.2v-9.1
			H283V510.1z"/>
		<path class="st0" d="M306,518h3v-2.4c0-2.4,0.7-5,2.7-5c1.3,0,1.9,1.3,1.9,3.9v13.1c0,2-0.5,3-1.5,3.2l-1.6,0.2v2.5h11.8v-2.5
			l-1.6-0.2c-1.1-0.2-1.5-1.1-1.5-3.2v-13.1c0-2.6,0.6-3.9,1.9-3.9c2,0,2.7,2.6,2.7,5v2.4h3v-10.4H306V518z"/>
		<path class="st0" d="M342.7,510.1l1.6,0.2c1,0.2,1.5,1.3,1.5,3.2v4.8h-7.7v-4.8c0-1.9,0.5-3,1.5-3.2l1.6-0.2v-2.5h-11.8v2.5
			l1.6,0.2c0.9,0.2,1.5,1.3,1.5,3.2v14.1c0,2-0.5,3-1.5,3.2l-1.6,0.2v2.5h11.8v-2.5l-1.6-0.2c-1-0.2-1.5-1.2-1.5-3.2v-5.5h7.7v5.5
			c0,2-0.5,3-1.5,3.2l-1.6,0.2v2.5h11.8v-2.5l-1.6-0.2c-1-0.2-1.5-1.2-1.5-3.2v-14.1c0-1.9,0.5-3,1.5-3.2l1.6-0.2v-2.5h-11.8V510.1z
			"/>
		<path class="st0" d="M357,510.1l1.6,0.2c0.9,0.2,1.5,1.3,1.5,3.2v14.1c0,2-0.5,3-1.4,3.2l-1.6,0.2v2.5H376V524h-3.2v2.1
			c0,3.1-1.3,4.5-4.1,4.5c-2.1,0-3.1-0.9-3.1-2.7v-6.6h4.8v-3.1h-4.8V513c0-1.7,0.5-2.8,3.1-2.8c2,0,4.1,1.4,4.1,4.6v1.8h3.2v-9.1
			H357V510.1z"/>
		<path class="st0" d="M403,526.5c0,0.8-0.2,2.1-0.8,2.1c-0.7,0-0.9-1.1-1.1-3.3c-0.3-2.5-1-3.9-2.5-4.8c1.3-0.7,3.5-2.3,3.5-6
			c0-4.5-3.2-6.9-9.1-6.9h-13.6v2.5l1.6,0.2c0.9,0.2,1.5,1.3,1.5,3.2v14.1c0,2-0.4,3-1.4,3.2l-1.6,0.2v2.5h12.1v-2.5l-1.2-0.1
			c-1.5-0.1-2.2-1.1-2.2-3.2v-5.3h4.4c1.7,0,2.8,1.6,3.2,4.9c0.7,4.9,2.1,6.6,5.6,6.6c3.3,0,4.8-2.2,4.8-7.2v-2h-3V526.5z
			 M388,513.6c0-1.9,0.6-2.3,1.5-2.3h3.4c1.5,0,3.2,0.9,3.2,3.5c0,2.1-1.6,3.4-3.2,3.4H388V513.6z"/>
	</g>
	<path id="change2" class="st2" d="M384.4,322.5c0,21.6-17.5,39.1-39.1,39.1c-21.6,0-39.1-17.5-39.1-39.1s17.5-39.1,39.1-39.1
		C366.9,283.4,384.4,300.9,384.4,322.5z"/>
	<g>
		<path class="st1" d="M360.8,305c-10.8-0.9-15.3,8.4-15.5,8.6c-0.1-0.2-4.5-9.6-15.3-8.8c-13.5,1-23.4,24.4,15.1,40.3v0
			c0,0,0,0,0,0v0C383.9,329.7,374.3,306.2,360.8,305z"/>
	</g>
</g>
</svg>
