<?xml version="1.0" encoding="utf-8"?>
<!-- Generator: Adobe Illustrator 22.1.0, SVG Export Plug-In . SVG Version: 6.00 Build 0)  -->
<svg version="1.1" id="Layer_1" xmlns="http://www.w3.org/2000/svg" xmlns:xlink="http://www.w3.org/1999/xlink" x="0px" y="0px"
	 viewBox="0 0 612 792" style="enable-background:new 0 0 612 792;" xml:space="preserve">
<style type="text/css">
	.st0{fill:#604D48;}
	.st1{fill:#4BAB99;}
	.st2{fill:#CFA2AB;}
	.st3{fill:#EC1E4D;}
	.st4{fill:#FFFAEF;}


				.st1:hover
				{
				fill:red;

</style>
<g>
	<path class="st0" d="M437.4,317.6l-24.5-4.6c-2.2-0.4-4.4,1-4.8,3.3c-0.4,2.2,1,4.4,3.3,4.8l14.8,2.8L212.6,443.7l-20.7-8.3
		c-2.1-0.8-4.5,0.2-5.3,2.3c-0.8,2.1,0.2,4.5,2.3,5.3l14.6,5.8l-4.4,2.5l-20.2-7.9c-2.1-0.8-4.5,0.2-5.3,2.3
		c-0.8,2.1,0.2,4.5,2.3,5.3l17.8,6.9l-3.9,19.8c-0.4,2.2,1,4.4,3.2,4.8c0.3,0.1,0.5,0.1,0.8,0.1c1.9,0,3.6-1.4,4-3.3l4-20.2l6.1-3.4
		l-3,15.1c-0.4,2.2,1,4.4,3.2,4.8c0.3,0.1,0.5,0.1,0.8,0.1c1.9,0,3.6-1.4,4-3.3l4.3-21.9l213.7-120l-2.6,15.2
		c-0.4,2.2,1.1,4.4,3.3,4.7c0.2,0,0.5,0.1,0.7,0.1c2,0,3.7-1.4,4-3.4l4.3-24.8C441.1,320.1,439.6,318,437.4,317.6z"/>
	<g>
		<path id="change9" class="st1" d="M302.7,366.2c-18.9-1.9-27.4,15.8-27.8,16.4c-0.4-0.6-9.9-20.4-31.3-15.8
			c-22.6,4.8-23.8,33.6-8.1,48.9c16,15.6,39.3,31,39.3,31c0,0,23.4-15.4,39.4-31c6.3-6.1,9.9-14.4,10.5-22.5
			c-4.4-3.6-8.8-7.4-12.7-11.3C307.5,377.5,304.3,372,302.7,366.2z"/>
		<path id="change8" class="st2" d="M382.6,333c-21.4-4.6-30.9,15.2-31.3,15.8c-0.4-0.6-9.9-20.4-31.3-15.8
			c-16.1,3.4-21.3,19-17.3,33.2c1.1,0.1,2.3,0.3,3.5,0.5c13.6,2.9,19.4,14.4,18.5,26.5c13.4,11,26.6,19.7,26.6,19.7
			c0,0,23.4-15.4,39.3-31C406.4,366.5,405.2,337.8,382.6,333z"/>
		<path class="st3" d="M306.2,366.7c-1.2-0.3-2.3-0.4-3.5-0.5c1.6,5.8,4.7,11.3,9.3,15.7c3.9,3.9,8.3,7.7,12.7,11.3
			C325.6,381.2,319.8,369.6,306.2,366.7z"/>
	</g>
	<g>
		<path class="st0" d="M324.5,435c-1.1-0.1-3.1,1.7-4,2.2c-1.2,0.7-2.3,1.4-3.5,2.1c-1.2-2.3-2.2-4.8-3.2-7.2
			c-0.7-1.7,4-3.6,5.4-4.4c1.9-1,3.9-1.8,5.7-2.8c0.9-0.5,0.7-1.9,0-2.5c-1-0.9-2.5,0.2-3.4,0.7c-5.3,2.5-11.2,5.2-14.8,10.1
			c-1.8,2.5-2.4,5.5-0.8,8.2c0.8,1.4,4.2-0.5,3.4-2c-1.3-2.1,0.6-4.8,2.1-6.4c0.7,1.8,1.4,3.5,2.1,5.3c0.3,0.9,0.7,1.8,1,2.8
			c-0.5,0.4-1.1,0.9-1.6,1.4c-0.6,0.5-3.2,3.1-0.5,2.7c1-0.2,2-0.9,2.8-1.4c0.9,2.8,2.7,6.7,1.7,9.7c-0.8,2.4-5.6,0.7-5.6,3.6
			c0,4.3,6.3,0.6,7.6-1c2.2-2.8,1.8-6.5,0.8-9.7c-0.3-0.9-1.9-4.1-1.2-4.5c1.4-0.9,2.9-1.8,4.3-2.8c0.7-0.5,2.6-1.2,2.8-2.2
			C325.8,436.2,325.2,435.1,324.5,435z"/>
		<path class="st0" d="M329.7,439.8C330,439.6,329.6,439.6,329.7,439.8L329.7,439.8z"/>
		<path class="st0" d="M339.5,428.3C339.5,428.3,339.6,428.3,339.5,428.3C339.6,428.3,339.6,428.3,339.5,428.3z"/>
		<path class="st0" d="M339.6,428.2C339.6,427.6,339.6,428.1,339.6,428.2L339.6,428.2z"/>
		<polygon class="st0" points="341.2,428.5 341.2,428.5 341.2,428.5 		"/>
		<path class="st0" d="M350,427.3c-0.5,1.8-1.4,3.3-2.2,4.9c0.1-2.5-1-5.7-3.2-7.1c-3-1.9-4.6,0.5-5,3.2c-0.7-0.6,0.3-6.8,0.2-8.4
			c-0.3-2.5-1.7-7.3-4.9-7.3c-7.1,0.2-0.8,14.4,0.5,17.3c0.9,1.9,1.7,3.8,2.5,5.7c-1.1,0.4-1.4,2.8-2.1,3.9
			c-1.1,1.6-2.5,3.3-4.5,2.2c1.9-2,3.8-5.8,2.2-8.6c-1.7-2.9-5.7-1.9-7,0.8c-2.5,5,2.4,14.5,8.6,10.9c-0.2,0.1-0.5,0.3,0,0
			c0.2-0.1,0.1-0.1,0,0c2.2-1.3,3.5-3.6,4.4-6c0,0,0,0.1,0,0.1c1.2,2.3,5.2,0.1,6.8-0.8c0.8-0.6,1.6-1.7,1.8-2.7
			c1.4-1.3,2.7-2.8,3.5-4.6C352.6,428.6,351.8,428.6,350,427.3z M334.5,419.3c-0.2-0.7-0.4-5.8,1.2-3c0.3,0.6,0,0,0,0
			c1.9,3.7,1.4,7.9,1.6,11.9C336.3,425.3,335.2,422.4,334.5,419.3z M329.7,439.8c-0.6-1-1.7-7,0.9-5.5
			C332.6,435.3,331.2,438.9,329.7,439.8z M343,436.8c-1.7,0.6-1.8-2.1-2.6-3.4c-1.4-0.9-0.2-4.2,0.9-4.9c-0.1,0-0.1,0.1,0,0
			c0.2-0.1,0.1,0,0,0C344.3,426.7,347.5,435.2,343,436.8z"/>
		<polygon class="st0" points="380.6,412.1 380.6,412.1 380.6,412.1 		"/>
		<path class="st0" d="M387.1,409c-1.1-1.4-1.5-3.4-2.1-5.1c-0.5-1.3-1.1-3.8-2.9-2.7c-1.2,0.8-2.1-0.2-3.2,0.7
			c-3,2.4-3.2,7.7-1.8,11.3c-0.3,1.1-0.9,2.1-1.4,3c-1,1.7-1.8,1.8-2.8,0.1c-1.4-2.5-1.8-5.5-3.3-8c0,0,0.1,0.1,0,0
			c-0.1-0.1,0-0.1,0,0c-0.9-1.5-3.1,0.9-2.6,2.3c0.5,1.6,1.1,3.1,1.6,4.7c0.4,1.3,1.3,3,1,4.4c-0.7,3.3-2.6-0.4-3-1.5
			c-0.5-1.4-2-7.5-3.6-6.9c-2.6,0.8-1.3,4.1-0.4,6.2c-0.4,1.1-1.7,4.3-3.3,3.7c-1.4-0.5-1.7-2.8-2.2-4c-0.6-1.7-2.5-1.7-3.2,0
			c-0.8,1.7,0.1,3.6-0.4,5.1c-0.4-0.6-1.7-4.1-2.6-3.8c-1.3,0.5-1.5,1.2-1.2,2.4c0.8,3.2,2,6.5,3.6,9.3c-0.1-0.1-0.1-0.2,0,0
			c0.1,0.2,0.1,0.1,0,0c0.6,1,3.4,3.4,3.7,0.9c0.1-0.9-0.2-1.9-0.3-2.8c-0.4-2.2-0.8-4.4-1.3-6.5c0.1,0,0.1-0.1,0.2-0.1
			c2.4,3.1,5.6,4,7.8,0.2c0.2-0.3,0.3-0.7,0.4-0.9c0.6,1.7,1.4,3.6,3,4.1c2.8,0.9,4-3.5,4.3-5.4c2.2,2.4,4.2,1.4,5.8-1
			c0.6-0.9,1.2-1.9,1.6-2.9c2.7,2.6,6.5-0.3,7.1-3.8c3.8,2.9,6-1.9,6.2-5.2c-0.8-0.8-1.5-1.6-2.3-2.4
			C389.7,405.1,388.7,411.1,387.1,409z M383.3,412.3c-0.4,1.8-2,0.8-2.6-0.2c0,0,0,0.1,0,0c-0.1-0.2-0.1-0.1,0,0
			c-1.2-2-1.9-6.9,0.6-8.4c0.5,1.5,1,3.1,1.5,4.6C383.1,409.6,383.6,410.9,383.3,412.3z"/>
		<path class="st0" d="M392,406.7C392,406.7,392,407,392,406.7L392,406.7z"/>
		<path class="st0" d="M392.6,407C392.4,406.6,392.8,407.3,392.6,407L392.6,407z"/>
		<path class="st0" d="M417.7,405.6c-0.6-2-1.7-3.8-2.4-5.8c-0.4-1.3,0.9-3.1,1.4-4.3c0.3-0.7,1.5-3.4,0.9-4
			c-0.7-0.8-1.5-1.6-2.2-2.4c-0.2,2.5-0.4,5.2-1.7,7.4c-1.3-3.2-2.5-6.5-3.7-9.7c-0.3-0.9-0.7-2.9-2.1-2.1c-1.2,0.7-1.6,2.1-1.2,3.4
			c0.4,1.2,4.1,10.5,1.1,10.1c-2.2-0.3-3.6-6.6-4.1-8.3c-0.3-1-0.5-2.7-2-1.8c-1.2,0.7-1.3,2-1.1,3.3c0.1,1.1,0.4,2.5,0.9,3.9
			c-0.6,1.4-1.7,3.1-2.9,2.6c-1.4-0.5-1.7-2.8-2.2-4c-0.7-1.6-2.5-1.7-3.2,0c-0.8,1.7,0.1,3.6-0.4,5.1c-0.4-0.6-1.7-4.1-2.6-3.8
			c-1.3,0.5-1.5,1.2-1.2,2.4c0.8,3.2,2,6.5,3.7,9.4c0.6,1,3.4,3.4,3.7,0.9c0.1-0.9-0.2-1.9-0.3-2.8c-0.4-2.2-0.8-4.4-1.3-6.5
			c0.1,0,0.1-0.1,0.2-0.1c2.4,3.1,5.6,4,7.8,0.2c0,0,0-0.1,0.1-0.1c0.5,0.9,1.1,1.7,1.8,2.2c2.6,2,5.3,0,6.2-2.7
			c0.2,0.6,0.4,1.1,0.6,1.7c-1.1,3.4-2.9,9.9,0.1,12.8c1.7,1.6,4.4,0.6,5.6-1C418.5,409.8,418.3,407.5,417.7,405.6z M414.1,410.3
			c-1.6,1-1.4-5.6-1-7.3c-0.1,0.1-0.1,0.1,0.1-0.3C414,404.4,416.4,409,414.1,410.3z"/>
		<path class="st0" d="M413.2,402.7c0,0.1-0.1,0.2-0.1,0.3C413.2,402.9,413.2,402.7,413.2,402.7z"/>
		<path class="st0" d="M411.4,399.7C411.4,399.7,411.1,400.5,411.4,399.7L411.4,399.7z"/>
	</g>
	<g>
		<path class="st4" d="M255.4,405.8v8.1c0,0.5,0.1,0.8,0.3,1c0.1,0.1,0.2,0.2,0.3,0.2c0.1,0,0.4,0.1,0.9,0.2c0.6,0.1,0.9,0.5,0.9,1
			c0,0.4-0.2,0.6-0.5,0.8c-0.2,0.1-0.6,0.2-1.2,0.2h-0.6h-8.3h-0.6c-0.6,0-0.9-0.1-1.2-0.2c-0.3-0.2-0.5-0.5-0.5-0.8
			c0-0.5,0.3-0.9,0.9-1c0.5-0.1,0.8-0.2,0.9-0.2c0.1,0,0.2-0.1,0.3-0.2c0.2-0.2,0.3-0.6,0.3-1v-6.3l-5.3-12.5
			c-0.2-0.5-0.5-0.8-0.8-1c-0.3-0.2-0.5-0.4-0.6-0.5c-0.1-0.1-0.1-0.3-0.1-0.5c0-0.6,0.5-1,1.4-1h9.1c0.5,0,0.8,0.1,1,0.2
			c0.3,0.2,0.5,0.5,0.5,0.8c0,0.4-0.2,0.7-0.5,0.9l-0.5,0.3c-0.2,0.1-0.3,0.3-0.3,0.6c0,0.3,0.1,0.6,0.2,0.9L255.4,405.8z
			 M256.1,404l-1-2.4l1.9-4.4c0.2-0.4,0.2-0.9,0.2-1.5c0-0.7-0.4-1.2-1.2-1.5c-0.4-0.2-0.7-0.3-0.8-0.5c-0.1-0.1-0.2-0.3-0.2-0.6
			c0-0.3,0.1-0.6,0.3-0.8c0.1-0.1,0.3-0.2,0.5-0.2c0.2,0,0.5-0.1,1-0.1h4.6c0.9,0,1.3,0.3,1.3,1c0,0.2-0.1,0.4-0.2,0.6
			c-0.1,0.1-0.3,0.3-0.7,0.4c-0.6,0.3-1,0.5-1.3,0.8c-0.4,0.4-0.7,0.8-0.9,1.4l-0.4,0.9L256.1,404z"/>
		<path class="st4" d="M274.1,393.6c-0.6,0.2-1.1,0.5-1.3,0.9c-0.3,0.4-0.4,0.9-0.4,1.7v16.6c0,1.1,0.1,1.9,0.4,2.3
			c0.2,0.4,0.7,0.6,1.3,0.8v2c-2.7-0.2-5-1.3-6.9-3.1c-2.4-2.4-3.6-5.7-3.6-10c0-2.2,0.3-4.1,1-5.8c0.6-1.7,1.6-3.2,2.8-4.4
			c1-0.9,2-1.6,3.1-2.1c1.1-0.5,2.3-0.8,3.7-0.8V393.6z M275.6,393.6v-2c1.3,0.1,2.6,0.3,3.7,0.8c1.1,0.5,2.1,1.2,3.1,2.1
			c2.5,2.5,3.8,5.9,3.8,10.3c0,4.3-1.2,7.6-3.6,10c-1.9,1.9-4.2,2.9-6.9,3.1v-2c0.3-0.1,0.6-0.2,0.8-0.3c0.2-0.1,0.3-0.3,0.5-0.5
			c0.3-0.5,0.5-1.3,0.5-2.3v-16.6c0-0.7-0.1-1.2-0.3-1.6c-0.1-0.3-0.3-0.5-0.5-0.6C276.3,393.8,276,393.7,275.6,393.6z"/>
		<path class="st4" d="M290,410v-14.5c0-0.4-0.1-0.8-0.2-0.9c-0.1-0.1-0.1-0.2-0.2-0.2c-0.1,0-0.3-0.1-0.7-0.3
			c-0.5-0.2-0.7-0.5-0.7-1c0-0.3,0.1-0.6,0.4-0.7c0.2-0.2,0.6-0.3,1-0.3h0.5h8.3h0.5l0.7,0.1c0.2,0.1,0.4,0.2,0.5,0.3
			c0.1,0.2,0.2,0.4,0.2,0.6c0,0.5-0.2,0.8-0.7,1c-0.4,0.1-0.6,0.2-0.7,0.3c-0.1,0-0.1,0.1-0.2,0.2c-0.1,0.2-0.2,0.5-0.2,0.9V411
			c0,1.1,0,1.8,0.1,2.2c0.1,0.4,0.2,0.8,0.3,1.1c0.2,0.3,0.3,0.5,0.5,0.7c0.2,0.1,0.6,0.3,1.1,0.5v2.4H300c-1.6,0-2.9-0.1-4-0.4
			c-1.3-0.3-2.3-0.8-3.3-1.5c-0.9-0.7-1.6-1.4-2-2.2C290.2,412.9,290,411.6,290,410z M302.1,417.9v-2.4c1.2-0.2,2.3-0.7,3.1-1.5
			c0.9-1,1.4-2.4,1.4-4.2v-12.1c0-1.7-0.7-2.9-1.9-3.5c-0.4-0.2-0.6-0.4-0.8-0.5c-0.1-0.1-0.2-0.3-0.2-0.6c0-0.3,0.1-0.5,0.4-0.7
			c0.2-0.1,0.6-0.2,1.2-0.2h4.5c0.4,0,0.6,0,0.8,0c0.1,0,0.3,0.1,0.4,0.1c0.3,0.2,0.5,0.4,0.5,0.8c0,0.3-0.1,0.5-0.3,0.7
			c-0.1,0.1-0.3,0.2-0.8,0.5c-0.5,0.3-1,0.8-1.3,1.4c-0.3,0.6-0.5,1.3-0.5,2.1v12.1c0,2.1-0.5,3.8-1.4,5.1c-0.7,1-1.6,1.8-2.9,2.4
			C303.7,417.5,302.9,417.7,302.1,417.9z"/>
	</g>
	<g>
		<path class="st4" d="M336.6,357.3l3.7,10.4l1.6-5.6v6.2l-4.3,14.4h-1l-7.2-21.4c-0.2-0.7-0.5-1.2-0.8-1.4
			c-0.2-0.2-0.4-0.3-0.8-0.4c-0.8-0.2-1.2-0.6-1.2-1.2c0-0.3,0.1-0.6,0.3-0.8c0.2-0.2,0.6-0.3,1-0.3H336.6z M329.4,365.9l2,5.6v5.6
			c0,0.6,0,1,0.1,1.2c0,0.2,0.1,0.5,0.3,0.8c0.3,0.5,0.6,1,1.1,1.2l0.7,0.4c0.5,0.3,0.7,0.6,0.7,0.9c0,0.6-0.5,0.9-1.4,0.9h-4.7
			c-0.9,0-1.4-0.3-1.4-0.9c0-0.2,0-0.3,0.1-0.5c0.1-0.1,0.2-0.2,0.5-0.4c1.4-0.7,2.1-2,2.1-3.9V365.9z M343.4,357.3h8.2h0.5
			c0.9,0,1.4,0.3,1.4,1c0,0.5-0.3,0.8-0.7,1c-0.4,0.1-0.6,0.2-0.7,0.3c-0.1,0-0.1,0.1-0.2,0.2c-0.1,0.2-0.2,0.5-0.2,0.9v18.6
			c0,0.4,0.1,0.7,0.2,0.9c0.1,0.1,0.1,0.2,0.2,0.2c0.1,0,0.3,0.1,0.7,0.3c0.5,0.2,0.7,0.5,0.7,1c0,0.6-0.5,1-1.4,1h-0.5h-8.3h-0.6
			c-0.5,0-1-0.1-1.2-0.3c-0.3-0.2-0.4-0.4-0.4-0.8c0-0.5,0.3-0.9,0.9-1c0.5-0.1,0.8-0.2,0.9-0.2c0.1,0,0.2-0.1,0.3-0.2
			c0.2-0.2,0.3-0.6,0.3-1.1V357.3z"/>
		<path class="st4" d="M366.7,357.3v25.3h-8.3H358c-0.4,0-0.8-0.1-1-0.3c-0.2-0.2-0.4-0.4-0.4-0.7c0-0.5,0.2-0.8,0.7-1
			c0.4-0.1,0.6-0.2,0.7-0.3c0.1,0,0.1-0.1,0.2-0.2c0.1-0.2,0.2-0.5,0.2-0.9v-18.6c0-0.4-0.1-0.8-0.2-0.9c-0.1-0.1-0.1-0.2-0.2-0.2
			c-0.1,0-0.3-0.1-0.7-0.3c-0.5-0.2-0.7-0.5-0.7-1c0-0.3,0.1-0.5,0.4-0.7c0.2-0.2,0.6-0.3,1-0.3h0.5H366.7z M368.3,370.8v-2.2
			c0.7-0.3,1.3-0.7,1.6-1.1c0.3-0.4,0.6-1,0.8-1.6c0.1-0.5,0.2-0.8,0.4-1c0.2-0.2,0.4-0.3,0.7-0.3c0.4,0,0.7,0.2,0.8,0.5
			c0.1,0.2,0.1,0.5,0.1,1.1v7.1c0,0.6-0.1,1-0.2,1.2c-0.1,0.2-0.4,0.3-0.7,0.3c-0.3,0-0.5-0.1-0.7-0.3c-0.2-0.2-0.3-0.5-0.4-0.9
			c-0.2-0.9-0.5-1.5-0.9-2C369.4,371.3,368.9,371,368.3,370.8z M368.4,357.3h7.5v6.6c0,0.4-0.1,0.7-0.2,0.8
			c-0.1,0.2-0.4,0.3-0.7,0.3c-0.3,0-0.5-0.1-0.6-0.2c-0.1-0.1-0.2-0.3-0.4-0.7c-0.5-1.4-1.2-2.5-2.1-3.3c-0.9-0.8-2.1-1.2-3.5-1.4
			V357.3z M368.4,382.7v-2c0.8-0.1,1.5-0.3,2-0.5c0.5-0.2,1.1-0.6,1.6-1c0.5-0.5,1-0.9,1.3-1.4c0.3-0.5,0.6-1.1,0.9-1.9
			c0.1-0.4,0.3-0.7,0.4-0.8c0.1-0.1,0.4-0.2,0.6-0.2c0.3,0,0.6,0.1,0.7,0.3c0.1,0.2,0.2,0.6,0.2,1.1v6.6H368.4z"/>
	</g>
	<path class="st0" d="M280.6,480.7c-0.3,0-0.6-0.1-0.9-0.2c-0.9-0.3-1.2-2.7-1.4-3.5c-0.7-2.9-1.6-5.7-2.6-8.6c-0.3-1-0.7-1.9-1-2.9
		c-0.1-0.3-0.3-1.5-0.8-1.2c-0.3,0.1-0.4,0.7-0.5,0.9c-0.3,0.7-0.3,2-1,2.5c-0.6,0.5-2,0.6-2.4-0.2c-0.5-1,0.1-2,0.5-2.9
		c1.1-2.1,1.5-5.1,3.7-6.4c0.6-0.3,0.9-0.4,1-0.4c0.3,0,0.5,0.5,0.8,1.4c1.2,2.9,2.4,5.8,3.6,8.7c1.1,2.5,2.2,5.1,3,7.7
		c0.4,1.1,0.3,2.9-0.5,4C281.7,480.5,281.2,480.7,280.6,480.7z"/>
	<path class="st0" d="M299.7,459.7c0.6-0.3,0.7-0.7,0.7-0.8c0.1-0.5-0.2-1.5-0.6-1.7c-0.7-0.4-1.5,0.4-2,0.8
		c-0.3,0.2-0.6,0.4-0.9,0.6c-0.8-2.1-1.5-4.3-2.7-6.2c-0.7-1.2-2.1-1.3-2.7,0.2c-0.8,1.9,1,4.8,1.6,6.6c0.2,0.5,0.3,1,0.5,1.6
		c-0.3,0.2-0.5,0.3-0.8,0.5c-0.7,0.5-2,1.6-2.9,1.5c-0.4,0-0.3-0.3-0.4-0.6c-0.9-3.5-1.3-7.2-1.8-10.7c-0.2-1.2-0.3-1.4-1.4-1.2
		c-1.4,0.3-2.6,1.2-2.7,2.7c-0.1,1.4,0.4,2.8,0.7,4.2c0.7,3.7,1.4,7.4,1.8,11.1c0.1,0.5,0.2,0.9,0.3,0.9c0.5,0,1.1-0.5,1.5-0.8
		c0.6-0.5,1.2-1.1,1.8-1.7c1.3-1.3,2.7-2.4,4.2-3.4c0.1-0.1,0.3-0.2,0.4-0.3c0.5,1.6,0.9,3.2,1.3,4.8c0.2,0.8,0.5,3.2,1.4,3.5
		c0.3,0.1,0.6,0.2,0.9,0.2c0.6,0,1.1-0.3,1.5-0.8c0.8-1.1,0.9-2.9,0.5-4c-0.6-2-1.4-3.9-2.2-5.8c0.5-0.3,1-0.6,1.5-0.9L299.7,459.7z
		"/>
</g>
</svg>
