<?xml version="1.0" encoding="utf-8"?>
<!-- Generator: Adobe Illustrator 22.1.0, SVG Export Plug-In . SVG Version: 6.00 Build 0)  -->
<svg version="1.1" id="Layer_1" xmlns="http://www.w3.org/2000/svg" xmlns:xlink="http://www.w3.org/1999/xlink" x="0px" y="0px"
	 viewBox="0 0 612 792" style="enable-background:new 0 0 612 792;" xml:space="preserve">
<style type="text/css">
	.st0{clip-path:url(#SVGID_2_);}
	.st1{fill:#604D48;}
	.st2{fill:#FFFAEF;}
	.st3{fill:#CFA2AB;}
	.st4{fill-rule:evenodd;clip-rule:evenodd;fill:#604D48;}
	.st5{fill:#D78EBB;}
	.st6{clip-path:url(#SVGID_4_);}


			.st1:hover
			{
			fill:red;
			}



</style>
<g>
	<g>
		<defs>
			<path id="SVGID_1_" d="M337.7,438.3c-0.4,1-1.6,1.6-2.6,1.2L269.1,415c-1-0.4-1.6-1.5-1.2-2.6l17.2-46.3c0.4-1,1.5-1.6,2.6-1.2
				l65.9,24.4c1,0.4,1.6,1.5,1.2,2.6L337.7,438.3z"/>
		</defs>
		<clipPath id="SVGID_2_">
			<use xlink:href="#SVGID_1_"  style="overflow:visible;"/>
		</clipPath>
		<g class="st0">
			<path class="st1" d="M369.4,392.6c-0.2,0-0.5,0-0.7-0.1L266.4,355c-1-0.4-1.6-1.5-1.2-2.6c0.4-1,1.5-1.6,2.6-1.2l102.3,37.5
				c1,0.4,1.6,1.5,1.2,2.6C371,392.1,370.2,392.6,369.4,392.6z"/>
			<path class="st1" d="M367,398.2c-0.2,0-0.5,0-0.7-0.1l-102.3-37.5c-1-0.4-1.6-1.5-1.2-2.6c0.4-1,1.5-1.6,2.6-1.2l102.3,37.5
				c1,0.4,1.6,1.5,1.2,2.6C368.6,397.7,367.8,398.2,367,398.2z"/>
			<path class="st1" d="M364.5,403.7c-0.2,0-0.5,0-0.7-0.1l-102.3-37.5c-1-0.4-1.6-1.5-1.2-2.6c0.4-1,1.5-1.6,2.6-1.2l102.3,37.5
				c1,0.4,1.6,1.5,1.2,2.6C366.1,403.2,365.3,403.7,364.5,403.7z"/>
			<path class="st1" d="M361.8,409.7c-0.2,0-0.5,0-0.7-0.1l-102.3-37.5c-1-0.4-1.6-1.5-1.2-2.6c0.4-1,1.5-1.6,2.6-1.2l102.3,37.5
				c1,0.4,1.6,1.5,1.2,2.6C363.4,409.2,362.6,409.7,361.8,409.7z"/>
			<path class="st1" d="M359.7,415.4c-0.2,0-0.5,0-0.7-0.1l-102.3-37.5c-1-0.4-1.6-1.5-1.2-2.6c0.4-1,1.5-1.6,2.6-1.2l102.3,37.5
				c1,0.4,1.6,1.5,1.2,2.6C361.3,414.9,360.5,415.4,359.7,415.4z"/>
			<path class="st1" d="M356.7,421c-0.2,0-0.5,0-0.7-0.1l-102.3-37.5c-1-0.4-1.6-1.5-1.2-2.6c0.4-1,1.5-1.6,2.6-1.2l102.3,37.5
				c1,0.4,1.6,1.5,1.2,2.6C358.3,420.5,357.6,421,356.7,421z"/>
			<path class="st1" d="M354.3,426.6c-0.2,0-0.5,0-0.7-0.1L251.3,389c-1-0.4-1.6-1.5-1.2-2.6c0.4-1,1.5-1.6,2.6-1.2L355,422.7
				c1,0.4,1.6,1.5,1.2,2.6C355.9,426.1,355.1,426.6,354.3,426.6z"/>
			<path class="st1" d="M351.8,432.2c-0.2,0-0.5,0-0.7-0.1l-102.3-37.5c-1-0.4-1.6-1.5-1.2-2.6c0.4-1,1.5-1.6,2.6-1.2l102.3,37.5
				c1,0.4,1.6,1.5,1.2,2.6C353.4,431.6,352.7,432.2,351.8,432.2z"/>
			<path class="st1" d="M349.3,437.8c-0.2,0-0.5,0-0.7-0.1l-102.3-37.5c-1-0.4-1.6-1.5-1.2-2.6c0.4-1,1.5-1.6,2.6-1.2L350,433.9
				c1,0.4,1.6,1.5,1.2,2.6C350.9,437.3,350.1,437.8,349.3,437.8z"/>
			<path class="st1" d="M346.5,444c-0.2,0-0.5,0-0.7-0.1l-102.3-37.5c-1-0.4-1.6-1.5-1.2-2.6c0.4-1,1.5-1.6,2.6-1.2l102.3,37.5
				c1,0.4,1.6,1.5,1.2,2.6C348,443.5,347.3,444,346.5,444z"/>
		</g>
	</g>
	<path class="st2" d="M315.9,442.4c-0.4,1-1.5,1.6-2.6,1.2l-61.7-22.7c-1-0.4-1.6-1.5-1.2-2.6l16.3-44.9c0.4-1,1.5-1.6,2.6-1.2
		L331,395c1,0.4,1.6,1.5,1.2,2.6L315.9,442.4z"/>
	<path class="st1" d="M314.4,445.1c-0.3,0-0.5,0-0.7-0.1l-63.3-23.5c-1-0.4-1.6-1.5-1.2-2.6l17.3-46.6c0.3-0.8,1-1.3,1.9-1.3
		c0.3,0,0.5,0,0.7,0.1l63.3,23.5c1,0.4,1.6,1.5,1.2,2.6l-17.3,46.6C316,444.6,315.2,445.1,314.4,445.1z M260.4,418.3l47.4,17.2
		l-8-20.3c0,0-7.3,2.7-10.2,3.6c-2.9,1-3.4,0.1-4.9-2.6l-4.8-8.9L260.4,418.3z M304.8,412.1l8.6,20.7l10.5-29.5L304.8,412.1z
		 M289.8,412.4l30.8-14.7l-45.4-17.2L289.8,412.4z M258.3,412.5l19-10.3l-8.6-18.8L258.3,412.5z"/>
	<path class="st3" d="M297.6,408.4c-3.8-1.9-6.8,0.8-6.9,0.9c0-0.1-0.3-4.1-4.4-5.4c-5.1-1.6-12.1,5.4-0.1,16.7v0c0,0,0,0,0,0
		c0,0,0,0,0,0l0,0C302.6,420.6,302.4,410.8,297.6,408.4z"/>
</g>
<g>
	<g>
		<polygon class="st1" points="125.5,530.5 77.9,530.5 77.9,528.5 124.9,528.5 158.4,509 159.4,510.7 		"/>

			<rect x="141.2" y="519.7" transform="matrix(0.5025 -0.8646 0.8646 0.5025 -395.5826 391.2077)" class="st1" width="2" height="39.2"/>
		<path class="st4" d="M81,529.1c0.6,2.3,1.5,4.9,3.2,6.8l0,2.9l-4.2,0.1c-2.5-2.3-4.5-4.7-5.9-7.1c-6,0.2-12,0.6-18.1,1
			c2.4,8.1,6.3,16.1,11.1,24.2c1.9,3-2,5-3.9,2.9l-21.7-25.7c-4.5,0.1-9.4-0.5-13.8-0.8c-1.5-0.1-4.2-0.6-4.5-3.3
			c-0.3-2.9,3.3-3.5,4.7-3.7c4.9-1,8.9-1.6,13.8-1.7l19.9-25.9c1.9-2.2,6.6-1.2,4.9,1.6c-4.4,8-8.4,16.2-10.6,25
			c6,0.1,12.1,0.4,18.3,0.6c1.3-2.3,3.1-4.5,5.2-6.8l4.2-0.1l0.1,2.9C82.3,524.1,81.5,526.7,81,529.1z"/>
		<rect id="change11_1_" x="157.1" y="508.4" class="st3" width="424" height="42.1"/>
		<polygon id="change11" class="st3" points="584.1,512.6 584.1,546.3 610.1,546.3 599,529.4 610.1,512.6 		"/>
		<g>
			<path class="st2" d="M567.3,522c-3.6-0.8-5.2,3.2-5.3,3.3c-0.1-0.1-1.7-4.1-5.3-3.3c-3.8,0.8-4,5.7-1.4,8.3
				c2.7,2.6,5.2,5,6.7,8.6v0.1c0,0,0,0,0,0c0,0,0,0,0,0v-0.1c1.5-3.6,4-5.9,6.7-8.6C571.3,527.7,571.1,522.8,567.3,522z"/>
		</g>
	</g>
	<g>
		<path class="st2" d="M292.7,534.5c-0.8,0.9-1.8,1.8-3,2.2c-0.9,0.4-1.9,0.1-2.9,0.3c-0.8,0.1-1.5,0.5-1.4-0.3
			c0.5-1.5,1.1-3.1,1.6-4.6c0.6-1.8,1.2-3.6,1.8-5.4c0.2-0.6,0.7-1.5,0.7-2.1c0-1.1-1.4-1.1-2.2-1.1c-1.2,0-1.5,1.5-1.9,2.4
			c-1.1,2.5-2.2,5.1-3.7,7.5c-0.6,0.9-3,3.8-4,1.9c-0.8-1.5,0.6-4,1.1-5.4c0.6-1.6,1.1-3.6,2.1-5c0.7-1.1-1-1.7-1.8-1.7
			c-1.2,0-1.7,0.6-2.2,1.6c-1.1,2.2-1.9,4.6-2.5,7c-0.2,1.1-0.4,2.2-0.4,3.3c-0.8,1-1.9,1.7-3.1,2c-1,0.3-2.2,0.3-3.2,0
			c-1.1-0.3,0.2-1.3,0.6-1.8c1.6-2.2,2.6-4.3,2.7-7.1c0.1-2.2-1.6-4.1-3.9-4.1c-2.3,0-4.3,2.3-5.6,3.8c-0.1,0-0.1,0.1-0.2,0.1
			c-0.5-0.3,1.6-4.9,1.5-5.6c-0.1-1-1.7-0.9-2.4-0.8c-1.4,0.2-1.5,1.2-1.8,2.4c-0.8,2.9-1.7,5.8-2.5,8.7c-0.4,1.3-0.5,2.6-1.7,3.4
			c-0.9,0.7-2,1-3.1,1.1c-0.2,0-2.8,0.1-2.6-0.5c0.2-0.8,1.5-2,2-2.6c1.3-2,1.9-4,1.9-6.3c0-2.2-2.1-4-4.2-3.7
			c-0.9,0.1-5.9,3.5-5.4,3.9c-0.5-0.3,1.6-4.9,1.5-5.6c-0.1-1-1.7-0.9-2.4-0.8c-1.6,0.2-1.7,1.8-2.1,3.1c-0.8,2.9-1.6,5.8-2.4,8.7
			c-0.4,1.5-0.7,2.3-2.1,3.1c-1.1,0.7-2.2,0.8-3.5,0.5c-2.3-0.6-0.6-3.6-0.1-5c0.9-2.3,1.9-4.5,2.9-6.6c0.7-1.9-2.8-2.2-3.7-1
			c-0.8,1-1.6,0.1-2.7-0.1c-1.6-0.3-3.2,0.1-4.7,0.7c-2.1,1-3.9,2.7-4.9,4.8c-0.6,1.2-1.1,2.4-1.4,3.7c-0.1,0.6-0.2,1.1-0.2,1.7
			c0,0.9-0.7,1.2-1.6,1.6c-1.2,0.6-4.9,0.9-4.9-1.2c0-1.5,0.6-3,1-4.4c0.7-2.5,1.5-5,2.4-7.4c0.4-1.1,0.8-2.2,1.3-3.3
			c0.7-1.4,1.5-0.9,2.5-1.8c1.6-1.1,2.1-4.6-0.6-4.6c-2,0-3.5,2.2-4.4,3.6c-1.3,2-2.4,4.3-3.3,6.5c-0.4,0.9-0.7,1.3-1.7,1.3
			c-0.6,0-2.7,0.2-3.2-0.2c-0.5-0.4,1.8-5.7,2.1-6.5c0.5-1.5,1.6-3.5-0.4-4.2c-2.8-0.9-12.4-2.3-12.4,2.8c0,2.2,2.3-0.4,3.3-0.5
			c0.7-0.1,6.5-0.4,5.8,1.2c-0.5,1.4-1,2.8-1.4,4.3c-0.3,0.9-0.6,3.1-1.4,3.6c-0.7,0.5-2.1,0.5-2.9,0.8c-1.4,0.5-2.8,1.2-4,2.1
			c-1.8,1.4-3.3,3.9-3.3,6.2c0,2.8,2.4,4.4,5,4.2c2.3-0.2,4.1-1.8,5.4-3.7c0.7-1,1.3-2.2,1.8-3.3c0.5-1.1,0.6-2.9,1.4-3.8
			c0.7-0.7,2.9-0.3,3.7-0.3c1.1,0-0.3,5-0.5,6c-0.3,2-0.5,3.6,1.8,4.5c2.7,1.1,6.8,1,9.1-0.9c1.1,1.9,3.4,2.2,5.3,1.3
			c1-0.5,1.9-1.2,2.6-1.9c0.2-0.2,1.7-2.4,1.9-2.3c0.3,0.5-0.4,1.7-0.2,2.4c0.2,1,1.1,1.6,2,1.8c2,0.5,4.6,0.4,6.5-0.6
			c-0.5,1.7-1,3.3-1.5,5c-0.3,1-1.4,2.8-1.2,3.8c0.2,1.3,2.9,0.8,3.6,0.4c1.3-0.7,1.6-4.1,1.9-5.4c0.3-1,0.6-2,0.9-3
			c0.4-0.5,1.6-0.1,2.1,0c1.1,0.1,2.3,0,3.4-0.4c1-0.3,3,0.5,4.1,0.5c1.7,0.1,3.6-0.1,5.1-0.9c-0.5,1.7-1,3.3-1.5,5
			c-0.2,0.7-1.7,3.5-1.1,4.2c0.9,1,3.5,0.6,4-0.6c0.6-2.1,1.1-4.1,1.7-6.2c0.3-1.1,0.2-1.7,1.5-1.6c0.6,0.1,1.2,0.1,1.7,0.2
			c0.5,0.1,1.1-0.2,1.6-0.3c0.9-0.2,1.5-0.2,2.4,0c3.1,0.6,7,0.5,9.4-1.7c0.9,1.8,2.7,2.1,4.4,1.3c1-0.5,1.9-1.2,2.7-2
			c0.2-0.2,1.7-2.1,1.8-1.8c0.2,0.4-0.7,2-0.9,2.4c-0.4,0.9-0.6,2.2-1.2,3c-0.8,1.3-2.6,2-3.5,3.3c-0.6,0.9-1.5,3.1-0.1,3.7
			c1.4,0.7,3.2-0.6,4-1.7c1.6-2,2.2-6.1,5.2-6.3c1.6,0,3.2-0.2,4.7-1c0.8-0.5,1.6-1,1.7-2C293.2,536,293.1,534,292.7,534.5
			C292.3,535.1,292.8,534.4,292.7,534.5z M197.8,533.4c-0.6,0.9-1.3,2.2-2.5,2.4c-1.1,0.2-2-0.4-1.8-1.6c0.3-1.3,1.4-2.4,2.4-3.3
			c0.5-0.5,2.6-2.4,3.5-2C199.9,529.6,198.1,532.8,197.8,533.4C196.8,535,198.5,532.1,197.8,533.4z M229.6,527.7
			c-1.1,2.3-2.3,4.5-3.9,6.4c-0.8,0.9-3.8,4.2-4.3,1.2c-0.3-2.2,1.2-4.9,2.8-6.4c0.9-0.9,2-1.6,3.2-2
			C227.8,526.8,230.2,526.6,229.6,527.7C228.5,530.3,229.7,527.7,229.6,527.7z M245.9,535.7c-0.7,0.9-1.7,0-2.7-0.1
			c-0.6,0-2.6,0.6-2.3-0.4c0.8-2.2,2.4-4.4,3.8-6.2c0.9-1.1,3.8-3.5,4.3-0.6C249.5,530.8,247.4,533.9,245.9,535.7
			C245.6,536,246.7,534.7,245.9,535.7z M264.3,535.7c-0.7,0.9-1.7,0-2.7-0.1c-0.6,0-2.6,0.6-2.3-0.4c0.8-2.2,2.4-4.4,3.8-6.2
			c0.9-1.1,3.8-3.5,4.3-0.6C267.8,530.8,265.7,533.9,264.3,535.7C263.9,536,265,534.7,264.3,535.7z"/>
		<path class="st2" d="M327.2,522.7c1,0.4,1.6,0.6,2.2-0.5c0.7-1.1-0.2-1.4-1.1-1.8c-2-0.9,0-3.6-1.2-5.3c-1.4-1.9-4.1-1-4.4,1.3
			c-0.1,1,0,2.2,0.6,3.2c0.7,1.3,0.7,1.7,0.2,3.2c-1.4,4.6-4.3,10.7-9.2,12.5c-5.7,2.1-2.8-8-2-10.3c0.8-2.3,1.9-4.4,3.1-6.5
			c0.5-0.9,2-2.6,2-3.6c0-1.1-2-1-2.6-1c-1.9,0-3,2.2-3.8,3.6c-1.4,2.7-2.5,5.7-3.3,8.6c-1.1,3.9-2.8,11.7,2.8,12.9
			c4.7,0.9,9.2-3.2,11.6-6.7c1-1.5,1.8-3.1,2.5-4.7C325.2,526.7,326.1,522.4,327.2,522.7C327.4,522.8,326.8,522.6,327.2,522.7z"/>
		<path class="st2" d="M406.9,518.2c2.5,1.1,4.7-3.3,2.1-4.4C406.3,512.9,404.3,517.1,406.9,518.2
			C407.2,518.3,406.1,517.9,406.9,518.2z"/>
		<path class="st2" d="M444.1,534.5c-1.9,2.6-5.6,3.1-8.5,2.2c-2-0.7-0.6-1.2,0.5-2.1c1.5-1.3,2.9-2.9,3.8-4.6
			c1.3-2.8,0.3-6.5-3.2-6.5c-4.2,0-6.8,3.6-7.7,7.4c-0.2,0.8-0.3,1.6-0.3,2.4c0,0.8,0.6,1.8-0.1,2.4c-1.4,1.1-2.8,1.8-4.6,1.4
			c-2.6-0.5,0.2-5.1,0.6-6.4c0.8-2.1,2.7-6.4-0.8-7.1c-1.3-0.3-2.7,0.4-3.7,1.2c-0.6,0.5-1.2,1-1.8,1.6c-0.4,0.4-1.7,2.4-2.3,2.4
			c-0.2,0,1.7-4.8,1.1-5.4c-0.5-0.5-2.1-0.4-2.7-0.2c-1.1,0.4-1.2,1.5-1.4,2.4c-0.6,2.3-1.2,4.7-1.8,7c-0.3,1.2-0.4,2.3-1.4,3.1
			c-1.1,0.9-2.3,1.6-3.7,1.5c-3-0.2-2.3-2-1.6-4.2c0.5-1.4,0.9-2.7,1.4-4.1c0.4-1.1,1.5-3,1.3-4.2c-0.2-1.2-1.7-1.2-2.7-1
			c-1.5,0.2-1.6,1.2-2,2.5c-0.8,2.6-1.6,5.1-2.2,7.7c-0.4,1.9-2.4,3.6-4.5,3.3c-3.5-0.4-1.8-3.7-1.2-5.9c0.4-1.3,0.8-2.6,1.1-3.9
			c0.3-0.7,2-0.3,2.6-0.3c0.6,0,0.9-0.1,1.1-0.8c0.5-1.6-0.8-1.4-2-1.4c-1.5,0-0.4-1.6-0.2-2.5c0.4-1.3,0.8-2.6,1.3-3.9
			c0.5-1.5-0.1-2-1.6-2c-2.1,0-2.3,0.9-2.8,2.7c-0.4,1.3-0.9,5.8-2.6,5.6c-0.7,0.1-1.2-0.1-1.5,0.8c-0.5,1.5-0.1,1.5,1.4,1.5
			c0.8,0.2-0.4,3.2-0.6,3.7c-0.3,0.9-0.4,3.4-1,4.1c-1.6,2.3-7.9,4.1-6.2-0.3c0.8-2.1,4.1-8.1,2-10.1c-1.2-1.1-2.9-0.8-4.3-0.1
			c-0.8,0.4-1.5,1-2.1,1.7c-0.5,0.5-2.1,2.9-2.7,2.9c-0.2,0,1.7-4.8,1.1-5.4c-0.5-0.5-2.1-0.4-2.7-0.2c-1.1,0.4-1.2,1.5-1.4,2.4
			c-0.6,2.3-1.2,4.7-1.8,7c-0.3,1.2-0.4,2.2-1.4,3.1c-1.1,1-2.3,1.4-3.8,1.5c-0.5,0-5.8-0.3-4.8-1.3c2.1-1.6,4.5-3.8,5.5-6.3
			c0.7-1.9,0.5-4.5-1.4-5.6c-2.3-1.3-5.5,0-7.2,1.8c-1.7,1.8-2.7,4.5-2.8,6.9c-0.1,1.5,0.7,2.4-0.7,3.4c-1.2,0.8-2.2,1.2-3.7,1
			c-2.4-0.3-1.5-2.4-1-4.1c0.7-2.7,1.5-5.4,2.4-8c0.8-2.4,2.5-4.2,3.5-6.5c0.8-2.1-0.1-5.7-3-4.1c-1.8,1-2.4,3.7-3,5.5
			c-1,2.9-1.9,5.9-2.6,8.9c-0.6,2.3-0.4,5.8-2.4,7.2c-1.5,1-6,2.1-5.2-1.1c0.8-3,2.3-5.9,3.5-8.7c0.3-0.6,1-1.8,0-2.2
			c-1.1-0.4-2.5-0.8-3.3,0.3c-0.8,1.1-2.1-0.1-3.3-0.2c-1.8-0.1-3.7,0.5-5.2,1.5c-2.5,1.6-4.3,4.4-5,7.2c-0.7,2.6-0.2,6.2,3.1,6.6
			c1.5,0.2,3-0.5,4.1-1.4c0.3-0.3,2.9-3.3,3-3.3c0.4,0.8-0.6,1.9-0.1,2.9c0.6,1.1,1.9,1.4,3,1.5c2.5,0.2,5-0.1,6.9-1.9
			c1.3,3.3,8.7,2.4,10.2-0.3c2.6,3.5,10.3,3.3,13.6,1c-0.4,1.9,2.2,1.9,3,0.6c1.1-1.6,1.7-3.8,2.6-5.5c0.9-1.6,1.9-3.3,3.2-4.7
			c0.7-0.7,3.5-2.4,2.5,0c-0.9,2.2-4.1,7.3-2,9.6c2,2.1,9.2,1.9,10.5-1.1c1.6,3.8,8.1,2.6,10.4,0.3c1.8,3,6.9,2.5,9.4,0.8
			c-0.4,1.9,2.2,1.9,3,0.6c1.1-1.6,1.7-3.8,2.6-5.5c0.9-1.6,1.9-3.3,3.2-4.7c0.7-0.7,3.5-2.4,2.5,0c-0.9,2.2-4.1,7.3-2,9.6
			c2.1,2.2,8.9,1.8,10.4-1c2,2.7,6.1,2.7,9.1,2.4c1.6-0.1,3.2-0.5,4.5-1.4c0.6-0.5,1.1-0.8,1.2-1.6C444.6,536,444.5,534,444.1,534.5
			C443,536,444.2,534.4,444.1,534.5z M338.5,527.7c-1.1,2.3-2.3,4.5-3.9,6.4c-0.8,0.9-3.8,4.2-4.3,1.2c-0.3-2.2,1.2-4.9,2.8-6.4
			c0.9-0.9,2-1.6,3.2-2C336.7,526.8,339.1,526.6,338.5,527.7C337.4,530.3,338.6,527.7,338.5,527.7z M359.6,533.1
			c0-1.6,0.7-3.4,1.5-4.8c0.5-0.9,3.5-3.4,3.9-1.2c0.3,1.5-0.9,3.2-1.8,4.2C362.7,532,359.6,535.3,359.6,533.1
			C359.6,532,359.6,533.9,359.6,533.1z M432.5,533.1c0-1.6,0.7-3.4,1.5-4.8c0.5-0.9,3.5-3.4,3.9-1.2c0.3,1.5-0.9,3.2-1.8,4.2
			C435.6,532,432.5,535.3,432.5,533.1C432.5,532,432.5,533.9,432.5,533.1z"/>
		<path class="st2" d="M454.6,513.1c0-1.9-3-1.5-3.8-0.2c-0.5,0.8-0.3,2.2-0.7,3.2c-0.3,0.9-0.9,1.9-1.4,2.7
			c-1.4,2.1,0.7,2.6,2.3,1.2C452.7,518.4,454.6,515.6,454.6,513.1C454.6,513,454.6,514.1,454.6,513.1z"/>
		<path class="st2" d="M471,534.5c-0.8,1.1-2.2,2.1-3.6,2.4c-0.8,0.2-3,0.4-2.1-0.9c2-2.7,1.9-7.3-0.9-9.5c-0.6-0.4,1.3-2.9,1.1-3.7
			c-0.4-1.7-2.9-1-3.8-0.4c-1.6,0.9-1.3,2.2-0.9,3.6c0.2,1-1.2,2.6-1.7,3.3c-1.7,2.6-3.7,6.2-6.7,7.4c-0.5,0.2-1.1,0.1-1.1,0.7
			c0,1.1,0.2,1.6,1.3,1.3c0.8-0.2,1.6-0.6,2.2-1.1c0.2-0.2,1.7,1,2,1.1c1.4,0.6,3.2,0.5,4.7,0.1c0.8-0.8,2.6,0,3.5,0.1
			c1.9,0.1,3.7-0.1,5.3-1.2c0.6-0.5,1.1-0.8,1.2-1.6C471.5,536,471.4,534,471,534.5C470.5,535.2,471.1,534.4,471,534.5z
			 M462.5,533.8c-0.4,1.2-1.5,3.2-3.1,3c-0.3-0.1-0.4-0.4-0.4-0.8c-0.3-0.5-0.6-0.5-1-0.9c-0.4-0.3,0.6-1.2,0.8-1.5
			c1-1.2,2.1-2.5,2.9-3.9C462.5,528.3,462.7,533,462.5,533.8C462,535.3,462.6,533.2,462.5,533.8z"/>
		<path class="st2" d="M542.9,534.6c-0.1-0.4-1.8,1.3-2.1,1.5c-1.1,0.7-2.1,0.9-3.4,0.9c-0.7,0-1.4,0.2-2.1,0.2
			c-0.4-0.4,1-3.4,1.2-4c1-2.8,2.1-5.7,2.9-8.6c0.2-0.6-0.6-1-1-1.1c-1.2-0.2-2-0.1-2.5,1.1c-1.2,2.6-2.2,5.3-3.7,7.7
			c-0.8,1.3-2.2,3.8-4.1,3.2c-1.6-0.6-0.2-3.7,0.2-4.6c0.7-2,1.5-4.1,2.4-6c1-2-2.5-2.7-3.4-1.2c-1.2,2-2,4.3-2.6,6.5
			c-0.3,1.1-0.6,2.3-0.7,3.5c-0.2,1.5-1,2.1-2.4,2.7c-1.3,0.6-4.4,0.7-4.1-1.4c0.4-2.7,1.9-5.4,3-7.8c0.7-1.6,2.1-3.4-0.4-3.8
			c-0.9-0.2-1.6-0.3-2.3,0.6c-0.8,1.1-2.1-0.1-3.3-0.2c-4.9-0.3-8.7,3.8-10.1,8.1c-0.3,0.9-0.5,1.9-0.5,2.9c0,1-1.6,1.8-2.6,2
			c-1.7,0.4-3.3-0.2-3.1-2.1c0.4-3.8,2.2-7.8,3.6-11.3c0.9-2.2,1.8-4.4,2.8-6.6c0.3-0.7,1-1.8,0.7-2.5c-0.4-0.8-1.8-0.9-2.6-0.8
			c-1.4,0.1-1.9,1.6-2.3,2.7c-0.8,2-1.6,4-2.4,6c-0.1,0.3-0.4,1.5-0.8,1.7c-0.9,0.4-2.3-0.5-3.3-0.4c-2.2,0.2-4.4,1.4-5.9,3
			c-2.4,2.4-5.3,9-2.1,11.9c1.4,1.2,3.3,1,4.8,0.1c0.8-0.5,1.5-1.1,2.1-1.8c0.4-0.4,1.7-2.5,2.2-2.5c-0.1,0-0.3,2.4-0.2,2.7
			c0.3,1.2,1.5,1.7,2.6,1.9c2.4,0.4,5,0.1,6.9-1.4c1,1.7,3,2.2,4.8,1.6c1.2-0.4,2.2-1.3,3.1-2.2c0.2-0.2,1.7-2.4,1.9-2.3
			c0.4,0.8-0.6,1.9-0.1,2.9c0.6,1.1,1.9,1.4,3,1.5c2.5,0.2,5-0.1,6.9-1.9c0.9,1.8,2.7,2.1,4.4,1.3c1-0.5,1.9-1.2,2.7-2
			c0.2-0.2,1.7-2.1,1.8-1.8c0.1,0.4-0.7,2-0.9,2.4c-0.4,0.9-0.6,2.2-1.2,3c-0.8,1.3-2.6,2-3.5,3.3c-0.6,0.9-1.5,3.1-0.1,3.7
			c1.3,0.6,2.9-0.5,3.8-1.4c1.5-1.6,2.3-6.2,4.8-6.6C538.4,538.8,544.5,538.6,542.9,534.6C542.8,534.4,543,535.1,542.9,534.6z
			 M496.4,527.1c-0.5,2-2,4.3-3.2,6c-0.5,0.8-4,5.4-4.6,2.3c-0.4-2,1.3-4.8,2.4-6.2c0.8-0.9,1.7-1.7,2.8-2.2
			C494.1,526.9,496.7,526,496.4,527.1C496.3,527.3,496.5,526.8,496.4,527.1z M516.1,527.7c-1.1,2.3-2.3,4.5-3.9,6.4
			c-0.8,0.9-3.8,4.2-4.3,1.2c-0.3-2.2,1.2-4.9,2.8-6.4c0.9-0.9,2-1.6,3.2-2C514.3,526.8,516.7,526.6,516.1,527.7
			C514.9,530.3,516.1,527.7,516.1,527.7z"/>
	</g>
</g>
<g>
	<path class="st1" d="M309.1,158.6c-23.9,0-43.4,19.4-43.4,43.4c0,8.8,2.6,16.9,7.1,23.7l-8.3,17.7l20-5.7c7,4.8,15.4,7.6,24.5,7.6
		c23.9,0,43.4-19.4,43.4-43.4S333.1,158.6,309.1,158.6z"/>
	<g id="change13">
		<path class="st5" d="M302.6,221.3c-2.4-0.1-3,2.6-3,2.7c-0.1-0.1-1.5-2.4-3.8-1.5c-2.3,1-1.9,4.1,0.1,5.4c2,1.4,3.9,2.6,5.2,4.7
			l0,0c0,0,0,0,0,0c0,0,0,0,0,0l0,0c0.5-2.5,1.9-4.2,3.3-6.2C305.8,224.5,305.2,221.4,302.6,221.3z"/>
		<path class="st5" d="M316.7,217.8c-2.4-0.1-3,2.6-3,2.7c-0.1-0.1-1.5-2.4-3.8-1.5c-2.3,1-1.9,4.1,0.1,5.4c2,1.4,3.9,2.6,5.2,4.7
			l0,0c0,0,0,0,0,0c0,0,0,0,0,0l0,0c0.5-2.5,1.9-4.2,3.3-6.2C320,221,319.3,217.9,316.7,217.8z"/>
		<path class="st5" d="M330.6,214.6c-2.4-0.1-3,2.6-3,2.7c-0.1-0.1-1.5-2.4-3.8-1.5c-2.3,1-1.9,4.1,0.1,5.4c2,1.4,3.9,2.6,5.2,4.7
			l0,0c0,0,0,0,0,0c0,0,0,0,0,0l0,0c0.5-2.5,1.9-4.2,3.3-6.2C333.8,217.8,333.1,214.7,330.6,214.6z"/>
	</g>
	<g>
		<g>
			<path class="st2" d="M312.4,188.1l0.4-5.8c0-0.2,0-0.3,0-0.4c-0.1-0.2-0.2-0.3-0.6-0.3l-0.4,0l-0.1-0.3c0,0,0.7-0.1,1.4-0.3
				c0.7-0.2,1.2-0.3,1.2-0.3l0.1,0.3l-0.2,0.1c-0.4,0.2-0.7,0.7-0.7,1.4l-0.8,7.3l-0.4,0.1l-3.5-5.7l-0.6,6.6l-0.4,0.1l-4.2-6.7
				c-0.3-0.5-0.5-0.6-1-0.5l-0.4,0l-0.1-0.3c0,0,0.7-0.1,1.6-0.3c1-0.2,1.7-0.4,1.7-0.4l0.1,0.3l-0.2,0.1c-0.4,0.2-0.6,0.4-0.5,0.8
				c0,0.1,0.1,0.2,0.1,0.3l2.9,4.8l0.4-5.9c0-0.1,0-0.2,0-0.3c-0.1-0.3-0.3-0.4-0.7-0.3l-0.4,0l-0.1-0.3c0,0,0.7-0.1,1.4-0.3
				c0.2,0,0.4-0.1,0.4-0.1s0.1,0.3,0.4,0.9L312.4,188.1z"/>
			<path class="st2" d="M307.9,191.1L307.9,191.1l-4.2-6.7c-0.3-0.5-0.5-0.5-0.9-0.5l-0.5,0l-0.1-0.5l0.1,0c0,0,0.7-0.1,1.6-0.3
				c1-0.2,1.6-0.4,1.6-0.4l0.1,0l0.1,0.5l-0.3,0.1c-0.4,0.2-0.5,0.4-0.4,0.7c0,0.1,0.1,0.2,0.1,0.2l0,0l2.7,4.6l0.4-5.6
				c0-0.1,0-0.2,0-0.2c0-0.2-0.1-0.3-0.4-0.3c0,0-0.1,0-0.1,0l-0.5,0l-0.1-0.5l0.1,0c0,0,0.7-0.1,1.4-0.3l0.5-0.1l0,0.1
				c0,0,0.1,0.3,0.4,0.9l2.9,5l0.4-5.5c0-0.1,0-0.3,0-0.4c0-0.2-0.1-0.3-0.5-0.2l-0.5,0l-0.1-0.5l0.1,0c0,0,0.7-0.1,1.4-0.3
				c0.7-0.2,1.2-0.3,1.2-0.3l0.1,0l0.1,0.5l-0.3,0.1c-0.4,0.2-0.6,0.7-0.7,1.3l-0.8,7.4l-0.5,0.2l0-0.1l-3.3-5.4l-0.6,6.3
				L307.9,191.1z M302.9,183.6c0.4,0,0.6,0.1,0.9,0.6l4.1,6.6l0.2-0.1l0.6-6.8l0.2,0.3l3.4,5.6l0.2-0.1l0.8-7.3
				c0.1-0.7,0.4-1.2,0.8-1.4l0.2-0.1l0-0.2c-0.2,0.1-0.6,0.2-1.1,0.3c-0.5,0.1-1,0.2-1.3,0.3l0,0.2l0.3,0c0,0,0.1,0,0.1,0
				c0.3,0,0.5,0.1,0.6,0.4c0,0.1,0,0.3,0,0.4l-0.5,6.1l-3.2-5.5c-0.2-0.4-0.3-0.7-0.4-0.8l-0.3,0.1c-0.6,0.1-1.1,0.2-1.3,0.3l0,0.2
				l0.3,0c0,0,0.1,0,0.1,0c0.2,0,0.5,0,0.6,0.4c0,0.1,0,0.2,0,0.3l-0.5,6.2l-3.1-5.2c0-0.1-0.1-0.2-0.1-0.3
				c-0.1-0.5,0.2-0.8,0.5-0.9l0.1-0.1l0-0.2c-0.2,0.1-0.8,0.2-1.6,0.4c-0.7,0.2-1.3,0.3-1.5,0.3l0,0.2l0.3,0
				C302.8,183.6,302.8,183.6,302.9,183.6z"/>
		</g>
		<g>
			<path class="st2" d="M320.2,187.5l0.1,0.3c0,0-0.7,0.1-1.7,0.3c-0.8,0.2-1.6,0.4-1.6,0.4l-0.1-0.3l0.3-0.1
				c0.5-0.2,0.7-0.6,0.5-1.3l-1.3-5.5c-0.1-0.5-0.4-0.6-0.9-0.6l-0.4,0l-0.1-0.3c0,0,0.7-0.1,1.7-0.3c0.8-0.2,1.6-0.4,1.6-0.4
				l0.1,0.3l-0.2,0.1c-0.5,0.2-0.7,0.7-0.6,1.3l1.3,5.5c0.1,0.5,0.4,0.6,0.9,0.6L320.2,187.5z"/>
			<path class="st2" d="M317,188.8l-0.1-0.5l0.4-0.2c0.4-0.2,0.6-0.6,0.4-1.2l-1.3-5.5c-0.1-0.5-0.3-0.6-0.7-0.5l-0.5,0l-0.1-0.5
				l0.1,0c0,0,0.8-0.1,1.7-0.3c0.8-0.2,1.6-0.4,1.6-0.4l0.1,0l0.1,0.5l-0.3,0.1c-0.3,0.2-0.7,0.5-0.5,1.2l1.3,5.5
				c0.1,0.5,0.3,0.6,0.7,0.5l0.5,0l0.1,0.5l-0.1,0c0,0-0.8,0.1-1.7,0.3c-0.8,0.2-1.6,0.4-1.6,0.4L317,188.8z M317.1,188.4l0,0.2
				c0.2-0.1,0.9-0.2,1.5-0.4c0.7-0.2,1.3-0.3,1.6-0.3l0-0.2l-0.3,0c-0.6,0-0.8-0.1-1-0.7l-1.3-5.5c-0.2-0.7,0.1-1.2,0.6-1.4l0.2-0.1
				l0-0.2c-0.2,0.1-0.9,0.2-1.5,0.4c-0.7,0.2-1.3,0.3-1.6,0.3l0,0.2l0.3,0c0.6,0,0.8,0.1,1,0.7l1.3,5.5c0.2,0.7,0,1.2-0.6,1.4
				L317.1,188.4z"/>
		</g>
		<g>
			<path class="st2" d="M323.3,186.8c0.5-0.2,0.7-0.7,0.6-1.3l-1.4-6.2l-0.8,0.2c-1.1,0.2-1.5,0.7-1.6,1.6l-0.3,0l-0.3-1.8l0.3-0.1
				c0,0,0.1,0.2,0.5,0.1l5.4-1.2c0.4-0.1,0.4-0.3,0.4-0.3l0.3-0.1l0.3,1.8l-0.3,0c-0.2-0.8-0.8-1-1.5-0.8l-1.3,0.3l1.5,6.5
				c0.1,0.5,0.4,0.6,0.9,0.6l0.4,0l0.1,0.3c0,0-0.8,0.1-1.7,0.4c-0.8,0.2-1.7,0.4-1.7,0.4l-0.1-0.3L323.3,186.8z"/>
			<path class="st2" d="M323,187.4l-0.1-0.5l0.4-0.2c0.5-0.2,0.7-0.6,0.5-1.2l-1.4-6.1l-0.7,0.2c-1,0.2-1.5,0.7-1.5,1.5l0,0.1
				l-0.5,0l-0.3-2l0.4-0.1l0,0c0,0,0.1,0.1,0.2,0.1c0.1,0,0.1,0,0.2,0l5.4-1.2c0.3-0.1,0.4-0.2,0.4-0.2l0,0l0.4-0.1l0.3,2.1l-0.5,0
				l0-0.1c-0.2-0.7-0.6-0.9-1.4-0.7l-1.2,0.3l1.5,6.4c0.1,0.5,0.4,0.5,0.8,0.5l0.5,0l0.1,0.5l-0.1,0c0,0-0.8,0.2-1.7,0.4
				c-0.8,0.2-1.6,0.4-1.6,0.4L323,187.4z M323.2,187l0,0.2c0.2-0.1,0.9-0.2,1.6-0.4c0.7-0.2,1.4-0.3,1.6-0.3l0-0.2l-0.3,0
				c-0.1,0-0.1,0-0.2,0c-0.5,0-0.7-0.2-0.8-0.7l-1.5-6.6l1.4-0.3c0.8-0.2,1.4,0.1,1.6,0.8l0.1,0l-0.3-1.6l-0.1,0
				c0,0.1-0.2,0.2-0.5,0.3l-5.4,1.2c-0.1,0-0.2,0-0.2,0c-0.2,0-0.3-0.1-0.3-0.1l-0.1,0l0.2,1.6l0.1,0c0.1-0.9,0.6-1.3,1.7-1.6
				l0.9-0.2l1.4,6.3c0.2,0.7,0,1.2-0.6,1.5L323.2,187z"/>
		</g>
		<g>
			<path class="st2" d="M334.9,179.8l-0.6-2.6c-0.1-0.5-0.4-0.6-0.9-0.6l-0.4,0l-0.1-0.3c0,0,0.7-0.1,1.7-0.3
				c0.8-0.2,1.7-0.4,1.7-0.4l0.1,0.3l-0.3,0.1c-0.5,0.2-0.7,0.7-0.6,1.3l1.3,5.5c0.1,0.5,0.4,0.7,0.9,0.6l0.5,0l0.1,0.3
				c0,0-0.8,0.1-1.7,0.4c-0.8,0.2-1.6,0.4-1.6,0.4l-0.1-0.3l0.3-0.1c0.5-0.2,0.7-0.6,0.5-1.3l-0.6-2.4l-4.4,1l0.7,2.8
				c0.1,0.5,0.4,0.7,0.9,0.6l0.5,0l0.1,0.3c0,0-0.8,0.1-1.7,0.4c-0.8,0.2-1.6,0.4-1.6,0.4l-0.1-0.3l0.3-0.1c0.5-0.2,0.7-0.6,0.5-1.3
				l-1.3-5.5c-0.1-0.5-0.4-0.6-0.9-0.6l-0.4,0l-0.1-0.3c0,0,0.7-0.1,1.7-0.3c0.8-0.2,1.7-0.4,1.7-0.4l0.1,0.3l-0.3,0.1
				c-0.5,0.2-0.7,0.7-0.6,1.3l0.5,2.2L334.9,179.8z"/>
			<path class="st2" d="M329.3,185.9l-0.1-0.5l0.4-0.2c0.4-0.2,0.6-0.6,0.4-1.2l-1.3-5.5c-0.1-0.5-0.3-0.6-0.7-0.5l-0.5,0l-0.1-0.5
				l0.1,0c0,0,0.8-0.1,1.7-0.3c0.8-0.2,1.6-0.4,1.6-0.4l0.1,0l0.1,0.5l-0.4,0.2c-0.5,0.2-0.6,0.6-0.5,1.2l0.5,2.1l4.2-1l-0.6-2.5
				c-0.1-0.5-0.3-0.6-0.7-0.5l-0.5,0l-0.1-0.5l0.1,0c0,0,0.8-0.1,1.7-0.3c0.8-0.2,1.6-0.4,1.6-0.4l0.1,0l0.1,0.5l-0.4,0.2
				c-0.5,0.2-0.6,0.6-0.5,1.2l1.3,5.5c0.1,0.5,0.4,0.6,0.7,0.5l0.5-0.1l0.1,0.5l-0.1,0c0,0-0.8,0.1-1.7,0.4
				c-0.8,0.2-1.6,0.4-1.6,0.4l-0.1,0l-0.1-0.5l0.4-0.2c0.4-0.2,0.6-0.6,0.4-1.2l-0.5-2.3l-4.2,1l0.6,2.7c0.1,0.5,0.3,0.5,0.6,0.5
				c0.1,0,0.1,0,0.2,0l0.5-0.1l0.1,0.5l-0.1,0c0,0-0.8,0.1-1.7,0.4c-0.8,0.2-1.6,0.4-1.6,0.4L329.3,185.9z M329.4,185.5l0,0.2
				c0.2-0.1,0.9-0.2,1.5-0.4c0.7-0.2,1.4-0.3,1.6-0.3l0-0.2l-0.4,0c-0.6,0.1-0.8-0.1-1-0.7l-0.7-2.9l4.6-1.1l0.6,2.5
				c0.2,0.7,0,1.2-0.6,1.4l-0.2,0.1l0,0.2c0.2-0.1,0.9-0.2,1.5-0.4c0.7-0.2,1.4-0.3,1.6-0.3l0-0.2l-0.4,0c-0.6,0.1-0.8-0.1-1-0.7
				l-1.3-5.5c-0.2-0.7,0.1-1.2,0.6-1.5l0.2-0.1l0-0.2c-0.2,0.1-0.9,0.2-1.6,0.4c-0.7,0.2-1.3,0.3-1.6,0.3l0,0.2l0.3,0
				c0.6,0,0.8,0.1,1,0.7l0.6,2.7l-4.6,1.1l-0.5-2.3c-0.2-0.7,0.1-1.2,0.6-1.5l0.2-0.1l0-0.2c-0.2,0.1-0.9,0.2-1.6,0.4
				c-0.7,0.2-1.3,0.3-1.6,0.3l0,0.2l0.3,0c0.6,0,0.8,0.1,1,0.7l1.3,5.5c0.2,0.7,0,1.2-0.6,1.4L329.4,185.5z"/>
		</g>
	</g>
	<g>
		<defs>
			<path id="SVGID_3_" d="M309.1,158.6c-23.9,0-43.4,19.4-43.4,43.4c0,8.8,2.6,16.9,7.1,23.7l-8.3,17.7l20-5.7
				c7,4.8,15.4,7.6,24.5,7.6c23.9,0,43.4-19.4,43.4-43.4S333.1,158.6,309.1,158.6z"/>
		</defs>
		<clipPath id="SVGID_4_">
			<use xlink:href="#SVGID_3_"  style="overflow:visible;"/>
		</clipPath>
		<g class="st6">
			<path class="st2" d="M285.1,212c-4.2,5.9-8.1,9.3-11.9,10.1c-2.4,0.6-5.5,0.8-9.1,0.7c4.1-3.2,7.1-6.4,8.7-9.3
				c0.8-1.3,2.4-5.4,4.8-12c5.1-2.9,8.8-5.4,10.9-7.4c2.3-2.2,4.3-4.7,6-7.4c2.3-3.6,3.2-6.6,2.6-8.8c-0.2-1-0.7-1.7-1.5-2.2
				c-0.8-0.5-1.7-0.6-2.7-0.4c-4,0.9-8.3,4.6-12.8,11c-3.5,5-6.3,10.2-8.3,15.5c-1.1,0.3-1.8,0.5-2,0.5c-3.6,0.8-7,0.9-10,0.3
				c-3.8-0.8-6.2-2.9-6.9-6.1c-0.9-3.8,0.5-7.3,4.1-10.5c1.5-1.3,3.1-2.4,4.8-3.3c0.7-0.4,4.2-2.2,4-3c-0.1-0.3-0.5-0.3-0.8-0.3
				c-0.1,0-0.2,0-0.4,0c-0.8,0.1-1.9,0.9-2.9,1.6c-0.4,0.3-0.8,0.6-1.1,0.7c-1.9,1.1-3.6,2.3-4.9,3.5c-3.8,3.5-5.3,7.3-4.3,11.4
				c0.9,4,3.7,6.5,8.2,7.3c3.2,0.6,7.1,0.4,11.5-0.6l-3.9,9.8c-1.5,3.6-3.3,6.8-5.2,9.4c-2.6-0.4-5-0.6-7.2-0.6
				c-2.4,0-4.7,0.2-6.7,0.7c-1.7,0.4-3.3,1.1-4.9,2.1c-2.1,1.3-3.1,2.7-2.8,4.1c0.3,1.4,1.6,2.2,3.7,2.2c1,0,2.3-0.2,3.7-0.5
				c3.3-0.8,7.1-2.2,11.5-4.4c5.4,0,9.1-0.2,10.9-0.6c2.9-0.7,6-2.3,9-4.9c2.9-2.4,5.1-5,6.6-7.9l0-0.1l-0.9-0.9L285.1,212z
				 M278.1,199.7c1.8-4.8,3.8-9.2,5.9-13c3.3-6.1,6.4-9.4,9-10c0.3-0.1,0.6-0.1,0.8-0.1c1.1,0,1.8,0.6,2,1.9
				c0.7,3.1-1.4,7.2-6.3,12.4C285.3,195.4,281.5,198.4,278.1,199.7z M256.9,225.8c-2.7,1.6-5.5,2.7-8.5,3.4c-4,0.9-6.2,0.8-6.5-0.4
				c-0.3-1.4,1.1-2.5,4.3-3.2c1-0.2,2.2-0.4,3.6-0.4c0.6,0,1.3,0,2,0.1C253.5,225.5,255.2,225.6,256.9,225.8z"/>
			<path class="st2" d="M309,206.3l-0.2,0.1c-0.3,0.1-0.5,0.2-0.8,0.3c-0.9,0.2-1.8,0.1-2.6-0.4c1.2-3.6,1.6-6.2,1.2-7.9
				c-0.1-0.6-0.5-1.2-1.2-1.6c-0.6-0.4-1.3-0.5-1.9-0.4c-3.7,0.8-7.3,3.5-10.7,7.8c-3.6,4.6-5,8.7-4.2,12.3c0.6,2.4,1.8,3.6,3.7,3.6
				c0.4,0,0.8,0,1.2-0.1c2.3-0.5,4.7-2.2,6.9-5c1.7-2.2,3.2-4.7,4.3-7.4c1,0.4,2.1,0.6,3.1,0.3c0.6-0.1,1.1-0.3,1.4-0.4l0.1,0
				L309,206.3z M303.7,205.7c0.1,0.3,0.1,0.6,0.2,0.8c-1.2,2.6-2.7,5-4.3,7.2c-2.2,3-4.3,4.8-6,5.2c-0.8,0.2-1.2-0.1-1.4-0.9
				c-0.4-1.8,1.1-5.5,4.4-11.1c3.3-5.6,5.9-8.6,7.7-9c0.1,0,0.3,0,0.4,0c0.5,0,0.8,0.3,1,1c0.1,0.4-0.1,1-0.5,1.5
				c-0.7,0.9-1.1,1.5-1.3,1.9C303.4,203.2,303.3,204.4,303.7,205.7z"/>
			<path class="st2" d="M330.4,201.4c-0.6,0.3-1.2,0.6-1.8,0.7c-1.1,0.3-1.8-0.2-2.2-1.4c0.9-2.2,1.4-3.6,1.6-4.1
				c0.5-1.7,0.7-3.2,0.4-4.3c-0.2-0.9-0.6-1.3-1.1-1.1c-1.4,0.3-2.2,1.7-2.6,4.3c-0.3,2-0.2,3.8,0.1,5.4c-1.1,2.5-2.6,5.1-4.5,7.7
				c-2.4,3.2-4.6,5.1-6.4,5.5c-0.8,0.2-1.2,0-1.3-0.5c-0.3-1.1,2.6-8,8.6-20.3l0.1-0.3l-6,1.4l-0.1,0l0,0.1c-2.3,4.6-3.6,7.5-4,8.6
				c-1.8,4.2-2.4,7-2,8.7c0.5,2.4,1.7,3.6,3.6,3.6c0.4,0,0.8,0,1.2-0.1c2.2-0.5,4.5-2.3,7-5.3c1.8-2.3,3.5-4.8,4.8-7.5
				c0.4,0.3,0.8,0.5,1.2,0.8c0.5,0.3,1.1,0.4,1.7,0.2c0.7-0.2,1.4-0.4,2.1-0.8l0.1,0l-0.3-1.2L330.4,201.4z"/>
			<path class="st2" d="M352.2,196.9l-0.1,0.1c-1.6,2.2-3.7,4.5-6.2,6.7c-3,2.6-5.5,4.2-7.6,4.7c-1.4,0.3-2.3,0-2.5-1
				c-0.1-0.6,0.1-1.7,0.6-3.3c0.5-1.4,1-2.5,1.5-3.1c2.8-1.6,5.5-3.5,8.2-5.7c4-3.3,5.7-5.7,5.3-7.4c-0.4-1.6-1.4-2.2-3.1-1.8
				c-3.9,0.9-7.7,3.5-11.5,7.8c-4,4.6-5.7,8.8-4.8,12.5c0.5,2.3,2,3.4,4.3,3.4c0.7,0,1.4-0.1,2.2-0.3c4.5-1,9.4-5,14.6-11.8l0.1-0.1
				L352.2,196.9z M338.8,199.1c1.2-2.2,2.6-4.4,4.2-6.5c2.3-3.2,4.2-5,5.5-5.3c0.3-0.1,0.6-0.1,0.8-0.1c0.6,0,0.6,0.3,0.7,0.3
				c0.4,1.7-1,4-4.2,6.8C343.5,196.2,341.1,197.8,338.8,199.1z"/>
		</g>
	</g>
</g>
</svg>
