<?xml version="1.0" encoding="utf-8"?>
<!-- Generator: Adobe Illustrator 22.1.0, SVG Export Plug-In . SVG Version: 6.00 Build 0)  -->
<svg version="1.1" id="Layer_1" xmlns="http://www.w3.org/2000/svg" xmlns:xlink="http://www.w3.org/1999/xlink" x="0px" y="0px"
	 viewBox="0 0 612 792" style="enable-background:new 0 0 612 792;" xml:space="preserve">
<style type="text/css">
	.st0{fill:#604D48;}
	.st1{fill:#6B5953;}
	.st2{fill:#4BAB99;}
	.st3{fill:#FFFAEF;}
	.st4{fill:#CFA2AB;}
	.st5{fill-rule:evenodd;clip-rule:evenodd;fill:#CFA2AB;}


		.st0:hover
		{
		fill:red;
		}

</style>
<g>
	<path class="st0" d="M455.6,359.4c-3.4-29-13.7-50.4-52.1-58.9l0-0.1l0,0c-8.6-38.4-29.9-48.6-58.9-52C315.5,244.9,307,227,307,227
		s-8.6,17.9-37.6,21.4c-29.1,3.4-50.4,13.7-59,52.1h0l0,0c-38.4,8.6-48.7,29.9-52.1,58.9c-3.4,29.1-21.4,37.6-21.4,37.6
		s17.9,8.5,21.4,37.6c3.4,29,13.7,50.4,52.1,59c8.6,38.4,29.9,48.6,58.9,52C298.4,549.1,307,567,307,567s8.5-17.9,37.6-21.4
		c29-3.4,50.4-13.7,58.9-52.1v0c38.5-8.6,48.7-29.9,52.1-59c3.4-29,21.4-37.6,21.4-37.6S459.1,388.5,455.6,359.4z"/>
	<path id="change14" class="st1" d="M368.6,421.6L327.2,404c1.8-2.1,3.1-4.3,4-6.4h23.7c6.7,16,17.8,11.9,18.3,6.1
		c0.4-4.7-5-6.7-5.1-6.7c0.1,0,5.5-2,5.2-6.7c-0.4-5.8-11.4-9.9-18.1,5.6h-23.2c0.9-2.9,1-5.7,0.6-8.2l36.2-14.5
		c16.8,17.1,28.9,6.1,26.5-1.6c-1.9-6.2-9.9-5.9-10-5.9c0.1-0.1,6.1-5.4,3.2-11.2c-3.5-7.1-19.7-6.9-20.4,16.4l-36.2,14.5
		c-1.1-3-3.1-5.4-5.5-6.8l15-15c16,6.6,21-4.2,17.2-8.6c-3-3.6-8.3-1.1-8.4-1.1c0-0.1,2.5-5.3-1.1-8.4c-4.4-3.8-15,1-8.9,16.7
		l-15.5,15.5c-1-0.4-2.1-0.7-3.2-0.8c-2.1-0.2-3.9,0.2-5.5,0.8l17.6-41.3c24,0.2,24.7-16.2,17.6-19.9c-5.8-3-11.2,2.8-11.3,2.9
		c0-0.1,0.5-8.1-5.7-10.2c-7.5-2.6-18.8,9-2.8,26l-19,44.5c-2.6,2.2-4.2,5.1-5,6.8v-37.6c16-6.7,11.9-17.8,6.1-18.3
		c-4.7-0.4-6.7,5-6.7,5.1c0-0.1-2-5.5-6.7-5.2c-5.8,0.4-9.9,11.4,5.6,18.1v36.8c-0.8-1.5-2.1-3.6-3.9-5.3l-18.3-45.5
		c16.3-16.5,5.4-28.4-2.1-26c-6.2,1.9-5.9,9.9-5.9,10c-0.1-0.1-5.4-6.1-11.2-3.2c-7.2,3.6-6.9,20,17.2,20.4l16.8,41.9
		c-1.7-0.8-3.6-1.3-5.9-1.1c-1.1,0.1-2.3,0.4-3.3,0.8l-15.5-15.5c6.2-15.6-4.4-20.5-8.8-16.7c-3.6,3-1.1,8.3-1.1,8.4
		c-0.1,0-5.3-2.5-8.4,1.1c-3.8,4.4,1.1,15.3,17.3,8.7l14.9,14.9c-2.3,1.4-4.2,3.6-5.3,6.4l-35.8-15.3c-0.1-23.2-16.2-23.9-19.9-16.9
		c-3,5.8,2.8,11.2,2.9,11.3c-0.1,0-8.1-0.5-10.2,5.6c-2.6,7.6,9.3,19,26.6,2.2l35.7,15.2c-0.6,2.7-0.6,5.7,0.4,8.8h-23.2
		c-6.7-15.5-17.6-11.3-18.1-5.6c-0.4,4.7,5,6.7,5.1,6.7c-0.1,0-5.5,2-5.2,6.7c0.4,5.8,11.6,10,18.4-6.1h23.6c0.8,2,2.1,4,3.7,6
		l-41.6,16.7c-16.5-16.3-28.4-5.4-26,2.1c1.9,6.2,9.9,5.9,10,5.9c-0.1,0.1-6.1,5.4-3.2,11.2c3.6,7.2,20,6.9,20.4-17.2l42.1-16.9
		c1.3,1.4,2.9,2.8,4.7,4.1l-20.7,20.7c-15.6-6.2-20.5,4.4-16.7,8.8c3,3.6,8.3,1.1,8.4,1.1c0,0.1-2.5,5.3,1.1,8.4
		c4.4,3.8,15.3-1.1,8.7-17.3l20.7-20.7c1.3,0.9,2.7,1.7,4.2,2.6l-18.9,44.3c-23.2,0.1-23.9,16.2-16.9,19.9c5.8,3,11.2-2.8,11.3-2.9
		c0,0.1-0.5,8.1,5.7,10.2c7.6,2.6,19-9.3,2.2-26.6l18.7-43.8c1.7,0.8,3.5,1.7,5.4,2.5v28.4c-15.5,6.7-11.3,17.6-5.6,18.1
		c4.7,0.4,6.7-5,6.7-5.1c0,0.1,2,5.5,6.7,5.2c5.8-0.4,10-11.6-6.1-18.4v-28c2-0.8,3.8-1.6,5.5-2.5l17.8,44.2
		c-17.1,16.8-6.1,28.9,1.6,26.5c6.2-1.9,5.9-9.9,5.9-10c0.1,0.1,5.4,6.1,11.2,3.2c7.1-3.5,6.9-19.7-16.5-20.4l-17.9-44.6
		c1.6-0.9,3.1-1.8,4.5-2.8l20.8,20.7c-6.6,16,4.2,21,8.6,17.2c3.6-3,1.1-8.3,1.1-8.4c0.1,0,5.3,2.5,8.4-1.1c3.8-4.4-1-15-16.7-8.9
		l-20.7-20.7c1.7-1.2,3.1-2.5,4.4-3.8l41.9,17.9c-0.2,24,16.2,24.7,19.9,17.6c3-5.8-2.8-11.2-2.9-11.3c0.1,0,8.1,0.5,10.2-5.7
		C397.2,416.8,385.5,405.6,368.6,421.6z"/>
	<path id="g" class="st2" d="M445.7,360.6c-3.1-26.3-11.3-43-44.3-50.3c-2-0.4-3.8-1.6-5.2-3.1c-1.2-1.3-2-2.9-2.4-4.6
		c-7.3-32.9-24-41.2-50.3-44.3c-18-2.1-29.5-9.2-36.4-15.6c-7,6.4-18.5,13.5-36.4,15.6c-26.1,3.1-42.7,11.2-50.2,43.5
		c-0.1,1-0.4,2-0.9,2.9c-1.3,2.8-3.9,4.8-6.9,5.5c-33,7.3-41.2,24-44.3,50.4c-2.1,18-9.2,29.5-15.6,36.4
		c6.4,6.9,13.5,18.5,15.6,36.4c3.1,26.3,11.3,43,44.3,50.4c3.8,0.8,6.7,3.8,7.6,7.6c7.3,32.9,24,41.2,50.3,44.3
		c18,2.1,29.5,9.2,36.5,15.6c6.9-6.4,18.5-13.5,36.4-15.6c26.3-3.1,43-11.4,50.3-44.3c0.9-4.1,4.3-7.1,8.3-7.7
		c32.5-7.4,40.6-24.1,43.7-50.2c2.1-18,9.2-29.5,15.6-36.4C454.9,390.1,447.8,378.6,445.7,360.6z M439.7,432.8
		c-2.9,24.6-9.7,38.3-38.9,45c-6.5,1.1-11.5,5.9-13,12.3c-6.6,29.8-20.4,36.7-45.2,39.7c-16.7,2-28.2,8-35.7,13.7
		c-7.5-5.7-19.1-11.8-35.7-13.7c-24.8-2.9-38.5-9.9-45.2-39.6c-1.3-6-6.1-10.8-12.1-12.1c-29.8-6.6-36.7-20.4-39.7-45.2
		c-2-16.7-8-28.2-13.8-35.7c5.7-7.5,11.8-19.1,13.8-35.7c2.9-24.8,9.8-38.6,39.7-45.2c4.8-1.1,8.9-4.4,11-8.8
		c0.7-1.4,1.1-2.9,1.3-4.4c6.7-29,20.4-35.8,45-38.6c16.7-2,28.2-8,35.7-13.7c7.5,5.7,19.1,11.8,35.7,13.7
		c24.8,2.9,38.5,9.8,45.2,39.6c0.6,2.8,2,5.3,3.9,7.4c2.3,2.5,5.1,4.2,8.3,4.9c29.8,6.6,36.7,20.4,39.6,45.2
		c2,16.7,8,28.2,13.8,35.7C447.8,404.6,441.7,416.1,439.7,432.8z"/>
	<g>
		<path class="st3" d="M296.5,311.7c-1.5,0-3,0.2-4.4,0.7c-2.5,0.8-4.6,2.2-6.3,4.1c-1.9,2.1-2.8,4.4-2.8,6.8c0,1.7,0.4,3.2,1.3,4.6
			c0.9,1.5,2.2,2.4,3.7,2.9c0,0,0.1,0,0.1,0.1c-1,2-2.3,3.6-3.9,4.9c-1.8,1.5-3.8,2.3-5.9,2.3c-0.9,0-1.8-0.2-2.6-0.7
			c-1-0.6-1.5-1.4-1.5-2.4c0-0.5,0.1-1,0.4-1.3c0.3-0.4,0.7-0.6,1.1-0.5c0,0,0,0,0,0.1c0,0,0,0.1,0,0.1c-0.1,0.4-0.1,0.6-0.2,0.7
			c0,0.7,0.5,1.2,1.3,1.2c0.7,0,1.5-0.3,1.5-1.6c0-0.5-0.2-1-0.7-1.4c-0.5-0.4-1-0.6-1.5-0.6c-0.9,0-1.6,0.4-2.2,1.1
			c-0.6,0.7-0.9,1.5-0.9,2.4c0,1.4,0.7,2.6,2.2,3.4c1.1,0.6,2.4,0.9,3.7,0.9c1.1,0,2.5-0.3,4.1-0.9c2-0.8,3.7-2,5.2-3.6
			c1-1.2,1.7-1.9,1.9-2.3c0.3-0.6,0.6-1.1,0.7-1.4c1.2-0.3,2.4-0.9,3.4-1.7c1.2-1,1.9-2.1,1.9-3.3c0-0.3-0.1-0.6-0.4-0.8l-0.3-0.3
			l0,0.4c-0.1,0.7-0.4,1.5-0.9,2.3c-0.2,0.3-0.7,0.8-1.5,1.3c-0.9,0.6-1.3,0.8-1.5,0.8c0.6-1.4,1-2.4,1.2-3c1-3,1.6-5.1,2-6.3
			c0.3-1,0.9-2.6,1.8-4.5c0.3-0.7,0.9-1.4,1.8-2.1c0,0,0.3-0.2,0.9-0.6c0.5-0.3,0.7-0.5,0.7-0.7
			C299.7,312.1,299.3,311.7,296.5,311.7z M297.6,312.7c-0.2,0.2-0.7,0.7-2,2.1c-0.5,0.6-1,1.1-1.3,1.6c-1.4,1.9-2.6,4.6-3.8,7.9
			c-1.1,3.1-1.7,4.8-1.9,5.4c-2.4-0.6-3.5-2.2-3.5-4.9c0-1.6,0.5-3.5,1.5-5.5c1-2,2.4-3.6,4.2-4.9c1.9-1.3,3.9-2,6.1-2
			C297.2,312.6,297.5,312.6,297.6,312.7z"/>
		<path class="st3" d="M317.6,332.8h-0.9l-0.1,0.1c-1.1,2-1.7,2.3-2,2.3c-0.2,0-0.5-0.1-0.5-0.5v-0.3c0-0.2,0.4-1.5,2.7-8.5
			c0.4-1.3,0.7-2,0.7-2.2l0-0.1c0-0.2-0.1-0.3-0.2-0.4l0,0h-1.9l-0.1,0.1c-0.2,0.4-0.4,0.7-0.5,1c-0.6-1-1.4-1.5-2.3-1.5
			c-1,0-2,0.4-3.1,1.3c-2.5,2-3.7,4.6-3.7,7.6c0,2.9,1,4.4,2.9,4.4c0.7,0,1.4-0.3,2.1-0.9c0.2-0.2,0.5-0.6,1.2-1.4
			c0.2,0.7,0.4,1.2,0.5,1.4c0.4,0.6,1,0.9,1.7,0.9c1.2,0,2.3-1,3.2-3.1L317.6,332.8z M314,325.8c0,0.6-0.1,1.4-0.4,2.4
			c-0.4,1.4-1,2.8-1.7,4.2c-1,1.8-1.9,2.7-2.8,2.7c-0.4,0-0.9-0.1-0.9-1.4c0-0.7,0.1-1.4,0.2-2.1c0.3-1.5,0.9-3.1,1.6-4.7
			c1-2.1,1.9-3.1,2.9-3.1C313.2,323.8,314,323.8,314,325.8z"/>
		<path class="st3" d="M336.1,332.5c-0.3-0.3-0.7-0.3-0.9,0l0,0.1c-0.2,0.5-0.5,1-0.9,1.6c-0.5,0.7-1,1-1.4,1
			c-0.2,0-0.5-0.1-0.5-0.6c0-0.3,0.3-1.2,1.5-3.9c1-2.3,1.6-4,1.6-5c0-2.1-1.1-2.5-2.1-2.5c-0.7,0-1.5,0.3-2.2,1
			c-0.7,0.7-1.3,1.3-1.8,1.8c0-0.1,0-0.1,0-0.2c0-2.2-1.1-2.7-2.1-2.7c-0.8,0-1.6,0.4-2.4,1.1c-0.3,0.2-0.9,0.9-1.9,2.1
			c0-0.2,0-0.5,0.1-0.8c0-0.6,0-0.9-0.1-1.2c-0.4-0.8-1-1.2-1.7-1.2c-0.3,0-0.6,0.1-0.9,0.3c-0.2,0.1-0.5,0.3-0.9,0.7
			c-0.5,0.5-0.7,0.9-0.7,1.2c0,0.1,0,0.2,0.1,0.3l0.1,0.1h0.5l0.1-0.1c0.3-0.4,0.5-0.7,0.7-0.9c0.2-0.3,0.5-0.4,0.7-0.4
			c0.1,0,0.2,0,0.2,0.4c0,0.4-0.6,2.3-3.3,9.8c-0.3,0.9-0.4,1.2-0.5,1.3c0,0.1,0.1,0.3,0.2,0.4l0.1,0.1h0.1c0.2,0,0.7,0,1.6,0.1
			c0.4,0,0.6-0.2,0.6-0.3c0.8-2,1.2-3.3,1.6-4.3c1.3-3.1,2.8-5.5,4.6-6.9c0.4-0.3,0.7-0.4,0.8-0.4c0.2,0,0.4,0.1,0.4,0.6
			c0,0.3-0.1,0.5-0.2,0.8c-1.8,4.7-2.9,7.9-3.8,10.1l0,0.1c0,0.3,0.2,0.3,0.2,0.4l2.2,0l2.1-5.3c0.7-1.7,1.7-3.4,2.9-4.9
			c0.9-1.1,1.6-1.7,2.2-1.7c0.2,0,0.5,0.1,0.5,0.7c0,0.4-0.5,1.7-1.5,3.9c-1,2.2-1.5,3.8-1.5,4.9c0,2.1,1.2,2.6,2.1,2.6
			c0.8,0,1.5-0.4,2.3-1.3c0.6-0.7,1-1.4,1.3-2.2L336.1,332.5L336.1,332.5z"/>
	</g>
	<g>
		<path class="st3" d="M277.6,452l-0.1,0l0,0.1c-0.3,1.1-0.8,1.7-1.7,1.7c-0.2,0-0.6,0-0.6-0.2c0-1-0.1-1.8,0-2.5
			c-0.1-1-0.5-1.5-1-1.5c-0.5,0-0.8,0.7-0.9,0.9c-0.1,0.4-0.2,0.8-0.2,1.1c0,0.6,0.1,1.1,0.3,1.4c0.1,0.2,0.3,0.5,0.7,1
			c-0.1,1-0.6,2.3-1.5,3.9c-1.1,2-2.1,3.1-3.2,3.1c-0.6,0-1.3-0.2-1.3-1.8c0-0.7,0.5-2.3,1.4-4.8c0.6-1.6,1.1-2.9,1.4-4.1
			c0.1-0.4,0.2-0.6,0.2-0.7l0-0.2l-0.2,0c-0.3-0.1-0.6-0.1-1-0.1c-0.5,0-0.8,0-1,0.1l-0.1,0l0,0.1c-0.5,1.4-1.2,3.2-2,5.2
			c-0.6,1.5-1,2.6-1.2,3.2c-0.9,2-1.8,3-2.8,3c-0.3,0-0.7-0.1-0.7-1c0-0.8,0.4-2.1,1.2-4.1c0.9-2,1.3-3.4,1.3-4.3
			c0-0.6-0.1-1.1-0.4-1.6c-0.3-0.6-0.8-0.9-1.4-0.9c-0.2,0-0.4,0.1-0.7,0.2c-0.2,0.1-0.6,0.3-1,0.8c-0.5,0.5-0.7,0.8-0.7,1.1v0.4
			h0.7l0.1-0.1c0.9-1.1,1.2-1.2,1.3-1.2c0.1,0,0.3,0,0.3,0.7c0,0.4-0.2,1.3-1.2,3.5c-0.8,1.9-1.2,3.2-1.2,4.1c0,0.8,0.2,1.6,0.6,2.2
			c0.5,0.7,1.1,1.1,2,1.1c0.9,0,1.8-0.6,2.6-1.8c0.3-0.5,0.6-0.8,0.7-1.1c0.5,2.1,1.6,3.2,3.1,3.2c1.4,0,2.8-1.1,4.1-3.4
			c1-1.7,1.5-3.1,1.7-4.1c0,0,0-0.1,0-0.1c0.5,0.1,1.1,0.1,1.2,0.1c0.4-0.1,0.9-0.4,1.3-0.9c0.4-0.5,0.6-1,0.6-1.4
			C278.1,452,277.9,451.9,277.6,452z"/>
		<path class="st3" d="M283.3,459h-0.5l-0.1,0.1c-0.5,0.7-0.8,1.2-1,1.3c-0.4,0.6-0.9,0.9-1.3,0.9c-0.2,0-0.4-0.1-0.4-0.5
			c0-0.3,0.3-1.3,1.5-4.3c1-2.5,1.5-4.1,1.5-5c0-1.9-1.1-2.3-2-2.3c-0.3,0-0.7,0.1-1.1,0.3c-0.2,0.1-0.5,0.3-0.9,0.8
			c-0.5,0.6-0.6,0.9-0.6,1c0,0.3,0.2,0.3,0.2,0.3l0.4,0c0.1,0,0.1,0,0.8-0.7c0.4-0.5,0.7-0.6,0.8-0.6c0.1,0,0.3,0,0.3,0.5
			c0,0.6-0.5,2-1.4,4.2c-1,2.2-1.5,3.8-1.5,4.8c0,2.1,1.2,2.5,2.2,2.5c1.1,0,2.1-0.7,2.9-2.1c0.4-0.6,0.4-0.8,0.4-0.8
			C283.6,459.1,283.4,459,283.3,459z"/>
		<path class="st3" d="M283.1,444.2c-0.6,0-1,0.3-1.4,1c-0.3,0.5-0.4,0.9-0.4,1.3c0,1.2,0.6,1.4,1.1,1.4c0.5,0,1-0.3,1.4-0.9
			c0.3-0.5,0.5-1,0.5-1.6C284.2,444.4,283.6,444.2,283.1,444.2z"/>
		<path class="st3" d="M290.3,458.4l-0.1,0.1c-0.9,1.9-1.8,2.8-2.6,2.8c-0.3,0-0.6-0.1-0.6-0.8c0-0.3,0.2-1.3,1.4-4.6l2.3-6.6h2.3
			l0.1-0.1c0.1-0.2,0.2-0.4,0.3-0.7l0.1-0.3h-2.4l2.2-6.2h-2.5l-2.2,6.2h-2.5l0,0.1c-0.1,0.2-0.2,0.5-0.3,0.6l-0.1,0.3h2.6
			c-2.2,6-3.3,9.5-3.3,10.5c0,1.7,0.8,2.5,2.3,2.5c1.4,0,2.5-0.9,3.4-2.7c0.1-0.3,0.2-0.5,0.3-0.6c0.1-0.1,0.1-0.3,0-0.4l0-0.1
			H290.3z"/>
		<path class="st3" d="M302.9,446c1.6-1.9,2.4-3.7,2.4-5.5c0-1.7-0.8-2-1.4-2c-1,0-2.1,0.8-3.4,2.5c-1.6,2-2.9,4.4-4,7
			c-1,2.7-1.9,5-2.4,6.5c-0.5,1.5-0.9,2.5-1.1,3.1c-1.4,4-1.4,4.2-1.4,4.3c0,0.4,0.2,0.4,0.3,0.4h1.9l0-0.1c1-2.7,1.6-4.5,2-5.5
			c0.8-2.1,2-3.9,3.5-5.3c0.4-0.4,0.8-0.6,1.1-0.6c0.3,0,0.5,0.1,0.5,0.7c0,0.4-0.2,1.3-1.4,3.9c-0.9,2.1-1.4,3.6-1.4,4.7
			c0,1.9,1.1,2.3,2,2.3c0.5,0,0.8-0.1,1.1-0.3c0.3-0.2,0.8-0.7,1.4-1.3c0.8-1,0.9-1.4,0.9-1.6c0-0.2-0.1-0.3-0.1-0.3l-0.1-0.1h-0.1
			c-0.1,0-0.2,0-0.4,0.1l-0.1,0l0,0.1c-1.1,2-1.9,2.5-2.3,2.5c-0.2,0-0.5-0.1-0.5-0.5c0-0.3,0.3-1.3,1.5-4.1c1-2.4,1.5-3.9,1.5-4.8
			c0-0.6-0.2-1.1-0.6-1.6c-0.4-0.4-0.9-0.7-1.5-0.7c-1,0-2.2,0.8-3.6,2.6c0.5-1.4,0.8-2.2,0.9-2.5C300,448.8,301.6,447.5,302.9,446z
			 M303.8,439.5c0.1,0,0.2,0,0.3,0.1c0.1,0.1,0.1,0.2,0.1,0.5c0,1.3-0.7,2.9-2.1,4.8c-1.2,1.7-2.4,2.9-3.4,3.6
			c0.1-0.3,0.2-0.7,0.4-1.2C301.5,440.8,303,439.5,303.8,439.5z"/>
		<path class="st3" d="M325.4,449c-0.5,0-0.9,0-1,0.1l-0.1,0l0,0.1c-0.6,1.6-1,2.7-1.3,3.5c-1.1,3.2-2.3,5.7-3.7,7.4
			c-0.5,0.6-0.9,0.8-1.3,0.8c-0.3,0-0.7-0.1-0.7-1c0-0.7,0.4-2,1.2-4c0.8-2.1,1.3-3.5,1.3-4.5c0-2-1-2.4-1.8-2.4
			c-0.5,0-1,0.2-1.5,0.7c-0.5,0.5-0.8,1-1,1.5l-0.1,0.3h0.8l0.1-0.1c0.9-1.2,1.2-1.2,1.3-1.2c0.1,0,0.3,0,0.3,0.6
			c0,0.6-0.4,1.8-1.2,3.7c-0.8,1.9-1.2,3.3-1.2,4.2c0,0.8,0.2,1.6,0.6,2.2c0.5,0.7,1.1,1,2,1c0.7,0,1.5-0.6,2.5-1.8
			c-0.2,0.5-0.3,1-0.4,1.3c-0.2,0.6-0.3,0.6-0.3,0.6c-2,0.9-3.8,2.1-5.3,3.7c-1.8,1.9-2.6,3.9-2.6,5.9c0,2,1,2.4,1.9,2.4
			c1.7,0,3.4-1.3,5-4c1.2-1.8,2.1-3.9,2.9-6.2c0.9-2.7,1.6-4.6,2-5.7l1.3-3.9c0.7-2.1,1.3-3.7,1.7-4.9l0.1-0.2l-0.2,0
			C326.1,449,325.8,449,325.4,449z M319.3,463.4c-0.1,0.2-0.3,0.8-0.8,2.1c-1.8,5-3.4,7.5-4.9,7.5c-0.4,0-0.9-0.1-0.9-1.2
			c0-0.7,0.2-1.4,0.5-2.2c0.6-1.2,1.4-2.5,2.4-3.7c1.1-1.3,2.3-2.2,3.6-2.7l0,0L319.3,463.4L319.3,463.4z"/>
		<path class="st3" d="M338,452.2c-0.3,0-0.4,0.2-0.4,0.3l0,0l0,0c0.1,0.6,0,1.1-0.2,1.4c-0.2,0.4-0.5,0.6-1,0.6c0,0-0.1,0-0.1,0
			l0,0c0.1-0.6,0.2-1.2,0.2-1.9c-0.1-2.5-1-3.7-2.7-3.7c-1.8,0-3.5,1.1-5,3.1c-1.4,1.9-2.1,3.8-2.1,5.7c0,1.1,0.3,2.1,0.9,3
			c0.7,1,1.6,1.5,2.7,1.5c2,0,3.8-1.6,5.1-4.9l0.7-1.7c1.7,0,2.5-0.9,2.5-2.4C338.6,452.6,338.4,452.2,338,452.2z M334.2,453.2
			c0,0.6,0.1,1.1,0.4,1.5l0.4,0.6c-0.1,0.2-0.2,0.6-0.4,1.2c-1.2,3.1-2.6,4.7-4.1,4.7c-1,0-1.4-0.7-1.4-2c0-1.4,0.5-3.2,1.5-5.4
			c1.1-2.5,2.3-3.8,3.4-3.8c0.3,0,0.6,0.2,0.8,0.5c0.2,0.3,0.3,0.6,0.3,0.9C334.5,451.7,334.2,452.3,334.2,453.2z"/>
		<path class="st3" d="M350.1,449.6l0.1-0.2l-0.2,0c-0.3-0.1-0.6-0.1-1-0.1c-0.5,0-0.9,0-1.1,0.1l-0.1,0l0,0.1
			c-0.9,2.3-1.5,4.1-2,5.4c-0.7,1.7-1.2,2.9-1.5,3.5c-0.3,0.6-0.7,1.2-1.1,1.7c-0.6,0.7-1.1,1.1-1.6,1.1c-0.3,0-0.7-0.1-0.7-1
			c0-0.8,0.4-2.2,1.2-4.1c0.8-2,1.3-3.4,1.3-4.3c0-2.2-1.1-2.6-2-2.6c-0.5,0-1.1,0.3-1.6,0.8c-0.5,0.5-0.9,1-1,1.6l-0.1,0.3h0.9
			l0.1-0.1c0.6-1.1,1.1-1.3,1.3-1.3c0.2,0,0.3,0.2,0.3,0.6c0,0.4-0.2,1.4-1.2,3.7c-0.8,1.9-1.2,3.3-1.2,4.2c0,0.7,0.2,1.4,0.5,2
			c0.5,0.8,1.2,1.3,2.2,1.3c0.7,0,1.3-0.3,1.8-0.8c0.2-0.2,0.5-0.6,1.1-1.3c0.4,1.5,1.2,2.3,2.2,2.3c1.1,0,2.1-0.7,2.9-2.2
			c0.3-0.6,0.4-0.7,0.4-0.7l0.1-0.1v-0.6h-0.7l-0.4,0.6c-0.3,0.4-0.5,0.7-0.6,0.8c-0.5,0.6-0.9,1-1.2,1c-0.2,0-0.4-0.1-0.4-0.6
			c0-0.4,0.2-1,0.5-2C348.8,453.6,349.8,450.5,350.1,449.6z"/>
	</g>
	<g>
		<g id="change9_6_">
			<path class="st4" d="M321.5,367.8v0.9c0,0-2.1-0.1-3.5-0.1c-1.6,0-3.8,0.1-3.8,0.1v-0.9l0.7-0.1c1-0.2,1.7-1,1.7-2.3v-7.9
				c0-1.9-0.9-2.9-2.5-2.9c-1.7,0-2.9,1.2-4.1,1.4v9.6c0,1.6,0.2,2,1.2,2.1l1,0.1v0.9c0,0-2.2-0.1-3.6-0.1s-4,0.1-4,0.1v-0.9
				l0.9-0.1c1-0.1,1.7-1,1.7-2.3V357c0-1.5-0.5-2.1-2.4-2.1l-0.2-0.8c3-0.3,5.3-1.6,5.3-1.6v2.6c0.8-0.2,2.7-2.6,5.2-2.6
				c2.8,0,4.2,2,4.2,4.6v8.5c0,1.6,0.3,1.9,1.3,2.1L321.5,367.8z"/>
			<path class="st4" d="M302.6,367.8v0.9c0,0-2.2-0.1-3.6-0.1c-1.5,0-4,0.1-4,0.1v-0.9l0.9-0.1c1-0.1,1.7-1,1.7-2.3V357
				c0-1.5-0.5-2.1-2.4-2.1l-0.2-0.8c2.9-0.3,5.3-1.6,5.3-1.6v13.1c0,1.6,0.3,1.9,1.2,2.1L302.6,367.8z M298.9,343.8
				c1.1,0,1.9,0.9,1.9,2.1c0,1.1-0.8,2-1.9,2c-1,0-1.9-0.9-1.9-2C297.1,344.7,297.9,343.8,298.9,343.8z"/>
		</g>
		<g>
			<path class="st3" d="M254.7,411.6c-1.5,4.6-3.8,8.8-10.7,8.8c-2.1,0-3.2-1-3.2-3.2v-24.4c0-3.3,1.9-4.5,3.5-4.9l1.2-0.3v-1.9
				l-0.2,0c0,0-3.5,0.2-7.1,0.2c-4,0-7.3-0.2-7.3-0.2l-0.2,0v1.9l1.9,0.3c2,0.3,2.8,0.8,2.8,3.2v24.4c0,2.9-1.1,4.5-3.2,4.9
				l-1.5,0.3v1.9l0.2,0c0,0,3.5-0.2,7.1-0.2c2.8,0,5.8,0,8.7,0.1c2.8,0,5.7,0.1,8.3,0.1h0.2l1.2-10.9l-1.6-0.2L254.7,411.6z"/>
			<path class="st3" d="M285.1,385c-14,0-20.3,10.4-20.3,20c0,10.8,7.4,18.3,17.9,18.3c14,0,20.3-10.4,20.3-20
				C303.1,392.6,295.7,385,285.1,385z M297.2,404.9c0,9.9-4.7,16-12.3,16c-7.1,0-14.3-6-14.3-17.5c0-9.7,4.8-16,12.2-16
				C290,387.4,297.2,393.4,297.2,404.9z"/>
			<path class="st3" d="M339.7,385.9c-3.1,0-6.7-0.2-6.7-0.2l-0.2,0v1.9l1.9,0.3c1.7,0.3,2.3,0.8,2.3,1.9c0,0.7-0.2,1.6-0.6,2.7
				l-8.3,23l-8.3-22.4c-0.4-1.1-0.6-1.8-0.6-2.4c0-1.1,0.3-2.4,2.3-2.9l1.2-0.3v-1.9l-0.2,0c0,0-4.6,0.2-7.6,0.2
				c-2.7,0-6.8-0.2-6.9-0.2l-0.2,0v1.9l1.9,0.3c2.1,0.3,2.6,0.8,3.5,3.2l12.5,32.3l1.9-0.2l11.7-30.4c1.2-3,2.4-4.4,4.3-4.9l1.2-0.3
				v-1.9l-0.2,0C344.6,385.7,341.9,385.9,339.7,385.9z"/>
			<path class="st3" d="M377.4,412.3l-0.1,0.1c-1.5,3.9-3.8,7.9-10.3,7.9c-2.4,0-3.8-1.2-3.8-3.2v-12.3h4c2.5,0,3.8,0.9,4.2,3
				l0.2,1.4h1.7l0-0.2c0,0-0.2-2.9-0.2-5.8c0-2.7,0.2-6.6,0.2-6.6l0-0.2h-1.7l-0.4,2.2c-0.3,2-1.1,3.8-4.5,3.8h-3.5v-14.3
				c0.7-0.2,1.8-0.3,3-0.3c5.2,0,8.5,2.3,9.3,6.6l0,0.2h1.6v-8.9l-0.2,0c-0.1,0-7.8,0.2-16.3,0.2c-2.4,0-7.3-0.2-7.3-0.2l-0.2,0v1.9
				l1.9,0.3c2,0.3,2.8,0.8,2.8,3.2v24.4c0,2.9-1.1,4.5-3.2,4.9l-1.5,0.3v1.9l0.2,0c0,0,3.4-0.2,7.1-0.2c4.9,0,16.6,0.2,16.7,0.2
				l0.2,0l1.6-9.8l0-0.2L377.4,412.3z"/>
		</g>
	</g>
	<path id="g_1_" class="st4" d="M212.7,394.1c-4.4-0.9-6.4,3.9-6.5,4c-0.1-0.1-2-4.9-6.5-4c-4.7,1-4.9,6.9-1.7,10.1
		c3.3,3.2,6.3,6,8.1,10.5v0.1c0,0,0,0,0,0c0,0,0,0,0,0v-0.1c1.8-4.4,4.8-7.2,8.1-10.5C217.6,401,217.4,395.1,212.7,394.1z"/>
	<path id="g_2_" class="st4" d="M413.6,394.1c-4.4-0.9-6.4,3.9-6.5,4c-0.1-0.1-2-4.9-6.5-4c-4.7,1-4.9,6.9-1.7,10.1
		c3.3,3.2,6.3,6,8.1,10.5v0.1c0,0,0,0,0,0c0,0,0,0,0,0v-0.1c1.8-4.4,4.8-7.2,8.1-10.5C418.5,401,418.3,395.1,413.6,394.1z"/>
	<g id="g_3_">
		<path class="st4" d="M311.9,496.1c-3.4,0.7-4.9-3-5-3.1c-0.1,0.1-1.6,3.8-5,3.1c-3.6-0.8-3.8-5.4-1.3-7.8c2.6-2.5,4.9-4.7,6.3-8.1
			v-0.1c0,0,0,0,0,0c0,0,0,0,0,0v0.1c1.4,3.4,3.7,5.6,6.3,8.1C315.8,490.8,315.6,495.4,311.9,496.1z"/>
		<g>
			<g>
				<path class="st5" d="M289.1,519.2c0.2-0.3-0.5-0.7-0.7-0.8c-0.4-0.1-0.8-0.1-1.1,0c-0.7,0.2-1.5,0.7-1.8,1.4
					c-1.1,2.1,0,4.3,2.2,5.1c3.3,1.1,6.5-0.8,8.9-3c0.7-0.6,1.3-1.4,1.9-2.1c0.2-0.3,0.5-0.5,0.7-0.7c0.2-0.2,0.3-0.3,0.5-0.3
					c0.5,0.1,0.3,0.5,0.1,0.8c-0.2,0.3-0.5,0.7-0.7,1c-0.5,0.6-1,1.3-1.6,1.8c-2.1,2.1-5.8,4.2-8.9,4c-0.8-0.1-1.9-0.3-2.5-0.8
					c-1.6-1.1-2.6-2.9-2.2-4.9c0.7-3.1,5.1-5.1,6.8-1.5c0.7,1.4-0.6,3.5-2.3,3c-0.7-0.2-1.1-1-1.1-1.7c0-0.5,0.2-0.8,0.6-1
					c0.2-0.1,0.4-0.1,0.6-0.2C288.6,519.3,289.1,519.3,289.1,519.2z"/>
				<path class="st5" d="M309.1,501c0,1.1-0.9,2-2,2c-1.1,0-2-0.9-2-2c0-1.1,0.9-2,2-2C308.2,499.1,309.1,500,309.1,501z"/>
				<path class="st5" d="M301.7,489.6c-0.2-0.1-0.5-0.2-0.7-0.2c-0.3,0-0.5,0.1-0.8,0.2c-1.3,0.7-0.6,2.9,0.9,2.8
					c-3,4.2-6.6,6.7-11.6,7.9c-4.2,1-6.7-2.1-8.6,0.9c1,0.5,3.1,0.6,3,2.1c0,1.1-1.8,2.1-2.5,2.5c-1.3,0.7-3,1.3-4.5,0.8
					c-2.9-0.9-2-5.4,0.4-3.8c-0.1-0.1-1,1.3,0,1.8c0.6,0.3,1.6-0.5,1.8-1c0.5-1.1-0.1-2.6-1.1-3.1c-4.5-2.5-7.5,5.6-3.8,8.2
					c4.3,3,9.9,0.1,15.9-3.9c2.5-1.6,11-7.7,12.6-13C303,490.9,302.4,490,301.7,489.6z"/>
			</g>
			<path class="st5" d="M307.3,517.5c0,0-0.1,0-0.1,0c-0.1,0-0.2,0-0.3-0.4c-0.5-1.8-0.4-7.4-0.4-7.4s-2.3,5.2-4.1,5.9
				c-0.2,0.1-0.4,0-0.6-0.1c1.5-1.7,4.5-9.9,4.6-10.3c0.2-0.4,0.4-0.8,0.8-0.8c0.1,0,0.1,0,0.1,0V517.5z"/>
			<path class="st5" d="M300.2,517.2c2.1,1,4.6,1.5,7.1,1.5v1c0,0-0.1,0-0.1,0c-4.2,0.2-8.6-1.6-11.3-4.8c-1.1-1.2-1.9-3.1-2.1-4.7
				c-0.3-1.9,0.6-3.5,1.2-5.3c-2.8,0.3-5.2,3.6-6.7,5.8c-0.9,1.4-1.8,2.7-2.8,4c-0.7,0.9-1.8,2.6-3,3c-0.2-1.3,0.3-2.5,0.4-3.8
				c-0.8,0.2-1.8,1.3-2.4,1.9c-3.1,3.1-6.7,6.6-10.6,8.7c0.1-1.5,0.6-2.9,1-4.4c-4.2,1.6-8,2.9-12.5,2.7c-4.1-0.2-8.1-1.8-10.6-5.1
				c-2.1-2.8-3.2-7.6-0.9-10.5c1-1.2,2.5-2.2,4.1-1.9c1.5,0.3,3,1.5,2.9,3.2c0,0.5-0.3,1.4-0.9,1.4c-0.6,0-0.9-0.7-1.2-1.1
				c-1.1-1.3-3.3,0.2-4,1.2c-2.1,2.7,0,7.1,2.3,9c6.4,5.1,15.1,2.1,21.5-1.3c7.7-4.2,14.5-10,22.4-13.7c1.9-0.9,7.9-2.8,8.3,0.7
				c0.1,1-0.5,2.1-1.5,2.3c-0.8,0.1-1.4-0.3-1.8-1c-0.2-0.4-0.2-0.8,0-1.1c0.2-0.3,0.8-0.5,0.7-0.8c-0.2-1.3-2.8,0.2-3.2,0.6
				c-1.1,1.1-1.8,2.7-1.9,4.2C294.4,512.6,297.2,515.7,300.2,517.2z"/>
		</g>
		<g>
			<g>
				<path class="st5" d="M324.9,519.2c-0.2-0.3,0.5-0.7,0.7-0.8c0.4-0.1,0.8-0.1,1.1,0c0.7,0.2,1.5,0.7,1.8,1.4
					c1.1,2.1,0,4.3-2.2,5.1c-3.3,1.1-6.5-0.8-8.9-3c-0.7-0.6-1.3-1.4-1.9-2.1c-0.2-0.3-0.5-0.5-0.7-0.7c-0.2-0.2-0.3-0.3-0.5-0.3
					c-0.5,0.1-0.3,0.5-0.1,0.8c0.2,0.3,0.5,0.7,0.7,1c0.5,0.6,1,1.3,1.6,1.8c2.1,2.1,5.8,4.2,8.9,4c0.8-0.1,1.9-0.3,2.5-0.8
					c1.6-1.1,2.6-2.9,2.2-4.9c-0.7-3.1-5.1-5.1-6.8-1.5c-0.7,1.4,0.6,3.5,2.3,3c0.7-0.2,1.1-1,1.1-1.7c0-0.5-0.2-0.8-0.6-1
					c-0.2-0.1-0.4-0.1-0.6-0.2C325.4,519.3,324.9,519.3,324.9,519.2z"/>
				<path class="st5" d="M305.5,501c0,1.1,0.9,2,2,2c1.1,0,2-0.9,2-2c0-1.1-0.9-2-2-2C306.3,499.1,305.5,500,305.5,501z"/>
				<path class="st5" d="M312.3,489.6c0.2-0.1,0.5-0.2,0.7-0.2c0.3,0,0.5,0.1,0.8,0.2c1.3,0.7,0.6,2.9-0.9,2.8
					c3,4.2,6.6,6.7,11.6,7.9c4.2,1,6.7-2.1,8.6,0.9c-1,0.5-3.1,0.6-3,2.1c0,1.1,1.8,2.1,2.5,2.5c1.3,0.7,3,1.3,4.5,0.8
					c2.9-0.9,2-5.4-0.4-3.8c0.1-0.1,1.1,1.3,0,1.8c-0.6,0.3-1.6-0.5-1.8-1c-0.5-1.1,0.1-2.6,1.1-3.1c4.5-2.5,7.5,5.6,3.8,8.2
					c-4.3,3-9.9,0.1-15.9-3.9c-2.5-1.6-11-7.7-12.6-13C311,490.9,311.6,490,312.3,489.6z"/>
			</g>
			<path class="st5" d="M307.3,517.5c0,0,0.1,0,0.1,0c0.1,0,0.2,0,0.3-0.4c0.5-1.8,0.4-7.4,0.4-7.4s2.3,5.2,4.1,5.9
				c0.2,0.1,0.4,0,0.6-0.1c-1.5-1.7-4.5-9.9-4.6-10.3c-0.2-0.4-0.4-0.8-0.8-0.8c-0.1,0-0.1,0-0.1,0V517.5z"/>
			<path class="st5" d="M313.8,517.2c-2.1,1-4.6,1.5-7.1,1.5v1c0,0,0.1,0,0.1,0c4.2,0.2,8.6-1.6,11.3-4.8c1.1-1.2,1.9-3.1,2.1-4.7
				c0.3-1.9-0.6-3.5-1.2-5.3c2.8,0.3,5.2,3.6,6.7,5.8c0.9,1.4,1.8,2.7,2.8,4c0.8,0.9,1.8,2.6,3,3c0.2-1.3-0.3-2.5-0.4-3.8
				c0.8,0.2,1.8,1.3,2.4,1.9c3.1,3.1,6.7,6.6,10.6,8.7c-0.1-1.5-0.6-2.9-1-4.4c4.2,1.6,8,2.9,12.5,2.7c4.1-0.2,8.1-1.8,10.6-5.1
				c2.1-2.8,3.2-7.6,0.9-10.5c-1-1.2-2.5-2.2-4.1-1.9c-1.5,0.3-3,1.5-2.9,3.2c0,0.5,0.3,1.4,1,1.4c0.6,0,0.9-0.7,1.2-1.1
				c1.1-1.3,3.3,0.2,4,1.2c2.1,2.7,0,7.1-2.3,9c-6.4,5.1-15.1,2.1-21.5-1.3c-7.7-4.2-14.5-10-22.4-13.7c-1.9-0.9-7.9-2.8-8.3,0.7
				c-0.1,1,0.5,2.1,1.5,2.3c0.8,0.1,1.4-0.3,1.8-1c0.2-0.4,0.2-0.8,0-1.1c-0.2-0.3-0.8-0.5-0.7-0.8c0.2-1.3,2.8,0.2,3.2,0.6
				c1.1,1.1,1.8,2.7,1.9,4.2C319.6,512.6,316.8,515.7,313.8,517.2z"/>
		</g>
	</g>
	<g id="g_4_">
		<path class="st4" d="M311.9,297.9c-3.4-0.7-4.9,3-5,3.1c-0.1-0.1-1.6-3.8-5-3.1c-3.6,0.8-3.8,5.4-1.3,7.8c2.6,2.5,4.9,4.7,6.3,8.1
			v0.1c0,0,0,0,0,0c0,0,0,0,0,0v-0.1c1.4-3.4,3.7-5.6,6.3-8.1C315.8,303.2,315.6,298.6,311.9,297.9z"/>
		<g>
			<g>
				<path class="st5" d="M289.1,274.8c0.2,0.3-0.5,0.7-0.7,0.8c-0.4,0.1-0.8,0.1-1.1,0c-0.7-0.2-1.5-0.7-1.8-1.4
					c-1.1-2.1,0-4.3,2.2-5.1c3.3-1.1,6.5,0.8,8.9,3c0.7,0.6,1.3,1.4,1.9,2.1c0.2,0.3,0.5,0.5,0.7,0.7c0.2,0.2,0.3,0.3,0.5,0.3
					c0.5-0.1,0.3-0.5,0.1-0.8c-0.2-0.3-0.5-0.7-0.7-1c-0.5-0.6-1-1.3-1.6-1.8c-2.1-2.1-5.8-4.2-8.9-4c-0.8,0.1-1.9,0.3-2.5,0.8
					c-1.6,1.1-2.6,2.9-2.2,4.9c0.7,3.1,5.1,5.1,6.8,1.5c0.7-1.4-0.6-3.5-2.3-3c-0.7,0.2-1.1,1-1.1,1.7c0,0.5,0.2,0.8,0.6,1
					c0.2,0.1,0.4,0.1,0.6,0.2C288.6,274.7,289.1,274.7,289.1,274.8z"/>
				<path class="st5" d="M309.1,293c0-1.1-0.9-2-2-2c-1.1,0-2,0.9-2,2c0,1.1,0.9,2,2,2C308.2,294.9,309.1,294,309.1,293z"/>
				<path class="st5" d="M301.7,304.4c-0.2,0.1-0.5,0.2-0.7,0.2c-0.3,0-0.5-0.1-0.8-0.2c-1.3-0.7-0.6-2.9,0.9-2.8
					c-3-4.2-6.6-6.7-11.6-7.9c-4.2-1-6.7,2.1-8.6-0.9c1-0.5,3.1-0.6,3-2.1c0-1.1-1.8-2.1-2.5-2.5c-1.3-0.7-3-1.3-4.5-0.8
					c-2.9,0.9-2,5.4,0.4,3.8c-0.1,0.1-1-1.3,0-1.8c0.6-0.3,1.6,0.5,1.8,1c0.5,1.1-0.1,2.6-1.1,3.1c-4.5,2.5-7.5-5.6-3.8-8.2
					c4.3-3,9.9-0.1,15.9,3.9c2.5,1.6,11,7.7,12.6,13C303,303.1,302.4,304,301.7,304.4z"/>
			</g>
			<path class="st5" d="M307.3,276.5c0,0-0.1,0-0.1,0c-0.1,0-0.2,0-0.3,0.4c-0.5,1.8-0.4,7.4-0.4,7.4s-2.3-5.2-4.1-5.9
				c-0.2-0.1-0.4,0-0.6,0.1c1.5,1.7,4.5,9.9,4.6,10.3c0.2,0.4,0.4,0.8,0.8,0.8c0.1,0,0.1,0,0.1,0V276.5z"/>
			<path class="st5" d="M300.2,276.8c2.1-1,4.6-1.5,7.1-1.5v-1c0,0-0.1,0-0.1,0c-4.2-0.2-8.6,1.6-11.3,4.8c-1.1,1.2-1.9,3.1-2.1,4.7
				c-0.3,1.9,0.6,3.5,1.2,5.3c-2.8-0.3-5.2-3.6-6.7-5.8c-0.9-1.4-1.8-2.7-2.8-4c-0.7-0.9-1.8-2.6-3-3c-0.2,1.3,0.3,2.5,0.4,3.8
				c-0.8-0.2-1.8-1.3-2.4-1.9c-3.1-3.1-6.7-6.6-10.6-8.7c0.1,1.5,0.6,2.9,1,4.4c-4.2-1.6-8-2.9-12.5-2.7c-4.1,0.2-8.1,1.8-10.6,5.1
				c-2.1,2.8-3.2,7.6-0.9,10.5c1,1.2,2.5,2.2,4.1,1.9c1.5-0.3,3-1.5,2.9-3.2c0-0.5-0.3-1.4-0.9-1.4c-0.6,0-0.9,0.7-1.2,1.1
				c-1.1,1.3-3.3-0.2-4-1.2c-2.1-2.7,0-7.1,2.3-9c6.4-5.1,15.1-2.1,21.5,1.3c7.7,4.2,14.5,10,22.4,13.7c1.9,0.9,7.9,2.8,8.3-0.7
				c0.1-1-0.5-2.1-1.5-2.3c-0.8-0.1-1.4,0.3-1.8,1c-0.2,0.4-0.2,0.8,0,1.1c0.2,0.3,0.8,0.5,0.7,0.8c-0.2,1.3-2.8-0.2-3.2-0.6
				c-1.1-1.1-1.8-2.7-1.9-4.2C294.4,281.4,297.2,278.3,300.2,276.8z"/>
		</g>
		<g>
			<g>
				<path class="st5" d="M324.9,274.8c-0.2,0.3,0.5,0.7,0.7,0.8c0.4,0.1,0.8,0.1,1.1,0c0.7-0.2,1.5-0.7,1.8-1.4
					c1.1-2.1,0-4.3-2.2-5.1c-3.3-1.1-6.5,0.8-8.9,3c-0.7,0.6-1.3,1.4-1.9,2.1c-0.2,0.3-0.5,0.5-0.7,0.7c-0.2,0.2-0.3,0.3-0.5,0.3
					c-0.5-0.1-0.3-0.5-0.1-0.8c0.2-0.3,0.5-0.7,0.7-1c0.5-0.6,1-1.3,1.6-1.8c2.1-2.1,5.8-4.2,8.9-4c0.8,0.1,1.9,0.3,2.5,0.8
					c1.6,1.1,2.6,2.9,2.2,4.9c-0.7,3.1-5.1,5.1-6.8,1.5c-0.7-1.4,0.6-3.5,2.3-3c0.7,0.2,1.1,1,1.1,1.7c0,0.5-0.2,0.8-0.6,1
					c-0.2,0.1-0.4,0.1-0.6,0.2C325.4,274.7,324.9,274.7,324.9,274.8z"/>
				<path class="st5" d="M305.5,293c0-1.1,0.9-2,2-2c1.1,0,2,0.9,2,2c0,1.1-0.9,2-2,2C306.3,294.9,305.5,294,305.5,293z"/>
				<path class="st5" d="M312.3,304.4c0.2,0.1,0.5,0.2,0.7,0.2c0.3,0,0.5-0.1,0.8-0.2c1.3-0.7,0.6-2.9-0.9-2.8
					c3-4.2,6.6-6.7,11.6-7.9c4.2-1,6.7,2.1,8.6-0.9c-1-0.5-3.1-0.6-3-2.1c0-1.1,1.8-2.1,2.5-2.5c1.3-0.7,3-1.3,4.5-0.8
					c2.9,0.9,2,5.4-0.4,3.8c0.1,0.1,1.1-1.3,0-1.8c-0.6-0.3-1.6,0.5-1.8,1c-0.5,1.1,0.1,2.6,1.1,3.1c4.5,2.5,7.5-5.6,3.8-8.2
					c-4.3-3-9.9-0.1-15.9,3.9c-2.5,1.6-11,7.7-12.6,13C311,303.1,311.6,304,312.3,304.4z"/>
			</g>
			<path class="st5" d="M307.3,276.5c0,0,0.1,0,0.1,0c0.1,0,0.2,0,0.3,0.4c0.5,1.8,0.4,7.4,0.4,7.4s2.3-5.2,4.1-5.9
				c0.2-0.1,0.4,0,0.6,0.1c-1.5,1.7-4.5,9.9-4.6,10.3c-0.2,0.4-0.4,0.8-0.8,0.8c-0.1,0-0.1,0-0.1,0V276.5z"/>
			<path class="st5" d="M313.8,276.8c-2.1-1-4.6-1.5-7.1-1.5v-1c0,0,0.1,0,0.1,0c4.2-0.2,8.6,1.6,11.3,4.8c1.1,1.2,1.9,3.1,2.1,4.7
				c0.3,1.9-0.6,3.5-1.2,5.3c2.8-0.3,5.2-3.6,6.7-5.8c0.9-1.4,1.8-2.7,2.8-4c0.8-0.9,1.8-2.6,3-3c0.2,1.3-0.3,2.5-0.4,3.8
				c0.8-0.2,1.8-1.3,2.4-1.9c3.1-3.1,6.7-6.6,10.6-8.7c-0.1,1.5-0.6,2.9-1,4.4c4.2-1.6,8-2.9,12.5-2.7c4.1,0.2,8.1,1.8,10.6,5.1
				c2.1,2.8,3.2,7.6,0.9,10.5c-1,1.2-2.5,2.2-4.1,1.9c-1.5-0.3-3-1.5-2.9-3.2c0-0.5,0.3-1.4,1-1.4c0.6,0,0.9,0.7,1.2,1.1
				c1.1,1.3,3.3-0.2,4-1.2c2.1-2.7,0-7.1-2.3-9c-6.4-5.1-15.1-2.1-21.5,1.3c-7.7,4.2-14.5,10-22.4,13.7c-1.9,0.9-7.9,2.8-8.3-0.7
				c-0.1-1,0.5-2.1,1.5-2.3c0.8-0.1,1.4,0.3,1.8,1c0.2,0.4,0.2,0.8,0,1.1c-0.2,0.3-0.8,0.5-0.7,0.8c0.2,1.3,2.8-0.2,3.2-0.6
				c1.1-1.1,1.8-2.7,1.9-4.2C319.6,281.4,316.8,278.3,313.8,276.8z"/>
		</g>
	</g>
	<g id="g_5_">
		<path class="st4" d="M235.4,280.7c0.8,0.6,1.8,1,2.8,1l0,0c1.2,0,2.3-0.5,3.1-1.3c1.5-1.6,1.4-4.2-0.1-5.9
			c-0.8-0.8-1.9-1.3-3.1-1.3c-1.2,0-2.3,0.5-3.1,1.4c-0.8,0.9-1.2,2-1.1,3.2C233.9,278.9,234.5,280,235.4,280.7z"/>
		<path class="st4" d="M231.1,288.1c0.6,0.3,1.3,0.5,2,0.5c1.5,0,2.9-0.8,3.7-2.1c1.1-1.9,0.5-4.4-1.4-5.7c-0.7-0.4-1.5-0.7-2.3-0.7
			c-1.5,0-2.9,0.8-3.7,2.1c-0.6,1-0.7,2.2-0.4,3.3C229.3,286.7,230.1,287.6,231.1,288.1z"/>
		<path class="st4" d="M244.7,276.2c0.8,0,1.6-0.2,2.2-0.6c1.9-1.2,2.5-3.7,1.4-5.7c-0.7-1.4-2.1-2.2-3.7-2.2
			c-0.8,0-1.6,0.2-2.3,0.7c-1,0.6-1.7,1.7-1.9,2.8c-0.2,1.1,0.1,2.3,0.8,3.2C242,275.6,243.3,276.2,244.7,276.2z"/>
		<path class="st4" d="M225.9,304.4c0.3,0.1,0.7,0.1,1,0.1l0,0c2,0,3.7-1.3,4.1-3.2c0.6-2.2-0.8-4.5-3-5.2c-0.4-0.1-0.8-0.2-1.2-0.2
			c-1.9,0-3.6,1.3-4.1,3.2c-0.3,1.1-0.1,2.3,0.5,3.3C223.9,303.4,224.8,304.1,225.9,304.4z"/>
		<path class="st4" d="M228.1,296.1c0.5,0.2,0.9,0.2,1.4,0.2c1.8,0,3.4-1.1,4-2.7c0.8-2.1-0.2-4.5-2.4-5.4c-0.5-0.2-1.1-0.3-1.6-0.3
			c-1.8,0-3.3,1.1-4,2.8c-0.4,1.1-0.4,2.3,0.1,3.3C226.1,295,227,295.8,228.1,296.1z"/>
		<path class="st4" d="M285.7,265.5c0.4,0,0.8-0.1,1.2-0.2c1.1-0.3,2-1.1,2.5-2.1c0.5-1,0.6-2.2,0.2-3.3c-0.6-1.8-2.2-2.9-4.1-2.9
			c-0.4,0-0.8,0.1-1.2,0.2c-2.2,0.7-3.4,3-2.8,5.2C282.1,264.2,283.8,265.5,285.7,265.5z"/>
		<path class="st4" d="M252.4,272.5c0.5,0,1-0.1,1.4-0.3c2.1-0.8,3.2-3.1,2.6-5.3c-0.5-1.8-2.2-3-4-3c-0.5,0-1,0.1-1.5,0.3
			c-1.1,0.4-2,1.2-2.5,2.3c-0.5,1.1-0.5,2.3,0,3.3C249.1,271.5,250.6,272.5,252.4,272.5z"/>
		<path class="st4" d="M277.4,267.6c0.3,0,0.5,0,0.8-0.1c1.1-0.2,2.1-0.9,2.8-1.8c0.6-1,0.8-2.1,0.6-3.2c-0.4-2-2.2-3.4-4.2-3.4
			c-0.3,0-0.5,0-0.8,0.1c-2.2,0.4-3.8,2.6-3.4,4.9C273.6,266.1,275.3,267.6,277.4,267.6z"/>
		<path class="st4" d="M166.4,406.4c1-0.6,1.7-1.5,2-2.6c0.3-1.1,0.1-2.3-0.5-3.3c-0.8-1.3-2.1-2.1-3.6-2.1c-0.1,0-0.2,0-0.3,0
			c0,0,0.2-0.3,0.2-0.4c0,0,0.1-0.2,0.1-0.2c0.1-0.2,0.2-0.5,0.2-0.8c0-0.4-0.1-0.7-0.3-1l-0.2-0.3c0.1,0,0.3,0,0.3,0
			c1.5,0,2.9-0.8,3.6-2.1c0.6-1,0.8-2.2,0.5-3.3c-0.3-1.1-1-2.1-2-2.6c-0.6-0.4-1.4-0.5-2.1-0.5c-1.5,0-2.9,0.8-3.6,2
			c-0.8,1.3-0.8,2.8-0.2,4.1c-0.1,0-0.1,0-0.1,0c-0.1,0-0.3,0-0.3,0c0,0-0.3,0-0.4,0c-0.1,0-0.3,0-0.4,0c-0.1,0-0.3,0.1-0.4,0.1
			c-0.1,0-0.3,0.1-0.4,0.1c-0.1,0-0.3,0.1-0.3,0.1c-0.1,0-0.3,0.2-0.4,0.2c-0.1,0-0.1,0.1-0.2,0.1c0,0-0.2,0.1-0.2,0.2
			c0,0-0.1,0.1-0.2,0.2c0,0-0.1,0.1-0.1,0.2c0,0.1-0.2,0.3-0.2,0.3c0,0.1-0.2,0.3-0.2,0.4c0,0.1-0.1,0.3-0.2,0.4
			c0,0.1-0.1,0.3-0.1,0.4c0,0.1,0,0.3-0.1,0.4c0,0.1,0,0.3,0,0.4c0,0.1,0,0.2,0,0.3c0,0.1,0,0.1,0,0.1c0,0.1,0,0.3,0,0.4
			c0,0.1,0,0.3,0,0.4c0,0.1,0.1,0.3,0.1,0.4c0,0.1,0.1,0.3,0.1,0.4c0,0.1,0.1,0.3,0.2,0.4c0,0.1,0.2,0.3,0.2,0.4
			c0,0.1,0.1,0.1,0.1,0.2c0,0,0.1,0.1,0.1,0.2c0,0,0.1,0.1,0.2,0.2c0,0,0.2,0.2,0.2,0.2c0.1,0,0.3,0.2,0.3,0.2
			c0.1,0,0.3,0.2,0.4,0.2c0.1,0,0.3,0.1,0.4,0.1c0.1,0,0.3,0.1,0.4,0.1c0.1,0,0.3,0,0.3,0c0.1,0,0.4,0,0.4,0s0.5,0,0.5,0
			c0,0,0.1,0,0.1,0c-0.6,1.3-0.6,2.8,0.2,4.1c0.8,1.2,2.2,2,3.6,2C165.1,406.9,165.8,406.7,166.4,406.4z"/>
		<path class="st4" d="M260.6,270.2c0.3,0,0.6,0,0.9-0.1c2.2-0.5,3.7-2.7,3.3-5c-0.4-2-2.1-3.5-4.2-3.5c-0.3,0-0.6,0-0.9,0.1
			c-1.1,0.2-2.1,0.9-2.7,1.9c-0.6,1-0.8,2.1-0.5,3.3C256.9,268.9,258.6,270.2,260.6,270.2z"/>
		<path class="st4" d="M269,268.8c0.2,0,0.4,0,0.5,0c2.3-0.3,3.9-2.4,3.7-4.7c-0.2-2.1-2.1-3.8-4.2-3.8c-0.2,0-0.4,0-0.6,0
			c-1.1,0.2-2.1,0.7-2.8,1.7c-0.7,0.9-1,2.1-0.8,3.2C265.1,267.2,266.9,268.8,269,268.8z"/>
		<path class="st4" d="M210.3,321.3c0.4,0,0.7,0,1.1-0.1c2.2-0.6,3.6-2.8,3-5.1c-0.4-1.9-2.1-3.3-4.1-3.3c-0.4,0-0.7,0-1.1,0.1
			c-1.1,0.3-2.1,1-2.6,2c-0.6,1-0.7,2.2-0.4,3.3C206.7,320,208.4,321.3,210.3,321.3z"/>
		<path class="st4" d="M174,363.3c0.2,0,0.3,0,0.5,0c0,0,0,0,0,0c2.1,0,4-1.6,4.2-3.7c0.3-2.3-1.3-4.4-3.6-4.8c-0.2,0-0.4,0-0.6,0
			c-2.1,0-3.9,1.6-4.2,3.7c-0.2,1.1,0.2,2.3,0.9,3.2S172.9,363.1,174,363.3z"/>
		<path class="st4" d="M218.3,318.7c0.8,0,1.5-0.2,2.2-0.6c1.1-0.6,1.9-1.7,2.1-2.9c0.2-1.2-0.1-2.4-0.8-3.3
			c-0.9-1.1-2.2-1.7-3.5-1.7c-0.7,0-1.4,0.2-2,0.5c-1.8,1-2.5,3.3-1.8,5.4C215.1,317.6,216.6,318.7,218.3,318.7z"/>
		<path class="st4" d="M175.2,354.8c0.3,0,0.5,0.1,0.8,0.1c2,0,3.8-1.4,4.2-3.3c0.5-2.2-0.9-4.5-3.2-5c-0.3-0.1-0.7-0.1-1-0.1
			c-2,0-3.7,1.4-4.1,3.4c-0.2,1.1,0,2.3,0.6,3.3C173,353.9,174,354.6,175.2,354.8z"/>
		<path class="st4" d="M169.9,379.8c0.4,0.2,0.9,0.2,1.4,0.2c1.9,0,3.5-1.2,4.1-3c0.3-1.1,0.2-2.3-0.3-3.3c-0.6-1-1.5-1.7-2.6-2
			c-0.4-0.1-0.8-0.2-1.1-0.2c-1.9,0-3.6,1.2-4.1,3C166.5,376.7,167.7,379.1,169.9,379.8z"/>
		<path class="st4" d="M166.5,387.6c0.6,0.3,1.2,0.4,1.8,0.4c1.7,0,3.2-1,3.9-2.5c0.5-1.1,0.5-2.3,0-3.3c-0.4-1.1-1.3-1.9-2.3-2.3
			c-0.5-0.2-1.1-0.3-1.6-0.3c-1.7,0-3.2,1-3.9,2.5C163.4,384.2,164.4,386.6,166.5,387.6z"/>
		<path class="st4" d="M177,346.4c0.4,0.1,0.9,0.2,1.3,0.2c1.8,0,3.4-1.1,4-2.8c0.8-2.1-0.3-4.5-2.4-5.4c-0.5-0.2-1.1-0.3-1.7-0.3
			c-1.8,0-3.4,1.1-4,2.8c-0.4,1.1-0.3,2.3,0.2,3.4C175,345.3,175.9,346.1,177,346.4z"/>
		<path class="st4" d="M172.4,371.6c0.3,0.1,0.6,0.1,0.9,0.1c2,0,3.8-1.5,4.2-3.5c0.2-1.1,0-2.3-0.7-3.2c-0.7-0.9-1.7-1.6-2.8-1.7
			c-0.2,0-0.5-0.1-0.7-0.1c-2.1,0-3.8,1.4-4.2,3.4C168.7,369,170.1,371.1,172.4,371.6z"/>
		<path class="st4" d="M179.9,338.4c0.6,0.3,1.4,0.5,2.1,0.5c1.5,0,2.8-0.7,3.6-1.9c1.2-1.9,0.7-4.4-1.1-5.7
			c-0.7-0.5-1.6-0.8-2.5-0.8c-1.5,0-2.8,0.7-3.6,2c-0.6,1-0.8,2.2-0.5,3.4C178.2,336.9,178.9,337.9,179.9,338.4z"/>
		<path class="st4" d="M202.2,323.8c0.5,0,1-0.1,1.5-0.3c2.1-0.8,3.2-3.2,2.5-5.4c-0.6-1.7-2.2-2.9-4-2.9c-0.5,0-1,0.1-1.5,0.3
			c-1.1,0.4-2,1.2-2.4,2.3c-0.4,1.1-0.5,2.3,0,3.3C198.9,322.8,200.4,323.8,202.2,323.8z"/>
		<path class="st4" d="M293.8,262.5c0.6,0,1.2-0.1,1.7-0.4c1.1-0.5,1.9-1.3,2.3-2.4c0.4-1.1,0.3-2.3-0.2-3.3
			c-0.7-1.5-2.2-2.4-3.9-2.4c-0.6,0-1.1,0.1-1.7,0.4c-2.1,0.9-3.1,3.3-2.2,5.5C290.5,261.5,292,262.5,293.8,262.5z"/>
		<path class="st4" d="M187.5,332.4c1.1,0,2.1-0.4,2.8-1.1c1.6-1.5,1.8-4.1,0.4-5.9c-0.8-1-2-1.6-3.3-1.6c-1.1,0-2.1,0.4-2.9,1.1
			c-0.9,0.8-1.4,2-1.4,3.1c0,1.2,0.5,2.3,1.3,3.1C185.4,332,186.4,332.4,187.5,332.4z"/>
		<path class="st4" d="M194.4,327.4c0.7,0,1.4-0.2,2.1-0.5c1.9-1.1,2.7-3.6,1.6-5.7c-0.7-1.4-2.2-2.3-3.8-2.3
			c-0.7,0-1.5,0.2-2.1,0.6c-1,0.6-1.8,1.6-2,2.7c-0.3,1.1-0.1,2.3,0.6,3.3C191.6,326.6,193,327.4,194.4,327.4z"/>
		<path class="st4" d="M221.8,311.8c0.7,0.6,1.6,0.9,2.5,0.9c1.5,0,2.9-0.8,3.7-2.2c0.6-1.1,0.8-2.4,0.3-3.6c-0.4-1.1-1.3-2-2.4-2.4
			c-0.5-0.2-1.1-0.3-1.6-0.3c-1.6,0-3,0.8-3.8,2.1C219.6,308.1,220.2,310.4,221.8,311.8z"/>
		<path class="st4" d="M423.6,331.3c0.8,0.7,1.8,1.1,2.8,1.1c1.1,0,2.2-0.4,3-1.2c0.8-0.8,1.3-1.9,1.3-3.1c0-1.2-0.5-2.3-1.4-3.1
			c-0.8-0.7-1.8-1.1-2.9-1.1c-1.3,0-2.5,0.6-3.3,1.6C421.9,327.2,422,329.8,423.6,331.3z"/>
		<path class="st4" d="M428.4,337c0.8,1.2,2.1,1.9,3.6,1.9c0.7,0,1.5-0.2,2.1-0.5c1-0.5,1.8-1.5,2.1-2.6c0.3-1.1,0.1-2.4-0.5-3.4
			c-0.8-1.3-2.1-2-3.6-2c-0.9,0-1.8,0.3-2.5,0.8C427.7,332.6,427.2,335.1,428.4,337z"/>
		<path class="st4" d="M417.5,326.9c0.6,0.4,1.3,0.5,2.1,0.5c1.5,0,2.8-0.7,3.7-2c0.6-1,0.8-2.2,0.6-3.3c-0.3-1.1-1-2.1-2-2.7
			c-0.7-0.4-1.4-0.6-2.1-0.6c-1.6,0-3,0.9-3.8,2.3C414.8,323.2,415.6,325.7,417.5,326.9z"/>
		<path class="st4" d="M434.1,338.5c-2.1,0.9-3.2,3.3-2.4,5.4c0.6,1.6,2.2,2.8,4,2.8c0.4,0,0.9-0.1,1.3-0.2c1.1-0.3,2-1.1,2.5-2.2
			c0.5-1.1,0.6-2.2,0.2-3.4c-0.6-1.7-2.2-2.8-4-2.8C435.2,338.1,434.6,338.2,434.1,338.5z"/>
		<path class="st4" d="M391.4,315.1c0.2,1.2,1,2.3,2.1,3c0.7,0.4,1.4,0.6,2.2,0.6c1.7,0,3.3-1.1,3.8-2.6c0.8-2,0-4.4-1.8-5.4
			c-0.6-0.3-1.3-0.5-2-0.5c-1.3,0-2.7,0.6-3.5,1.7C391.5,312.7,391.2,313.9,391.4,315.1z"/>
		<path class="st4" d="M410.4,323.5c0.5,0.2,1,0.3,1.5,0.3c1.7,0,3.3-1,4-2.7c0.4-1.1,0.4-2.3,0-3.3c-0.5-1.1-1.3-1.9-2.4-2.3
			c-0.5-0.2-1-0.3-1.5-0.3c-1.8,0-3.4,1.2-4,2.9C407.1,320.4,408.2,322.7,410.4,323.5z"/>
		<path class="st4" d="M402.7,321.1c0.3,0.1,0.7,0.1,1,0.1c1.9,0,3.6-1.3,4.1-3.1c0.3-1.1,0.2-2.3-0.4-3.3c-0.6-1-1.5-1.7-2.6-2
			c-0.4-0.1-0.7-0.1-1.1-0.1c-2,0-3.7,1.3-4.1,3.3C399.1,318.3,400.4,320.5,402.7,321.1z"/>
		<path class="st4" d="M441.6,371.7c-1.1,0.3-2,1-2.6,2c-0.6,1-0.7,2.2-0.3,3.3c0.5,1.8,2.2,3,4.1,3c0.5,0,0.9-0.1,1.4-0.2
			c2.2-0.8,3.4-3.1,2.7-5.3c-0.5-1.8-2.2-3-4.1-3C442.4,371.6,442,371.6,441.6,371.7z"/>
		<path class="st4" d="M437.1,346.5c-2.3,0.6-3.7,2.8-3.2,5c0.4,1.9,2.2,3.3,4.2,3.3c0.3,0,0.5,0,0.8-0.1c1.1-0.2,2.1-0.9,2.8-1.8
			c0.6-1,0.9-2.1,0.6-3.3c-0.4-1.9-2.2-3.4-4.1-3.4C437.7,346.4,437.4,346.4,437.1,346.5z"/>
		<path class="st4" d="M444.1,379.9c-1.1,0.4-1.9,1.2-2.3,2.3c-0.4,1.1-0.4,2.3,0,3.3c0.7,1.5,2.2,2.5,3.9,2.5
			c0.6,0,1.3-0.1,1.8-0.4c2.1-1,3-3.5,2.1-5.6c-0.7-1.5-2.2-2.5-3.9-2.5C445.2,379.6,444.6,379.7,444.1,379.9z"/>
		<path class="st4" d="M439.5,354.8c-0.2,0-0.4,0-0.6,0c-2.3,0.4-3.9,2.5-3.6,4.8c0.3,2.1,2.1,3.7,4.2,3.7c0.2,0,0.3,0,0.5,0
			c1.1-0.1,2.2-0.7,2.9-1.6s1-2,0.9-3.2C443.4,356.4,441.6,354.8,439.5,354.8z"/>
		<path class="st4" d="M440,363.3c-1.1,0.2-2.1,0.8-2.8,1.7c-0.7,0.9-0.9,2.1-0.7,3.2c0.4,2,2.1,3.4,4.2,3.4h0c0.3,0,0.6,0,0.9-0.1
			c2.3-0.5,3.7-2.7,3.3-4.9c-0.4-2-2.1-3.4-4.2-3.4C440.5,363.3,440.2,363.3,440,363.3z"/>
		<path class="st4" d="M352.5,270.1c0.3,0.1,0.6,0.1,0.9,0.1c2,0,3.7-1.3,4.1-3.3c0.3-1.1,0.1-2.3-0.5-3.3c-0.6-1-1.6-1.7-2.7-1.9
			c-0.3-0.1-0.6-0.1-0.9-0.1c-2,0-3.8,1.5-4.2,3.5C348.8,267.4,350.3,269.7,352.5,270.1z"/>
		<path class="st4" d="M388,304.5c-1.1,0.4-2,1.3-2.4,2.4c-0.4,1.2-0.3,2.5,0.3,3.6c0.8,1.3,2.2,2.2,3.7,2.2c0.9,0,1.8-0.3,2.5-0.9
			c1.7-1.4,2.2-3.8,1.2-5.6c-0.7-1.3-2.2-2-3.7-2C389.1,304.2,388.5,304.3,388,304.5z"/>
		<path class="st4" d="M360.2,272.3c0.5,0.2,0.9,0.3,1.4,0.3c1.7,0,3.3-1,4-2.6c0.5-1,0.5-2.3,0-3.3c-0.5-1.1-1.4-1.9-2.5-2.3
			c-0.5-0.2-1-0.3-1.5-0.3c-1.9,0-3.5,1.2-4,3C356.9,269.2,358,271.5,360.2,272.3z"/>
		<path class="st4" d="M301.3,258.6c0.8,0,1.5-0.2,2.2-0.6c1-0.6,1.7-1.6,2-2.7c0.1-0.4,0.1-0.9,0.1-1.3l0.3,0.2
			c0.3,0.2,0.7,0.3,1,0.3h0.1c0.4,0,0.7-0.1,1-0.3c0.1,0,0.3-0.2,0.3-0.2c0,0.4,0,0.9,0.1,1.3c0.3,1.1,0.9,2.1,2,2.7
			c0.7,0.4,1.4,0.6,2.2,0.6c1.5,0,3-0.8,3.7-2.2c1.1-2,0.5-4.6-1.5-5.7c-0.6-0.4-1.4-0.6-2.2-0.6c-0.7,0-1.3,0.2-1.9,0.4
			c0-0.1,0-0.1,0-0.1c0-0.1,0-0.3,0-0.4c0-0.1,0-0.3,0-0.4c0-0.1,0-0.3,0-0.4c0-0.1-0.1-0.3-0.1-0.4c0-0.1-0.1-0.3-0.1-0.4
			c0-0.1-0.1-0.3-0.2-0.4c0-0.1-0.2-0.3-0.2-0.3c-0.1-0.1-0.2-0.3-0.3-0.4c0,0-0.1-0.1-0.2-0.2c0,0-0.1-0.1-0.2-0.2
			c-0.1,0-0.3-0.2-0.3-0.2c-0.1,0-0.3-0.2-0.4-0.2c-0.1,0-0.3-0.1-0.4-0.2c-0.1,0-0.3-0.1-0.4-0.1c-0.1,0-0.3,0-0.4,0
			c-0.1,0-0.4,0-0.4,0c-0.1,0-0.2,0-0.3,0c-0.1,0-0.1,0-0.1,0c-0.1,0-0.3,0-0.4,0c0,0-0.3,0-0.4,0c-0.1,0-0.3,0.1-0.4,0.1
			c-0.1,0-0.3,0.1-0.4,0.1c-0.1,0-0.3,0.1-0.4,0.2c-0.1,0-0.3,0.2-0.4,0.2c0,0-0.2,0.1-0.2,0.2c0,0-0.3,0.2-0.3,0.3
			c0,0-0.1,0.2-0.2,0.2c-0.1,0.1-0.2,0.3-0.2,0.3c0,0.1-0.1,0.3-0.2,0.4c0,0.1-0.1,0.3-0.1,0.4c0,0.1-0.1,0.3-0.1,0.4
			c0,0.1,0,0.3-0.1,0.4c0,0.1,0,0.3,0,0.4c0,0.1,0,0.5,0,0.5c0,0,0,0.1,0,0.1c-0.6-0.3-1.2-0.4-1.9-0.4c-0.8,0-1.5,0.2-2.2,0.6
			c-2,1.2-2.6,3.7-1.5,5.7C298.4,257.8,299.8,258.6,301.3,258.6z"/>
		<path class="st4" d="M333,265.6c0.6,1,1.6,1.6,2.8,1.8c0.3,0.1,0.5,0.1,0.8,0.1c2.1,0,3.9-1.5,4.2-3.6c0.4-2.3-1.2-4.5-3.4-4.9
			c-0.3,0-0.5-0.1-0.8-0.1c-2,0-3.7,1.4-4.2,3.4C332.1,263.5,332.3,264.7,333,265.6z"/>
		<path class="st4" d="M316.2,259.8c0.4,1.1,1.2,2,2.3,2.4c0.5,0.2,1.1,0.4,1.7,0.4c1.7,0,3.3-1,3.9-2.7c0.9-2.2-0.1-4.6-2.2-5.5
			c-0.5-0.2-1.1-0.4-1.7-0.4c-1.6,0-3.2,1-3.9,2.4C315.9,257.5,315.8,258.7,316.2,259.8z"/>
		<path class="st4" d="M324.4,263.2c0.5,1,1.4,1.8,2.5,2.1c0.4,0.1,0.8,0.2,1.2,0.2c0,0,0,0,0,0c1.9,0,3.6-1.3,4.1-3.1
			c0.6-2.3-0.6-4.6-2.8-5.2c-0.4-0.1-0.8-0.2-1.2-0.2c-1.8,0-3.5,1.2-4.1,2.9C323.8,261,323.9,262.2,324.4,263.2z"/>
		<path class="st4" d="M344.4,268.8c0.2,0,0.4,0,0.6,0c2.1,0,3.9-1.6,4.2-3.7c0.2-1.1-0.1-2.3-0.8-3.2c-0.7-0.9-1.7-1.5-2.8-1.7
			c-0.2,0-0.4,0-0.6,0c-2.2,0-4,1.6-4.2,3.8C340.5,266.3,342.1,268.5,344.4,268.8z"/>
		<path class="st4" d="M382.9,288.2c-2.1,0.9-3.2,3.3-2.4,5.4c0.6,1.6,2.2,2.7,4,2.7c0.5,0,0.9-0.1,1.4-0.2c1.1-0.4,2-1.2,2.5-2.2
			c0.5-1.1,0.5-2.2,0.1-3.3c-0.6-1.7-2.2-2.8-4-2.8C383.9,287.9,383.4,288,382.9,288.2z"/>
		<path class="st4" d="M385.9,296.2c-2.2,0.6-3.6,3-3,5.2c0.5,1.9,2.2,3.2,4.1,3.2c0.3,0,0.7,0,1-0.1c1.1-0.3,2.1-1,2.7-1.9
			c0.6-1,0.8-2.1,0.5-3.3c-0.5-1.9-2.2-3.2-4.1-3.2C386.7,296,386.3,296.1,385.9,296.2z"/>
		<path class="st4" d="M377.2,286.5c0.7,1.3,2.2,2.1,3.7,2.1c0.7,0,1.4-0.2,2-0.5c1-0.5,1.8-1.4,2.1-2.5c0.3-1.1,0.2-2.3-0.4-3.3
			c-0.8-1.3-2.2-2.2-3.7-2.2c-0.8,0-1.6,0.2-2.3,0.7C376.7,282.1,376.1,284.6,377.2,286.5z"/>
		<path class="st4" d="M372.7,280.4c0.8,0.8,1.9,1.3,3.1,1.3c1,0,2-0.3,2.8-1c0.9-0.7,1.5-1.8,1.6-2.9c0.1-1.2-0.3-2.4-1.1-3.2
			c-0.8-0.9-2-1.4-3.1-1.4c-1.2,0-2.3,0.5-3.1,1.3C371.3,276.2,371.2,278.8,372.7,280.4z"/>
		<path class="st4" d="M367,275.6c0.7,0.4,1.4,0.6,2.2,0.6c1.4,0,2.7-0.7,3.5-1.8c0.7-0.9,1-2.1,0.8-3.2c-0.2-1.2-0.9-2.2-1.9-2.8
			c-0.7-0.4-1.5-0.7-2.3-0.7c-1.5,0-3,0.8-3.7,2.2C364.5,271.9,365.2,274.4,367,275.6z"/>
		<path class="st4" d="M281,528.4c-0.6-1-1.6-1.6-2.8-1.8c-0.3-0.1-0.5-0.1-0.8-0.1c-2.1,0-3.9,1.5-4.2,3.6
			c-0.4,2.3,1.2,4.5,3.4,4.9c0.3,0,0.5,0.1,0.8,0.1c2,0,3.7-1.4,4.2-3.4C281.8,530.5,281.6,529.3,281,528.4z"/>
		<path class="st4" d="M385.9,497.9c-0.5-0.2-0.9-0.2-1.4-0.2c-1.8,0-3.4,1.1-4,2.7c-0.8,2.1,0.3,4.5,2.4,5.4
			c0.5,0.2,1.1,0.3,1.6,0.3l0,0c1.8,0,3.3-1.1,4-2.8c0.4-1.1,0.4-2.3-0.1-3.3C387.8,499,386.9,498.2,385.9,497.9z"/>
		<path class="st4" d="M388,489.6c-0.3-0.1-0.7-0.1-1-0.1c-1.9,0-3.6,1.3-4.1,3.2c-0.6,2.2,0.7,4.5,3,5.2c0.4,0.1,0.8,0.2,1.2,0.2
			c1.9,0,3.6-1.3,4.1-3.2c0.3-1.1,0.1-2.3-0.5-3.3C390.1,490.6,389.1,489.9,388,489.6z"/>
		<path class="st4" d="M382.8,505.9c-0.6-0.3-1.3-0.5-2-0.5c-1.5,0-2.9,0.8-3.7,2.1c-1.1,1.9-0.5,4.4,1.4,5.7
			c0.7,0.5,1.5,0.7,2.3,0.7c1.5,0,2.9-0.8,3.7-2.2c0.6-1,0.7-2.2,0.4-3.4C384.6,507.3,383.9,506.4,382.8,505.9z"/>
		<path class="st4" d="M403.7,472.8c-0.4,0-0.7,0-1,0.1c-2.2,0.6-3.5,2.8-3.1,5.1c0.4,1.9,2.2,3.3,4.1,3.3c0.4,0,0.7,0,1.1-0.1
			c1.1-0.3,2.1-1,2.6-2c0.6-1,0.7-2.2,0.4-3.3C407.3,474.1,405.6,472.8,403.7,472.8z"/>
		<path class="st4" d="M395.7,475.4c-0.7,0-1.5,0.2-2.2,0.6c-1.1,0.6-1.9,1.7-2.1,2.9c-0.2,1.2,0.1,2.4,0.8,3.3
			c0.9,1.1,2.2,1.7,3.6,1.7c0.7,0,1.4-0.2,2-0.5c1.8-1,2.5-3.3,1.8-5.4C399,476.4,397.4,475.4,395.7,475.4z"/>
		<path class="st4" d="M392.1,482.2c-0.7-0.6-1.6-0.9-2.5-0.9c-1.5,0-2.9,0.8-3.7,2.2c-0.6,1.1-0.8,2.4-0.3,3.6
			c0.4,1.1,1.3,2,2.4,2.4c0.5,0.2,1.1,0.3,1.6,0.3c1.6,0,3-0.8,3.7-2.1C394.3,486,393.8,483.6,392.1,482.2z"/>
		<path class="st4" d="M378.6,513.3c-0.8-0.6-1.8-1-2.8-1c-1.2,0-2.3,0.5-3.1,1.3c-1.5,1.6-1.4,4.2,0.1,5.8c0.8,0.8,1.9,1.3,3.1,1.3
			c1.2,0,2.3-0.5,3.1-1.4c0.8-0.9,1.2-2.1,1.1-3.2C380,515,379.5,514,378.6,513.3z"/>
		<path class="st4" d="M369.2,517.7c-0.8,0-1.6,0.2-2.2,0.6c-1.9,1.2-2.5,3.7-1.4,5.7c0.7,1.4,2.1,2.2,3.7,2.2
			c0.8,0,1.6-0.2,2.3-0.7c1-0.6,1.7-1.7,1.9-2.8c0.2-1.1-0.1-2.3-0.8-3.2C371.9,518.4,370.6,517.7,369.2,517.7z"/>
		<path class="st4" d="M336.5,526.4c-0.3,0-0.5,0-0.8,0.1c-1.1,0.2-2.1,0.9-2.8,1.8c-0.6,1-0.8,2.1-0.6,3.2c0.4,2,2.2,3.4,4.2,3.4
			c0.3,0,0.5,0,0.8-0.1c2.2-0.4,3.8-2.6,3.4-4.9C340.4,527.9,338.6,526.4,336.5,526.4z"/>
		<path class="st4" d="M345,525.2c-0.2,0-0.4,0-0.6,0c-2.3,0.3-3.9,2.4-3.7,4.7c0.2,2.1,2.1,3.8,4.2,3.8c0.2,0,0.4,0,0.6,0
			c1.1-0.2,2.1-0.7,2.8-1.7c0.7-0.9,1-2.1,0.8-3.2C348.9,526.8,347.1,525.2,345,525.2z"/>
		<path class="st4" d="M361.6,521.5c-0.5,0-1,0.1-1.4,0.3c-2.1,0.8-3.2,3.1-2.6,5.3c0.5,1.8,2.2,3,4,3c0.5,0,1-0.1,1.5-0.3
			c1.1-0.4,2-1.3,2.5-2.3c0.5-1.1,0.5-2.3,0-3.3C364.9,522.5,363.3,521.5,361.6,521.5z"/>
		<path class="st4" d="M353.4,523.8c-0.3,0-0.6,0-0.9,0.1c-2.2,0.5-3.7,2.7-3.3,5c0.4,2,2.1,3.5,4.2,3.5c0.3,0,0.6,0,0.9-0.1
			c1.1-0.2,2.1-0.9,2.7-1.9c0.6-1,0.8-2.1,0.5-3.3C357,525.1,355.3,523.8,353.4,523.8z"/>
		<path class="st4" d="M328.2,528.5c-0.4,0-0.8,0.1-1.2,0.2c-1.1,0.3-2,1.1-2.5,2.1c-0.5,1-0.6,2.2-0.2,3.3c0.6,1.8,2.2,2.9,4.1,2.9
			c0.4,0,0.8-0.1,1.2-0.2c2.2-0.7,3.4-3,2.8-5.2C331.8,529.8,330.1,528.5,328.2,528.5z"/>
		<path class="st4" d="M441.6,422.4c-0.3-0.1-0.6-0.1-0.9-0.1c-2,0-3.8,1.4-4.2,3.5c-0.2,1.1,0,2.3,0.7,3.2c0.7,0.9,1.7,1.6,2.8,1.7
			c0.2,0,0.5,0.1,0.7,0.1c2.1,0,3.8-1.4,4.2-3.4C445.3,425.1,443.9,423,441.6,422.4z"/>
		<path class="st4" d="M444.1,414.3c-0.4-0.2-0.9-0.2-1.4-0.2c-1.9,0-3.5,1.2-4.1,3c-0.3,1.1-0.2,2.3,0.3,3.3c0.6,1,1.5,1.7,2.6,2
			c0.4,0.1,0.8,0.2,1.1,0.2c1.9,0,3.6-1.2,4.1-3C447.5,417.3,446.3,415,444.1,414.3z"/>
		<path class="st4" d="M440,430.8c-0.2,0-0.3,0-0.5,0c-2.1,0-4,1.6-4.2,3.7c-0.3,2.3,1.3,4.4,3.6,4.8c0.2,0,0.4,0,0.6,0
			c2.1,0,3.9-1.6,4.2-3.7c0.1-1.1-0.2-2.3-0.9-3.2C442.1,431.5,441.1,431,440,430.8z"/>
		<path class="st4" d="M447.5,406.4c-0.6-0.3-1.2-0.4-1.8-0.4c-1.7,0-3.2,1-3.9,2.5c-0.5,1.1-0.5,2.3,0,3.3c0.4,1.1,1.3,1.9,2.3,2.3
			c0.5,0.2,1.1,0.3,1.6,0.3c1.7,0,3.2-1,3.9-2.5C450.6,409.9,449.6,407.5,447.5,406.4z"/>
		<path class="st4" d="M457.6,397.1c0-0.1,0-0.1,0-0.1c0-0.1,0-0.3,0-0.4c0-0.1,0-0.3,0-0.4c0-0.1-0.1-0.3-0.1-0.4
			c0-0.1-0.1-0.3-0.1-0.4c0-0.1-0.1-0.3-0.2-0.4c0-0.1-0.2-0.3-0.2-0.4c0,0-0.1-0.2-0.2-0.2c0,0-0.2-0.3-0.3-0.3
			c0,0-0.2-0.1-0.2-0.2c-0.1-0.1-0.3-0.2-0.3-0.2c-0.1,0-0.3-0.1-0.3-0.2c-0.1,0-0.3-0.1-0.4-0.2c-0.1,0-0.3-0.1-0.4-0.1
			c-0.1,0-0.3,0-0.4-0.1c-0.1,0-0.3,0-0.4,0c0,0-0.5,0-0.5,0c0,0-0.1,0-0.1,0c0.6-1.3,0.6-2.8-0.2-4.1c-0.8-1.2-2.2-2-3.6-2
			c-0.7,0-1.5,0.2-2.1,0.5c-1,0.6-1.7,1.5-2,2.6c-0.3,1.1-0.1,2.3,0.5,3.3c0.8,1.3,2.1,2.1,3.6,2.1c0,0,0.2,0,0.3,0l-0.2,0.3
			c-0.2,0.3-0.3,0.6-0.3,1l0,0.1c0,0.4,0.1,0.8,0.3,1.1c0,0.1,0.2,0.3,0.2,0.3c-0.1,0-0.2,0-0.3,0c-1.5,0-2.9,0.8-3.6,2.1
			c-0.6,1-0.8,2.2-0.5,3.3c0.3,1.1,1,2.1,2,2.6c0.6,0.4,1.4,0.5,2.1,0.5c1.5,0,2.9-0.8,3.6-2c0.8-1.3,0.8-2.8,0.2-4
			c0.1,0,0.5,0.1,0.5,0.1c0,0,0.3,0,0.4,0c0.1,0,0.3,0,0.4,0c0.1,0,0.3-0.1,0.4-0.1c0.1,0,0.3-0.1,0.4-0.1c0.1,0,0.3-0.1,0.4-0.2
			c0.1,0,0.3-0.2,0.4-0.2c0.1,0,0.3-0.2,0.4-0.3c0,0,0.2-0.2,0.2-0.2c0,0,0.1-0.2,0.2-0.2c0,0,0.2-0.2,0.2-0.3
			c0.1-0.1,0.2-0.3,0.2-0.4c0-0.1,0.1-0.3,0.2-0.4c0-0.1,0.1-0.3,0.1-0.4c0-0.1,0-0.3,0-0.4c0-0.1,0-0.3,0-0.4
			C457.6,397.3,457.6,397.2,457.6,397.1z"/>
		<path class="st4" d="M411.9,470.3c-0.5,0-1,0.1-1.5,0.3c-2.2,0.8-3.3,3.2-2.5,5.4c0.6,1.7,2.2,2.9,4,2.9c0.5,0,1-0.1,1.5-0.3
			c1.1-0.4,2-1.2,2.4-2.3c0.4-1,0.4-2.3,0-3.3C415.1,471.3,413.6,470.3,411.9,470.3z"/>
		<path class="st4" d="M438.8,439.3c-0.3,0-0.5-0.1-0.8-0.1c-2,0-3.8,1.4-4.2,3.3c-0.5,2.2,0.9,4.4,3.2,5c0.3,0.1,0.7,0.1,1,0.1
			c2,0,3.7-1.4,4.1-3.4c0.2-1.1,0-2.3-0.6-3.3C441,440.2,440,439.5,438.8,439.3z"/>
		<path class="st4" d="M426.5,461.7c-1.1,0-2.1,0.4-2.8,1.1c-1.6,1.5-1.8,4.1-0.4,5.8c0.8,1,2,1.6,3.3,1.6c1.1,0,2.1-0.4,2.9-1.1
			c0.9-0.8,1.4-2,1.4-3.1c0-1.2-0.5-2.3-1.3-3.1C428.7,462.1,427.6,461.7,426.5,461.7z"/>
		<path class="st4" d="M419.6,466.7c-0.7,0-1.4,0.2-2.1,0.5c-1.9,1.1-2.7,3.6-1.6,5.7c0.7,1.4,2.2,2.3,3.8,2.3
			c0.7,0,1.5-0.2,2.1-0.6c1-0.6,1.8-1.6,2-2.7c0.3-1.1,0.1-2.3-0.6-3.3C422.4,467.4,421,466.7,419.6,466.7z"/>
		<path class="st4" d="M434.1,455.7c-0.6-0.3-1.4-0.5-2.1-0.5c-1.5,0-2.8,0.7-3.6,1.9c-1.2,1.9-0.7,4.4,1.2,5.7
			c0.7,0.5,1.6,0.8,2.5,0.8c1.5,0,2.8-0.7,3.6-2c0.6-1,0.8-2.2,0.5-3.4C435.8,457.2,435.1,456.2,434.1,455.7z"/>
		<path class="st4" d="M437,447.7c-0.4-0.1-0.9-0.2-1.3-0.2c-1.8,0-3.4,1.1-4,2.8c-0.8,2.1,0.3,4.5,2.4,5.4c0.5,0.2,1.1,0.3,1.7,0.3
			c1.8,0,3.4-1.1,4-2.8c0.4-1.1,0.3-2.3-0.2-3.4C439.1,448.8,438.1,448,437,447.7z"/>
		<path class="st4" d="M222.6,478.9c-0.2-1.2-1-2.3-2.1-2.9c-0.7-0.4-1.4-0.6-2.2-0.6c-1.7,0-3.3,1.1-3.8,2.6c-0.8,2,0,4.4,1.8,5.4
			c0.6,0.3,1.3,0.5,2,0.5c1.3,0,2.7-0.6,3.5-1.7C222.5,481.3,222.8,480.1,222.6,478.9z"/>
		<path class="st4" d="M226,489.6c1.1-0.4,2-1.3,2.4-2.4c0.4-1.2,0.3-2.5-0.3-3.6c-0.8-1.3-2.2-2.2-3.7-2.2c-0.9,0-1.8,0.3-2.5,0.9
			c-1.7,1.4-2.2,3.7-1.2,5.6c0.7,1.3,2.2,2,3.7,2C224.9,489.9,225.5,489.8,226,489.6z"/>
		<path class="st4" d="M190.4,462.8c-0.8-0.7-1.8-1.1-2.8-1.1c-1.1,0-2.2,0.4-3,1.2c-0.9,0.8-1.3,1.9-1.3,3.1c0,1.2,0.5,2.3,1.4,3.1
			c0.8,0.7,1.8,1.1,2.9,1.1c1.3,0,2.5-0.6,3.3-1.6C192.1,466.8,192,464.3,190.4,462.8z"/>
		<path class="st4" d="M203.6,470.5c-0.5-0.2-1-0.3-1.5-0.3c-1.7,0-3.3,1-4,2.7c-0.4,1-0.4,2.3,0,3.3c0.5,1.1,1.3,1.9,2.4,2.3
			c0.5,0.2,1,0.3,1.5,0.3c1.8,0,3.4-1.2,4-2.9C206.8,473.7,205.7,471.4,203.6,470.5z"/>
		<path class="st4" d="M320.2,531.4c-0.6,0-1.2,0.1-1.7,0.4c-1.1,0.5-1.9,1.3-2.3,2.4c-0.4,1.1-0.3,2.3,0.2,3.3
			c0.7,1.5,2.3,2.4,3.9,2.4c0.6,0,1.1-0.1,1.7-0.4c2.1-0.9,3.1-3.3,2.2-5.5C323.5,532.5,322,531.4,320.2,531.4z"/>
		<path class="st4" d="M211.3,473c-0.3-0.1-0.7-0.1-1.1-0.1c-1.9,0-3.6,1.3-4.1,3.1c-0.3,1.1-0.2,2.3,0.4,3.3c0.6,1,1.5,1.7,2.6,2
			c0.4,0.1,0.7,0.1,1.1,0.1c2,0,3.7-1.3,4.1-3.3C214.9,475.8,213.5,473.5,211.3,473z"/>
		<path class="st4" d="M169.9,414.2c1.1-0.4,1.9-1.3,2.3-2.3c0.4-1.1,0.4-2.3,0-3.3c-0.7-1.5-2.2-2.5-3.9-2.5
			c-0.6,0-1.3,0.1-1.8,0.4c-2.1,1-3,3.5-2.1,5.6c0.7,1.5,2.2,2.5,3.9,2.5C168.8,414.5,169.4,414.4,169.9,414.2z"/>
		<path class="st4" d="M185.6,457.1c-0.8-1.2-2.1-1.9-3.6-1.9c-0.7,0-1.5,0.2-2.1,0.5c-1,0.5-1.8,1.5-2.1,2.6
			c-0.3,1.1-0.1,2.4,0.5,3.4c0.8,1.2,2.1,2,3.6,2c0.9,0,1.8-0.3,2.5-0.8C186.3,461.4,186.8,458.9,185.6,457.1z"/>
		<path class="st4" d="M172.4,422.4c1.1-0.3,2-1,2.6-2c0.6-1,0.7-2.2,0.3-3.3c-0.5-1.8-2.2-3-4.1-3c-0.5,0-0.9,0.1-1.4,0.2
			c-2.2,0.8-3.4,3.1-2.7,5.3c0.5,1.8,2.2,3,4.1,3C171.6,422.5,172,422.5,172.4,422.4z"/>
		<path class="st4" d="M173.3,430.8c0.2,0,0.5,0,0.7-0.1c1.1-0.2,2.1-0.8,2.8-1.7c0.7-0.9,0.9-2.1,0.7-3.2c-0.4-2-2.1-3.4-4.2-3.4
			c-0.3,0-0.6,0-0.9,0.1c-2.3,0.5-3.7,2.7-3.3,4.9C169.5,429.4,171.3,430.8,173.3,430.8L173.3,430.8z"/>
		<path class="st4" d="M178.2,456c0.6,0,1.1-0.1,1.7-0.3c2.1-0.9,3.2-3.3,2.4-5.4c-0.6-1.7-2.2-2.8-4-2.8c-0.4,0-0.9,0.1-1.3,0.2
			c-1.1,0.3-2,1.1-2.5,2.2c-0.5,1.1-0.6,2.2-0.2,3.3C174.9,454.8,176.5,456,178.2,456C178.2,456,178.2,456,178.2,456z"/>
		<path class="st4" d="M176.9,447.6c2.3-0.6,3.7-2.8,3.2-5c-0.4-1.9-2.2-3.3-4.2-3.3c-0.3,0-0.5,0-0.8,0.1c-1.1,0.2-2.1,0.9-2.8,1.8
			c-0.6,1-0.9,2.1-0.6,3.3c0.4,1.9,2.2,3.4,4.1,3.4C176.3,447.7,176.6,447.7,176.9,447.6z"/>
		<path class="st4" d="M174.5,439.3c0.2,0,0.4,0,0.6,0c2.3-0.3,3.9-2.5,3.6-4.8c-0.3-2.1-2.1-3.7-4.2-3.7c-0.2,0-0.3,0-0.5,0
			c-1.1,0.1-2.2,0.7-2.9,1.6c-0.7,0.9-1,2-0.9,3.2C170.6,437.7,172.4,439.3,174.5,439.3z"/>
		<path class="st4" d="M196.5,467.2c-0.6-0.4-1.3-0.5-2.1-0.5c-1.5,0-2.8,0.7-3.6,2c-0.6,1-0.8,2.1-0.6,3.3c0.3,1.1,1,2.1,2,2.7
			c0.7,0.4,1.4,0.6,2.1,0.6c1.6,0,3-0.9,3.8-2.3C199.1,470.8,198.4,468.3,196.5,467.2z"/>
		<path class="st4" d="M269.6,525.2c-0.2,0-0.4,0-0.6,0c-2.1,0-3.9,1.6-4.2,3.7c-0.2,1.1,0.1,2.3,0.8,3.2c0.7,0.9,1.7,1.5,2.8,1.7
			c0.2,0,0.4,0,0.6,0c2.2,0,4-1.6,4.2-3.8C273.5,527.7,271.8,525.5,269.6,525.2z"/>
		<path class="st4" d="M228.1,497.9c2.3-0.7,3.6-2.9,3-5.2c-0.5-1.9-2.2-3.2-4.1-3.2c-0.3,0-0.7,0-1,0.1c-1.1,0.3-2.1,1-2.7,1.9
			c-0.6,1-0.8,2.1-0.5,3.3c0.5,1.9,2.2,3.2,4.1,3.2C227.3,498,227.7,498,228.1,497.9z"/>
		<path class="st4" d="M261.5,523.9c-0.3-0.1-0.6-0.1-0.9-0.1c-2,0-3.7,1.3-4.1,3.3c-0.3,1.1-0.1,2.3,0.5,3.3c0.6,1,1.6,1.7,2.7,1.9
			c0.3,0.1,0.6,0.1,0.9,0.1c2,0,3.8-1.5,4.2-3.5C265.1,526.6,263.7,524.3,261.5,523.9z"/>
		<path class="st4" d="M297.8,534.2c-0.4-1.1-1.2-2-2.3-2.4c-0.5-0.2-1.1-0.4-1.7-0.4c-1.7,0-3.3,1-3.9,2.7
			c-0.9,2.2,0.1,4.6,2.2,5.5c0.5,0.2,1.1,0.4,1.7,0.4c1.6,0,3.2-1,3.9-2.5C298.1,536.5,298.1,535.3,297.8,534.2z"/>
		<path class="st4" d="M312.6,535.4c-0.8,0-1.5,0.2-2.2,0.6c-1,0.6-1.7,1.6-2,2.7c-0.1,0.4-0.1,0.8-0.1,1.3c0,0-0.3-0.2-0.4-0.2
			c0,0-0.2-0.1-0.3-0.1c-0.2-0.1-0.5-0.2-0.8-0.2c-0.4,0-0.7,0.1-1,0.3c-0.1,0-0.3,0.2-0.3,0.2c0-0.4,0-0.9-0.1-1.3
			c-0.3-1.1-0.9-2.1-2-2.7c-0.7-0.4-1.4-0.6-2.2-0.6c-1.5,0-3,0.8-3.7,2.2c-1.1,2-0.5,4.6,1.5,5.7c0.6,0.4,1.4,0.6,2.2,0.6
			c0.7,0,1.3-0.2,1.9-0.4c0,0.1,0,0.1,0,0.1c0,0.1,0,0.3,0,0.4c0,0,0,0.3,0,0.3c0,0.1,0,0.3,0,0.4c0,0.1,0.1,0.3,0.1,0.4
			c0,0.1,0.1,0.3,0.1,0.4c0,0.1,0.1,0.3,0.1,0.4c0,0.1,0.2,0.3,0.2,0.4c0,0.1,0.1,0.1,0.1,0.2c0,0,0.1,0.2,0.2,0.2
			c0,0,0.1,0.1,0.2,0.2c0,0,0.1,0.1,0.2,0.1c0.1,0,0.3,0.2,0.3,0.2c0.1,0,0.3,0.2,0.4,0.2c0.1,0,0.3,0.1,0.4,0.2
			c0.1,0,0.3,0.1,0.4,0.1c0.1,0,0.3,0,0.4,0c0.1,0,0.4,0,0.4,0c0.1,0,0.2,0,0.3,0c0.1,0,0.1,0,0.1,0c0.1,0,0.4,0,0.4,0
			c0.1,0,0.3,0,0.4,0c0.1,0,0.3-0.1,0.4-0.1c0.1,0,0.3-0.1,0.4-0.1c0.1,0,0.3-0.1,0.4-0.2c0.1,0,0.3-0.2,0.4-0.2
			c0.1,0,0.2-0.1,0.2-0.2c0.1-0.1,0.3-0.2,0.3-0.3c0,0,0.1-0.1,0.1-0.2c0-0.1,0.2-0.3,0.2-0.3c0-0.1,0.2-0.3,0.2-0.4
			c0-0.1,0.1-0.3,0.1-0.4c0-0.1,0.1-0.3,0.1-0.4c0-0.1,0-0.3,0.1-0.4c0-0.1,0-0.3,0-0.4c0-0.1,0-0.5,0-0.5c0,0,0-0.1,0-0.1
			c0.6,0.3,1.2,0.4,1.9,0.4c0.8,0,1.5-0.2,2.2-0.6c1.9-1.2,2.6-3.7,1.5-5.7C315.6,536.2,314.2,535.4,312.6,535.4z"/>
		<path class="st4" d="M289.5,530.8c-0.5-1-1.4-1.8-2.5-2.1c-0.4-0.1-0.8-0.2-1.2-0.2c-1.9,0-3.6,1.3-4.1,3.1
			c-0.6,2.3,0.6,4.6,2.8,5.2c0.4,0.1,0.8,0.2,1.2,0.2c1.8,0,3.5-1.2,4.1-2.9C290.1,533,290.1,531.8,289.5,530.8z"/>
		<path class="st4" d="M231.1,505.8c2.1-0.9,3.2-3.3,2.4-5.4c-0.6-1.6-2.2-2.7-4-2.7c-0.5,0-0.9,0.1-1.4,0.2c-1.1,0.4-2,1.2-2.5,2.2
			c-0.5,1.1-0.5,2.2-0.1,3.3c0.6,1.6,2.2,2.8,4,2.8C230,506.2,230.6,506.1,231.1,505.8z"/>
		<path class="st4" d="M236.8,507.5c-0.7-1.3-2.2-2.1-3.7-2.1c-0.7,0-1.4,0.2-2,0.5c-1,0.5-1.8,1.4-2.1,2.5
			c-0.3,1.1-0.2,2.3,0.4,3.3c0.8,1.3,2.2,2.2,3.7,2.2c0.8,0,1.6-0.2,2.3-0.7C237.3,512,237.9,509.5,236.8,507.5z"/>
		<path class="st4" d="M241.3,513.6c-0.8-0.8-1.9-1.3-3.1-1.3c-1,0-2,0.3-2.8,1c-0.9,0.7-1.5,1.8-1.6,2.9c-0.1,1.2,0.3,2.3,1.1,3.2
			c0.8,0.9,2,1.4,3.1,1.4c1.2,0,2.3-0.5,3.1-1.3C242.7,517.8,242.7,515.3,241.3,513.6z"/>
		<path class="st4" d="M247,518.4c-0.7-0.4-1.4-0.6-2.2-0.6c-1.4,0-2.7,0.7-3.5,1.8c-0.7,0.9-1,2.1-0.8,3.2c0.2,1.2,0.9,2.2,1.9,2.8
			c0.7,0.4,1.5,0.7,2.3,0.7c1.5,0,3-0.8,3.7-2.2C249.4,522.1,248.8,519.6,247,518.4z"/>
		<path class="st4" d="M253.8,521.7c-0.5-0.2-0.9-0.3-1.4-0.3c-1.7,0-3.3,1-4,2.7c-0.5,1-0.5,2.3,0,3.3c0.5,1.1,1.4,1.9,2.5,2.3
			c0.5,0.2,1,0.3,1.5,0.3c1.9,0,3.5-1.2,4-3C257.1,524.8,255.9,522.5,253.8,521.7z"/>
	</g>
</g>
</svg>
