<?xml version="1.0" encoding="utf-8"?>
<!-- Generator: Adobe Illustrator 22.1.0, SVG Export Plug-In . SVG Version: 6.00 Build 0)  -->
<svg version="1.1" id="Layer_1" xmlns="http://www.w3.org/2000/svg" xmlns:xlink="http://www.w3.org/1999/xlink" x="0px" y="0px"
	 viewBox="0 0 612 792" style="enable-background:new 0 0 612 792;" xml:space="preserve">
<style type="text/css">
	.st0{fill:#604D48;}
	.st1{fill:#FFFAEF;}
	.st2{fill:#CFA2AB;}

	.st0:hover
	{
	fill:red;
	}


</style>
<g id="change3">
	<g>
		<path class="st0" d="M437,287v-1h-1H177.2v1c0,8.3-3.4,15.9-8.8,21.4c-5.5,5.5-13,8.8-21.4,8.8h-1v159.5h1
			c8.3,0,15.9,3.4,21.4,8.8c5.5,5.5,8.8,13,8.8,21.3l0,0.1l0,1H437l0-1.1c0-16.6,13.4-30.1,30.1-30.2l1,0V317.2l-1,0
			C450.4,317.1,437,303.6,437,287z M463.5,474.9l-10-10l0.5-0.2v-2.1l12,12v0.1C465.2,474.8,464.3,474.8,463.5,474.9z M435,506h-0.9
			l-12-12h2.8l10.2,10.2C435,504.8,435,505.4,435,506z M179.1,505.1c-0.1-1.1-0.2-2.1-0.3-3.1l4,4H180L179.1,505.1z M177.9,497.8
			c-0.5-1.6-1.1-3.1-1.7-4.5l12.7,12.7h-2.8L177.9,497.8z M148,474v-2.8l3.9,3.9c-1-0.2-2.1-0.3-3.1-0.3L148,474z M148,467.9v-2.8
			l12.6,12.6c-1.5-0.7-3-1.3-4.6-1.7L148,467.9z M148,461.9v-2.8l46.9,46.9h-2.8L148,461.9z M148,455.9V453l53,53h-2.8L148,455.9z
			 M452,463.3c-13.4,4.7-24,15.3-28.6,28.7H190.7c-4.6-13.5-15.3-24.1-28.7-28.8V330.7c13.4-4.6,24.1-15.3,28.7-28.7h232.8
			c4.6,13.4,15.2,24,28.5,28.6V463.3z M431.7,313.3l9.1,9.1C437.4,319.9,434.3,316.8,431.7,313.3z M170.5,469.5l13.8,13.8
			c1.2,1.9,2.3,3.9,3.2,6l-23-23C166.6,467.3,168.6,468.3,170.5,469.5z M448.8,327.2L427,305.3c-0.7-1.5-1.3-3-1.8-4.6l0,0
			l28.3,28.3l-0.1,0C451.8,328.5,450.3,327.9,448.8,327.2z M424.2,300h-2.5l-12-12h2.8l12,12H424.2z M418.4,300h-2.8l-12-12h2.8
			L418.4,300z M412.3,300h-2.8l-12-12h2.8L412.3,300z M406.3,300h-2.8l-12-12h2.8L406.3,300z M400.2,300h-2.8l-12-12h2.8L400.2,300z
			 M394.2,300h-2.8l-12-12h2.8L394.2,300z M388.2,300h-2.8l-12-12h2.8L388.2,300z M382.1,300h-2.8l-12-12h2.8L382.1,300z M376.1,300
			h-2.8l-12-12h2.8L376.1,300z M370,300h-2.8l-12-12h2.8L370,300z M364,300h-2.8l-12-12h2.8L364,300z M357.9,300h-2.8l-12-12h2.8
			L357.9,300z M351.9,300H349l-12-12h2.8L351.9,300z M345.8,300H343l-12-12h2.8L345.8,300z M339.8,300h-2.8l-12-12h2.8L339.8,300z
			 M333.7,300h-2.8l-12-12h2.8L333.7,300z M327.7,300h-2.8l-12-12h2.8L327.7,300z M321.6,300h-2.8l-12-12h2.8L321.6,300z M315.6,300
			h-2.8l-12-12h2.8L315.6,300z M309.5,300h-2.8l-12-12h2.8L309.5,300z M303.5,300h-2.8l-12-12h2.8L303.5,300z M297.4,300h-2.8
			l-12-12h2.8L297.4,300z M291.4,300h-2.8l-12-12h2.8L291.4,300z M285.3,300h-2.8l-12-12h2.8L285.3,300z M279.3,300h-2.8l-12-12h2.8
			L279.3,300z M273.2,300h-2.8l-12-12h2.8L273.2,300z M267.2,300h-2.8l-12-12h2.8L267.2,300z M261.1,300h-2.8l-12-12h2.8L261.1,300z
			 M255.1,300h-2.8l-12-12h2.8L255.1,300z M249,300h-2.8l-12-12h2.8L249,300z M243,300h-2.8l-12-12h2.8L243,300z M236.9,300h-2.8
			l-12-12h2.8L236.9,300z M230.9,300h-2.8l-12-12h2.8L230.9,300z M224.8,300H222l-12-12h2.8L224.8,300z M218.8,300H216l-12-12h2.8
			L218.8,300z M212.7,300h-2.8l-12-12h2.8L212.7,300z M206.7,300h-2.8l-12-12h2.8L206.7,300z M200.6,300h-2.8l-12-12h2.8L200.6,300z
			 M194.6,300h-2.8l-12-12h2.8L194.6,300z M189.1,300.5l0,0.1c-0.2,0.7-0.5,1.3-0.7,1.9l-9.7-9.7c0.2-0.8,0.3-1.6,0.4-2.4
			L189.1,300.5z M187.4,304.9c-0.3,0.6-0.6,1.3-0.9,1.9l-9.1-9.1c0.2-0.7,0.5-1.4,0.7-2.1L187.4,304.9z M185.3,308.9
			c-0.3,0.6-0.7,1.2-1.1,1.8l-8.8-8.8c0.3-0.6,0.6-1.3,0.9-1.9L185.3,308.9z M183,312.6c-0.4,0.5-0.8,1.1-1.2,1.6l-8.6-8.6
			c0.4-0.6,0.8-1.1,1.1-1.7L183,312.6z M180.3,316c-0.4,0.5-0.9,1-1.3,1.5l-8.5-8.5c0.5-0.5,0.9-1,1.3-1.5L180.3,316z M177.4,319.1
			c-0.5,0.5-1,0.9-1.5,1.3l-8.5-8.5c0.5-0.4,1-0.9,1.5-1.3L177.4,319.1z M174.1,321.9c-0.5,0.4-1.1,0.8-1.6,1.2l-8.7-8.7
			c0.6-0.4,1.1-0.7,1.7-1.1L174.1,321.9z M170.6,324.4c-0.6,0.4-1.2,0.7-1.8,1.1l-8.9-8.9c0.6-0.3,1.3-0.6,1.9-0.9L170.6,324.4z
			 M166.7,326.5c-0.6,0.3-1.3,0.6-1.9,0.9l-9.4-9.4c0.7-0.2,1.4-0.4,2.2-0.7L166.7,326.5z M162.5,328.4c-0.6,0.2-1.2,0.4-1.8,0.6
			l-0.3,0.1L150.3,319c0.8-0.1,1.6-0.2,2.4-0.4L162.5,328.4z M148,320l12,12v2.8l-12-12V320z M160,338v2.8l-12-12V326L160,338z
			 M160,344.1v2.8l-12-12v-2.8L160,344.1z M160,350.1v2.8l-12-12v-2.8L160,350.1z M160,356.2v2.8l-12-12v-2.8L160,356.2z M160,362.2
			v2.8l-12-12v-2.8L160,362.2z M160,368.3v2.8l-12-12v-2.8L160,368.3z M160,374.3v2.8l-12-12v-2.8L160,374.3z M160,380.4v2.8l-12-12
			v-2.8L160,380.4z M160,386.4v2.8l-12-12v-2.8L160,386.4z M160,392.5v2.8l-12-12v-2.8L160,392.5z M160,398.5v2.8l-12-12v-2.8
			L160,398.5z M160,404.6v2.8l-12-12v-2.8L160,404.6z M160,410.6v2.8l-12-12v-2.8L160,410.6z M160,416.6v2.8l-12-12v-2.8L160,416.6z
			 M160,422.7v2.8l-12-12v-2.8L160,422.7z M160,428.7v2.8l-12-12v-2.8L160,428.7z M160,434.8v2.8l-12-12v-2.8L160,434.8z M160,440.8
			v2.8l-12-12v-2.8L160,440.8z M160,446.9v2.8l-12-12v-2.8L160,446.9z M160,452.9v2.8l-12-12v-2.8L160,452.9z M160,459v2.8l-12-12
			V447L160,459z M192.2,494h2.8l12,12h-2.8L192.2,494z M198.2,494h2.8l12,12h-2.8L198.2,494z M204.3,494h2.8l12,12h-2.8L204.3,494z
			 M210.3,494h2.8l12,12h-2.8L210.3,494z M216.4,494h2.8l12,12h-2.8L216.4,494z M222.4,494h2.8l12,12h-2.8L222.4,494z M228.5,494
			h2.8l12,12h-2.8L228.5,494z M234.5,494h2.8l12,12h-2.8L234.5,494z M240.6,494h2.8l12,12h-2.8L240.6,494z M246.6,494h2.8l12,12
			h-2.8L246.6,494z M252.7,494h2.8l12,12h-2.8L252.7,494z M258.7,494h2.8l12,12h-2.8L258.7,494z M264.8,494h2.8l12,12h-2.8
			L264.8,494z M270.8,494h2.8l12,12h-2.8L270.8,494z M276.9,494h2.8l12,12h-2.8L276.9,494z M282.9,494h2.8l12,12h-2.8L282.9,494z
			 M289,494h2.8l12,12H301L289,494z M295,494h2.8l12,12H307L295,494z M301.1,494h2.8l12,12h-2.8L301.1,494z M307.1,494h2.8l12,12
			h-2.8L307.1,494z M313.2,494h2.8l12,12h-2.8L313.2,494z M319.2,494h2.8l12,12h-2.8L319.2,494z M325.3,494h2.8l12,12h-2.8
			L325.3,494z M331.3,494h2.8l12,12h-2.8L331.3,494z M337.4,494h2.8l12,12h-2.8L337.4,494z M343.4,494h2.8l12,12h-2.8L343.4,494z
			 M349.5,494h2.8l12,12h-2.8L349.5,494z M355.5,494h2.8l12,12h-2.8L355.5,494z M361.6,494h2.8l12,12h-2.8L361.6,494z M367.6,494
			h2.8l12,12h-2.8L367.6,494z M373.7,494h2.8l12,12h-2.8L373.7,494z M379.7,494h2.8l12,12h-2.8L379.7,494z M385.8,494h2.8l12,12
			h-2.8L385.8,494z M391.8,494h2.8l12,12h-2.8L391.8,494z M397.9,494h2.8l12,12h-2.8L397.9,494z M403.9,494h2.8l12,12h-2.8
			L403.9,494z M410,494h2.8l12,12H422L410,494z M416,494h2.8l12,12H428L416,494z M425.7,491.6c0.3-0.7,0.5-1.3,0.8-2l9.4,9.4
			c-0.2,0.8-0.4,1.5-0.5,2.3L425.7,491.6z M427.5,487.4c0.3-0.6,0.6-1.2,1-1.8l8.9,8.9c-0.3,0.7-0.5,1.4-0.8,2.1L427.5,487.4z
			 M429.7,483.5c0.4-0.6,0.7-1.1,1.1-1.7l8.7,8.7c-0.4,0.6-0.7,1.2-1,1.8L429.7,483.5z M432.2,479.9c0.4-0.5,0.8-1,1.3-1.5l8.5,8.5
			c-0.4,0.5-0.8,1.1-1.2,1.6L432.2,479.9z M435,476.7c0.5-0.5,0.9-1,1.4-1.4l8.5,8.5c-0.5,0.5-0.9,0.9-1.4,1.4L435,476.7z
			 M438.1,473.7c0.5-0.4,1-0.9,1.5-1.3l8.6,8.6c-0.5,0.4-1.1,0.8-1.6,1.2L438.1,473.7z M441.4,471c0.5-0.4,1.1-0.8,1.7-1.1l8.7,8.7
			c-0.6,0.3-1.2,0.7-1.8,1.1L441.4,471z M445.1,468.7c0.6-0.3,1.2-0.7,1.8-1l9.1,9.1c-0.7,0.3-1.4,0.5-2,0.8L445.1,468.7z
			 M449.1,466.6c0.7-0.3,1.3-0.6,2-0.8l9.6,9.6c-0.8,0.2-1.5,0.4-2.2,0.6L449.1,466.6z M454,459.4v-2.8l12,12v2.8L454,459.4z
			 M454,453.4v-2.8l12,12v2.8L454,453.4z M454,447.3v-2.8l12,12v2.8L454,447.3z M454,441.3v-2.8l12,12v2.8L454,441.3z M454,435.2
			v-2.8l12,12v2.8L454,435.2z M454,429.2v-2.8l12,12v2.8L454,429.2z M454,423.1v-2.8l12,12v2.8L454,423.1z M454,417.1v-2.8l12,12
			v2.8L454,417.1z M454,411v-2.8l12,12v2.8L454,411z M454,405v-2.8l12,12v2.8L454,405z M454,398.9v-2.8l12,12v2.8L454,398.9z
			 M454,392.9V390l12,12v2.8L454,392.9z M454,386.8V384l12,12v2.8L454,386.8z M454,380.8v-2.8l12,12v2.8L454,380.8z M454,374.7v-2.8
			l12,12v2.8L454,374.7z M454,368.7v-2.8l12,12v2.8L454,368.7z M454,362.6v-2.8l12,12v2.8L454,362.6z M454,356.6v-2.8l12,12v2.8
			L454,356.6z M454,350.5v-2.8l12,12v2.8L454,350.5z M454,344.5v-2.8l12,12v2.8L454,344.5z M454,338.4v-2.8l12,12v2.8L454,338.4z
			 M454,332.4v-2.8l12,12v2.8L454,332.4z M415.7,288h2.8l47.5,47.5v2.8L415.7,288z M421.7,288h2.8l14.3,14.3
			c3,5.5,7.5,10.1,13.1,13.1l14.1,14.1v2.8L421.7,288z M435,288c0,0.4,0,0.8,0.1,1.2l-1.2-1.2H435z M435.5,292.9
			c0.2,1.3,0.5,2.5,0.9,3.7l-8.7-8.7h2.8L435.5,292.9z M457.5,317.7c1.2,0.4,2.4,0.7,3.7,0.9l4.8,4.8v2.8L457.5,317.7z M464.9,319.1
			c0.4,0,0.7,0,1.1,0.1v1L464.9,319.1z"/>
		<path class="st1" d="M194.2,487c-5.2-12.2-15-22-27.2-27.2V334.1c12.2-5.2,21.9-15,27.1-27.1H420c5.2,12.1,14.9,21.8,27,27v125.8
			c-12.1,5.2-21.8,15-27,27.1H194.2z"/>
		<g>
			<path class="st0" d="M195.2,486h-1v1l0.9-0.4c-0.1-0.3-0.3-0.6-0.4-0.9l-1.8,0.8c0.1,0.3,0.3,0.6,0.4,0.9l0.3,0.6h1.7V486z"/>
			<path class="st0" d="M171.9,461.1c-0.6-0.3-1.2-0.6-1.8-0.9l-0.9,1.8c0.6,0.3,1.1,0.6,1.7,0.9L171.9,461.1z M175.4,463.1
				c-0.6-0.4-1.1-0.7-1.7-1.1l-1,1.7c0.6,0.3,1.1,0.7,1.6,1L175.4,463.1z M178.6,465.4c-0.5-0.4-1.1-0.8-1.6-1.2l-1.2,1.6
				c0.5,0.4,1,0.8,1.6,1.1L178.6,465.4z M181.7,468c-0.5-0.4-1-0.9-1.5-1.3l-1.3,1.5c0.5,0.4,1,0.8,1.5,1.3L181.7,468z M184.6,470.8
				c-0.5-0.5-0.9-1-1.4-1.4l-1.4,1.4c0.5,0.4,0.9,0.9,1.4,1.4L184.6,470.8z M187.3,473.8c-0.4-0.5-0.9-1-1.3-1.5l-1.5,1.3
				c0.4,0.5,0.8,1,1.3,1.5L187.3,473.8z M189.7,477c-0.4-0.5-0.8-1.1-1.2-1.6l-1.6,1.2c0.4,0.5,0.8,1,1.1,1.6L189.7,477z
				 M191.9,480.3c-0.3-0.6-0.7-1.1-1.1-1.7l-1.7,1.1c0.3,0.5,0.7,1.1,1,1.6L191.9,480.3z M193.8,483.8c-0.3-0.6-0.6-1.2-0.9-1.8
				l-1.8,1c0.3,0.6,0.6,1.1,0.9,1.7L193.8,483.8z"/>
			<path class="st0" d="M168.3,459.3c-0.3-0.1-0.6-0.3-0.9-0.4l-0.4,0.9h1v-1h-2v1v0.7l0.6,0.3c0.3,0.1,0.6,0.3,0.9,0.4L168.3,459.3
				z"/>
			<path class="st0" d="M168,339.2v-2h-2v2H168z M168,343.2v-2h-2v2H168z M168,347.3v-2h-2v2H168z M168,351.3v-2h-2v2H168z
				 M168,355.4v-2h-2v2H168z M168,359.5v-2h-2v2H168z M168,363.5v-2h-2v2H168z M168,367.6v-2h-2v2H168z M168,371.6v-2h-2v2H168z
				 M168,375.7v-2h-2v2H168z M168,379.7v-2h-2v2H168z M168,383.8v-2h-2v2H168z M168,387.8v-2h-2v2H168z M168,391.9v-2h-2v2H168z
				 M168,395.9v-2h-2v2H168z M168,400v-2h-2v2H168z M168,404v-2h-2v2H168z M168,408.1v-2h-2v2H168z M168,412.2v-2h-2v2H168z
				 M168,416.2v-2h-2v2H168z M168,420.3v-2h-2v2H168z M168,424.3v-2h-2v2H168z M168,428.4v-2h-2v2H168z M168,432.4v-2h-2v2H168z
				 M168,436.5v-2h-2v2H168z M168,440.5v-2h-2v2H168z M168,444.6v-2h-2v2H168z M168,448.6v-2h-2v2H168z M168,452.7v-2h-2v2H168z
				 M168,456.8v-2h-2v2H168z"/>
			<path class="st0" d="M168,335.1v-1h-1l0.4,0.9c0.3-0.1,0.6-0.3,0.9-0.4l-0.8-1.8c-0.3,0.1-0.6,0.3-0.9,0.4l-0.6,0.3v1.7H168z"/>
			<path class="st0" d="M192.9,311.9c0.3-0.6,0.6-1.2,0.9-1.8l-1.8-0.9c-0.3,0.6-0.6,1.1-0.9,1.7L192.9,311.9z M190.8,315.4
				c0.4-0.6,0.7-1.1,1.1-1.7l-1.7-1c-0.3,0.6-0.7,1.1-1,1.6L190.8,315.4z M188.5,318.6c0.4-0.5,0.8-1.1,1.2-1.6l-1.6-1.2
				c-0.4,0.5-0.8,1-1.1,1.6L188.5,318.6z M186,321.7c0.4-0.5,0.9-1,1.3-1.5l-1.5-1.3c-0.4,0.5-0.8,1-1.3,1.5L186,321.7z
				 M183.2,324.6c0.5-0.5,1-0.9,1.4-1.4l-1.4-1.4c-0.4,0.5-0.9,0.9-1.4,1.4L183.2,324.6z M180.2,327.3c0.5-0.4,1-0.9,1.5-1.3
				l-1.3-1.5c-0.5,0.4-1,0.8-1.5,1.3L180.2,327.3z M177,329.7c0.5-0.4,1.1-0.8,1.6-1.2l-1.2-1.6c-0.5,0.4-1,0.8-1.6,1.1L177,329.7z
				 M173.7,331.9c0.6-0.3,1.1-0.7,1.7-1.1l-1.1-1.7c-0.5,0.3-1.1,0.7-1.6,1L173.7,331.9z M170.1,333.8c0.6-0.3,1.2-0.6,1.8-0.9
				l-1-1.8c-0.6,0.3-1.1,0.6-1.7,0.9L170.1,333.8z"/>
			<path class="st0" d="M194.6,308.3c0.1-0.3,0.3-0.6,0.4-0.9l-0.9-0.4v1h1v-2h-1h-0.7l-0.3,0.6c-0.1,0.3-0.3,0.6-0.4,0.9
				L194.6,308.3z"/>
			<path class="st0" d="M415,308h2v-2h-2V308z M411,308h2v-2h-2V308z M406.9,308h2v-2h-2V308z M402.9,308h2v-2h-2V308z M398.9,308h2
				v-2h-2V308z M394.8,308h2v-2h-2V308z M390.8,308h2v-2h-2V308z M386.8,308h2v-2h-2V308z M382.7,308h2v-2h-2V308z M378.7,308h2v-2
				h-2V308z M374.7,308h2v-2h-2V308z M370.6,308h2v-2h-2V308z M366.6,308h2v-2h-2V308z M362.6,308h2v-2h-2V308z M358.5,308h2v-2h-2
				V308z M354.5,308h2v-2h-2V308z M350.4,308h2v-2h-2V308z M346.4,308h2v-2h-2V308z M342.4,308h2v-2h-2V308z M338.3,308h2v-2h-2V308
				z M334.3,308h2v-2h-2V308z M330.3,308h2v-2h-2V308z M326.2,308h2v-2h-2V308z M322.2,308h2v-2h-2V308z M318.2,308h2v-2h-2V308z
				 M314.1,308h2v-2h-2V308z M310.1,308h2v-2h-2V308z M306.1,308h2v-2h-2V308z M302,308h2v-2h-2V308z M298,308h2v-2h-2V308z
				 M294,308h2v-2h-2V308z M289.9,308h2v-2h-2V308z M285.9,308h2v-2h-2V308z M281.9,308h2v-2h-2V308z M277.8,308h2v-2h-2V308z
				 M273.8,308h2v-2h-2V308z M269.8,308h2v-2h-2V308z M265.7,308h2v-2h-2V308z M261.7,308h2v-2h-2V308z M257.7,308h2v-2h-2V308z
				 M253.6,308h2v-2h-2V308z M249.6,308h2v-2h-2V308z M245.6,308h2v-2h-2V308z M241.5,308h2v-2h-2V308z M237.5,308h2v-2h-2V308z
				 M233.5,308h2v-2h-2V308z M229.4,308h2v-2h-2V308z M225.4,308h2v-2h-2V308z M221.4,308h2v-2h-2V308z M217.3,308h2v-2h-2V308z
				 M213.3,308h2v-2h-2V308z M209.3,308h2v-2h-2V308z M205.2,308h2v-2h-2V308z M201.2,308h2v-2h-2V308z M197.1,308h2v-2h-2V308z"/>
			<path class="st0" d="M419,308h1v-1l-0.9,0.4c0.1,0.3,0.3,0.6,0.4,0.9l1.8-0.8c-0.1-0.3-0.3-0.6-0.4-0.9l-0.3-0.6H419V308z"/>
			<path class="st0" d="M442.1,332.8c0.6,0.3,1.2,0.6,1.8,0.9l0.9-1.8c-0.6-0.3-1.1-0.6-1.7-0.9L442.1,332.8z M438.7,330.7
				c0.6,0.4,1.1,0.7,1.7,1.1l1-1.7c-0.5-0.3-1.1-0.7-1.6-1L438.7,330.7z M435.4,328.4c0.5,0.4,1.1,0.8,1.6,1.2l1.2-1.6
				c-0.5-0.4-1-0.8-1.5-1.1L435.4,328.4z M432.4,325.9c0.5,0.4,1,0.9,1.5,1.3l1.3-1.5c-0.5-0.4-1-0.8-1.4-1.3L432.4,325.9z
				 M429.5,323.1c0.5,0.5,0.9,0.9,1.4,1.4l1.4-1.4c-0.5-0.4-0.9-0.9-1.4-1.4L429.5,323.1z M426.9,320.1c0.4,0.5,0.9,1,1.3,1.5
				l1.5-1.3c-0.4-0.5-0.8-1-1.2-1.5L426.9,320.1z M424.5,317c0.4,0.5,0.8,1.1,1.2,1.6l1.6-1.2c-0.4-0.5-0.8-1-1.1-1.5L424.5,317z
				 M422.3,313.6c0.3,0.6,0.7,1.1,1.1,1.7l1.7-1.1c-0.3-0.5-0.7-1.1-1-1.6L422.3,313.6z M420.4,310.1c0.3,0.6,0.6,1.2,0.9,1.8l1.8-1
				c-0.3-0.6-0.6-1.1-0.9-1.7L420.4,310.1z"/>
			<path class="st0" d="M445.7,334.5c0.3,0.1,0.6,0.3,0.9,0.4l0.4-0.9h-1v1h2v-1v-0.7l-0.6-0.3c-0.3-0.1-0.6-0.3-0.9-0.4
				L445.7,334.5z"/>
			<path class="st0" d="M446,454.8v2h2v-2H446z M446,450.7v2h2v-2H446z M446,446.7v2h2v-2H446z M446,442.6v2h2v-2H446z M446,438.6v2
				h2v-2H446z M446,434.5v2h2v-2H446z M446,430.4v2h2v-2H446z M446,426.4v2h2v-2H446z M446,422.3v2h2v-2H446z M446,418.3v2h2v-2H446
				z M446,414.2v2h2v-2H446z M446,410.1v2h2v-2H446z M446,406.1v2h2v-2H446z M446,402v2h2v-2H446z M446,398v2h2v-2H446z M446,393.9
				v2h2v-2H446z M446,389.8v2h2v-2H446z M446,385.8v2h2v-2H446z M446,381.7v2h2v-2H446z M446,377.7v2h2v-2H446z M446,373.6v2h2v-2
				H446z M446,369.6v2h2v-2H446z M446,365.5v2h2v-2H446z M446,361.4v2h2v-2H446z M446,357.4v2h2v-2H446z M446,353.3v2h2v-2H446z
				 M446,349.3v2h2v-2H446z M446,345.2v2h2v-2H446z M446,341.1v2h2v-2H446z M446,337.1v2h2v-2H446z"/>
			<path class="st0" d="M446,458.9v1h1l-0.4-0.9c-0.3,0.1-0.6,0.3-0.9,0.4l0.8,1.8c0.3-0.1,0.6-0.3,0.9-0.4l0.6-0.3v-1.7H446z"/>
			<path class="st0" d="M421.3,482.1c-0.3,0.6-0.6,1.2-0.9,1.8l1.8,0.9c0.3-0.6,0.6-1.1,0.9-1.7L421.3,482.1z M423.3,478.7
				c-0.4,0.6-0.7,1.1-1.1,1.7l1.7,1c0.3-0.6,0.7-1.1,1-1.6L423.3,478.7z M425.6,475.4c-0.4,0.5-0.8,1.1-1.2,1.6l1.6,1.1
				c0.4-0.5,0.7-1,1.1-1.6L425.6,475.4z M428.1,472.3c-0.4,0.5-0.9,1-1.3,1.5l1.5,1.3c0.4-0.5,0.8-1,1.2-1.5L428.1,472.3z
				 M430.9,469.4c-0.5,0.5-0.9,0.9-1.4,1.4l1.4,1.4c0.4-0.5,0.9-0.9,1.4-1.4L430.9,469.4z M433.9,466.8c-0.5,0.4-1,0.9-1.5,1.3
				l1.3,1.5c0.5-0.4,1-0.8,1.5-1.3L433.9,466.8z M437,464.3c-0.5,0.4-1.1,0.8-1.6,1.2l1.2,1.6c0.5-0.4,1-0.8,1.5-1.1L437,464.3z
				 M440.4,462.1c-0.6,0.3-1.1,0.7-1.7,1.1l1.1,1.7c0.5-0.4,1.1-0.7,1.6-1L440.4,462.1z M443.9,460.2c-0.6,0.3-1.2,0.6-1.8,0.9
				l1,1.8c0.6-0.3,1.1-0.6,1.7-0.9L443.9,460.2z"/>
			<path class="st0" d="M419.5,485.7c-0.1,0.3-0.3,0.6-0.4,0.9l0.9,0.4v-1h-1v2h1h0.7l0.3-0.6c0.1-0.3,0.3-0.6,0.4-0.9L419.5,485.7z
				"/>
			<path class="st0" d="M199.2,486h-2v2h2V486z M203.2,486h-2v2h2V486z M207.3,486h-2v2h2V486z M211.3,486h-2v2h2V486z M215.3,486
				h-2v2h2V486z M219.4,486h-2v2h2V486z M223.4,486h-2v2h2V486z M227.4,486h-2v2h2V486z M231.5,486h-2v2h2V486z M235.5,486h-2v2h2
				V486z M239.5,486h-2v2h2V486z M243.6,486h-2v2h2V486z M247.6,486h-2v2h2V486z M251.6,486h-2v2h2V486z M255.7,486h-2v2h2V486z
				 M259.7,486h-2v2h2V486z M263.7,486h-2v2h2V486z M267.8,486h-2v2h2V486z M271.8,486h-2v2h2V486z M275.8,486h-2v2h2V486z
				 M279.9,486h-2v2h2V486z M283.9,486h-2v2h2V486z M287.9,486h-2v2h2V486z M292,486h-2v2h2V486z M296,486h-2v2h2V486z M300,486h-2
				v2h2V486z M304.1,486h-2v2h2V486z M308.1,486h-2v2h2V486z M312.1,486h-2v2h2V486z M316.2,486h-2v2h2V486z M320.2,486h-2v2h2V486z
				 M324.2,486h-2v2h2V486z M328.3,486h-2v2h2V486z M332.3,486h-2v2h2V486z M336.3,486h-2v2h2V486z M340.4,486h-2v2h2V486z
				 M344.4,486h-2v2h2V486z M348.4,486h-2v2h2V486z M352.5,486h-2v2h2V486z M356.5,486h-2v2h2V486z M360.5,486h-2v2h2V486z
				 M364.6,486h-2v2h2V486z M368.6,486h-2v2h2V486z M372.6,486h-2v2h2V486z M376.7,486h-2v2h2V486z M380.7,486h-2v2h2V486z
				 M384.7,486h-2v2h2V486z M388.8,486h-2v2h2V486z M392.8,486h-2v2h2V486z M396.8,486h-2v2h2V486z M400.8,486h-2v2h2V486z
				 M404.9,486h-2v2h2V486z M408.9,486h-2v2h2V486z M412.9,486h-2v2h2V486z M417,486h-2v2h2V486z"/>
		</g>
	</g>
	<g>
		<path class="st0" d="M229.3,340.6h24v7.8h-0.7c-0.3-3.4-1.5-5.2-3.2-6.1c-1.8-0.9-4.2-1-6.9-1h-2.8v15.6h2.1c1.1,0,2.3,0,3-0.1
			c3.2-0.3,4.7-2,4.9-4.7h0.6v11h-0.6c-0.1-3.1-1.4-5-4.8-5.4c-0.9-0.1-2.2-0.1-3.3-0.1h-1.9v16h3.2v0.6h-13.6v-0.6h2.9v-32.4h-2.9
			V340.6z"/>
		<path class="st0" d="M277,362.4c0,3.5-1,6.5-3,8.7c-2,2.2-5.1,3.6-9.1,3.6c-4,0-6.9-1.3-8.8-3.4c-1.9-2.1-2.9-5.1-2.9-8.6
			c0-3.4,1.2-6.3,3.3-8.4c2.1-2.1,5-3.4,8.6-3.4c3.5,0,6.5,1.2,8.6,3.1C275.8,356.1,277,359,277,362.4z M265.1,351.6
			c-1.4,0-2.5,0.9-3.3,2.8c-0.8,1.9-1.2,4.5-1.2,7.9c0,3.3,0.2,6.3,1,8.4c0.7,2.1,1.8,3.4,3.6,3.4c1.6,0,2.7-1.3,3.4-3.5
			c0.7-2.1,0.9-5.1,0.9-8.4c0-3.3-0.3-5.9-1-7.8C267.8,352.6,266.7,351.6,265.1,351.6z"/>
		<path class="st0" d="M293.8,351c1.2,0,2.3,0.3,3.2,1c0.9,0.7,1.4,1.6,1.5,2.9c0,1.7-1.2,3.1-2.8,3.1c-1.6,0-2.9-1.3-2.9-2.9
			c0-0.9,0.4-1.7,1.1-2.3c0.6-0.5,1.5-0.8,2.4-0.6c-0.4-0.2-1.2-0.6-2.4-0.6c-1.1,0-2.2,0.7-3.1,1.7c-0.9,1-1.5,2.4-1.5,3.8v16.5
			h2.9v0.6h-12.6v-0.6h2.9v-21.4h-2.9v-0.6h9.5v1.2c0,0.3,0,0.6,0.1,0.8c0,0.3,0,0.4,0,0.5C290,352.5,291.8,351,293.8,351z"/>
		<path class="st0" d="M318.8,369.1c-0.4,1.2-1.3,2.5-2.7,3.7c-1.4,1.2-3.5,2-6.1,2c-3.3,0-5.7-1.5-7.4-3.7c-1.7-2.2-2.5-5.1-2.5-8
			c0-3.4,1.2-6.4,3.1-8.6c1.9-2.2,4.7-3.5,7.8-3.5c1.7,0,3.7,0.4,5.3,1.3c1.5,1,2.6,2.4,2.6,4.5c0,2.3-1.6,3.6-3.8,4.4
			c-2.3,0.8-5.1,1-7.7,1.1c0,1.8,0.4,4,1.4,5.8c0.9,1.8,2.3,3.1,4.6,3.1c1.3,0,2.5-0.4,3.3-0.9c0.8-0.5,1.4-1.2,1.6-1.5L318.8,369.1
			z M313.1,355.9c0-2.5-1.1-4.3-2.2-4.3c-0.8,0-1.6,0.8-2.3,2.4c-0.7,1.6-1.2,4.2-1.3,7.6C311.5,361.3,313.1,359.9,313.1,355.9z"/>
		<path class="st0" d="M332.5,351.5v0.6h-2.9l6,13.7l5.8-13.7h-2.9v-0.6h6.2v0.6h-2.6l-9.6,22.7H332l-9.9-22.7h-2.6v-0.6H332.5z"/>
		<path class="st0" d="M362.6,369.1c-0.4,1.2-1.3,2.5-2.7,3.7c-1.4,1.2-3.5,2-6.1,2c-3.3,0-5.7-1.5-7.4-3.7c-1.7-2.2-2.5-5.1-2.5-8
			c0-3.4,1.2-6.4,3.1-8.6c1.9-2.2,4.7-3.5,7.8-3.5c1.7,0,3.7,0.4,5.3,1.3c1.5,1,2.6,2.4,2.6,4.5c0,2.3-1.6,3.6-3.8,4.4
			c-2.3,0.8-5.1,1-7.7,1.1c0,1.8,0.4,4,1.4,5.8c0.9,1.8,2.3,3.1,4.6,3.1c1.3,0,2.5-0.4,3.3-0.9c0.8-0.5,1.4-1.2,1.6-1.5L362.6,369.1
			z M356.9,355.9c0-2.5-1.1-4.3-2.2-4.3c-0.8,0-1.6,0.8-2.3,2.4c-0.7,1.6-1.2,4.2-1.3,7.6C355.4,361.3,356.9,359.9,356.9,355.9z"/>
		<path class="st0" d="M380,351c1.2,0,2.3,0.3,3.2,1c0.9,0.7,1.4,1.6,1.5,2.9c0,1.7-1.2,3.1-2.8,3.1c-1.6,0-2.9-1.3-2.9-2.9
			c0-0.9,0.4-1.7,1.1-2.3c0.6-0.5,1.5-0.8,2.4-0.6c-0.4-0.2-1.2-0.6-2.4-0.6c-1.1,0-2.2,0.7-3.1,1.7c-0.9,1-1.5,2.4-1.5,3.8v16.5
			h2.9v0.6h-12.6v-0.6h2.9v-21.4h-2.9v-0.6h9.5v1.2c0,0.3,0,0.6,0.1,0.8c0,0.3,0,0.4,0,0.5C376.1,352.5,377.9,351,380,351z"/>
	</g>
	<g>
		<path class="st0" d="M239.4,408.6h13.4v0.6h-2.9v16H262v-16h-2.9v-0.6h13.4v0.6h-2.9v32.4h2.9v0.6h-13.3v-0.6h2.8v-15.6h-12.1
			v15.6h2.9v0.6h-13.4v-0.6h2.9v-32.4h-2.9V408.6z"/>
		<path class="st0" d="M279.4,421.8c0.3-0.1,0.8-0.2,1.1-0.2c1.5,0,2.8,1.2,2.8,2.8s-1.3,2.8-2.8,2.8c-1.5,0-2.8-1.3-2.8-2.8
			c0-0.9,0.4-2.3,1.6-3.4c1.2-1.2,3.1-2.1,6.1-2.1c2.6,0,4.7,0.6,6.1,2c1.4,1.4,2.2,3.7,2.2,7v10.4c0,0.9,0,1.5,0.2,2
			c0.1,0.4,0.4,0.7,0.8,0.7c0.6,0,1-0.4,1.2-1l0.6,0.2c0,0.3-0.3,0.9-1.1,1.4c-0.7,0.6-1.8,1.1-3.5,1.1c-2.4,0-3.8-1.2-4.5-2.3
			c-1.1,1.3-3.2,2.3-5.5,2.3c-1.9,0-3.7-0.4-5.1-1.4c-1.3-1-2.2-2.4-2.2-4.6c0-2.3,1.4-3.9,3.6-5.1c2.2-1.2,5.2-1.8,8.5-2.1v-5.2
			c0-1.8-0.4-3-1-3.6c-0.6-0.6-1.5-0.9-2.4-0.9C281.9,419.9,280.4,420.7,279.4,421.8z M284.3,441.3c1,0,2.4-1,2.8-1.6
			c-0.2-0.7-0.3-1.8-0.3-3.4v-6.1c-3.5,0.8-5.2,3.4-5.2,6.6c0,1.2,0.2,2.3,0.7,3.1C282.7,440.8,283.4,441.3,284.3,441.3z"/>
		<path class="st0" d="M307.5,421.6c0.4-0.6,1.1-1.2,2.2-1.8c1.1-0.5,2.4-0.9,3.9-0.9c1.8,0,4.3,0.8,6.3,2.7c2,1.9,3.6,4.9,3.6,9.3
			c0,4.4-1.6,7.3-3.6,9.2c-2.1,1.9-4.6,2.6-6.4,2.6c-1.5,0-2.9-0.4-3.8-0.9c-1-0.5-1.6-1-1.9-1.4v13.1h2.9v0.6h-12.6v-0.6h2.9v-33.4
			h-2.9v-0.6h9.5c0,0.7,0,1.3,0.1,1.7C307.5,421.5,307.5,421.6,307.5,421.6z M307.7,439.5c0.4,0.6,1.4,1.3,2.9,1.3
			c2.3,0,3.7-1.6,4.4-3.7c0.8-2.1,1-4.6,1-6.6c0-2.7-0.5-5.2-1.3-7c-0.8-1.8-2-2.9-3.6-2.9c-1.5,0-2.8,1.1-3.4,1.8V439.5z"/>
		<path class="st0" d="M334.9,421.6c0.4-0.6,1.1-1.2,2.2-1.8c1.1-0.5,2.4-0.9,3.9-0.9c1.8,0,4.3,0.8,6.3,2.7c2,1.9,3.6,4.9,3.6,9.3
			c0,4.4-1.6,7.3-3.6,9.2c-2.1,1.9-4.6,2.6-6.4,2.6c-1.5,0-2.9-0.4-3.8-0.9c-1-0.5-1.6-1-1.9-1.4v13.1h2.9v0.6h-12.6v-0.6h2.9v-33.4
			h-2.9v-0.6h9.5c0,0.7,0,1.3,0.1,1.7C334.9,421.5,334.9,421.6,334.9,421.6z M335.1,439.5c0.4,0.6,1.4,1.3,2.9,1.3
			c2.3,0,3.6-1.6,4.4-3.7c0.8-2.1,1-4.6,1-6.6c0-2.7-0.5-5.2-1.3-7c-0.8-1.8-2-2.9-3.6-2.9c-1.5,0-2.8,1.1-3.4,1.8V439.5z"/>
		<path class="st0" d="M353.4,449.6c0-1.5,1.2-2.9,2.9-2.9c1.5,0,2.9,1.2,2.9,2.9c0,0.8-0.3,1.5-0.7,1.8c0.5-0.3,1.3-1.1,2.1-2.2
			c0.9-1.1,1.8-2.9,2.8-5.2c0-0.1-0.2-0.6-0.6-1.3c-0.3-0.7-0.7-1.7-1.2-2.8c-0.5-1.2-1.1-2.4-1.7-3.8c-0.6-1.4-1.3-2.8-1.9-4.3
			c-1.5-3.4-3.2-7.3-5.1-11.6h-2.6v-0.6h13v0.6h-2.9l6.5,14.8l5.3-14.8h-2.9v-0.6h6.2v0.6H373c-0.2,0.7-0.6,1.6-1,2.8
			c-0.8,2.4-1.9,5.4-3.1,8.6c-1.2,3.3-2.3,6.2-3.3,8.7c-1,2.5-1.7,4.2-2.8,6.4c-1.1,2.2-2.3,4-3.7,5c-0.7,0.5-1.5,0.8-2.4,0.8
			C354.9,452.5,353.4,451.3,353.4,449.6z"/>
	</g>
	<g>
		<path class="st2" d="M277.5,392.7c0.4-7.4,6.9-12.6,13.8-12.6c6.3,0,14.8,8.1,14.8,8.1l-3.8,3.8c0,0-2.1-2.6-6.4-5.2
			c-4.3-2.6-11.6-1.9-12.7,5.5c-1,6.8,4.7,9.4,8.5,9.1c4.9-0.4,8-4.5,14.2-10.1c6.2-5.7,10.5-12,18.8-11.1
			c8.2,0.9,12.3,6.5,11.8,14.3c-0.4,5.5-2.9,9.2-6.1,11c-2.6,1.4-5.2,1.7-8,1.3c-5.9-0.8-13.5-8.4-13.5-8.4l3.2-3.5
			c0,0,4.9,6.2,11.6,6.2c5.5,0,7.4-3.4,7.4-8.4c0-3.5-4.3-7.6-7.6-7.6c-3.2,0-5.9,0.7-11.8,7.2c-5.8,6.5-14.1,14.5-21.1,14.3
			C282.6,406.6,277.1,401.6,277.5,392.7z"/>
		<g>
			<path class="st2" d="M238.4,329.9c0.2,0,0.3,0.2,0.3,0.5c0,0.4-0.1,0.6-0.1,0.7c-0.1,0.1-0.2,0.2-0.3,0.2h-5.2
				c-0.1,0-0.2-0.2-0.2-0.5c0-0.3,0.1-0.6,0.3-0.8c0.1-0.1,0.2-0.1,0.3-0.1c0.8,0,1.3-0.1,1.3-0.4v-11.4c0-0.1,0-0.2-0.1-0.2H233
				c-0.2,0-0.3-0.2-0.4-0.5c0-0.1,0-0.2,0-0.3c0-0.4,0.1-0.6,0.3-0.6h5.8c0.2,0,0.2,0.2,0.2,0.7c0,0.5-0.1,0.7-0.3,0.7h-1.8v11.9
				H238.4z"/>
			<path class="st2" d="M252.6,317.3l0-0.2c0-0.1,0-0.2,0.1-0.3c0-0.1,0.1-0.2,0.2-0.2h5.8c0.2,0,0.2,0.2,0.2,0.7
				c0,0.5-0.1,0.7-0.3,0.7h-1.8v11.8h4.6l0.8-1.5c0.1-0.1,0.2-0.2,0.4-0.2c0.2,0,0.4,0,0.6,0.1c0.2,0.1,0.3,0.2,0.3,0.3
				c0,0,0,0.1,0,0.1l-0.9,2.7h-9.4c-0.1,0-0.2-0.2-0.2-0.5c0-0.3,0.1-0.6,0.3-0.8c0.1-0.1,0.2-0.1,0.3-0.1c0.8,0,1.3-0.1,1.3-0.4
				v-11.4c0-0.1,0-0.2-0.1-0.2H253c-0.2,0-0.3-0.2-0.4-0.5C252.6,317.4,252.6,317.3,252.6,317.3z"/>
			<path class="st2" d="M270.3,329.7c-1.2-1.3-1.8-3.2-1.8-5.6c0-2.5,0.6-4.4,1.8-5.7c1.2-1.3,2.8-2,4.8-2c2,0,3.5,0.7,4.5,2.1
				c1,1.4,1.6,3.3,1.6,5.7s-0.7,4.3-2,5.6c-1.1,1.1-2.6,1.7-4.5,1.7C272.8,331.5,271.4,330.9,270.3,329.7z M273.1,329.5
				c0.5,0.3,1.1,0.4,1.7,0.4c1.2,0,2.2-0.4,2.9-1.3c0.8-1,1.2-2.4,1.2-4.2s-0.4-3.4-1.2-4.6c-0.8-1.2-1.8-1.8-2.9-1.8
				c-1.2,0-2.1,0.5-2.9,1.4c-0.8,1-1.1,2.2-1.1,3.8C270.7,326.6,271.5,328.6,273.1,329.5z"/>
			<path class="st2" d="M299.6,316.6c0.2,0,0.2,0.2,0.2,0.5c0,0.4-0.1,0.6-0.2,0.8c-0.1,0.1-0.2,0.1-0.4,0.1c-0.5,0-0.8,0.2-0.9,0.6
				l-4.9,12.8c-0.1,0.1-0.2,0.2-0.6,0.2c-0.3,0-0.5-0.1-0.6-0.2L287,318h-1.1c-0.2,0-0.3-0.2-0.3-0.5c0-0.4,0-0.6,0.1-0.7
				c0.1-0.1,0.2-0.2,0.2-0.2h4.7c0.2,0,0.2,0.2,0.2,0.5c0,0.4-0.1,0.6-0.2,0.7c-0.1,0.1-0.2,0.2-0.2,0.2c-0.8,0-1.2,0.1-1.2,0.2
				c0,0.1,0,0.1,0.1,0.2l3.6,9.4l3.7-9.9h-1.5c-0.2,0-0.3-0.2-0.3-0.5s0-0.6,0.1-0.7c0.1-0.1,0.2-0.2,0.2-0.2H299.6z"/>
			<path class="st2" d="M304.9,318c-0.2,0-0.4-0.3-0.4-0.8c0-0.4,0.1-0.6,0.3-0.6h10.7v2.8c0,0.2-0.2,0.3-0.7,0.3
				c-0.5,0-0.7-0.1-0.7-0.2c0-0.5-0.1-0.9-0.2-1.1c-0.3-0.3-0.7-0.4-1.4-0.4h-3.8v4.9h2.5c0.3,0,0.5-0.1,0.5-0.3
				c0.1-0.2,0.1-0.6,0.1-1.2c0-0.1,0.2-0.2,0.5-0.2c0.4,0,0.6,0,0.7,0.1c0.1,0.1,0.1,0.2,0.1,0.2v4.2c0,0.3-0.2,0.4-0.7,0.4
				c-0.5,0-0.7-0.1-0.7-0.3v-1.5h-3.1v5.3h5.2l0.7-1.5c0.1-0.1,0.2-0.2,0.4-0.2c0.6,0,0.9,0.1,0.9,0.4c0,0,0,0.1,0,0.1l-0.9,2.7h-10
				c-0.2,0-0.3-0.2-0.3-0.5c0-0.4,0.1-0.6,0.2-0.8c0.1-0.1,0.2-0.1,0.3-0.1c0.8,0,1.3-0.1,1.3-0.4v-11.4c0-0.1,0-0.1-0.1-0.1H304.9z
				"/>
			<path class="st2" d="M331.3,331.3c-0.2,0-0.2-0.2-0.2-0.5c0-0.4,0.1-0.6,0.3-0.8c0.1-0.1,0.1-0.1,0.2-0.1h1.5
				c0.6,0,0.9-0.1,1-0.2c0-0.1,0-0.1,0-0.2v-3.7l-4.3-7.9h-1.1c-0.2,0-0.3-0.2-0.3-0.5c0-0.4,0-0.6,0.1-0.7c0.1-0.1,0.2-0.2,0.2-0.2
				h4.8c0.2,0,0.2,0.2,0.2,0.5c0,0.4,0,0.6-0.1,0.7c-0.1,0.1-0.2,0.2-0.3,0.2c-0.7,0-1,0.1-1,0.3c0,0.1,0,0.1,0.1,0.2l2.8,5.6
				l3.1-6.1h-1.5c-0.2,0-0.3-0.2-0.3-0.5s0-0.6,0.1-0.7c0.1-0.1,0.2-0.2,0.2-0.2h4.3c0.2,0,0.2,0.2,0.2,0.5c0,0.4-0.1,0.6-0.2,0.8
				c-0.1,0.1-0.2,0.1-0.4,0.1c-0.4,0-0.7,0.1-0.9,0.4l-3.9,7.4v4.1h2.4c0.2,0,0.3,0.2,0.3,0.5c0,0.4,0,0.6-0.1,0.7
				c-0.1,0.1-0.2,0.2-0.3,0.2H331.3z"/>
			<path class="st2" d="M347.4,329.7c-1.2-1.3-1.8-3.2-1.8-5.6c0-2.5,0.6-4.4,1.8-5.7c1.2-1.3,2.8-2,4.8-2c2,0,3.5,0.7,4.5,2.1
				c1,1.4,1.6,3.3,1.6,5.7s-0.7,4.3-2,5.6c-1.1,1.1-2.6,1.7-4.5,1.7S348.5,330.9,347.4,329.7z M350.3,329.5c0.5,0.3,1.1,0.4,1.7,0.4
				c1.2,0,2.2-0.4,2.9-1.3c0.8-1,1.2-2.4,1.2-4.2s-0.4-3.4-1.2-4.6c-0.8-1.2-1.8-1.8-2.9-1.8c-1.2,0-2.1,0.5-2.9,1.4
				c-0.8,1-1.1,2.2-1.1,3.8C347.8,326.6,348.7,328.6,350.3,329.5z"/>
			<path class="st2" d="M363.8,318c-0.2,0-0.4-0.3-0.4-0.8c0-0.4,0.1-0.6,0.3-0.6h5.6c0.2,0,0.2,0.2,0.2,0.7c0,0.5-0.1,0.7-0.3,0.7
				h-1.6v7.7c0,2.2,0.6,3.6,1.9,4c0.4,0.1,0.9,0.2,1.4,0.2c1.1,0,1.9-0.3,2.4-1c0.5-0.7,0.8-1.7,0.8-3.2v-7.5c0-0.1,0-0.2-0.1-0.2
				h-1.4c-0.2,0-0.3-0.2-0.4-0.5c0-0.1,0-0.2,0-0.3c0-0.4,0.1-0.6,0.3-0.6h5c0.2,0,0.3,0.2,0.3,0.5c0,0.4,0,0.6-0.1,0.7
				c-0.1,0.1-0.2,0.1-0.2,0.1h-1.7v7.9c0,3.7-1.7,5.6-5.1,5.6c-1.8,0-3.1-0.5-3.9-1.4c-0.8-0.9-1.1-2.4-1.1-4.3v-7.6
				c0-0.1,0-0.2-0.1-0.2H363.8z"/>
		</g>
		<g>
			<path class="st2" d="M209.7,460.6c0.2,0,0.2,0.2,0.2,0.5c0,0.4-0.1,0.6-0.2,0.8c-0.1,0.1-0.2,0.1-0.4,0.1c-0.5,0-0.8,0.2-0.9,0.6
				l-4.9,12.8c-0.1,0.1-0.2,0.2-0.6,0.2c-0.3,0-0.5-0.1-0.6-0.2L197,462H196c-0.2,0-0.3-0.2-0.3-0.5c0-0.4,0-0.6,0.1-0.7
				c0.1-0.1,0.2-0.2,0.2-0.2h4.7c0.2,0,0.2,0.2,0.2,0.5c0,0.4-0.1,0.6-0.1,0.7c-0.1,0.1-0.2,0.2-0.3,0.2c-0.8,0-1.2,0.1-1.2,0.2
				c0,0.1,0,0.1,0.1,0.2l3.6,9.4l3.7-9.9h-1.5c-0.2,0-0.3-0.2-0.3-0.5s0-0.6,0.1-0.7c0.1-0.1,0.2-0.2,0.2-0.2H209.7z"/>
			<path class="st2" d="M211.8,475.3c-0.2,0-0.2-0.2-0.2-0.5c0-0.4,0.1-0.6,0.2-0.8c0.1-0.1,0.2-0.1,0.4-0.1c0.5,0,0.8-0.2,0.9-0.6
				l5-12.8c0.1-0.1,0.2-0.2,0.6-0.2c0.3,0,0.5,0.1,0.6,0.2l5.2,13.3h1.1c0.2,0,0.3,0.2,0.3,0.5c0,0.4,0,0.6-0.1,0.7
				c-0.1,0.1-0.2,0.2-0.2,0.2h-4.7c-0.2,0-0.2-0.2-0.2-0.5c0-0.4,0.1-0.6,0.1-0.7c0.1-0.1,0.2-0.2,0.3-0.2c0.8,0,1.2-0.1,1.2-0.2
				c0-0.1,0-0.1-0.1-0.2l-1.2-3h-5l-1.4,3.5h1.7c0.2,0,0.3,0.2,0.3,0.5c0,0.4,0,0.6-0.1,0.7c-0.1,0.1-0.2,0.2-0.2,0.2H211.8z
				 M216.4,468.9h3.8l-1.9-4.9L216.4,468.9z"/>
			<path class="st2" d="M229.3,461.3l0-0.2c0-0.1,0-0.2,0.1-0.3c0-0.1,0.1-0.2,0.2-0.2h5.8c0.2,0,0.2,0.2,0.2,0.7
				c0,0.5-0.1,0.7-0.3,0.7h-1.8v11.8h4.6l0.8-1.5c0.1-0.1,0.2-0.2,0.4-0.2c0.2,0,0.4,0,0.6,0.1c0.2,0.1,0.3,0.2,0.3,0.3
				c0,0,0,0.1,0,0.1l-0.9,2.7h-9.4c-0.1,0-0.2-0.2-0.2-0.5s0.1-0.6,0.3-0.8c0.1-0.1,0.2-0.1,0.3-0.1c0.8,0,1.3-0.1,1.3-0.4v-11.4
				c0-0.1,0-0.2-0.1-0.2h-1.6c-0.2,0-0.3-0.2-0.4-0.5C229.3,461.4,229.3,461.3,229.3,461.3z"/>
			<path class="st2" d="M244.2,462c-0.2,0-0.4-0.3-0.4-0.8c0-0.4,0.1-0.6,0.3-0.6h10.7v2.8c0,0.2-0.2,0.3-0.7,0.3
				c-0.5,0-0.7-0.1-0.7-0.2c0-0.5-0.1-0.9-0.2-1.1c-0.3-0.3-0.7-0.4-1.4-0.4H248v4.9h2.5c0.3,0,0.5-0.1,0.6-0.3
				c0.1-0.2,0.1-0.6,0.1-1.2c0-0.1,0.2-0.2,0.5-0.2c0.4,0,0.6,0,0.7,0.1c0.1,0.1,0.1,0.2,0.1,0.2v4.2c0,0.3-0.2,0.4-0.7,0.4
				c-0.5,0-0.7-0.1-0.7-0.3v-1.5H248v5.3h5.2l0.7-1.5c0.1-0.1,0.2-0.2,0.4-0.2c0.6,0,0.9,0.1,0.9,0.4c0,0,0,0.1,0,0.1l-0.9,2.7h-10
				c-0.2,0-0.3-0.2-0.3-0.5c0-0.4,0.1-0.6,0.2-0.8c0.1-0.1,0.2-0.1,0.3-0.1c0.8,0,1.3-0.1,1.3-0.4v-11.4c0-0.1,0-0.1-0.1-0.1H244.2z
				"/>
			<path class="st2" d="M259.4,461.2c0-0.4,0.1-0.6,0.3-0.6h3.4l7.7,11.3v-9.8c0-0.1,0-0.2-0.1-0.2h-1.6c-0.2,0-0.3-0.2-0.4-0.5
				c0-0.1,0-0.2,0-0.3c0-0.4,0.1-0.6,0.3-0.6h5.2c0.2,0,0.2,0.2,0.2,0.7c0,0.5-0.1,0.7-0.3,0.7h-1.8v13.3c0,0.1-0.2,0.2-0.7,0.2
				c-0.5,0-0.7-0.1-0.8-0.2l-7.8-11v9.6h1.6c0.2,0,0.3,0.2,0.3,0.5s0,0.6-0.1,0.7c-0.1,0.1-0.2,0.1-0.3,0.1h-4.6
				c-0.2,0-0.2-0.2-0.2-0.5s0.1-0.6,0.3-0.8c0.1-0.1,0.2-0.1,0.3-0.1c0.8,0,1.3-0.1,1.3-0.4v-11.4c0-0.1,0-0.2-0.1-0.2h-1.6
				c-0.2,0-0.3-0.2-0.4-0.5C259.4,461.4,259.4,461.3,259.4,461.2z"/>
			<path class="st2" d="M286.8,473.9c0.2,0,0.3,0.2,0.3,0.5c0,0.4-0.1,0.6-0.2,0.7c-0.1,0.1-0.2,0.2-0.3,0.2h-5.2
				c-0.2,0-0.2-0.2-0.2-0.5c0-0.4,0.1-0.6,0.3-0.8c0.1-0.1,0.2-0.1,0.5-0.1c0.7,0,1.1-0.1,1.1-0.4v-11.4h-3.3l-0.4,1.4
				c-0.1,0.2-0.2,0.3-0.5,0.2c-0.3,0-0.5-0.1-0.7-0.3c-0.1-0.1-0.1-0.1-0.1-0.2v0l0.4-2.7h11.3l0.4,2.7v0c0,0.2-0.2,0.4-0.5,0.5
				c-0.1,0-0.2,0-0.3,0c-0.3,0-0.4-0.1-0.5-0.3l-0.4-1.4h-3.3v11.8H286.8z"/>
			<path class="st2" d="M299.9,473.9c0.2,0,0.3,0.2,0.3,0.5s0,0.6-0.1,0.7c-0.1,0.1-0.2,0.2-0.3,0.2h-5.2c-0.1,0-0.2-0.2-0.2-0.5
				s0.1-0.6,0.3-0.8c0.1-0.1,0.2-0.1,0.3-0.1c0.8,0,1.3-0.1,1.3-0.4v-11.4c0-0.1,0-0.2-0.1-0.2h-1.6c-0.2,0-0.3-0.2-0.4-0.5
				c0-0.1,0-0.2,0-0.3c0-0.4,0.1-0.6,0.3-0.6h5.8c0.2,0,0.2,0.2,0.2,0.7c0,0.5-0.1,0.7-0.3,0.7h-1.8v11.9H299.9z"/>
			<path class="st2" d="M304.8,461.2c0-0.4,0.1-0.6,0.3-0.6h3.4l7.7,11.3v-9.8c0-0.1,0-0.2-0.1-0.2h-1.6c-0.2,0-0.3-0.2-0.4-0.5
				c0-0.1,0-0.2,0-0.3c0-0.4,0.1-0.6,0.3-0.6h5.2c0.2,0,0.2,0.2,0.2,0.7c0,0.5-0.1,0.7-0.3,0.7h-1.8v13.3c0,0.1-0.2,0.2-0.7,0.2
				c-0.5,0-0.7-0.1-0.8-0.2l-7.8-11v9.6h1.6c0.2,0,0.3,0.2,0.3,0.5s0,0.6-0.1,0.7c-0.1,0.1-0.2,0.1-0.3,0.1h-4.6
				c-0.2,0-0.2-0.2-0.2-0.5s0.1-0.6,0.3-0.8c0.1-0.1,0.2-0.1,0.3-0.1c0.8,0,1.3-0.1,1.3-0.4v-11.4c0-0.1,0-0.2-0.1-0.2h-1.6
				c-0.2,0-0.3-0.2-0.4-0.5C304.9,461.4,304.8,461.3,304.8,461.2z"/>
			<path class="st2" d="M324.5,462c-0.2,0-0.4-0.3-0.4-0.8c0-0.4,0.1-0.6,0.3-0.6h10.7v2.8c0,0.2-0.2,0.3-0.7,0.3
				c-0.5,0-0.7-0.1-0.7-0.2c0-0.5-0.1-0.9-0.2-1.1c-0.3-0.3-0.7-0.4-1.4-0.4h-3.8v4.9h2.5c0.3,0,0.5-0.1,0.6-0.3
				c0.1-0.2,0.1-0.6,0.1-1.2c0-0.1,0.2-0.2,0.5-0.2c0.4,0,0.6,0,0.7,0.1c0.1,0.1,0.1,0.2,0.1,0.2v4.2c0,0.3-0.2,0.4-0.7,0.4
				c-0.5,0-0.7-0.1-0.7-0.3v-1.5h-3.1v5.3h5.2l0.7-1.5c0.1-0.1,0.2-0.2,0.4-0.2c0.6,0,0.9,0.1,0.9,0.4c0,0,0,0.1,0,0.1l-0.9,2.7h-10
				c-0.2,0-0.3-0.2-0.3-0.5s0.1-0.6,0.2-0.8c0.1-0.1,0.2-0.1,0.3-0.1c0.8,0,1.3-0.1,1.3-0.4v-11.4c0-0.1,0-0.1-0.1-0.1H324.5z"/>
			<path class="st2" d="M340.8,462.5c-0.5-0.3-0.7-0.7-0.7-1.3c0-0.4,0.1-0.7,0.4-1c0.3-0.3,0.6-0.4,0.8-0.4h0
				c0.5,0,0.9,0.1,1.1,0.4s0.4,0.6,0.5,1c0,1.1-0.9,2.4-2.6,3.7c-0.2,0-0.3-0.1-0.4-0.2c-0.1-0.1-0.2-0.2-0.2-0.4
				C340.4,463.6,340.8,463,340.8,462.5z"/>
			<path class="st2" d="M352.3,460.4L352.3,460.4c1.1,0,2,0.2,2.9,0.7c1,0.5,1.5,1.2,1.5,2.1c0,0.4-0.1,0.8-0.4,1.1
				c-0.3,0.3-0.6,0.4-1.1,0.4c-0.4,0-0.8-0.1-1.1-0.4c-0.3-0.3-0.4-0.6-0.4-1.1c0-0.3,0.1-0.7,0.3-0.9c-0.4-0.2-0.9-0.3-1.4-0.3
				c-1,0-1.7,0.2-2.3,0.6c-0.5,0.4-0.8,0.9-0.8,1.6c0,0.5,0.3,1,0.8,1.4c0.3,0.2,0.6,0.4,1,0.6l1.3,0.7c1.4,0.7,2.4,1.4,3,2
				c0.7,0.7,1.1,1.7,1.1,2.8c0,1.1-0.5,2.1-1.4,2.8c-0.9,0.8-2.1,1.1-3.6,1.1c-1.1,0-2.1-0.2-3.1-0.7c-1.1-0.5-1.7-1.2-1.7-2
				c0-0.4,0.1-0.8,0.4-1.1c0.3-0.3,0.6-0.4,1.1-0.4c0.4,0,0.8,0.1,1.1,0.4c0.3,0.3,0.4,0.6,0.4,1s-0.1,0.7-0.3,1
				c0.4,0.2,0.9,0.3,1.6,0.3c1.1,0,1.9-0.2,2.5-0.6c0.6-0.4,0.9-1,0.9-1.8c0-0.8-0.7-1.5-2-2.3c-0.4-0.2-0.8-0.4-1.2-0.7l-1.4-0.7
				c-1.8-0.9-2.7-2.2-2.7-3.8c0-1.2,0.5-2.1,1.4-2.7C349.8,460.7,350.9,460.4,352.3,460.4z"/>
			<path class="st2" d="M369.2,462c-0.2,0-0.4-0.3-0.4-0.8c0-0.4,0.1-0.6,0.3-0.6h5.7c2.6,0,4.4,0.6,5.5,1.8c1.1,1.2,1.6,3,1.6,5.5
				c0,2.5-0.7,4.4-2.2,5.7c-1.3,1.1-3,1.7-4.9,1.7h-5.4c-0.2,0-0.3-0.2-0.3-0.5c0-0.3,0.1-0.6,0.3-0.8c0-0.1,0.2-0.1,0.6-0.1
				c0.3,0,0.6,0,0.8-0.1c0.2-0.1,0.3-0.2,0.3-0.3v-11.4c0-0.1,0-0.1-0.1-0.1H369.2z M373,473.8h1.4c1.4,0,2.6-0.5,3.6-1.4
				c1-1,1.6-2.3,1.6-4.1c0-3-0.9-5-2.9-5.8c-0.6-0.3-1.3-0.4-2.1-0.4H373V473.8z"/>
			<path class="st2" d="M385.6,475.3c-0.2,0-0.2-0.2-0.2-0.5c0-0.4,0.1-0.6,0.2-0.8c0.1-0.1,0.2-0.1,0.4-0.1c0.5,0,0.8-0.2,0.9-0.6
				l5-12.8c0.1-0.1,0.2-0.2,0.6-0.2c0.3,0,0.5,0.1,0.6,0.2l5.2,13.3h1.1c0.2,0,0.3,0.2,0.3,0.5c0,0.4,0,0.6-0.1,0.7
				c-0.1,0.1-0.2,0.2-0.2,0.2h-4.7c-0.2,0-0.2-0.2-0.2-0.5c0-0.4,0-0.6,0.1-0.7c0.1-0.1,0.2-0.2,0.3-0.2c0.8,0,1.2-0.1,1.2-0.2
				c0-0.1,0-0.1-0.1-0.2l-1.2-3h-5l-1.4,3.5h1.7c0.2,0,0.3,0.2,0.3,0.5c0,0.4,0,0.6-0.1,0.7c-0.1,0.1-0.2,0.2-0.2,0.2H385.6z
				 M390.2,468.9h3.8l-1.9-4.9L390.2,468.9z"/>
			<path class="st2" d="M404.4,475.3c-0.2,0-0.2-0.2-0.2-0.5c0-0.4,0.1-0.6,0.3-0.8c0.1-0.1,0.1-0.1,0.2-0.1h1.5
				c0.6,0,0.9-0.1,1-0.2c0-0.1,0-0.1,0-0.2v-3.7l-4.3-7.9h-1.1c-0.2,0-0.3-0.2-0.3-0.5c0-0.4,0-0.6,0.1-0.7c0.1-0.1,0.2-0.2,0.2-0.2
				h4.8c0.2,0,0.2,0.2,0.2,0.5c0,0.4,0,0.6-0.1,0.7c-0.1,0.1-0.2,0.2-0.3,0.2c-0.7,0-1,0.1-1,0.3c0,0.1,0,0.1,0.1,0.2l2.8,5.6
				l3.1-6.1h-1.5c-0.2,0-0.3-0.2-0.3-0.5s0-0.6,0.1-0.7c0.1-0.1,0.2-0.2,0.2-0.2h4.3c0.2,0,0.2,0.2,0.2,0.5c0,0.4-0.1,0.6-0.2,0.8
				c-0.1,0.1-0.2,0.1-0.4,0.1c-0.4,0-0.7,0.1-0.9,0.4l-3.9,7.4v4.1h2.4c0.2,0,0.3,0.2,0.3,0.5c0,0.4-0.1,0.6-0.1,0.7
				c-0.1,0.1-0.2,0.2-0.3,0.2H404.4z"/>
		</g>
	</g>
</g>
</svg>
