<?xml version="1.0" encoding="utf-8"?>
<!-- Generator: Adobe Illustrator 22.1.0, SVG Export Plug-In . SVG Version: 6.00 Build 0)  -->
<svg version="1.1" id="Layer_1" xmlns="http://www.w3.org/2000/svg" xmlns:xlink="http://www.w3.org/1999/xlink" x="0px" y="0px"
	 viewBox="0 0 612 792" style="enable-background:new 0 0 612 792;" xml:space="preserve">
<style type="text/css">
	.st0{fill:#CFA2AB;}
	.st1{fill:#604D48;}
	.st2{fill:#FFFAEF;}
	.st3{clip-path:url(#SVGID_2_);fill:#84736D;}

	.st0:hover
	{
	fill:red;

</style>
<g>
	<path id="change5" class="st0" d="M212.5,534.8c-5.6-13.9-16.9-25-31-30.4V291.9c14.2-5.4,25.5-16.6,31.1-30.7H402
		c5.5,13.8,16.6,24.9,30.4,30.4v213c-13.7,5.5-24.7,16.4-30.3,30.1H212.5z"/>
	<path class="st1" d="M159.1,523.3V272.9l3.2,0.1c17.5,0,31.7-14.2,31.7-31.7v-2.5h226.7v2.5c0,17.5,14.2,31.7,31.7,31.7h2.5v250.3
		h-2.5c-17.4,0-31.6,14.1-31.7,31.5l0,2.5H194l0-2.5c-0.1-17.4-14.4-31.5-31.7-31.5L159.1,523.3z M164.1,277.9v240.4
		c18.4,0.9,33.4,15.6,34.8,33.9h217c1.4-18.1,16-32.7,34.1-33.9V277.9c-18.3-1.2-32.9-15.9-34.1-34.1H198.9
		C197.6,262.2,182.6,277,164.1,277.9z"/>
	<g>
		<g>
			<path class="st1" d="M312.6,252.4c0,1-0.8,1.9-1.9,1.9c-1,0-1.9-0.8-1.9-1.9c0-1,0.8-1.9,1.9-1.9
				C311.8,250.6,312.6,251.4,312.6,252.4z"/>
			<path class="st1" d="M320.2,252.4c0,1-0.8,1.9-1.9,1.9c-1,0-1.9-0.8-1.9-1.9c0-1,0.8-1.9,1.9-1.9
				C319.3,250.6,320.2,251.4,320.2,252.4z"/>
			<path class="st1" d="M327.7,252.4c0,1-0.8,1.9-1.9,1.9c-1,0-1.9-0.8-1.9-1.9c0-1,0.8-1.9,1.9-1.9
				C326.8,250.6,327.7,251.4,327.7,252.4z"/>
			<path class="st1" d="M335.2,252.4c0,1-0.8,1.9-1.9,1.9c-1,0-1.9-0.8-1.9-1.9c0-1,0.8-1.9,1.9-1.9
				C334.3,250.6,335.2,251.4,335.2,252.4z"/>
			<path class="st1" d="M342.7,252.4c0,1-0.8,1.9-1.9,1.9c-1,0-1.9-0.8-1.9-1.9c0-1,0.8-1.9,1.9-1.9
				C341.8,250.6,342.7,251.4,342.7,252.4z"/>
			<path class="st1" d="M350.2,252.4c0,1-0.8,1.9-1.9,1.9c-1,0-1.9-0.8-1.9-1.9c0-1,0.8-1.9,1.9-1.9
				C349.4,250.6,350.2,251.4,350.2,252.4z"/>
			<path class="st1" d="M357.7,252.4c0,1-0.8,1.9-1.9,1.9c-1,0-1.9-0.8-1.9-1.9c0-1,0.8-1.9,1.9-1.9
				C356.9,250.6,357.7,251.4,357.7,252.4z"/>
			<path class="st1" d="M365.2,252.4c0,1-0.8,1.9-1.9,1.9c-1,0-1.9-0.8-1.9-1.9c0-1,0.8-1.9,1.9-1.9
				C364.4,250.6,365.2,251.4,365.2,252.4z"/>
			<path class="st1" d="M372.7,252.4c0,1-0.8,1.9-1.9,1.9c-1,0-1.9-0.8-1.9-1.9c0-1,0.8-1.9,1.9-1.9
				C371.9,250.6,372.7,251.4,372.7,252.4z"/>
			<path class="st1" d="M380.2,252.4c0,1-0.8,1.9-1.9,1.9c-1,0-1.9-0.8-1.9-1.9c0-1,0.8-1.9,1.9-1.9
				C379.4,250.6,380.2,251.4,380.2,252.4z"/>
			<path class="st1" d="M387.7,252.4c0,1-0.8,1.9-1.9,1.9c-1,0-1.9-0.8-1.9-1.9c0-1,0.8-1.9,1.9-1.9
				C386.9,250.6,387.7,251.4,387.7,252.4z"/>
			<path class="st1" d="M395.3,252.4c0,1-0.8,1.9-1.9,1.9c-1,0-1.9-0.8-1.9-1.9c0-1,0.8-1.9,1.9-1.9
				C394.4,250.6,395.3,251.4,395.3,252.4z"/>
			<path class="st1" d="M402.8,252.4c0,1-0.8,1.9-1.9,1.9c-1,0-1.9-0.8-1.9-1.9c0-1,0.8-1.9,1.9-1.9
				C401.9,250.6,402.8,251.4,402.8,252.4z"/>
			<path class="st1" d="M411.1,261.2c-0.9,0.5-2.1,0.1-2.5-0.9c-0.4-1,0-2.1,1-2.5c1-0.4,2,0.1,2.4,1
				C412.4,259.7,412,260.7,411.1,261.2z"/>
			<path class="st1" d="M415.5,268.4c-0.8,0.6-2,0.4-2.6-0.5c-0.6-0.9-0.4-2.1,0.5-2.6c0.9-0.5,2-0.3,2.6,0.5
				C416.5,266.7,416.3,267.8,415.5,268.4z"/>
			<path class="st1" d="M421,274.5c-0.7,0.8-1.9,0.8-2.7,0c-0.8-0.8-0.7-2,0-2.7c0.8-0.7,1.9-0.7,2.6,0
				C421.7,272.6,421.7,273.7,421,274.5z"/>
			<path class="st1" d="M427.8,279.7c-0.5,0.9-1.7,1.1-2.6,0.5c-0.9-0.6-1.1-1.8-0.5-2.6c0.6-0.8,1.8-1,2.6-0.4
				C428.1,277.7,428.3,278.8,427.8,279.7z"/>
			<path class="st1" d="M435.1,283.4c-0.4,1-1.5,1.4-2.5,1c-1-0.4-1.4-1.6-0.9-2.5c0.5-0.9,1.6-1.3,2.4-0.9
				C435,281.4,435.5,282.4,435.1,283.4z"/>
			<path class="st1" d="M440.8,294.3c-1,0-1.9-0.8-1.9-1.9c0-1,0.8-1.9,1.9-1.9c1,0,1.9,0.8,1.9,1.9
				C442.7,293.4,441.9,294.3,440.8,294.3z"/>
			<path class="st1" d="M440.8,301.8c-1,0-1.9-0.8-1.9-1.9s0.8-1.9,1.9-1.9c1,0,1.9,0.8,1.9,1.9S441.9,301.8,440.8,301.8z"/>
			<path class="st1" d="M440.8,309.4c-1,0-1.9-0.8-1.9-1.9c0-1,0.8-1.9,1.9-1.9c1,0,1.9,0.8,1.9,1.9
				C442.7,308.5,441.9,309.4,440.8,309.4z"/>
			<path class="st1" d="M440.8,316.9c-1,0-1.9-0.8-1.9-1.9c0-1,0.8-1.9,1.9-1.9c1,0,1.9,0.8,1.9,1.9
				C442.7,316.1,441.9,316.9,440.8,316.9z"/>
			<path class="st1" d="M440.8,324.4c-1,0-1.9-0.8-1.9-1.9c0-1,0.8-1.9,1.9-1.9c1,0,1.9,0.8,1.9,1.9
				C442.7,323.6,441.9,324.4,440.8,324.4z"/>
			<path class="st1" d="M440.8,332c-1,0-1.9-0.8-1.9-1.9c0-1,0.8-1.9,1.9-1.9c1,0,1.9,0.8,1.9,1.9C442.7,331.2,441.9,332,440.8,332z
				"/>
			<path class="st1" d="M440.8,339.5c-1,0-1.9-0.8-1.9-1.9c0-1,0.8-1.9,1.9-1.9c1,0,1.9,0.8,1.9,1.9
				C442.7,338.7,441.9,339.5,440.8,339.5z"/>
			<path class="st1" d="M440.8,347.1c-1,0-1.9-0.8-1.9-1.9c0-1,0.8-1.9,1.9-1.9c1,0,1.9,0.8,1.9,1.9
				C442.7,346.2,441.9,347.1,440.8,347.1z"/>
			<path class="st1" d="M440.8,354.6c-1,0-1.9-0.8-1.9-1.9c0-1,0.8-1.9,1.9-1.9c1,0,1.9,0.8,1.9,1.9
				C442.7,353.8,441.9,354.6,440.8,354.6z"/>
			<path class="st1" d="M440.8,362.2c-1,0-1.9-0.8-1.9-1.9c0-1,0.8-1.9,1.9-1.9c1,0,1.9,0.8,1.9,1.9
				C442.7,361.3,441.9,362.2,440.8,362.2z"/>
			<path class="st1" d="M440.8,369.7c-1,0-1.9-0.8-1.9-1.9c0-1,0.8-1.9,1.9-1.9c1,0,1.9,0.8,1.9,1.9
				C442.7,368.9,441.9,369.7,440.8,369.7z"/>
			<path class="st1" d="M440.8,377.3c-1,0-1.9-0.8-1.9-1.9c0-1,0.8-1.9,1.9-1.9c1,0,1.9,0.8,1.9,1.9
				C442.7,376.4,441.9,377.3,440.8,377.3z"/>
			<path class="st1" d="M440.8,384.8c-1,0-1.9-0.8-1.9-1.9c0-1,0.8-1.9,1.9-1.9c1,0,1.9,0.8,1.9,1.9
				C442.7,384,441.9,384.8,440.8,384.8z"/>
			<path class="st1" d="M440.8,392.3c-1,0-1.9-0.8-1.9-1.9c0-1,0.8-1.9,1.9-1.9c1,0,1.9,0.8,1.9,1.9
				C442.7,391.5,441.9,392.3,440.8,392.3z"/>
			<path class="st1" d="M440.8,399.9c-1,0-1.9-0.8-1.9-1.9c0-1,0.8-1.9,1.9-1.9c1,0,1.9,0.8,1.9,1.9
				C442.7,399.1,441.9,399.9,440.8,399.9z"/>
			<path class="st1" d="M440.8,407.4c-1,0-1.9-0.8-1.9-1.9c0-1,0.8-1.9,1.9-1.9c1,0,1.9,0.8,1.9,1.9
				C442.7,406.6,441.9,407.4,440.8,407.4z"/>
			<path class="st1" d="M440.8,415c-1,0-1.9-0.8-1.9-1.9c0-1,0.8-1.9,1.9-1.9c1,0,1.9,0.8,1.9,1.9C442.7,414.1,441.9,415,440.8,415z
				"/>
			<path class="st1" d="M440.8,422.5c-1,0-1.9-0.8-1.9-1.9c0-1,0.8-1.9,1.9-1.9c1,0,1.9,0.8,1.9,1.9
				C442.7,421.7,441.9,422.5,440.8,422.5z"/>
			<path class="st1" d="M440.8,430.1c-1,0-1.9-0.8-1.9-1.9c0-1,0.8-1.9,1.9-1.9c1,0,1.9,0.8,1.9,1.9
				C442.7,429.2,441.9,430.1,440.8,430.1z"/>
			<path class="st1" d="M440.8,437.6c-1,0-1.9-0.8-1.9-1.9c0-1,0.8-1.9,1.9-1.9c1,0,1.9,0.8,1.9,1.9
				C442.7,436.8,441.9,437.6,440.8,437.6z"/>
			<path class="st1" d="M440.8,445.2c-1,0-1.9-0.8-1.9-1.9c0-1,0.8-1.9,1.9-1.9c1,0,1.9,0.8,1.9,1.9
				C442.7,444.3,441.9,445.2,440.8,445.2z"/>
			<path class="st1" d="M440.8,452.7c-1,0-1.9-0.8-1.9-1.9c0-1,0.8-1.9,1.9-1.9c1,0,1.9,0.8,1.9,1.9
				C442.7,451.9,441.9,452.7,440.8,452.7z"/>
			<path class="st1" d="M440.8,460.2c-1,0-1.9-0.8-1.9-1.9c0-1,0.8-1.9,1.9-1.9c1,0,1.9,0.8,1.9,1.9
				C442.7,459.4,441.9,460.2,440.8,460.2z"/>
			<path class="st1" d="M440.8,467.8c-1,0-1.9-0.8-1.9-1.9c0-1,0.8-1.9,1.9-1.9c1,0,1.9,0.8,1.9,1.9
				C442.7,467,441.9,467.8,440.8,467.8z"/>
			<path class="st1" d="M440.8,475.3c-1,0-1.9-0.8-1.9-1.9c0-1,0.8-1.9,1.9-1.9c1,0,1.9,0.8,1.9,1.9
				C442.7,474.5,441.9,475.3,440.8,475.3z"/>
			<path class="st1" d="M440.8,482.9c-1,0-1.9-0.8-1.9-1.9c0-1,0.8-1.9,1.9-1.9c1,0,1.9,0.8,1.9,1.9
				C442.7,482.1,441.9,482.9,440.8,482.9z"/>
			<path class="st1" d="M440.8,490.4c-1,0-1.9-0.8-1.9-1.9c0-1,0.8-1.9,1.9-1.9c1,0,1.9,0.8,1.9,1.9
				C442.7,489.6,441.9,490.4,440.8,490.4z"/>
			<path class="st1" d="M440.8,498c-1,0-1.9-0.8-1.9-1.9c0-1,0.8-1.9,1.9-1.9c1,0,1.9,0.8,1.9,1.9C442.7,497.1,441.9,498,440.8,498z
				"/>
			<path class="st1" d="M440.8,505.5c-1,0-1.9-0.8-1.9-1.9c0-1,0.8-1.9,1.9-1.9c1,0,1.9,0.8,1.9,1.9
				C442.7,504.7,441.9,505.5,440.8,505.5z"/>
			<path class="st1" d="M431.8,514.3c-0.5-0.9-0.1-2.1,0.9-2.5c1-0.4,2.1,0,2.5,1c0.4,1-0.1,2-1,2.4
				C433.4,515.6,432.3,515.2,431.8,514.3z"/>
			<path class="st1" d="M424.8,518.6c-0.6-0.8-0.4-2,0.5-2.6c0.9-0.6,2.1-0.4,2.6,0.5c0.5,0.9,0.3,2-0.5,2.6
				C426.6,519.6,425.4,519.4,424.8,518.6z"/>
			<path class="st1" d="M418.7,524.1c-0.8-0.7-0.8-1.9,0-2.7c0.8-0.8,2-0.7,2.7,0c0.7,0.8,0.7,1.9,0,2.6
				C420.6,524.8,419.4,524.8,418.7,524.1z"/>
			<path class="st1" d="M413.7,530.6c-0.9-0.5-1.1-1.7-0.5-2.6c0.6-0.9,1.8-1.1,2.6-0.4c0.8,0.6,1,1.8,0.4,2.6
				C415.7,531,414.5,531.2,413.7,530.6z"/>
			<path class="st1" d="M409.9,538c-1-0.4-1.4-1.5-1-2.5c0.4-1,1.6-1.4,2.5-0.9c0.9,0.5,1.3,1.6,0.9,2.5
				C411.9,537.9,410.9,538.3,409.9,538z"/>
			<path class="st1" d="M399.1,543.6c0-1,0.8-1.9,1.9-1.9c1,0,1.9,0.8,1.9,1.9c0,1-0.8,1.9-1.9,1.9
				C399.9,545.4,399.1,544.6,399.1,543.6z"/>
			<path class="st1" d="M391.6,543.6c0-1,0.8-1.9,1.9-1.9c1,0,1.9,0.8,1.9,1.9c0,1-0.8,1.9-1.9,1.9
				C392.4,545.4,391.6,544.6,391.6,543.6z"/>
			<circle class="st1" cx="386" cy="543.6" r="1.9"/>
			<path class="st1" d="M376.6,543.6c0-1,0.8-1.9,1.9-1.9c1,0,1.9,0.8,1.9,1.9c0,1-0.8,1.9-1.9,1.9
				C377.4,545.4,376.6,544.6,376.6,543.6z"/>
			<circle class="st1" cx="370.9" cy="543.6" r="1.9"/>
			<circle class="st1" cx="363.4" cy="543.6" r="1.9"/>
			<path class="st1" d="M354,543.6c0-1,0.8-1.9,1.9-1.9c1,0,1.9,0.8,1.9,1.9c0,1-0.8,1.9-1.9,1.9C354.9,545.4,354,544.6,354,543.6z"
				/>
			<path class="st1" d="M346.5,543.6c0-1,0.8-1.9,1.9-1.9c1,0,1.9,0.8,1.9,1.9c0,1-0.8,1.9-1.9,1.9
				C347.4,545.4,346.5,544.6,346.5,543.6z"/>
			<path class="st1" d="M339,543.6c0-1,0.8-1.9,1.9-1.9c1,0,1.9,0.8,1.9,1.9c0,1-0.8,1.9-1.9,1.9C339.9,545.4,339,544.6,339,543.6z"
				/>
			<path class="st1" d="M331.5,543.6c0-1,0.8-1.9,1.9-1.9c1,0,1.9,0.8,1.9,1.9c0,1-0.8,1.9-1.9,1.9
				C332.3,545.4,331.5,544.6,331.5,543.6z"/>
			<path class="st1" d="M324,543.6c0-1,0.8-1.9,1.9-1.9c1,0,1.9,0.8,1.9,1.9c0,1-0.8,1.9-1.9,1.9C324.8,545.4,324,544.6,324,543.6z"
				/>
			<path class="st1" d="M316.5,543.6c0-1,0.8-1.9,1.9-1.9c1,0,1.9,0.8,1.9,1.9c0,1-0.8,1.9-1.9,1.9
				C317.3,545.4,316.5,544.6,316.5,543.6z"/>
			<path class="st1" d="M309,543.6c0-1,0.8-1.9,1.9-1.9c1,0,1.9,0.8,1.9,1.9c0,1-0.8,1.9-1.9,1.9C309.8,545.4,309,544.6,309,543.6z"
				/>
			<path class="st1" d="M440.8,509.3c1,0,1.9,0.8,1.9,1.9c0,1-0.8,1.9-1.9,1.9c-1,0-1.9-0.8-1.9-1.9
				C439,510.1,439.8,509.3,440.8,509.3z"/>
			<path class="st1" d="M440.8,283c1,0,1.9,0.8,1.9,1.9c0,1-0.8,1.9-1.9,1.9c-1,0-1.9-0.8-1.9-1.9C439,283.8,439.8,283,440.8,283z"
				/>
			<path class="st1" d="M406.2,543.6c0-1,0.8-1.9,1.9-1.9s1.9,0.8,1.9,1.9c0,1-0.8,1.9-1.9,1.9S406.2,544.6,406.2,543.6z"/>
			<path class="st1" d="M406.2,252.4c0-1,0.8-1.9,1.9-1.9s1.9,0.8,1.9,1.9c0,1-0.8,1.9-1.9,1.9S406.2,253.5,406.2,252.4z"/>
		</g>
		<g>
			<path class="st1" d="M301.4,252.4c0,1,0.8,1.9,1.9,1.9c1,0,1.9-0.8,1.9-1.9c0-1-0.8-1.9-1.9-1.9
				C302.2,250.6,301.4,251.4,301.4,252.4z"/>
			<path class="st1" d="M293.8,252.4c0,1,0.8,1.9,1.9,1.9c1,0,1.9-0.8,1.9-1.9c0-1-0.8-1.9-1.9-1.9
				C294.7,250.6,293.8,251.4,293.8,252.4z"/>
			<path class="st1" d="M286.3,252.4c0,1,0.8,1.9,1.9,1.9c1,0,1.9-0.8,1.9-1.9c0-1-0.8-1.9-1.9-1.9
				C287.2,250.6,286.3,251.4,286.3,252.4z"/>
			<path class="st1" d="M278.8,252.4c0,1,0.8,1.9,1.9,1.9c1,0,1.9-0.8,1.9-1.9c0-1-0.8-1.9-1.9-1.9
				C279.7,250.6,278.8,251.4,278.8,252.4z"/>
			<path class="st1" d="M271.3,252.4c0,1,0.8,1.9,1.9,1.9c1,0,1.9-0.8,1.9-1.9c0-1-0.8-1.9-1.9-1.9
				C272.2,250.6,271.3,251.4,271.3,252.4z"/>
			<path class="st1" d="M263.8,252.4c0,1,0.8,1.9,1.9,1.9c1,0,1.9-0.8,1.9-1.9c0-1-0.8-1.9-1.9-1.9
				C264.6,250.6,263.8,251.4,263.8,252.4z"/>
			<path class="st1" d="M256.3,252.4c0,1,0.8,1.9,1.9,1.9c1,0,1.9-0.8,1.9-1.9c0-1-0.8-1.9-1.9-1.9
				C257.1,250.6,256.3,251.4,256.3,252.4z"/>
			<path class="st1" d="M248.8,252.4c0,1,0.8,1.9,1.9,1.9c1,0,1.9-0.8,1.9-1.9c0-1-0.8-1.9-1.9-1.9
				C249.6,250.6,248.8,251.4,248.8,252.4z"/>
			<path class="st1" d="M241.3,252.4c0,1,0.8,1.9,1.9,1.9c1,0,1.9-0.8,1.9-1.9c0-1-0.8-1.9-1.9-1.9
				C242.1,250.6,241.3,251.4,241.3,252.4z"/>
			<path class="st1" d="M233.8,252.4c0,1,0.8,1.9,1.9,1.9c1,0,1.9-0.8,1.9-1.9c0-1-0.8-1.9-1.9-1.9
				C234.6,250.6,233.8,251.4,233.8,252.4z"/>
			<path class="st1" d="M226.3,252.4c0,1,0.8,1.9,1.9,1.9c1,0,1.9-0.8,1.9-1.9c0-1-0.8-1.9-1.9-1.9
				C227.1,250.6,226.3,251.4,226.3,252.4z"/>
			<path class="st1" d="M218.7,252.4c0,1,0.8,1.9,1.9,1.9c1,0,1.9-0.8,1.9-1.9c0-1-0.8-1.9-1.9-1.9
				C219.6,250.6,218.7,251.4,218.7,252.4z"/>
			<path class="st1" d="M211.2,252.4c0,1,0.8,1.9,1.9,1.9c1,0,1.9-0.8,1.9-1.9c0-1-0.8-1.9-1.9-1.9
				C212.1,250.6,211.2,251.4,211.2,252.4z"/>
			<path class="st1" d="M202.9,261.2c0.9,0.5,2.1,0.1,2.5-0.9c0.4-1,0-2.1-1-2.5c-1-0.4-2,0.1-2.4,1
				C201.6,259.7,202,260.7,202.9,261.2z"/>
			<path class="st1" d="M198.5,268.4c0.8,0.6,2,0.4,2.6-0.5c0.6-0.9,0.4-2.1-0.5-2.6c-0.9-0.5-2-0.3-2.6,0.5
				C197.5,266.7,197.7,267.8,198.5,268.4z"/>
			<path class="st1" d="M193,274.5c0.7,0.8,1.9,0.8,2.7,0c0.8-0.8,0.7-2,0-2.7c-0.8-0.7-1.9-0.7-2.6,0
				C192.3,272.6,192.3,273.7,193,274.5z"/>
			<path class="st1" d="M186.2,279.7c0.5,0.9,1.7,1.1,2.6,0.5c0.9-0.6,1.1-1.8,0.5-2.6c-0.6-0.8-1.8-1-2.6-0.4
				C185.9,277.7,185.7,278.8,186.2,279.7z"/>
			<path class="st1" d="M178.9,283.4c0.4,1,1.5,1.4,2.5,1c1-0.4,1.4-1.6,0.9-2.5c-0.5-0.9-1.6-1.3-2.4-0.9
				C179,281.4,178.5,282.4,178.9,283.4z"/>
			<path class="st1" d="M173.2,294.3c1,0,1.9-0.8,1.9-1.9c0-1-0.8-1.9-1.9-1.9c-1,0-1.9,0.8-1.9,1.9
				C171.3,293.4,172.1,294.3,173.2,294.3z"/>
			<path class="st1" d="M173.2,301.8c1,0,1.9-0.8,1.9-1.9s-0.8-1.9-1.9-1.9c-1,0-1.9,0.8-1.9,1.9S172.1,301.8,173.2,301.8z"/>
			<path class="st1" d="M173.2,309.4c1,0,1.9-0.8,1.9-1.9c0-1-0.8-1.9-1.9-1.9c-1,0-1.9,0.8-1.9,1.9
				C171.3,308.5,172.1,309.4,173.2,309.4z"/>
			<path class="st1" d="M173.2,316.9c1,0,1.9-0.8,1.9-1.9c0-1-0.8-1.9-1.9-1.9c-1,0-1.9,0.8-1.9,1.9
				C171.3,316.1,172.1,316.9,173.2,316.9z"/>
			<path class="st1" d="M173.2,324.4c1,0,1.9-0.8,1.9-1.9c0-1-0.8-1.9-1.9-1.9c-1,0-1.9,0.8-1.9,1.9
				C171.3,323.6,172.1,324.4,173.2,324.4z"/>
			<path class="st1" d="M173.2,332c1,0,1.9-0.8,1.9-1.9c0-1-0.8-1.9-1.9-1.9c-1,0-1.9,0.8-1.9,1.9C171.3,331.2,172.1,332,173.2,332z
				"/>
			<path class="st1" d="M173.2,339.5c1,0,1.9-0.8,1.9-1.9c0-1-0.8-1.9-1.9-1.9c-1,0-1.9,0.8-1.9,1.9
				C171.3,338.7,172.1,339.5,173.2,339.5z"/>
			<path class="st1" d="M173.2,347.1c1,0,1.9-0.8,1.9-1.9c0-1-0.8-1.9-1.9-1.9c-1,0-1.9,0.8-1.9,1.9
				C171.3,346.2,172.1,347.1,173.2,347.1z"/>
			<path class="st1" d="M173.2,354.6c1,0,1.9-0.8,1.9-1.9c0-1-0.8-1.9-1.9-1.9c-1,0-1.9,0.8-1.9,1.9
				C171.3,353.8,172.1,354.6,173.2,354.6z"/>
			<path class="st1" d="M173.2,362.2c1,0,1.9-0.8,1.9-1.9c0-1-0.8-1.9-1.9-1.9c-1,0-1.9,0.8-1.9,1.9
				C171.3,361.3,172.1,362.2,173.2,362.2z"/>
			<path class="st1" d="M173.2,369.7c1,0,1.9-0.8,1.9-1.9c0-1-0.8-1.9-1.9-1.9c-1,0-1.9,0.8-1.9,1.9
				C171.3,368.9,172.1,369.7,173.2,369.7z"/>
			<path class="st1" d="M173.2,377.3c1,0,1.9-0.8,1.9-1.9c0-1-0.8-1.9-1.9-1.9c-1,0-1.9,0.8-1.9,1.9
				C171.3,376.4,172.1,377.3,173.2,377.3z"/>
			<path class="st1" d="M173.2,384.8c1,0,1.9-0.8,1.9-1.9c0-1-0.8-1.9-1.9-1.9c-1,0-1.9,0.8-1.9,1.9
				C171.3,384,172.1,384.8,173.2,384.8z"/>
			<path class="st1" d="M173.2,392.3c1,0,1.9-0.8,1.9-1.9c0-1-0.8-1.9-1.9-1.9c-1,0-1.9,0.8-1.9,1.9
				C171.3,391.5,172.1,392.3,173.2,392.3z"/>
			<path class="st1" d="M173.2,399.9c1,0,1.9-0.8,1.9-1.9c0-1-0.8-1.9-1.9-1.9c-1,0-1.9,0.8-1.9,1.9
				C171.3,399.1,172.1,399.9,173.2,399.9z"/>
			<path class="st1" d="M173.2,407.4c1,0,1.9-0.8,1.9-1.9c0-1-0.8-1.9-1.9-1.9c-1,0-1.9,0.8-1.9,1.9
				C171.3,406.6,172.1,407.4,173.2,407.4z"/>
			<path class="st1" d="M173.2,415c1,0,1.9-0.8,1.9-1.9c0-1-0.8-1.9-1.9-1.9c-1,0-1.9,0.8-1.9,1.9C171.3,414.1,172.1,415,173.2,415z
				"/>
			<path class="st1" d="M173.2,422.5c1,0,1.9-0.8,1.9-1.9c0-1-0.8-1.9-1.9-1.9c-1,0-1.9,0.8-1.9,1.9
				C171.3,421.7,172.1,422.5,173.2,422.5z"/>
			<path class="st1" d="M173.2,430.1c1,0,1.9-0.8,1.9-1.9c0-1-0.8-1.9-1.9-1.9c-1,0-1.9,0.8-1.9,1.9
				C171.3,429.2,172.1,430.1,173.2,430.1z"/>
			<path class="st1" d="M173.2,437.6c1,0,1.9-0.8,1.9-1.9c0-1-0.8-1.9-1.9-1.9c-1,0-1.9,0.8-1.9,1.9
				C171.3,436.8,172.1,437.6,173.2,437.6z"/>
			<path class="st1" d="M173.2,445.2c1,0,1.9-0.8,1.9-1.9c0-1-0.8-1.9-1.9-1.9c-1,0-1.9,0.8-1.9,1.9
				C171.3,444.3,172.1,445.2,173.2,445.2z"/>
			<path class="st1" d="M173.2,452.7c1,0,1.9-0.8,1.9-1.9c0-1-0.8-1.9-1.9-1.9c-1,0-1.9,0.8-1.9,1.9
				C171.3,451.9,172.1,452.7,173.2,452.7z"/>
			<path class="st1" d="M173.2,460.2c1,0,1.9-0.8,1.9-1.9c0-1-0.8-1.9-1.9-1.9c-1,0-1.9,0.8-1.9,1.9
				C171.3,459.4,172.1,460.2,173.2,460.2z"/>
			<path class="st1" d="M173.2,467.8c1,0,1.9-0.8,1.9-1.9c0-1-0.8-1.9-1.9-1.9c-1,0-1.9,0.8-1.9,1.9
				C171.3,467,172.1,467.8,173.2,467.8z"/>
			<path class="st1" d="M173.2,475.3c1,0,1.9-0.8,1.9-1.9c0-1-0.8-1.9-1.9-1.9c-1,0-1.9,0.8-1.9,1.9
				C171.3,474.5,172.1,475.3,173.2,475.3z"/>
			<path class="st1" d="M173.2,482.9c1,0,1.9-0.8,1.9-1.9c0-1-0.8-1.9-1.9-1.9c-1,0-1.9,0.8-1.9,1.9
				C171.3,482.1,172.1,482.9,173.2,482.9z"/>
			<path class="st1" d="M173.2,490.4c1,0,1.9-0.8,1.9-1.9c0-1-0.8-1.9-1.9-1.9c-1,0-1.9,0.8-1.9,1.9
				C171.3,489.6,172.1,490.4,173.2,490.4z"/>
			<path class="st1" d="M173.2,498c1,0,1.9-0.8,1.9-1.9c0-1-0.8-1.9-1.9-1.9c-1,0-1.9,0.8-1.9,1.9C171.3,497.1,172.1,498,173.2,498z
				"/>
			<path class="st1" d="M173.2,505.5c1,0,1.9-0.8,1.9-1.9c0-1-0.8-1.9-1.9-1.9c-1,0-1.9,0.8-1.9,1.9
				C171.3,504.7,172.1,505.5,173.2,505.5z"/>
			<path class="st1" d="M182.2,514.3c0.5-0.9,0.1-2.1-0.9-2.5c-1-0.4-2.1,0-2.5,1c-0.4,1,0.1,2,1,2.4
				C180.6,515.6,181.7,515.2,182.2,514.3z"/>
			<path class="st1" d="M189.2,518.6c0.6-0.8,0.4-2-0.5-2.6c-0.9-0.6-2.1-0.4-2.6,0.5s-0.3,2,0.5,2.6
				C187.4,519.6,188.6,519.4,189.2,518.6z"/>
			<path class="st1" d="M195.3,524.1c0.8-0.7,0.8-1.9,0-2.7c-0.8-0.8-2-0.7-2.7,0c-0.7,0.8-0.7,1.9,0,2.6
				C193.4,524.8,194.6,524.8,195.3,524.1z"/>
			<path class="st1" d="M200.3,530.6c0.9-0.5,1.1-1.7,0.5-2.6c-0.6-0.9-1.8-1.1-2.6-0.4c-0.8,0.6-1,1.8-0.4,2.6
				C198.3,531,199.5,531.2,200.3,530.6z"/>
			<path class="st1" d="M204.1,538c1-0.4,1.4-1.5,1-2.5c-0.4-1-1.6-1.4-2.5-0.9c-0.9,0.5-1.3,1.6-0.9,2.5
				C202.1,537.9,203.1,538.3,204.1,538z"/>
			<path class="st1" d="M214.9,543.6c0-1-0.8-1.9-1.9-1.9c-1,0-1.9,0.8-1.9,1.9c0,1,0.8,1.9,1.9,1.9
				C214.1,545.4,214.9,544.6,214.9,543.6z"/>
			<path class="st1" d="M222.4,543.6c0-1-0.8-1.9-1.9-1.9c-1,0-1.9,0.8-1.9,1.9c0,1,0.8,1.9,1.9,1.9
				C221.6,545.4,222.4,544.6,222.4,543.6z"/>
			<circle class="st1" cx="228" cy="543.6" r="1.9"/>
			<circle class="st1" cx="235.6" cy="543.6" r="1.9"/>
			<circle class="st1" cx="243.1" cy="543.6" r="1.9"/>
			<circle class="st1" cx="250.6" cy="543.6" r="1.9"/>
			<path class="st1" d="M260,543.6c0-1-0.8-1.9-1.9-1.9c-1,0-1.9,0.8-1.9,1.9c0,1,0.8,1.9,1.9,1.9C259.1,545.4,260,544.6,260,543.6z
				"/>
			<path class="st1" d="M267.5,543.6c0-1-0.8-1.9-1.9-1.9c-1,0-1.9,0.8-1.9,1.9c0,1,0.8,1.9,1.9,1.9
				C266.6,545.4,267.5,544.6,267.5,543.6z"/>
			<path class="st1" d="M275,543.6c0-1-0.8-1.9-1.9-1.9c-1,0-1.9,0.8-1.9,1.9c0,1,0.8,1.9,1.9,1.9C274.1,545.4,275,544.6,275,543.6z
				"/>
			<circle class="st1" cx="280.6" cy="543.6" r="1.9"/>
			<path class="st1" d="M290,543.6c0-1-0.8-1.9-1.9-1.9c-1,0-1.9,0.8-1.9,1.9c0,1,0.8,1.9,1.9,1.9C289.2,545.4,290,544.6,290,543.6z
				"/>
			<path class="st1" d="M297.5,543.6c0-1-0.8-1.9-1.9-1.9c-1,0-1.9,0.8-1.9,1.9c0,1,0.8,1.9,1.9,1.9
				C296.7,545.4,297.5,544.6,297.5,543.6z"/>
			<circle class="st1" cx="303.2" cy="543.6" r="1.9"/>
			<path class="st1" d="M173.2,509.3c-1,0-1.9,0.8-1.9,1.9c0,1,0.8,1.9,1.9,1.9c1,0,1.9-0.8,1.9-1.9
				C175,510.1,174.2,509.3,173.2,509.3z"/>
			<path class="st1" d="M173.2,283c-1,0-1.9,0.8-1.9,1.9c0,1,0.8,1.9,1.9,1.9c1,0,1.9-0.8,1.9-1.9C175,283.8,174.2,283,173.2,283z"
				/>
			<path class="st1" d="M207.8,543.6c0-1-0.8-1.9-1.9-1.9c-1,0-1.9,0.8-1.9,1.9c0,1,0.8,1.9,1.9,1.9
				C206.9,545.4,207.8,544.6,207.8,543.6z"/>
			<path class="st1" d="M207.8,252.4c0-1-0.8-1.9-1.9-1.9c-1,0-1.9,0.8-1.9,1.9c0,1,0.8,1.9,1.9,1.9
				C206.9,254.3,207.8,253.5,207.8,252.4z"/>
		</g>
	</g>
	<g>
		<path class="st2" d="M275.6,292.6l-3.9-0.2H267c-0.3,0-0.4-0.3-0.4-0.8c0-0.6,0.1-1,0.4-1.3c0.1-0.1,0.3-0.1,0.5-0.1
			c1.3,0,2-0.2,2-0.7v-18.2c0-0.2-0.1-0.3-0.2-0.3h-2.5c-0.3,0-0.5-0.3-0.6-0.8c0-0.1,0-0.3,0-0.4c0-0.6,0.1-0.9,0.4-0.9h8
			c5.7,0,8.5,1.9,8.5,5.8c0,1.2-0.4,2.2-1.3,3.2c-0.8,0.9-1.9,1.6-3.1,1.9c1.8,0.3,3.2,0.9,4.2,1.9c1,1,1.6,2.4,1.6,3.9
			c0,3.3-1.6,5.5-4.9,6.5C278.5,292.5,277.2,292.6,275.6,292.6z M275.3,278.6c2.8,0,4.2-1.2,4.2-3.7c0-1.5-0.6-2.4-1.7-3
			c-0.9-0.4-2.5-0.6-4.9-0.6v7.3H275.3z M272.9,287.8c0,0.8,0.2,1.4,0.6,1.8c0.4,0.4,1.1,0.6,2.1,0.6c2,0,3.3-0.3,4.1-1
			c0.8-0.7,1.2-1.8,1.2-3.4c0-1.6-0.7-2.8-2.1-3.7c-1.2-0.7-2.6-1.1-4.3-1.1c-0.6,0-1.1,0-1.7,0V287.8z"/>
		<path class="st2" d="M294.1,292.8c-2.3,0-4.1-0.8-5.3-2.3c-1.2-1.5-1.8-3.5-1.8-6c0-2.5,0.8-4.5,2.2-5.9c1.5-1.4,3.3-2.1,5.4-2.1
			h0c1.9,0,3.4,0.6,4.5,1.8c1.1,1.2,1.6,3,1.6,5.2c0,0.5-0.2,0.9-0.7,1.3c-0.4,0.3-1,0.5-1.7,0.5h-8.2c0.2,2.4,1,4,2.5,4.7
			c0.5,0.2,1,0.3,1.5,0.3c0.5,0,1.1-0.1,1.7-0.3c0.6-0.2,1.3-0.5,2-1c0.8-0.5,1.2-0.7,1.4-0.7c0.1,0,0.3,0.1,0.4,0.2
			c0.1,0.1,0.3,0.3,0.5,0.6c0.2,0.3,0.3,0.6,0.3,0.8c0,0.3,0,0.4-0.2,0.5C298.5,292.1,296.4,292.8,294.1,292.8z M297.6,283
			c0-2.7-1-4.1-3-4.1c-1,0-2,0.4-2.9,1.1c-0.9,0.7-1.4,1.7-1.4,3H297.6z"/>
		<path class="st2" d="M325.1,278.7c2.5-1.5,4.7-2.2,6.4-2.2c0.7,0,1.3,0.1,2,0.4c0.6,0.3,1.2,0.7,1.5,1.2c0.7,0.9,1,2.4,1,4.4v7.8
			h2.4c0.3,0,0.4,0.4,0.4,1.1c0,0.7-0.2,1.1-0.6,1.1H331c-0.3,0-0.4-0.3-0.4-0.9c0-0.6,0.1-1,0.4-1.2c0.1-0.1,0.2-0.1,0.3-0.1
			c1.1,0,1.6-0.2,1.6-0.7V285c0-2-0.1-3.3-0.3-4c-0.2-0.6-0.5-1.1-0.9-1.3c-0.4-0.3-0.8-0.4-1.5-0.4c-1.2,0-2.6,0.7-4.3,2v9h2.4
			c0.3,0,0.4,0.4,0.4,1.1c0,0.7-0.2,1.1-0.6,1.1H321c-0.3,0-0.4-0.3-0.4-0.9c0-0.6,0.1-1,0.4-1.2c0.1-0.1,0.2-0.1,0.3-0.1
			c1.1,0,1.6-0.2,1.6-0.7V285c0-2-0.1-3.3-0.3-4c-0.2-0.6-0.5-1.1-0.9-1.3c-0.4-0.3-0.8-0.4-1.5-0.4c-1.2,0-2.6,0.7-4.3,2v9h2.6
			c0.3,0,0.4,0.3,0.4,0.8s-0.1,0.9-0.2,1.1c-0.2,0.2-0.3,0.3-0.4,0.3h-7.9c-0.3,0-0.4-0.3-0.4-0.9c0-0.6,0.1-0.9,0.2-1.1
			c0.2-0.2,0.3-0.3,0.4-0.3h0.2c1.2,0,1.9-0.1,2-0.4c0.1-0.1,0.1-0.2,0.1-0.3v-10.4h-2.8c-0.3,0-0.5-0.3-0.6-0.8c0-0.1,0-0.3,0-0.4
			c0-0.5,0.1-0.8,0.4-0.9c0.6-0.2,1.4-0.4,2.3-0.5c1-0.1,1.6-0.1,1.9-0.1h0.4c0.4,0,0.7,0.1,0.9,0.2c0.1,0.2,0.2,0.6,0.2,1.4v0.3
			c1.6-0.9,3-1.5,4.3-1.8c0.4-0.1,0.8-0.2,1-0.2C322.8,276.5,324.2,277.3,325.1,278.7z"/>
		<path class="st2" d="M341.8,294.4c1.5,0,2.2,0.8,2.3,2.5c0.3,0,0.6-0.2,0.9-0.6c0.2-0.4,0.5-0.8,0.6-1.2c0.2-0.4,0.3-0.8,0.5-1.2
			c0.1-0.4,0.2-0.7,0.3-1c0.1-0.3,0.1-0.5,0.2-0.6l-5.2-13.3h-1.8c-0.3,0-0.4-0.3-0.4-0.9c0-0.6,0.1-0.9,0.2-1.1
			c0.1-0.2,0.3-0.3,0.4-0.3h6.8c0.3,0,0.4,0.3,0.4,0.8s-0.1,0.9-0.2,1.1c-0.2,0.2-0.3,0.3-0.4,0.3c-0.9,0-1.4,0.2-1.4,0.7l3.2,9.3
			l3.7-10h-2c-0.3,0-0.4-0.3-0.4-0.9c0-0.6,0.1-0.9,0.2-1.1c0.1-0.2,0.3-0.2,0.3-0.2h5.9c0.3,0,0.4,0.3,0.4,0.9
			c0,0.9-0.3,1.3-0.8,1.3c-0.4,0-0.7,0-0.9,0.1c-0.2,0.1-0.3,0.3-0.4,0.5l-6.6,16.8c-0.3,0.9-0.9,1.5-1.6,2.1
			c-0.8,0.5-1.7,0.8-2.8,0.8c-1.5,0-2.5-0.5-3.1-1.4c-0.2-0.4-0.3-0.8-0.3-1.4c0-0.6,0.2-1.1,0.6-1.5
			C340.8,294.7,341.3,294.4,341.8,294.4L341.8,294.4z"/>
		<g>
			<path class="st2" d="M266.1,306.4c2.4-3.1,4.4-4.7,6-4.7c0.4,0,0.7,0.1,1.1,0.3c0.1,0,0.1,0,0.2,0c0.1,0,0.1-0.1,0.1-0.1l0.1-0.5
				c0,0,0-0.1,0-0.1c-0.3-0.9-0.9-1.4-1.8-1.4c-1.8,0-3.8,1.1-5.9,3.3c-2.5,2.6-4.5,5.6-6,9c-2.5,6-4.2,10.2-5.1,12.5
				c-0.8,2-2.3,4.2-4.3,6.4c-2.1,2.3-4.2,3.8-6.2,4.3c-1.3,0.3-2.4,0.5-3.1,0.6c2.5-3.2,4.1-6.9,4.6-10.9c0.2-1.4,0.4-5.6,0.4-12.4
				c0-1.3,0.2-2.9,0.6-4.7c0.3-1.7,0.6-2.2,0.8-2.3c0.5-0.3,0.9-0.6,1.1-0.7c2.6-1.8,3.9-3.4,3.9-5c0-0.5-0.3-0.8-0.8-0.8
				c-1.1,0-2.5,1.4-4.5,4.3c-0.6,0.9-0.8,1-0.8,1c-0.6,0.4-1.3,0.6-2.1,0.6c-1.1,0-1.7-0.6-1.9-1.7c-0.2-1.5-0.3-2.7-0.4-3.5
				c-0.4-1.4-1.4-2-3.1-2c-2.2,0-4.3,1-6.2,3.1c-1.9,2-2.9,4.2-2.9,6.4c0,1.5,0.3,2.3,1,2.5c0.1,0,0.1,0,0.2,0
				c0.1,0,0.1-0.1,0.1-0.2c0-0.2,0-0.5-0.1-0.9c0-0.4-0.1-0.7-0.1-0.9c0-1.7,0.6-3.3,1.7-4.8c1.1-1.4,2.4-2.5,4.1-3.1
				c0.8-0.3,1-0.3,1.1-0.3c0.3,0,1.3,0,1.3,2.5v0.8c0,2.8,1.1,4.2,3.2,4.2c0.6,0,1.7-0.3,3.4-0.8c-1.5,2.9-2.5,6.1-3,9.5l-0.5,10
				c-0.2,4.5-0.9,7.5-2,8.9c-0.5,0.6-0.9,1-1.2,1.3c-0.8,0.9-0.9,1.2-0.9,1.4c0,0.8,1.3,0.8,1.8,0.8c1.6,0,3.4-0.5,5.5-1.4
				c1.4-0.6,2.8-1.5,4.1-2.6c2.4-2.1,4.8-5.6,7.1-10.3c2.4-5.1,4.2-9,5.4-11.5C263.2,310.5,264.5,308.5,266.1,306.4z"/>
			<path class="st2" d="M278.2,315.6h-2.6c-0.1,0-0.1,0-0.2,0.1c-0.4,0.6-0.6,1.2-0.8,1.6c-0.9-1.6-2-2.4-3.4-2.4
				c-1.4,0-2.9,0.7-4.5,2c-3.7,3-5.6,6.8-5.6,11.3c0,4.3,1.4,6.5,4.3,6.5c1.1,0,2.1-0.4,3-1.3c0.3-0.3,0.9-1,1.9-2.2
				c0.3,1.2,0.6,1.9,0.8,2.3c0.5,0.9,1.4,1.3,2.5,1.3c1.7,0,3.3-1.5,4.8-4.6c0-0.1,0-0.1,0-0.2c0-0.1-0.1-0.1-0.2-0.1h-0.8
				c-0.1,0-0.1,0-0.2,0.1c-1.6,2.9-2.6,3.5-3.1,3.5c-0.6,0-0.8-0.3-0.8-0.9v-0.4c0-0.3,0.7-2.8,4.1-12.8c0.6-1.9,1-3,1.1-3.2
				c0,0,0,0,0-0.1c0-0.3-0.1-0.4-0.2-0.5C278.2,315.6,278.2,315.6,278.2,315.6z M265.8,333.4c-0.4,0-1.4,0-1.4-2.2
				c0-1,0.1-2.1,0.3-3.2c0.5-2.3,1.3-4.7,2.4-7.1c1.5-3.2,3-4.7,4.4-4.7c1.2,0,1.8,1.1,1.8,3.2c0,0.9-0.2,2.1-0.6,3.6
				c-0.6,2.1-1.5,4.3-2.6,6.3C268.6,332,267.1,333.4,265.8,333.4z"/>
			<path class="st2" d="M285.5,318.6c2.4-1.2,4.8-3.3,7-6.2c2-2.6,3.3-5.1,4-7.5c0.4-1.4,0.7-2.6,0.7-3.4c0-2.2-1.1-2.7-2-2.7
				c-1.2,0-3,1.2-5.4,3.8c-2.5,2.6-4.8,6.5-6.9,11.6c-2.1,5.2-3.2,9.6-3.2,13.1c0,0.5,0.1,1.4,0.4,2.9c0.2,1.1,0.8,2.1,1.7,3
				c1,0.9,2,1.4,3.1,1.4c1.3,0,2.5-0.6,3.6-1.9c0.9-1,1.6-2.2,2-3.6c0-0.1,0-0.1,0-0.2c0-0.1-0.1-0.1-0.2-0.1h-0.8
				c-0.1,0-0.1,0-0.2,0.1c-1.3,2.8-2.8,4.3-4.3,4.3c-1.5,0-2.2-1.2-2.2-3.6c0-2.8,0.7-6.3,2-10.5
				C285.1,318.9,285.3,318.7,285.5,318.6z M295,300.2c0.3,0,0.6,0.1,0.6,0.9c0,1.6-1,4.1-3,7.6c-1.9,3.3-3.5,5.4-4.6,6.4
				c-1.5,1.2-2.3,1.8-2.7,2.1c0-0.1,0-0.1,0-0.2c1.1-3.5,2.5-6.8,4.2-10.1C291.7,302.4,293.6,300.2,295,300.2z"/>
			<path class="st2" d="M295.6,326.1c0.3-0.1,0.5-0.2,0.7-0.2c0.6-0.1,1.1-0.3,1.6-0.4c5-1.5,7.5-3.9,7.5-7.1c0-2.3-1.2-3.4-3.4-3.4
				c-2.8,0-5.3,1.6-7.5,4.8c-2.1,2.9-3.1,5.8-3.1,8.7c0,0.2,0,0.5,0.1,0.9c0.7,3.6,2.5,5.4,5.1,5.4c1.3,0,2.6-0.6,4-1.9
				c1.2-1.1,2.1-2.3,2.6-3.7c0-0.1,0-0.1,0-0.2c0-0.1-0.1-0.1-0.2-0.1h-0.7c-0.1,0-0.1,0-0.2,0.1c-2.1,2.9-3.9,4.4-5.3,4.4
				c-1.5,0-2.2-1-2.2-3.1c0-0.8,0.1-1.8,0.4-3.1C295.2,326.3,295.5,326.1,295.6,326.1z M301.7,316.3c0.2,0,0.8,0,0.8,1.4
				c0,0.6-0.2,1.4-0.5,2.5c-0.3,0.9-1,1.8-2.2,2.7c-1.1,0.9-2.2,1.4-3.2,1.6c-0.2,0-0.4,0.1-0.6,0c0-0.2,0.2-0.6,0.5-1.4
				C298.2,318.5,300,316.3,301.7,316.3z"/>
			<path class="st2" d="M323.8,329h-0.4c-0.1,0-0.1,0-0.2,0.1c-0.7,1.1-1.2,1.9-1.5,2.5c-0.8,1.2-1.7,1.9-2.4,1.9
				c-0.7,0-0.9-0.3-0.9-1c0-0.4,0.4-1.9,2.4-6.3c1.7-3.6,2.5-6,2.5-7.4c0-2.4-1.1-3.5-3.2-3.5c-1.7,0-3.9,1.7-6.7,5.1
				c0-0.9,0.1-1.3,0.1-1.4c0,0,0-0.1,0-0.1c0,0,0,0,0-0.1c0-2.3-0.9-3.4-2.6-3.4c-0.4,0-0.8,0.1-1.2,0.2c-0.2,0.1-0.5,0.2-1.4,1.1
				c-0.7,0.7-1.1,1.2-1.1,1.6v0.4c0,0.1,0.1,0.2,0.2,0.2h0.6c0.1,0,0.1,0,0.2-0.1c1-1.7,1.7-2,2.1-2c0.1,0,0.4,0,0.4,0.8
				c0,0.9-1,3.7-2.9,8.5c-2.6,6.5-2.9,7.6-2.9,7.9v0.3c0,0.1,0.1,0.2,0.2,0.2c0.4,0.1,0.9,0.1,1.6,0.1c1.4,0,1.6-0.1,1.6-0.3
				c0.6-1.5,1-2.5,1.3-3.1c1.8-5,4-9,6.4-11.9c1.4-1.7,2.5-2.5,3.4-2.5c0.4,0,0.9,0.1,0.9,1.2c0,0.7-0.8,2.8-2.3,6
				c-1.6,3.3-2.3,5.6-2.3,7.1c0,2.5,1,3.7,3,3.7c1.3,0,2.7-0.9,4.1-2.5c1-1.2,1.5-2.1,1.5-2.7c0-0.2-0.1-0.4-0.2-0.5
				C323.9,329.1,323.9,329,323.8,329z"/>
			<path class="st2" d="M336.1,329h-0.6c-0.1,0-0.1,0-0.2,0.1c-1.4,2.8-2.7,4.3-4,4.3c-0.4,0-1-0.1-1-1.3c0-0.6,0.7-2.9,2.1-7
				l3.5-10h3.4c0.1,0,0.1,0,0.2-0.1c0.2-0.2,0.3-0.6,0.5-1c0-0.1,0-0.1,0-0.2c0-0.1-0.1-0.1-0.2-0.1h-3.4l3.2-9c0-0.1,0-0.1,0-0.2
				c0-0.1-0.1-0.1-0.2-0.1h-3.1c-0.1,0-0.2,0.1-0.2,0.1l-3.3,9.1h-3.6c-0.1,0-0.2,0.1-0.2,0.1c-0.2,0.4-0.3,0.7-0.4,0.9
				c0,0.1,0,0.1,0,0.2c0,0.1,0.1,0.1,0.2,0.1h3.5c-3.4,9.1-5,14.3-5,15.9c0,2.4,1.1,3.7,3.4,3.7c2,0,3.7-1.4,5-4
				c0.2-0.4,0.4-0.7,0.5-0.9c0.1-0.2,0.1-0.4,0-0.6C336.2,329.1,336.1,329,336.1,329z"/>
			<path class="st2" d="M346.8,329.9h-0.6c-0.1,0-0.1,0-0.2,0.1c-0.8,1.1-1.3,1.8-1.4,2c-0.7,0.9-1.4,1.3-2,1.3
				c-0.3,0-0.7-0.1-0.7-0.9c0-0.7,0.7-2.9,2.2-6.5c1.5-3.7,2.2-6.1,2.2-7.4c0-2.2-1-3.3-2.9-3.3c-0.5,0-1,0.2-1.6,0.5
				c-0.3,0.1-0.7,0.5-1.3,1.2c-0.8,0.9-0.9,1.3-0.9,1.5c0,0.3,0.2,0.4,0.3,0.4h0.5c0.1,0,0.2,0,1.1-1.1c0.7-0.8,1.1-0.9,1.3-0.9
				c0.2,0,0.5,0,0.5,0.9c0,0.9-0.7,3.1-2.1,6.3c-1.4,3.3-2.2,5.7-2.2,7.2c0,2.4,1.1,3.6,3.2,3.6c1.6,0,3.1-1,4.3-3.1
				c0.5-0.9,0.6-1.1,0.6-1.2C347.1,330,346.9,329.9,346.8,329.9z"/>
			<path class="st2" d="M346.5,307.8c-0.8,0-1.5,0.5-2,1.5c-0.4,0.7-0.5,1.3-0.5,1.9c0,1.7,0.8,2,1.5,2c0.8,0,1.4-0.4,2-1.3
				c0.5-0.7,0.7-1.5,0.7-2.3C348.1,308.1,347.2,307.8,346.5,307.8z"/>
			<path class="st2" d="M366.5,329h-0.4c-0.1,0-0.1,0-0.2,0.1c-0.7,1.1-1.2,1.9-1.6,2.5c-0.8,1.2-1.7,1.9-2.4,1.9
				c-0.7,0-0.9-0.3-0.9-1c0-0.7,0.8-2.8,2.4-6.3c1.7-3.6,2.5-6,2.5-7.4c0-2.4-1.1-3.5-3.2-3.5c-1.7,0-3.9,1.7-6.7,5.1
				c0-0.9,0.1-1.3,0.1-1.4c0,0,0-0.1,0-0.1c0,0,0,0,0-0.1c0-2.3-0.9-3.4-2.6-3.4c-0.4,0-0.8,0.1-1.2,0.2c-0.2,0.1-0.5,0.2-1.4,1.1
				c-0.7,0.7-1.1,1.2-1.1,1.6v0.4c0,0.1,0.1,0.2,0.2,0.2h0.6c0.1,0,0.1,0,0.2-0.1c1-1.7,1.7-2,2.1-2c0.1,0,0.4,0,0.4,0.8
				c0,0.9-1,3.7-2.9,8.5c-2.6,6.5-2.9,7.6-2.9,7.9v0.3c0,0.1,0.1,0.2,0.2,0.2c0.4,0.1,0.9,0.1,1.6,0.1c1.4,0,1.6-0.1,1.6-0.3
				c0.6-1.5,1-2.5,1.3-3.1c1.8-5,4-9,6.4-11.9c1.4-1.7,2.5-2.5,3.4-2.5c0.4,0,0.9,0.1,0.9,1.2c0,0.7-0.8,2.8-2.3,6
				c-1.6,3.3-2.3,5.6-2.3,7.1c0,2.5,1,3.7,3,3.7c1.3,0,2.7-0.9,4.1-2.5c1-1.2,1.5-2.1,1.5-2.7c0-0.2-0.1-0.4-0.2-0.5
				C366.6,329.1,366.6,329,366.5,329z"/>
			<path class="st2" d="M372.9,326.1c0.3-0.1,0.5-0.2,0.7-0.2c0.6-0.1,1.1-0.3,1.6-0.4c5-1.5,7.5-3.9,7.5-7.1c0-2.3-1.2-3.4-3.4-3.4
				c-2.8,0-5.3,1.6-7.5,4.8c-2.1,2.9-3.1,5.8-3.1,8.7c0,0.2,0,0.5,0.1,0.9c0.7,3.6,2.5,5.4,5.1,5.4c1.3,0,2.6-0.6,4-1.9
				c1.2-1.1,2.1-2.3,2.6-3.7c0-0.1,0-0.1,0-0.2c0-0.1-0.1-0.1-0.2-0.1h-0.7c-0.1,0-0.1,0-0.2,0.1c-2.1,2.9-3.9,4.4-5.3,4.4
				c-1.5,0-2.2-1-2.2-3.1c0-0.8,0.1-1.8,0.4-3.1C372.6,326.3,372.8,326.1,372.9,326.1z M379,316.3c0.2,0,0.8,0,0.8,1.4
				c0,0.6-0.2,1.4-0.5,2.5c-0.3,0.9-1,1.8-2.2,2.7c-1.1,0.9-2.2,1.4-3.2,1.6c-0.2,0-0.4,0.1-0.6,0c0-0.2,0.2-0.6,0.5-1.4
				C375.6,318.5,377.3,316.3,379,316.3z"/>
		</g>
	</g>
	<g>
		<g>
			<path class="st2" d="M250.8,459.8c-0.4,0-0.6-0.4-0.6-1.3c0-0.6,0.1-1,0.4-1h9.3c0.3,0,0.4,0.4,0.4,1.1c0,0.7-0.2,1.1-0.5,1.1
				h-2.8v8.1h9.5V460c0-0.2-0.1-0.3-0.2-0.3h-2.6c-0.3,0-0.5-0.3-0.6-0.8c0-0.1,0-0.3,0-0.4c0-0.6,0.1-1,0.4-1h9.2
				c0.3,0,0.4,0.4,0.4,1.1c0,0.7-0.2,1.1-0.5,1.1h-2.8v19.1h2.6c0.3,0,0.4,0.3,0.4,0.9c0,0.6-0.1,0.9-0.2,1.1
				c-0.2,0.2-0.3,0.2-0.4,0.2h-8.3c-0.3,0-0.4-0.3-0.4-0.8s0.1-1,0.4-1.3c0.1-0.1,0.3-0.1,0.5-0.1c1.3,0,2-0.2,2-0.7v-8h-9.5v8.6
				h2.6c0.3,0,0.4,0.3,0.4,0.9c0,0.6-0.1,0.9-0.2,1.1c-0.2,0.2-0.3,0.3-0.4,0.3H251c-0.2,0-0.4-0.3-0.4-0.8c0-0.6,0.1-1,0.4-1.3
				c0.1-0.1,0.3-0.1,0.5-0.1c1.3,0,2-0.2,2-0.7V460c0-0.2-0.1-0.3-0.2-0.3H250.8z"/>
			<path class="st2" d="M286.5,467.3c0.1,0.3,0.2,0.6,0.2,1.1c0,0.5-0.2,0.9-0.6,1.3c-0.4,0.4-0.9,0.6-1.5,0.6c-1,0-1.6-0.4-2-1.3
				c-0.1-0.3-0.2-0.6-0.2-1c0-0.8,0.4-1.4,1.2-1.9c1.1-0.8,2.9-1.1,5.3-1.1c1.9,0,3.3,0.6,4.2,1.7c0.7,0.9,1.1,2.2,1.1,3.9v8.1h2.6
				c0.3,0,0.4,0.3,0.4,0.9c0,0.3-0.1,0.5-0.2,0.8c-0.1,0.3-0.3,0.4-0.5,0.5c-0.6,0.2-1.4,0.3-2.5,0.3c-1.1,0-1.7,0-1.8-0.1
				c-0.1,0-0.3-0.1-0.4-0.3c-0.2-0.1-0.3-0.5-0.5-1c-1.3,0.9-2.8,1.4-4.5,1.4c-1.7,0-3-0.4-3.9-1.2c-0.9-0.8-1.3-1.9-1.3-3.2
				c0-1.6,0.6-2.9,1.7-3.7c1.1-0.8,2.4-1.3,4-1.3h3.9c0-1.7-0.1-2.9-0.4-3.4c-0.3-0.5-0.6-0.9-1-1c-0.4-0.2-0.9-0.3-1.6-0.3H286.5z
				 M287.4,479c1.3,0,2.6-0.5,3.8-1.6v-3H288c-1,0-1.7,0.1-2.1,0.4c-0.7,0.5-1.1,1.1-1.1,1.7c0,1.2,0.5,2,1.5,2.3
				C286.7,478.9,287,479,287.4,479z"/>
			<path class="st2" d="M309.6,466.6c1.8-1,3.2-1.5,4.4-1.5h0.5c0.6,0,1.4,0.2,2.1,0.6c0.8,0.4,1.5,0.9,2,1.6c1.2,1.5,1.8,3.5,1.8,6
				c0,2.5-0.7,4.5-2.1,5.9c-1.4,1.4-3.2,2.1-5.3,2.1c-0.9,0-1.7-0.2-2.7-0.7c-0.2-0.1-0.4-0.2-0.5-0.2v5.3h3.5
				c0.3,0,0.4,0.3,0.4,0.9c0,0.6-0.1,0.9-0.2,1.1c-0.2,0.2-0.3,0.3-0.4,0.3h-8.8c-0.3,0-0.4-0.3-0.4-0.9c0-0.6,0.1-0.9,0.2-1.1
				c0.2-0.2,0.3-0.3,0.4-0.3c1.3,0,2-0.1,2.2-0.4c0.1-0.1,0.1-0.2,0.1-0.3v-17.2h-2.8c-0.4,0-0.6-0.4-0.6-1.2c0-0.5,0.1-0.8,0.4-0.8
				c0.5-0.2,1.2-0.3,2.2-0.4c1-0.1,1.7-0.2,2.3-0.2s0.9,0,1,0.1c0.2,0.1,0.3,0.4,0.3,0.9V466.6z M309.9,478c0.7,0.6,1.7,0.9,2.9,0.9
				c2,0,3.3-0.9,4-2.8c0.3-0.8,0.4-1.7,0.4-2.8c0-2-0.5-3.4-1.4-4.3c-0.7-0.7-1.5-1-2.5-1h0c-0.9,0-1.8,0.3-2.6,0.8
				c-0.3,0.2-0.6,0.5-0.8,0.8V478z"/>
			<path class="st2" d="M334.4,466.6c1.8-1,3.2-1.5,4.4-1.5h0.5c0.6,0,1.4,0.2,2.1,0.6c0.8,0.4,1.5,0.9,2,1.6c1.2,1.5,1.8,3.5,1.8,6
				c0,2.5-0.7,4.5-2.1,5.9c-1.4,1.4-3.2,2.1-5.3,2.1c-0.9,0-1.7-0.2-2.7-0.7c-0.2-0.1-0.4-0.2-0.5-0.2v5.3h3.5
				c0.3,0,0.4,0.3,0.4,0.9c0,0.6-0.1,0.9-0.2,1.1c-0.2,0.2-0.3,0.3-0.4,0.3h-8.8c-0.3,0-0.4-0.3-0.4-0.9c0-0.6,0.1-0.9,0.2-1.1
				c0.2-0.2,0.3-0.3,0.4-0.3c1.3,0,2-0.1,2.2-0.4c0.1-0.1,0.1-0.2,0.1-0.3v-17.2h-2.8c-0.4,0-0.6-0.4-0.6-1.2c0-0.5,0.1-0.8,0.4-0.8
				c0.5-0.2,1.2-0.3,2.2-0.4c1-0.1,1.7-0.2,2.3-0.2c0.6,0,0.9,0,1,0.1c0.2,0.1,0.3,0.4,0.3,0.9V466.6z M334.7,478
				c0.7,0.6,1.7,0.9,2.9,0.9c2,0,3.3-0.9,4-2.8c0.3-0.8,0.4-1.7,0.4-2.8c0-2-0.5-3.4-1.4-4.3c-0.7-0.7-1.5-1-2.5-1h0
				c-0.9,0-1.8,0.3-2.6,0.8c-0.3,0.2-0.6,0.5-0.8,0.8V478z"/>
			<path class="st2" d="M355.6,483.1c1.5,0,2.2,0.8,2.3,2.5c0.3,0,0.6-0.2,0.9-0.6c0.2-0.4,0.5-0.8,0.6-1.2c0.2-0.4,0.3-0.8,0.5-1.2
				c0.1-0.4,0.2-0.7,0.3-1c0.1-0.3,0.1-0.5,0.2-0.6l-5.2-13.3h-1.8c-0.3,0-0.4-0.3-0.4-0.9c0-0.6,0.1-0.9,0.2-1.1
				c0.1-0.2,0.3-0.3,0.4-0.3h6.8c0.3,0,0.4,0.3,0.4,0.8s-0.1,0.9-0.2,1.1c-0.2,0.2-0.3,0.3-0.4,0.3c-0.9,0-1.4,0.2-1.4,0.7l3.2,9.3
				l3.7-10h-2c-0.3,0-0.4-0.3-0.4-0.9c0-0.6,0.1-0.9,0.2-1.1c0.1-0.2,0.3-0.2,0.4-0.2h5.9c0.3,0,0.4,0.3,0.4,0.9
				c0,0.9-0.3,1.3-0.8,1.3c-0.4,0-0.7,0-0.9,0.1c-0.2,0.1-0.3,0.3-0.4,0.5l-6.6,16.8c-0.3,0.9-0.9,1.5-1.6,2.1
				c-0.8,0.5-1.7,0.8-2.8,0.8c-1.5,0-2.5-0.5-3.1-1.4c-0.2-0.4-0.3-0.8-0.3-1.4c0-0.6,0.2-1.1,0.6-1.5
				C354.7,483.3,355.1,483.1,355.6,483.1L355.6,483.1z"/>
		</g>
		<g>
			<path class="st2" d="M223.4,499.5c0.2,0,0.2,0.2,0.2,0.5s-0.1,0.6-0.2,0.8c-0.1,0.1-0.2,0.1-0.4,0.1c-0.5,0-0.8,0.2-0.9,0.6
				l-4.9,12.8c-0.1,0.1-0.2,0.2-0.6,0.2c-0.3,0-0.5-0.1-0.6-0.2l-5.3-13.3h-1.1c-0.2,0-0.3-0.2-0.3-0.5s0-0.6,0.1-0.7
				c0.1-0.1,0.2-0.2,0.2-0.2h4.7c0.2,0,0.2,0.2,0.2,0.5c0,0.4-0.1,0.6-0.2,0.7c-0.1,0.1-0.2,0.2-0.2,0.2c-0.8,0-1.2,0.1-1.2,0.2
				c0,0.1,0,0.1,0.1,0.2l3.6,9.4l3.7-9.9h-1.5c-0.2,0-0.3-0.2-0.3-0.5c0-0.4,0-0.6,0.1-0.7c0.1-0.1,0.2-0.2,0.2-0.2H223.4z"/>
			<path class="st2" d="M223.9,514.2c-0.2,0-0.2-0.2-0.2-0.5c0-0.4,0.1-0.6,0.2-0.8c0.1-0.1,0.2-0.1,0.4-0.1c0.5,0,0.8-0.2,0.9-0.6
				l5-12.8c0.1-0.1,0.2-0.2,0.6-0.2s0.5,0.1,0.6,0.2l5.2,13.3h1.1c0.2,0,0.3,0.2,0.3,0.5c0,0.4,0,0.6-0.1,0.7
				c-0.1,0.1-0.2,0.2-0.2,0.2h-4.7c-0.2,0-0.2-0.2-0.2-0.5c0-0.4,0-0.6,0.1-0.7c0.1-0.1,0.2-0.2,0.3-0.2c0.8,0,1.2-0.1,1.2-0.2
				c0-0.1,0-0.1-0.1-0.2l-1.2-3h-5l-1.4,3.5h1.7c0.2,0,0.3,0.2,0.3,0.5c0,0.4,0,0.6-0.1,0.7c-0.1,0.1-0.2,0.2-0.2,0.2H223.9z
				 M228.5,507.9h3.8l-1.9-4.9L228.5,507.9z"/>
			<path class="st2" d="M239.8,500.2l0-0.2c0-0.1,0-0.2,0.1-0.3c0-0.1,0.1-0.2,0.2-0.2h5.8c0.2,0,0.2,0.2,0.2,0.7
				c0,0.5-0.1,0.7-0.3,0.7H244v11.8h4.6l0.8-1.5c0.1-0.1,0.2-0.2,0.4-0.2c0.2,0,0.4,0,0.6,0.1c0.2,0.1,0.3,0.2,0.3,0.3
				c0,0,0,0.1,0,0.1l-0.9,2.7h-9.4c-0.1,0-0.2-0.2-0.2-0.5c0-0.3,0.1-0.6,0.3-0.8c0.1-0.1,0.2-0.1,0.3-0.1c0.8,0,1.3-0.1,1.3-0.4
				v-11.4c0-0.1,0-0.2-0.1-0.2h-1.6c-0.2,0-0.3-0.2-0.4-0.5C239.8,500.3,239.8,500.2,239.8,500.2z"/>
			<path class="st2" d="M253.2,500.9c-0.2,0-0.4-0.3-0.4-0.8c0-0.4,0.1-0.6,0.3-0.6h10.7v2.8c0,0.2-0.2,0.3-0.7,0.3
				c-0.5,0-0.7-0.1-0.7-0.2c0-0.5-0.1-0.9-0.2-1.1c-0.3-0.3-0.7-0.4-1.4-0.4H257v4.9h2.5c0.3,0,0.5-0.1,0.6-0.3
				c0.1-0.2,0.1-0.6,0.1-1.2c0-0.1,0.2-0.2,0.5-0.2c0.4,0,0.6,0,0.7,0.1c0.1,0.1,0.1,0.2,0.1,0.2v4.2c0,0.3-0.2,0.4-0.7,0.4
				c-0.5,0-0.7-0.1-0.7-0.3v-1.5H257v5.3h5.2l0.7-1.5c0.1-0.1,0.2-0.2,0.4-0.2c0.6,0,0.9,0.1,0.9,0.4c0,0,0,0.1,0,0.1l-0.9,2.7h-10
				c-0.2,0-0.3-0.2-0.3-0.5c0-0.4,0.1-0.6,0.2-0.8c0.1-0.1,0.2-0.1,0.3-0.1c0.8,0,1.3-0.1,1.3-0.4v-11.4c0-0.1,0-0.1-0.1-0.1H253.2z
				"/>
			<path class="st2" d="M266.8,500.1c0-0.4,0.1-0.6,0.3-0.6h3.4l7.7,11.3v-9.8c0-0.1,0-0.2-0.1-0.2h-1.6c-0.2,0-0.3-0.2-0.4-0.5
				c0-0.1,0-0.2,0-0.3c0-0.4,0.1-0.6,0.3-0.6h5.2c0.2,0,0.2,0.2,0.2,0.7c0,0.5-0.1,0.7-0.3,0.7h-1.7v13.3c0,0.1-0.2,0.2-0.7,0.2
				c-0.5,0-0.7-0.1-0.8-0.2l-7.8-11v9.6h1.6c0.2,0,0.3,0.2,0.3,0.5c0,0.4,0,0.6-0.1,0.7c-0.1,0.1-0.2,0.1-0.3,0.1h-4.6
				c-0.2,0-0.2-0.2-0.2-0.5c0-0.3,0.1-0.6,0.3-0.8c0.1-0.1,0.2-0.1,0.3-0.1c0.8,0,1.3-0.1,1.3-0.4v-11.4c0-0.1,0-0.2-0.1-0.2h-1.6
				c-0.2,0-0.3-0.2-0.4-0.5C266.8,500.3,266.8,500.2,266.8,500.1z"/>
			<path class="st2" d="M292.6,512.9c0.2,0,0.3,0.2,0.3,0.5c0,0.4-0.1,0.6-0.2,0.7c-0.1,0.1-0.2,0.2-0.2,0.2h-5.2
				c-0.2,0-0.2-0.2-0.2-0.5c0-0.4,0.1-0.6,0.3-0.8c0.1-0.1,0.2-0.1,0.5-0.1c0.7,0,1.1-0.1,1.1-0.4V501h-3.3l-0.4,1.4
				c-0.1,0.2-0.2,0.3-0.5,0.3c-0.3,0-0.5-0.1-0.7-0.3c-0.1-0.1-0.1-0.1-0.1-0.2v0l0.4-2.7h11.3l0.4,2.7v0c0,0.2-0.2,0.4-0.5,0.5
				c-0.1,0-0.2,0-0.3,0c-0.3,0-0.4-0.1-0.5-0.3l-0.4-1.4H291v11.8H292.6z"/>
			<path class="st2" d="M304.1,512.9c0.2,0,0.3,0.2,0.3,0.5c0,0.4,0,0.6-0.1,0.7c-0.1,0.1-0.2,0.2-0.3,0.2h-5.2
				c-0.1,0-0.2-0.2-0.2-0.5c0-0.3,0.1-0.6,0.3-0.8c0.1-0.1,0.2-0.1,0.3-0.1c0.8,0,1.3-0.1,1.3-0.4v-11.4c0-0.1,0-0.2-0.1-0.2h-1.6
				c-0.2,0-0.3-0.2-0.4-0.5c0-0.1,0-0.2,0-0.3c0-0.4,0.1-0.6,0.3-0.6h5.8c0.2,0,0.2,0.2,0.2,0.7c0,0.5-0.1,0.7-0.3,0.7h-1.8v11.9
				H304.1z"/>
			<path class="st2" d="M307.4,500.1c0-0.4,0.1-0.6,0.3-0.6h3.4l7.7,11.3v-9.8c0-0.1,0-0.2-0.1-0.2h-1.6c-0.2,0-0.3-0.2-0.4-0.5
				c0-0.1,0-0.2,0-0.3c0-0.4,0.1-0.6,0.3-0.6h5.2c0.2,0,0.2,0.2,0.2,0.7c0,0.5-0.1,0.7-0.3,0.7h-1.7v13.3c0,0.1-0.2,0.2-0.7,0.2
				s-0.7-0.1-0.8-0.2l-7.8-11v9.6h1.6c0.2,0,0.3,0.2,0.3,0.5c0,0.4,0,0.6-0.1,0.7c-0.1,0.1-0.2,0.1-0.3,0.1h-4.6
				c-0.2,0-0.2-0.2-0.2-0.5c0-0.3,0.1-0.6,0.3-0.8c0.1-0.1,0.2-0.1,0.3-0.1c0.8,0,1.3-0.1,1.3-0.4v-11.4c0-0.1,0-0.2-0.1-0.2h-1.6
				c-0.2,0-0.3-0.2-0.4-0.5C307.4,500.3,307.4,500.2,307.4,500.1z"/>
			<path class="st2" d="M325.5,500.9c-0.2,0-0.4-0.3-0.4-0.8c0-0.4,0.1-0.6,0.3-0.6h10.7v2.8c0,0.2-0.2,0.3-0.7,0.3
				c-0.5,0-0.7-0.1-0.7-0.2c0-0.5-0.1-0.9-0.2-1.1c-0.3-0.3-0.7-0.4-1.4-0.4h-3.8v4.9h2.5c0.3,0,0.5-0.1,0.6-0.3
				c0.1-0.2,0.1-0.6,0.1-1.2c0-0.1,0.2-0.2,0.5-0.2c0.4,0,0.6,0,0.7,0.1c0.1,0.1,0.1,0.2,0.1,0.2v4.2c0,0.3-0.2,0.4-0.7,0.4
				c-0.5,0-0.7-0.1-0.7-0.3v-1.5h-3.1v5.3h5.2l0.7-1.5c0.1-0.1,0.2-0.2,0.4-0.2c0.6,0,0.9,0.1,0.9,0.4c0,0,0,0.1,0,0.1l-0.9,2.7h-10
				c-0.2,0-0.3-0.2-0.3-0.5c0-0.4,0.1-0.6,0.2-0.8c0.1-0.1,0.2-0.1,0.3-0.1c0.8,0,1.3-0.1,1.3-0.4v-11.4c0-0.1,0-0.1-0.1-0.1H325.5z
				"/>
			<path class="st2" d="M340.2,501.4c-0.5-0.3-0.7-0.7-0.7-1.3c0-0.4,0.1-0.7,0.4-1c0.3-0.3,0.6-0.4,0.8-0.4h0
				c0.5,0,0.9,0.1,1.1,0.4c0.3,0.3,0.4,0.6,0.5,1c0,1.1-0.9,2.4-2.6,3.7c-0.2,0-0.3-0.1-0.4-0.2c-0.1-0.1-0.2-0.2-0.2-0.4
				C339.8,502.5,340.2,501.9,340.2,501.4z"/>
			<path class="st2" d="M350.1,499.3L350.1,499.3c1.1,0,2,0.2,2.9,0.7c1,0.5,1.5,1.2,1.5,2.1c0,0.4-0.1,0.8-0.4,1.1
				c-0.3,0.3-0.6,0.4-1.1,0.4c-0.4,0-0.8-0.1-1.1-0.4c-0.3-0.3-0.4-0.6-0.4-1.1c0-0.3,0.1-0.6,0.3-0.9c-0.4-0.2-0.9-0.3-1.4-0.3
				c-1,0-1.7,0.2-2.3,0.6c-0.5,0.4-0.8,0.9-0.8,1.6c0,0.5,0.3,1,0.8,1.4c0.3,0.2,0.6,0.4,1,0.6l1.3,0.7c1.4,0.7,2.4,1.4,3,2
				c0.7,0.8,1.1,1.7,1.1,2.8c0,1.1-0.5,2.1-1.4,2.8c-0.9,0.8-2.1,1.1-3.6,1.1c-1.1,0-2.1-0.2-3.1-0.7c-1.1-0.5-1.7-1.2-1.7-2
				c0-0.4,0.1-0.8,0.4-1.1c0.3-0.3,0.6-0.4,1.1-0.4c0.4,0,0.8,0.1,1.1,0.4c0.3,0.3,0.4,0.6,0.4,1c0,0.3-0.1,0.7-0.3,1
				c0.4,0.2,0.9,0.3,1.6,0.3c1.1,0,1.9-0.2,2.5-0.6c0.6-0.4,0.9-1,0.9-1.8c0-0.8-0.7-1.5-2-2.3c-0.4-0.2-0.8-0.4-1.2-0.7l-1.4-0.7
				c-1.8-0.9-2.7-2.2-2.7-3.8c0-1.2,0.5-2.1,1.4-2.7C347.6,499.7,348.7,499.3,350.1,499.3z"/>
			<path class="st2" d="M363.8,500.9c-0.2,0-0.4-0.3-0.4-0.8c0-0.4,0.1-0.6,0.3-0.6h5.7c2.6,0,4.4,0.6,5.5,1.8
				c1.1,1.2,1.6,3,1.6,5.5c0,2.5-0.7,4.4-2.2,5.7c-1.3,1.1-3,1.7-4.9,1.7H364c-0.2,0-0.3-0.2-0.3-0.5c0-0.3,0.1-0.6,0.3-0.8
				c0-0.1,0.2-0.1,0.6-0.1c0.3,0,0.6,0,0.8-0.1c0.2-0.1,0.3-0.2,0.3-0.3v-11.4c0-0.1,0-0.1-0.1-0.1H363.8z M367.6,512.7h1.4
				c1.4,0,2.6-0.5,3.6-1.4c1-1,1.6-2.3,1.6-4.1c0-3-0.9-5-2.8-5.8c-0.6-0.3-1.3-0.4-2.1-0.4h-1.7V512.7z"/>
			<path class="st2" d="M378.6,514.2c-0.2,0-0.2-0.2-0.2-0.5c0-0.4,0.1-0.6,0.2-0.8c0.1-0.1,0.2-0.1,0.4-0.1c0.5,0,0.8-0.2,0.9-0.6
				l5-12.8c0.1-0.1,0.2-0.2,0.6-0.2c0.3,0,0.5,0.1,0.6,0.2l5.2,13.3h1.1c0.2,0,0.3,0.2,0.3,0.5c0,0.4,0,0.6-0.1,0.7
				c-0.1,0.1-0.2,0.2-0.2,0.2h-4.7c-0.2,0-0.2-0.2-0.2-0.5c0-0.4,0.1-0.6,0.1-0.7c0.1-0.1,0.2-0.2,0.3-0.2c0.8,0,1.2-0.1,1.2-0.2
				c0-0.1,0-0.1-0.1-0.2l-1.2-3h-4.9l-1.4,3.5h1.7c0.2,0,0.3,0.2,0.3,0.5c0,0.4,0,0.6-0.1,0.7c-0.1,0.1-0.2,0.2-0.2,0.2H378.6z
				 M383.2,507.9h3.8l-1.9-4.9L383.2,507.9z"/>
			<path class="st2" d="M395.8,514.2c-0.2,0-0.2-0.2-0.2-0.5c0-0.4,0.1-0.6,0.3-0.8c0.1-0.1,0.1-0.1,0.2-0.1h1.5
				c0.6,0,0.9-0.1,1-0.2c0-0.1,0-0.1,0-0.2v-3.7l-4.3-7.9h-1.1c-0.2,0-0.3-0.2-0.3-0.5s0-0.6,0.1-0.7c0.1-0.1,0.2-0.2,0.2-0.2h4.8
				c0.2,0,0.2,0.2,0.2,0.5s0,0.6-0.1,0.7c-0.1,0.1-0.2,0.2-0.3,0.2c-0.7,0-1,0.1-1,0.3c0,0.1,0,0.1,0.1,0.2l2.8,5.6l3.1-6.1h-1.5
				c-0.2,0-0.3-0.2-0.3-0.5c0-0.4,0-0.6,0.1-0.7c0.1-0.1,0.2-0.2,0.2-0.2h4.3c0.2,0,0.2,0.2,0.2,0.5s-0.1,0.6-0.2,0.8
				c-0.1,0.1-0.2,0.1-0.4,0.1c-0.4,0-0.7,0.1-0.9,0.4l-3.9,7.4v4.1h2.4c0.2,0,0.3,0.2,0.3,0.5c0,0.4,0,0.6-0.1,0.7
				c-0.1,0.1-0.2,0.2-0.3,0.2H395.8z"/>
		</g>
	</g>
	<g>
		<defs>
			<polygon id="SVGID_1_" points="475,420.4 467.2,400 475,379.6 139,379.6 146.8,400 139,420.4 			"/>
		</defs>
		<use xlink:href="#SVGID_1_"  style="overflow:visible;fill:#604D48;"/>
		<clipPath id="SVGID_2_">
			<use xlink:href="#SVGID_1_"  style="overflow:visible;"/>
		</clipPath>
		<rect x="134.1" y="384.1" class="st3" width="345.7" height="2"/>
		<rect x="134.1" y="413.9" class="st3" width="345.7" height="2"/>
	</g>
	<path class="st1" d="M360.1,394.8c-0.4-4.7-4.6-8.4-9.6-8.4c-2.3,0-7.5,0.9-11.6,7.8h-12.1c-0.3-1.7-0.9-3.3-1.7-4.7l1.9-1.9
		c1.2,0.3,2.4,0.4,3.6,0.4c4.2,0,7.7-2,9.2-5.4c1.3-2.9,0.9-6.3-1-8.6c-0.9-1.1-2-1.9-3.3-2.3c-0.4-1.2-1.2-2.4-2.3-3.4
		c-1.4-1.2-3.2-1.9-5.1-1.9c-2.9,0-5.6,1.5-7.3,4c-1,1.6-2.3,4.6-1.3,9.3l-3.7,3.7c-1.1-0.1-2.2,0-3.2,0.2v-15.3
		c8.5-4.8,8.4-11.2,8.1-13.3c-0.7-4.4-4-7.7-8.2-8.1c-2-0.2-3.8,0.3-5.2,1.2c-1.5-0.9-3.3-1.4-5.2-1.2c-4.2,0.3-7.6,3.6-8.3,8
		c-0.3,2-0.5,8.4,7.7,13.2v15.3c-0.9-0.2-1.9-0.2-2.9-0.1l-3.6-3.6c1-4.6-0.3-7.7-1.3-9.2c-1.7-2.5-4.4-4-7.3-4
		c-1.9,0-3.7,0.7-5.1,1.8c-1.1,0.9-1.9,2.1-2.3,3.3c-1.3,0.5-2.4,1.2-3.4,2.3c-2,2.3-2.4,5.7-1.1,8.7c1.6,3.4,5,5.4,9.3,5.4
		c1.1,0,2.3-0.2,3.6-0.4l1.9,1.9c-0.8,1.4-1.4,3-1.7,4.7c0,0,0,0,0,0h-12.1c-4.1-7-9.3-7.8-11.6-7.8c-5,0-9.2,3.7-9.6,8.3
		c-0.2,1.9,0.3,3.7,1.2,5.2c-0.9,1.5-1.4,3.2-1.2,5.3c0.4,4.7,4.6,8.4,9.6,8.4c2.3,0,7.7-0.9,11.8-8.2h14.7c0.4,0.7,1,1.3,1.6,2
		l-4.9,4.9c-1.1-0.2-2.2-0.4-3.3-0.4c-4.2,0-7.7,2-9.2,5.4c-1.3,2.9-0.9,6.3,1,8.6c0.9,1.1,2.1,1.9,3.4,2.3c0.4,1.2,1.2,2.4,2.3,3.4
		c1.4,1.2,3.2,1.9,5.1,1.9c2.9,0,5.6-1.5,7.3-4c1-1.6,2.3-4.8,1.2-9.6l5.8-5.8c0.3,0.1,0.5,0.3,0.8,0.4v17.3
		c-8.2,4.8-8,11.1-7.7,13.1c0.7,4.4,4,7.7,8.2,8.1c0.3,0,0.5,0,0.8,0h0c1.7,0,3.2-0.5,4.5-1.2c1.3,0.8,2.8,1.3,4.5,1.3
		c0.2,0,0.5,0,0.7,0c4.2-0.3,7.6-3.6,8.3-8c0.3-2.1,0.5-8.5-8.1-13.4v-16.9c0.4-0.2,0.8-0.4,1.1-0.6l5.8,5.8c-1.1,4.8,0.2,8,1.2,9.5
		c1.7,2.5,4.4,4,7.3,4c1.9,0,3.7-0.7,5.1-1.8c1.1-0.9,1.9-2.1,2.3-3.3c1.3-0.5,2.5-1.2,3.4-2.3c2-2.3,2.4-5.7,1.1-8.7
		c-1.6-3.4-5-5.4-9.3-5.4c-1,0-2.1,0.1-3.3,0.4l-4.9-4.9c0.6-0.7,1.1-1.3,1.6-2h14.7c4.1,7.3,9.5,8.2,11.8,8.2c5,0,9.2-3.7,9.6-8.3
		c0.2-2-0.3-3.8-1.2-5.3C359.7,398.6,360.2,396.8,360.1,394.8z"/>
	<path class="st2" d="M351.3,400c0.1,0,4-1.4,3.8-4.8c-0.3-4.2-8.3-7.2-13.2,4.2h-20.5c1.4-4.5-0.5-8.5-3.5-10.2l7.4-7.4
		c8.9,3.8,11.6-2.1,9.6-4.6c-1.6-2-4.5-0.6-4.5-0.6c0-0.1,1.4-2.9-0.6-4.5c-2.3-2-8,0.5-4.9,8.8l-7.8,7.9c-0.5-0.2-1.1-0.3-1.6-0.4
		c-4.3-0.4-6.7,3.1-7.8,5.1v-28.4c11.4-4.8,8.4-12.8,4.2-13.2c-3.4-0.3-4.8,3.7-4.9,3.7c0-0.1-1.4-4-4.8-3.8
		c-4.2,0.3-7.2,8.3,4.2,13.2v28.3c-1.1-2-3.5-5.5-7.7-5.1c-0.8,0.1-1.6,0.3-2.3,0.7l-7.5-7.5c3.7-8.8-2.2-11.5-4.6-9.4
		c-1.9,1.6-0.6,4.5-0.6,4.5c-0.1,0-2.9-1.4-4.5,0.6c-2,2.4,0.5,8.1,9,4.8l7.4,7.4c-2.6,1.8-4.2,5.6-2.9,9.9h-20.5
		c-4.8-11.4-12.8-8.4-13.2-4.2c-0.3,3.4,3.7,4.8,3.7,4.9c-0.1,0-4,1.4-3.8,4.8c0.3,4.2,8.3,7.2,13.2-4.2h20.9c1,2.2,2.8,4.4,5.6,6.5
		l-10.7,10.7c-8.3-3.1-10.8,2.5-8.8,4.8c1.6,2,4.5,0.6,4.5,0.6c0,0.1-1.4,2.9,0.6,4.5c2.4,2.1,8.4-0.6,4.6-9.6l10.6-10.6
		c1.9,1.3,4.2,2.6,7,3.7v23.4c-11.4,4.8-8.4,12.8-4.3,13.2c3.4,0.3,4.8-3.7,4.9-3.7c0,0.1,1.4,4,4.8,3.8c4.2-0.3,7.2-8.3-4.2-13.2
		v-23.4c2.5-1,4.7-2.2,6.4-3.3l10.9,10.9c-3.3,8.4,2.4,10.9,4.8,8.9c2-1.6,0.6-4.5,0.6-4.5c0,0,2.9,1.4,4.5-0.6
		c2.1-2.4-0.6-8.3-9.4-4.7l-10.6-10.6c3.1-2.2,5-4.6,6.1-6.9h20.9c4.8,11.4,12.8,8.4,13.2,4.3C355.3,401.5,351.4,400,351.3,400z"/>
	<g>
		<path class="st2" d="M250.1,399.6c-1.7-0.1-10.9-0.1-8.7-3.8c-0.3,0.5,1.2,1.2,2.1,0.4c1.1-0.9,0-2.4-1.3-2.3
			c-1.6,0.1-2.1,1.7-2,3.1c0,1.2,1,2.4,1.7,2.1c-2.2,0.5-4.6,0.3-6.8-0.1c-1.8-0.4-3.6-1.7-5.5-1.6c-0.9,0-2,0.7-2.8,1
			c-1.1,0.3-2.2,0.5-3.3,0.6c-1.2,0.1-2.4,0.1-3.6,0.3c-0.1,0-3.3,0.4-1.6,1c0.7,0.2,4.7,0.5,5.7,0.8c1.7,0.5,4,1.7,5.8,1.6
			c1.7-0.1,3.6-1.1,5.2-1.5c2.2-0.6,4.4-1.1,6.7-0.8c-1.1,0.6-1.9,1.3-1.9,2.9c0,1.4,1,2.6,2.4,2.6c1.2,0,2.5-1.3,1.7-2.4
			c-1-1.4-2.8,0-2.6,0.2c-1.4-2.1,2.4-3.5,3.7-3.5c1.8,0,6.1,0.7,7.5-0.2C253,399.8,250.9,399.7,250.1,399.6
			C248.5,399.6,250.9,399.7,250.1,399.6z"/>
		<path class="st2" d="M363.9,399.6c1.7-0.1,10.9-0.1,8.7-3.8c0.3,0.5-1.2,1.2-2.1,0.4c-1.1-0.9,0-2.4,1.3-2.3
			c1.6,0.1,2.1,1.7,2,3.1c0,1.2-1,2.4-1.7,2.1c2.2,0.5,4.6,0.3,6.8-0.1c1.8-0.4,3.6-1.7,5.5-1.6c0.9,0,2,0.7,2.8,1
			c1.1,0.3,2.2,0.5,3.3,0.6c1.2,0.1,2.4,0.1,3.6,0.3c0.1,0,3.3,0.4,1.6,1c-0.7,0.2-4.7,0.5-5.7,0.8c-1.7,0.5-4,1.7-5.8,1.6
			c-1.7-0.1-3.6-1.1-5.2-1.5c-2.2-0.6-4.4-1.1-6.7-0.8c1.1,0.6,1.9,1.3,1.9,2.9c0,1.4-1,2.6-2.4,2.6c-1.2,0-2.5-1.3-1.7-2.4
			c1-1.4,2.8,0,2.6,0.2c1.4-2.1-2.4-3.5-3.7-3.5c-1.8,0-6.1,0.7-7.5-0.2C361,399.8,363.1,399.7,363.9,399.6
			C365.5,399.6,363.1,399.7,363.9,399.6z"/>
		<g>
			<path class="st2" d="M199.3,396.4c-0.5,2.5,2.2,3.6,2.2,3.6c-0.1,0-2.8,1.1-2.2,3.6c0.6,2.6,3.9,2.7,5.6,0.9
				c1.8-1.8,3.4-3.5,5.8-4.5h0c0,0,0,0,0,0c0,0,0,0,0,0h0c-2.5-1-4-2.7-5.8-4.5C203.1,393.6,199.8,393.8,199.3,396.4z"/>
			<path class="st2" d="M178.5,396.4c-0.5,2.5,2.2,3.6,2.2,3.6c-0.1,0-2.8,1.1-2.2,3.6c0.6,2.6,3.9,2.7,5.6,0.9
				c1.8-1.8,3.4-3.5,5.8-4.5h0c0,0,0,0,0,0c0,0,0,0,0,0h0c-2.5-1-4-2.7-5.8-4.5C182.4,393.6,179.1,393.8,178.5,396.4z"/>
			<path class="st2" d="M157.8,396.4c-0.5,2.5,2.2,3.6,2.2,3.6c-0.1,0-2.8,1.1-2.2,3.6c0.6,2.6,3.9,2.7,5.6,0.9
				c1.8-1.8,3.4-3.5,5.8-4.5h0c0,0,0,0,0,0c0,0,0,0,0,0h0c-2.5-1-4-2.7-5.8-4.5C161.6,393.6,158.3,393.8,157.8,396.4z"/>
		</g>
		<g>
			<path class="st2" d="M414.7,396.4c0.5,2.5-2.2,3.6-2.2,3.6c0.1,0,2.8,1.1,2.2,3.6c-0.6,2.6-3.9,2.7-5.6,0.9
				c-1.8-1.8-3.4-3.5-5.8-4.5h0c0,0,0,0,0,0c0,0,0,0,0,0h0c2.5-1,4-2.7,5.8-4.5C410.8,393.6,414.2,393.8,414.7,396.4z"/>
			<path class="st2" d="M435.5,396.4c0.5,2.5-2.2,3.6-2.2,3.6c0.1,0,2.8,1.1,2.2,3.6c-0.6,2.6-3.9,2.7-5.6,0.9
				c-1.8-1.8-3.4-3.5-5.8-4.5h0c0,0,0,0,0,0c0,0,0,0,0,0h0c2.5-1,4-2.7,5.8-4.5C431.6,393.6,434.9,393.8,435.5,396.4z"/>
			<path class="st2" d="M456.2,396.4c0.5,2.5-2.2,3.6-2.2,3.6c0.1,0,2.8,1.1,2.2,3.6c-0.6,2.6-3.9,2.7-5.6,0.9
				c-1.8-1.8-3.4-3.5-5.8-4.5h0c0,0,0,0,0,0c0,0,0,0,0,0h0c2.5-1,4-2.7,5.8-4.5C452.4,393.6,455.7,393.8,456.2,396.4z"/>
		</g>
	</g>
</g>
</svg>
