<?xml version="1.0" encoding="utf-8"?>
<!-- Generator: Adobe Illustrator 22.1.0, SVG Export Plug-In . SVG Version: 6.00 Build 0)  -->
<svg version="1.1" id="Layer_1" xmlns="http://www.w3.org/2000/svg" xmlns:xlink="http://www.w3.org/1999/xlink" x="0px" y="0px"
	 viewBox="0 0 612 792" style="enable-background:new 0 0 612 792;" xml:space="preserve">
<style type="text/css">
	.st0{fill:#4BAB99;}
	.st1{fill:#CFA2AB;}
	.st2{fill:#68AFA1;}
	.st3{fill:#604D48;}


		.st1:hover
		{
		fill:red;


</style>
<g>
	<path id="change7_2_" class="st0" d="M473.9,403.4c0-32.5-45.3-59-101-59c-55.7,0-101,26.5-101,59c0,1.5,0.1,2.9,0.3,4.3
		c2-0.4,3.9-0.8,5.9-1.3c-0.1-1-0.2-2-0.2-3c0-29.2,42.6-53,95-53c52.4,0,95,23.8,95,53c0,16.4-14.2,32.2-37.9,42.3l-1.6,0.7
		l-0.2,1.8c-0.8,8.1,0.8,19.3,11.1,30.1c-10.8-1.2-29.2-5.7-42.6-22.1l-1.1-1.3l-1.6,0.2c-6.9,0.9-14,1.3-21,1.3
		c-40.9,0-75.8-14.5-89.2-34.8c-2,0.5-4,1-6,1.4c13.9,22.9,51.3,39.3,95.2,39.3c6.7,0,13.5-0.4,20.1-1.2
		c18.7,21.7,45.2,23.4,53,23.4c1.1,0,1.7,0,1.7,0l8.1-0.5l-6.5-4.9c-10.6-8.1-15.8-17.7-15.3-28.7
		C459.4,439.2,473.9,422.2,473.9,403.4z"/>
	<path id="change6_2_" class="st1" d="M335.9,359.9c0.1,1,0.2,2,0.2,3c0,29.2-42.6,53-95,53c-7,0-14.1-0.4-21-1.3l-1.7-0.2l-1.1,1.3
		c-13.4,16.4-31.8,20.9-42.6,22.1c10.3-10.7,11.8-22,11.1-30.1l-0.2-1.8l-1.7-0.7c-23.7-10-37.9-25.8-37.9-42.3
		c0-29.2,42.6-53,95-53c40.9,0,75.8,14.5,89.2,34.8c2-0.5,4-1,6-1.4c-13.9-22.9-51.3-39.3-95.2-39.3c-55.7,0-101,26.5-101,59
		c0,18.8,14.5,35.8,39.9,47c0.5,11-4.7,20.6-15.3,28.7l-6.4,4.9l8.1,0.5c0,0,0.6,0,1.7,0c7.8,0,34.3-1.7,53-23.4
		c6.7,0.8,13.4,1.2,20.1,1.2c55.7,0,101-26.5,101-59c0-1.5-0.1-2.9-0.3-4.3C339.7,359,337.8,359.4,335.9,359.9z"/>
	<g id="change6">
		<g id="change6_1_">
			<path class="st1" d="M214.1,353.4h-8.7h-0.5c-0.5,0-0.8-0.1-1.1-0.3c-0.3-0.2-0.4-0.4-0.4-0.8c0-0.5,0.3-0.9,0.8-1.1
				c0.4-0.1,0.7-0.2,0.8-0.3c0.1,0,0.1-0.1,0.2-0.2c0.2-0.2,0.2-0.5,0.2-1v-19.6c0-0.5-0.1-0.8-0.2-1c-0.1-0.1-0.2-0.2-0.2-0.2
				c-0.1,0-0.3-0.1-0.8-0.3c-0.5-0.2-0.8-0.5-0.8-1.1c0-0.3,0.1-0.6,0.4-0.8c0.3-0.2,0.6-0.3,1.1-0.3h0.5h8.7h0.5
				c0.5,0,0.8,0.1,1.1,0.3c0.3,0.2,0.4,0.4,0.4,0.8c0,0.5-0.3,0.9-0.8,1.1c-0.4,0.1-0.7,0.2-0.8,0.3c-0.1,0-0.1,0.1-0.2,0.2
				c-0.2,0.2-0.2,0.5-0.2,1v19.6c0,0.5,0.1,0.8,0.2,1c0.1,0.1,0.2,0.2,0.2,0.2c0.1,0,0.3,0.1,0.8,0.3c0.5,0.2,0.8,0.5,0.8,1.1
				c0,0.3-0.1,0.6-0.4,0.8c-0.3,0.2-0.6,0.3-1.1,0.3H214.1z"/>
			<path class="st1" d="M208.1,381.1v8.5c0,0.5,0.1,0.9,0.3,1.1c0.1,0.1,0.2,0.2,0.3,0.2c0.1,0,0.4,0.1,0.9,0.2
				c0.6,0.1,0.9,0.5,0.9,1.1c0,0.4-0.2,0.7-0.5,0.9c-0.2,0.1-0.6,0.2-1.2,0.2h-0.7h-8.7h-0.6c-0.6,0-1-0.1-1.2-0.2
				c-0.3-0.2-0.5-0.5-0.5-0.8c0-0.6,0.3-0.9,0.9-1.1c0.5-0.1,0.8-0.2,0.9-0.2c0.1,0,0.2-0.1,0.3-0.2c0.2-0.2,0.3-0.6,0.3-1.1v-6.6
				l-5.5-13.2c-0.2-0.5-0.5-0.9-0.9-1.1c-0.4-0.2-0.6-0.4-0.7-0.5c-0.1-0.1-0.1-0.3-0.1-0.5c0-0.7,0.5-1,1.5-1h9.6
				c0.5,0,0.9,0.1,1.1,0.2c0.3,0.2,0.5,0.5,0.5,0.8c0,0.4-0.2,0.7-0.6,1l-0.6,0.4c-0.2,0.1-0.3,0.4-0.3,0.6c0,0.3,0.1,0.6,0.2,1
				L208.1,381.1z M208.8,379.3l-1.1-2.6l2.1-4.6c0.2-0.4,0.3-0.9,0.3-1.6c0-0.8-0.4-1.3-1.3-1.6c-0.5-0.2-0.8-0.3-0.9-0.5
				c-0.1-0.1-0.2-0.3-0.2-0.6c0-0.4,0.1-0.6,0.4-0.8c0.2-0.1,0.3-0.2,0.5-0.2c0.2,0,0.5-0.1,1-0.1h4.8c0.9,0,1.4,0.4,1.4,1.1
				c0,0.3-0.1,0.5-0.2,0.6c-0.1,0.1-0.4,0.3-0.7,0.4c-0.6,0.3-1.1,0.6-1.4,0.9c-0.4,0.4-0.7,0.9-1,1.4l-0.4,1L208.8,379.3z"/>
			<path class="st1" d="M228.2,368.3c-0.7,0.2-1.1,0.6-1.4,1c-0.3,0.4-0.4,1-0.4,1.8v17.5c0,1.1,0.2,2,0.5,2.4
				c0.3,0.4,0.7,0.7,1.3,0.8v2.1c-2.9-0.2-5.3-1.3-7.3-3.3c-2.5-2.5-3.8-6.1-3.8-10.6c0-2.3,0.3-4.3,1-6.1c0.7-1.8,1.7-3.4,3-4.7
				c1-1,2.1-1.7,3.2-2.2c1.2-0.5,2.4-0.8,3.8-0.9V368.3z M229.8,368.3v-2.1c1.4,0.1,2.7,0.4,3.9,0.9c1.2,0.5,2.3,1.3,3.3,2.2
				c2.7,2.6,4,6.2,4,10.8c0,4.5-1.3,8-3.8,10.6c-2,2-4.4,3-7.3,3.3v-2.1c0.3-0.1,0.6-0.2,0.8-0.3c0.2-0.1,0.4-0.3,0.5-0.5
				c0.4-0.5,0.5-1.3,0.5-2.4V371c0-0.7-0.1-1.2-0.3-1.6c-0.2-0.3-0.3-0.5-0.6-0.6C230.5,368.6,230.2,368.4,229.8,368.3z"/>
			<path class="st1" d="M245.3,385.6v-15.3c0-0.5-0.1-0.8-0.2-1c-0.1-0.1-0.2-0.2-0.2-0.2c-0.1,0-0.3-0.1-0.8-0.3
				c-0.5-0.2-0.8-0.5-0.8-1c0-0.3,0.1-0.6,0.4-0.8c0.3-0.2,0.6-0.3,1.1-0.3h0.5h8.7h0.5l0.7,0.1c0.2,0.1,0.4,0.2,0.5,0.4
				c0.1,0.2,0.2,0.4,0.2,0.6c0,0.5-0.3,0.9-0.8,1c-0.4,0.1-0.7,0.2-0.8,0.3c-0.1,0-0.1,0.1-0.2,0.2c-0.2,0.2-0.2,0.5-0.2,1v16.4
				c0,1.1,0,1.9,0.1,2.3c0.1,0.4,0.2,0.8,0.4,1.2c0.2,0.3,0.4,0.6,0.6,0.7c0.2,0.1,0.6,0.3,1.2,0.5v2.6h-0.4c-1.7,0-3.1-0.2-4.2-0.4
				c-1.3-0.4-2.5-0.9-3.5-1.6c-1-0.7-1.7-1.5-2.1-2.3C245.6,388.7,245.3,387.3,245.3,385.6z M258,393.9v-2.6
				c1.3-0.2,2.4-0.7,3.3-1.6c1-1,1.5-2.5,1.5-4.4v-12.7c0-1.8-0.7-3-2.1-3.7c-0.4-0.2-0.7-0.4-0.8-0.5c-0.1-0.1-0.2-0.4-0.2-0.7
				c0-0.3,0.1-0.6,0.4-0.7c0.3-0.1,0.7-0.2,1.2-0.2h4.8c0.4,0,0.7,0,0.8,0c0.1,0,0.3,0.1,0.4,0.1c0.3,0.2,0.5,0.5,0.5,0.8
				c0,0.3-0.1,0.5-0.3,0.7c-0.1,0.1-0.3,0.2-0.8,0.5c-0.6,0.3-1,0.8-1.3,1.4c-0.3,0.6-0.5,1.4-0.5,2.2v12.8c0,2.2-0.5,4-1.4,5.4
				c-0.7,1-1.7,1.9-3,2.5C259.7,393.5,258.9,393.8,258,393.9z"/>
		</g>
		<g>
			<path id="chnage7" class="st0" d="M252.5,325.9c-7.5-0.6-10.6,5.8-10.7,5.9c-0.1-0.2-3.1-6.6-10.6-6.1
				c-9.4,0.7-16.2,16.9,10.5,27.9v0c0,0,0,0,0,0v0C268.4,343,261.8,326.8,252.5,325.9z"/>
		</g>
	</g>
	<g>
		<path id="change6_3_" class="st1" d="M367.2,368.7v26.7h-8.7H358c-0.5,0-0.8-0.1-1.1-0.3c-0.3-0.2-0.4-0.4-0.4-0.8
			c0-0.5,0.3-0.9,0.8-1.1c0.4-0.1,0.7-0.2,0.8-0.3c0.1,0,0.1-0.1,0.2-0.2c0.2-0.2,0.2-0.5,0.2-1v-19.6c0-0.5-0.1-0.8-0.2-1
			c-0.1-0.1-0.2-0.2-0.2-0.2c-0.1,0-0.3-0.1-0.8-0.3c-0.5-0.2-0.8-0.5-0.8-1.1c0-0.3,0.1-0.6,0.4-0.8c0.3-0.2,0.6-0.3,1.1-0.3h0.5
			H367.2z M373.2,381.5c1.2,0.2,2.1,0.5,2.7,0.7c0.6,0.2,1.2,0.5,1.7,0.8c0.9,0.6,1.5,1.3,2,2.2c0.5,0.9,0.7,1.9,0.7,3.1
			c0,2.2-0.8,4-2.5,5.2c-0.8,0.6-1.8,1.1-2.8,1.4c-1,0.3-2.4,0.4-4,0.4h-2.3v-2.1c0.5,0,0.9-0.1,1.2-0.2c0.3-0.1,0.6-0.3,0.8-0.6
			c0.4-0.5,0.6-1.2,0.6-2.2v-4.4c0-0.7-0.1-1.2-0.2-1.5c-0.1-0.4-0.3-0.7-0.6-1c-0.2-0.2-0.5-0.4-0.7-0.5c-0.3-0.1-0.6-0.2-1.1-0.3
			v-2c0.5,0,0.9-0.1,1.1-0.2c0.3-0.1,0.5-0.2,0.7-0.4c0.2-0.2,0.4-0.4,0.5-0.8c0.1-0.3,0.2-0.6,0.2-0.9v-1.1v-3.4
			c0-0.4-0.1-0.7-0.2-1.1c-0.1-0.4-0.3-0.7-0.4-0.9c-0.2-0.3-0.5-0.5-0.8-0.7c-0.3-0.1-0.7-0.2-1.2-0.3v-2.1h2.2
			c3,0,5.2,0.6,6.8,1.8c0.7,0.6,1.3,1.2,1.6,2c0.4,0.8,0.6,1.7,0.6,2.6c0,0.9-0.2,1.8-0.6,2.6c-0.4,0.8-0.9,1.5-1.6,2
			c-0.5,0.4-1.1,0.8-1.8,1C375.4,381,374.5,381.2,373.2,381.5z"/>
		<path id="change6_4_" class="st1" d="M394.4,368.7v26.7h-8.7h-0.5c-0.5,0-0.8-0.1-1.1-0.3c-0.3-0.2-0.4-0.4-0.4-0.8
			c0-0.5,0.3-0.9,0.8-1.1c0.4-0.1,0.7-0.2,0.8-0.3c0.1,0,0.1-0.1,0.2-0.2c0.2-0.2,0.2-0.5,0.2-1v-19.6c0-0.5-0.1-0.8-0.2-1
			c-0.1-0.1-0.2-0.2-0.2-0.2c-0.1,0-0.3-0.1-0.8-0.3c-0.5-0.2-0.8-0.5-0.8-1.1c0-0.3,0.1-0.6,0.4-0.8c0.3-0.2,0.6-0.3,1.1-0.3h0.5
			H394.4z M396,382.9v-2.3c0.8-0.4,1.3-0.8,1.7-1.2c0.4-0.4,0.6-1,0.8-1.7c0.1-0.5,0.2-0.8,0.4-1c0.2-0.2,0.4-0.3,0.7-0.3
			c0.4,0,0.7,0.2,0.9,0.5c0.1,0.2,0.1,0.6,0.1,1.2v7.4c0,0.6-0.1,1-0.2,1.3c-0.1,0.2-0.4,0.4-0.8,0.4c-0.3,0-0.5-0.1-0.7-0.3
			c-0.2-0.2-0.3-0.5-0.4-0.9c-0.2-0.9-0.5-1.6-0.9-2.1C397.2,383.4,396.6,383,396,382.9z M396.1,368.7h7.9v6.9
			c0,0.4-0.1,0.7-0.2,0.9c-0.2,0.2-0.4,0.3-0.7,0.3c-0.3,0-0.5-0.1-0.6-0.2c-0.1-0.1-0.3-0.4-0.4-0.7c-0.5-1.5-1.2-2.7-2.2-3.5
			c-1-0.8-2.2-1.3-3.7-1.4V368.7z M396.1,395.3v-2.1c0.8-0.1,1.5-0.3,2.1-0.5c0.6-0.2,1.1-0.6,1.7-1.1c0.6-0.5,1-1,1.3-1.5
			c0.3-0.5,0.6-1.2,0.9-2c0.1-0.4,0.3-0.7,0.4-0.9c0.2-0.1,0.4-0.2,0.6-0.2c0.4,0,0.6,0.1,0.8,0.3c0.1,0.2,0.2,0.6,0.2,1.1v6.9
			H396.1z"/>
		<path id="change7_7_" class="st2" d="M335.8,408.7l3.8,11l1.7-5.9v6.5l-4.5,15.1h-1l-7.6-22.5c-0.3-0.8-0.5-1.3-0.8-1.5
			c-0.2-0.2-0.5-0.3-0.9-0.4c-0.8-0.2-1.3-0.6-1.3-1.2c0-0.3,0.1-0.6,0.4-0.8c0.2-0.2,0.6-0.3,1-0.3H335.8z M328.2,417.7l2.1,5.9
			v5.9c0,0.6,0,1,0.1,1.3c0,0.3,0.1,0.5,0.3,0.9c0.3,0.6,0.7,1,1.1,1.3l0.7,0.5c0.5,0.3,0.7,0.6,0.7,1c0,0.7-0.5,1-1.5,1h-4.9
			c-1,0-1.5-0.3-1.5-1c0-0.2,0-0.4,0.1-0.5c0.1-0.1,0.3-0.2,0.5-0.4c1.4-0.8,2.2-2.1,2.2-4.1V417.7z M343,408.7h8.7h0.5
			c1,0,1.5,0.3,1.5,1c0,0.5-0.3,0.9-0.8,1.1c-0.4,0.1-0.7,0.2-0.8,0.3c-0.1,0-0.1,0.1-0.2,0.2c-0.2,0.2-0.2,0.5-0.2,1v19.6
			c0,0.5,0.1,0.8,0.2,1c0.1,0.1,0.2,0.2,0.2,0.2c0.1,0,0.3,0.1,0.8,0.3c0.5,0.2,0.8,0.5,0.8,1.1c0,0.7-0.5,1-1.5,1h-0.5H343h-0.6
			c-0.6,0-1-0.1-1.3-0.3c-0.3-0.2-0.4-0.4-0.4-0.8c0-0.6,0.3-0.9,0.9-1.1c0.5-0.1,0.8-0.2,0.9-0.2c0.1,0,0.2-0.1,0.3-0.2
			c0.2-0.2,0.3-0.6,0.3-1.1V408.7z"/>
		<path id="change7_6_" class="st2" d="M367.9,435.3h-8.7h-0.5c-0.5,0-0.8-0.1-1.1-0.3c-0.3-0.2-0.4-0.4-0.4-0.8
			c0-0.5,0.3-0.9,0.8-1.1c0.4-0.1,0.7-0.2,0.8-0.3c0.1,0,0.1-0.1,0.2-0.2c0.2-0.2,0.2-0.5,0.2-1v-19.6c0-0.5-0.1-0.8-0.2-1
			c-0.1-0.1-0.2-0.2-0.2-0.2c-0.1,0-0.3-0.1-0.8-0.3c-0.5-0.2-0.8-0.5-0.8-1.1c0-0.3,0.1-0.6,0.4-0.8c0.3-0.2,0.6-0.3,1.1-0.3h0.5
			h8.7h0.5c0.5,0,0.8,0.1,1.1,0.3c0.3,0.2,0.4,0.4,0.4,0.8c0,0.5-0.3,0.9-0.8,1.1c-0.4,0.1-0.7,0.2-0.8,0.3c-0.1,0-0.1,0.1-0.2,0.2
			c-0.2,0.2-0.2,0.5-0.2,1v19.6c0,0.5,0.1,0.8,0.2,1c0.1,0.1,0.2,0.2,0.2,0.2c0.1,0,0.3,0.1,0.8,0.3c0.5,0.2,0.8,0.5,0.8,1.1
			c0,0.3-0.1,0.6-0.4,0.8c-0.3,0.2-0.6,0.3-1.1,0.3H367.9z"/>
		<path id="change7_5_" class="st2" d="M376.4,415.5l2.1,3.4v10.5c0,0.9,0.2,1.7,0.5,2.2c0.3,0.6,0.8,1.1,1.5,1.4l0.6,0.3
			c0.3,0.2,0.5,0.5,0.5,0.9c0,0.3-0.1,0.5-0.4,0.7c-0.2,0.2-0.6,0.3-1.3,0.3h-4.5c-1.2,0-1.8-0.3-1.8-1c0-0.2,0.1-0.4,0.2-0.6
			c0.1-0.1,0.4-0.3,0.8-0.6c1.3-0.7,1.9-1.9,1.9-3.8V415.5z M384.6,408.7l10.4,18v8.6h-5.3l-13.3-22.9c-0.3-0.5-0.5-0.8-0.7-1
			c-0.2-0.2-0.4-0.3-0.7-0.4l-0.7-0.3c-0.2-0.1-0.4-0.2-0.5-0.4c-0.1-0.2-0.2-0.4-0.2-0.6c0-0.2,0.1-0.4,0.2-0.6
			c0.1-0.2,0.3-0.3,0.5-0.4c0.2-0.1,0.8-0.1,1.8-0.1H384.6z M395,423.6l-2.1-3.5v-5.4c0-1.1-0.2-1.9-0.5-2.5
			c-0.3-0.6-0.9-1.1-1.7-1.5c-0.3-0.1-0.5-0.3-0.6-0.4c-0.1-0.1-0.2-0.3-0.2-0.6c0-0.4,0.1-0.6,0.3-0.8c0.2-0.2,0.6-0.2,1.1-0.2h4.9
			c0.7,0,1.1,0.1,1.3,0.3c0.2,0.2,0.3,0.5,0.3,0.7c0,0.3-0.1,0.5-0.2,0.6c-0.1,0.1-0.4,0.3-0.9,0.6c-0.7,0.4-1.2,0.9-1.6,1.6
			c-0.3,0.5-0.4,1.3-0.4,2.2V423.6z"/>
		<path id="change7_4_" class="st2" d="M411.4,408.7v26.7h-8.7h-0.5c-0.5,0-0.8-0.1-1.1-0.3c-0.3-0.2-0.4-0.4-0.4-0.8
			c0-0.5,0.3-0.9,0.8-1.1c0.4-0.1,0.7-0.2,0.8-0.3c0.1,0,0.1-0.1,0.2-0.2c0.2-0.2,0.2-0.5,0.2-1v-19.6c0-0.5-0.1-0.8-0.2-1
			c-0.1-0.1-0.2-0.2-0.2-0.2c-0.1,0-0.3-0.1-0.8-0.3c-0.5-0.2-0.8-0.5-0.8-1.1c0-0.3,0.1-0.6,0.4-0.8c0.3-0.2,0.6-0.3,1.1-0.3h0.5
			H411.4z M413.1,422.9v-2.3c0.8-0.4,1.3-0.8,1.7-1.2c0.4-0.4,0.6-1,0.8-1.7c0.1-0.5,0.2-0.8,0.4-1c0.2-0.2,0.4-0.3,0.7-0.3
			c0.4,0,0.7,0.2,0.9,0.5c0.1,0.2,0.1,0.6,0.1,1.2v7.4c0,0.6-0.1,1-0.2,1.3c-0.1,0.2-0.4,0.4-0.8,0.4c-0.3,0-0.5-0.1-0.7-0.3
			c-0.2-0.2-0.3-0.5-0.4-0.9c-0.2-0.9-0.5-1.6-0.9-2.1C414.3,423.4,413.7,423,413.1,422.9z M413.2,408.7h7.9v6.9
			c0,0.4-0.1,0.7-0.2,0.9c-0.2,0.2-0.4,0.3-0.7,0.3c-0.3,0-0.5-0.1-0.6-0.2c-0.1-0.1-0.3-0.4-0.4-0.7c-0.5-1.5-1.2-2.7-2.2-3.5
			c-1-0.8-2.2-1.3-3.7-1.4V408.7z M413.2,435.3v-2.1c0.8-0.1,1.5-0.3,2.1-0.5c0.6-0.2,1.1-0.6,1.7-1.1c0.6-0.5,1-1,1.3-1.5
			c0.3-0.5,0.6-1.2,0.9-2c0.1-0.4,0.3-0.7,0.5-0.9c0.2-0.1,0.4-0.2,0.6-0.2c0.4,0,0.6,0.1,0.8,0.3c0.1,0.2,0.2,0.6,0.2,1.1v6.9
			H413.2z"/>
		<path id="change7_3_" class="st2" d="M429.8,408.1c1.1,0,2.1,0.5,2.8,1.4c0.7,0.9,1.1,2.1,1.1,3.5c0,0.6-0.1,1.2-0.2,1.8
			c-0.1,0.6-0.4,1.6-0.8,2.9c-0.6,1.8-1,3.3-1.3,4.4c-0.2,1.1-0.4,2.2-0.4,3.2c0,0.5-0.1,0.9-0.3,1.1c-0.2,0.2-0.5,0.3-0.9,0.3
			c-0.3,0-0.6-0.1-0.8-0.3c-0.2-0.2-0.3-0.5-0.3-0.9c-0.1-0.9-0.1-1.5-0.2-1.8c-0.1-0.4-0.2-0.9-0.4-1.7c-0.3-1.2-0.7-2.5-1.2-3.9
			c-0.6-1.7-1-2.8-1.1-3.4c-0.2-0.6-0.2-1.3-0.2-2c0-1.2,0.4-2.2,1.1-3.1C427.5,408.6,428.5,408.1,429.8,408.1z M429.7,428.3
			c1,0,1.9,0.4,2.7,1.1c0.7,0.7,1.1,1.6,1.1,2.7c0,1.1-0.4,2-1.1,2.7c-0.7,0.7-1.6,1.1-2.7,1.1c-1.1,0-2-0.4-2.7-1.1
			c-0.7-0.7-1.1-1.6-1.1-2.7c0-1,0.4-1.9,1.1-2.7C427.8,428.6,428.6,428.3,429.7,428.3z"/>
	</g>
	<g>
		<g>
			<path class="st3" d="M265.4,426.7l3.8,4.8l-0.2,0.2l-0.8-1l-5.8,4.5l3.4,4.4l5.8-4.5l-0.8-1l0.2-0.2l3.8,4.8l-0.2,0.2l-0.8-1
				l-11.7,9.1l0.8,1l-0.2,0.2l-3.8-4.8l0.2-0.2l0.8,1l5.7-4.4l-3.4-4.4l-5.7,4.4l0.8,1L257,441l-3.8-4.8l0.2-0.2l0.8,1l11.7-9.1
				l-0.8-1L265.4,426.7z"/>
			<path class="st3" d="M262.5,448.3L262.5,448.3l-3.9-5l0.4-0.3l0.1,0.1l0.7,0.9l5.5-4.3l-3.3-4.2l-5.5,4.3l0.8,1l-0.4,0.3
				l-0.1-0.1l-3.8-4.9l0.4-0.3l0.1,0.1l0.8,1l11.5-9l-0.8-1l0.4-0.3l0.1,0.1l3.8,4.9l-0.4,0.3l-0.1-0.1l-0.8-1l-5.6,4.4l3.3,4.2
				l5.6-4.4l-0.8-1l0.4-0.3l0.1,0.1l3.8,4.9l-0.4,0.3l-0.1-0.1l-0.8-1l-11.5,9l0.8,1L262.5,448.3z M258.9,443.3l3.6,4.7l0.1-0.1
				l-0.8-1l0.1-0.1l11.8-9.2l0.1,0.1l0.8,1l0.1-0.1l-3.7-4.7l-0.1,0.1l0.8,1l-0.1,0.1l-5.9,4.6l-0.1-0.1l-3.5-4.5l0.1-0.1l5.9-4.6
				l0.1,0.1l0.8,1l0.1-0.1l-3.7-4.7l-0.1,0.1l0.8,1L266,428l-11.8,9.2l-0.1-0.1l-0.8-1l-0.1,0.1l3.6,4.7l0.1-0.1l-0.8-1l0.1-0.1
				l5.7-4.5l0.1,0.1l3.5,4.5l-0.1,0.1l-5.7,4.5l-0.1-0.1L258.9,443.3L258.9,443.3z"/>
		</g>
		<g>
			<path class="st3" d="M272.4,444.4c0.2,0.1,0.3,0.2,0.4,0.3c0.5,0.5,0.6,1.3,0.1,1.8c-0.5,0.5-1.3,0.6-1.8,0.1
				c-0.5-0.5-0.6-1.3-0.1-1.8c0.3-0.3,0.8-0.6,1.6-0.7c0.7,0,1.7,0.2,2.7,1.2c0.9,0.8,1.4,1.7,1.5,2.6c0,0.9-0.4,1.9-1.4,3l-3.2,3.6
				c-0.3,0.3-0.5,0.5-0.5,0.7c-0.1,0.2-0.1,0.3,0.1,0.5c0.2,0.2,0.5,0.1,0.7,0l0.1,0.3c-0.1,0.1-0.4,0.2-0.8,0.2
				c-0.4,0-0.9-0.2-1.5-0.7c-0.8-0.8-0.9-1.6-0.8-2.2c-0.8,0.1-1.8-0.2-2.6-0.9c-0.7-0.6-1.1-1.3-1.3-2c-0.2-0.7,0-1.5,0.6-2.2
				c0.7-0.8,1.7-0.9,2.8-0.6c1.1,0.3,2.3,1,3.6,1.9l1.6-1.8c0.5-0.6,0.8-1.1,0.8-1.5c0-0.4-0.3-0.8-0.5-1
				C273.8,444.5,273,444.3,272.4,444.4z M268.1,452.5c0.3,0.3,1.1,0.4,1.5,0.3c0.2-0.3,0.4-0.7,0.9-1.3l1.9-2.1
				c-1.4-0.8-2.8-0.5-3.8,0.7c-0.4,0.4-0.6,0.8-0.7,1.3C267.7,451.8,267.8,452.2,268.1,452.5z"/>
			<path class="st3" d="M271.9,456.1c-0.1,0-0.1,0-0.2,0c-0.5,0-1-0.3-1.6-0.7c-0.8-0.8-1-1.6-0.9-2.1c-0.9,0.1-1.8-0.3-2.5-0.9
				c-0.7-0.6-1.2-1.4-1.3-2.1c-0.2-0.8,0-1.6,0.7-2.3c0.7-0.8,1.6-1,2.9-0.7c1,0.3,2.1,0.9,3.5,1.9l1.5-1.7c0.5-0.5,0.7-1.1,0.7-1.5
				c0-0.3-0.2-0.7-0.5-0.9c-0.4-0.4-1-0.6-1.5-0.6c0.1,0,0.1,0.1,0.1,0.1c0.3,0.2,0.4,0.6,0.5,1c0,0.4-0.1,0.7-0.3,1
				c-0.3,0.3-0.6,0.5-1,0.5c-0.3,0-0.7-0.1-0.9-0.4c-0.6-0.5-0.6-1.4-0.1-2c0.1-0.2,0.7-0.7,1.7-0.7c0,0,0.1,0,0.1,0
				c0.9,0,1.8,0.4,2.6,1.2c0.9,0.8,1.4,1.7,1.5,2.6c0.1,1-0.4,2-1.4,3.1l-3.2,3.6c-0.3,0.3-0.4,0.5-0.5,0.7c-0.1,0.1-0.1,0.3,0,0.4
				c0.1,0.1,0.4,0.1,0.6,0l0.1,0l0.2,0.4l-0.1,0.1C272.6,456,272.3,456.1,271.9,456.1z M269.5,453.1l0,0.1c-0.1,0.5,0,1.3,0.8,2.1
				c0.5,0.4,0.9,0.6,1.4,0.7c0.3,0,0.5,0,0.7-0.1l-0.1-0.1c-0.3,0.1-0.5,0.1-0.7-0.1c-0.2-0.2-0.2-0.4-0.1-0.6
				c0.1-0.2,0.3-0.4,0.5-0.7l3.2-3.6c1-1.1,1.4-2.1,1.4-3c0-0.8-0.5-1.7-1.4-2.5c-0.8-0.8-1.7-1.1-2.5-1.1c0,0-0.1,0-0.1,0
				c-0.7,0-1.3,0.3-1.5,0.6c-0.4,0.5-0.4,1.2,0.1,1.7c0.2,0.2,0.5,0.3,0.8,0.3c0.3,0,0.7-0.1,0.9-0.4c0.2-0.2,0.3-0.5,0.3-0.8
				c0-0.3-0.2-0.6-0.4-0.8c-0.1-0.1-0.2-0.2-0.4-0.2l-0.4-0.1l0.4-0.1c0.1,0,0.2,0,0.3,0c0.6,0,1.3,0.2,1.7,0.6
				c0.2,0.2,0.5,0.6,0.6,1.1c0,0.5-0.3,1-0.8,1.6l-1.7,1.8l-0.1-0.1c-1.4-1-2.5-1.6-3.5-1.9c-1.2-0.3-2.1-0.1-2.7,0.6
				c-0.6,0.6-0.8,1.4-0.6,2.1c0.2,0.7,0.6,1.4,1.3,2c0.6,0.5,1.4,0.9,2.2,0.9c0.1,0,0.2,0,0.3,0L269.5,453.1z M269.3,453
				c-0.4,0-1-0.1-1.2-0.4c-0.3-0.3-0.4-0.7-0.3-1.2c0.1-0.4,0.4-0.9,0.7-1.3c1.1-1.2,2.5-1.5,3.9-0.7l0.1,0.1l-0.1,0.1l-1.9,2.1
				c-0.4,0.5-0.7,0.9-0.9,1.2l0,0l0,0C269.5,453,269.4,453,269.3,453z M270.8,449.2c-0.8,0-1.6,0.4-2.2,1.1
				c-0.3,0.4-0.6,0.8-0.7,1.2c-0.1,0.4,0,0.8,0.2,1c0.3,0.3,1,0.4,1.3,0.3c0.2-0.3,0.5-0.8,0.9-1.2l1.8-2
				C271.7,449.3,271.2,449.2,270.8,449.2z"/>
		</g>
		<g>
			<path class="st3" d="M282.3,452.5c0.3-0.1,0.7-0.2,1.3-0.1c0.5,0.1,1.1,0.3,1.7,0.7c0.7,0.5,1.4,1.4,1.7,2.7
				c0.3,1.3,0,2.8-1.1,4.4c-1.2,1.7-2.5,2.3-3.8,2.5c-1.3,0.2-2.4-0.2-3.1-0.7c-0.6-0.4-1-0.9-1.2-1.3c-0.2-0.4-0.3-0.8-0.3-1
				l-3.5,4.9l1.1,0.8l-0.2,0.2l-4.7-3.3l0.2-0.2l1.1,0.8l8.8-12.5l-1.1-0.8l0.2-0.2l3.6,2.5c-0.2,0.3-0.3,0.5-0.4,0.7
				C282.4,452.4,282.4,452.5,282.3,452.5z M277.7,459.2c0,0.3,0.2,0.9,0.7,1.3c0.9,0.6,1.8,0.4,2.6-0.2c0.8-0.6,1.6-1.5,2.1-2.2
				c0.7-1,1.2-2.1,1.4-3c0.2-0.9,0-1.6-0.6-2c-0.6-0.4-1.3-0.4-1.8-0.2L277.7,459.2z"/>
			<path class="st3" d="M274.9,465.6l-4.9-3.4l0.3-0.4l1.1,0.8l8.7-12.3l-1.1-0.8l0.3-0.4l3.7,2.6l-0.1,0.1
				c-0.2,0.2-0.3,0.4-0.4,0.6c0.3-0.1,0.7-0.1,1.1,0c0.6,0.1,1.2,0.3,1.7,0.7c0.6,0.5,1.4,1.4,1.7,2.7c0.3,1.5-0.1,3-1.1,4.5
				c-1.1,1.5-2.4,2.3-3.9,2.5c-1.1,0.1-2.3-0.1-3.2-0.7c-0.7-0.5-1.1-1.1-1.2-1.4c-0.2-0.3-0.3-0.6-0.3-0.8l-3.2,4.6l1.1,0.8
				L274.9,465.6z M270.3,462.1l4.6,3.2l0.1-0.1l-1.1-0.8l3.7-5.3l0,0.4c0,0.2,0.1,0.6,0.3,1c0.2,0.3,0.5,0.8,1.2,1.3
				c0.8,0.6,1.9,0.8,3,0.7c1.5-0.2,2.7-1,3.7-2.4c1-1.5,1.4-2.9,1.1-4.3c-0.3-1.3-1-2.2-1.6-2.6c-0.5-0.3-1.1-0.6-1.7-0.7
				c-0.5-0.1-0.9,0-1.2,0.1l-0.4,0.1l0.3-0.3c0,0,0,0,0,0c0,0,0-0.1,0.1-0.1c0.1-0.1,0.2-0.3,0.4-0.6l-3.4-2.4l-0.1,0.1l1.1,0.8
				l-0.1,0.1l-8.9,12.6L270.3,462.1L270.3,462.1z M279.5,460.9c-0.4,0-0.8-0.1-1.1-0.4c-0.7-0.5-0.8-1.1-0.8-1.3v0l0,0l4.5-6.4l0,0
				c0.2-0.1,0.4-0.1,0.7-0.1c0.3,0,0.8,0.1,1.2,0.3c0.6,0.4,0.8,1.1,0.6,2.1c-0.2,0.9-0.7,2-1.4,3c-0.5,0.7-1.2,1.6-2.1,2.2
				C280.5,460.7,280,460.9,279.5,460.9z M277.8,459.2c0,0.2,0.1,0.7,0.7,1.2c0.7,0.5,1.6,0.4,2.5-0.2c0.8-0.6,1.6-1.5,2.1-2.2
				c0.7-1,1.2-2,1.3-2.9c0.1-0.6,0.1-1.5-0.5-1.9c-0.3-0.2-0.8-0.3-1-0.3c-0.2,0-0.4,0-0.6,0.1L277.8,459.2z"/>
		</g>
		<g>
			<path class="st3" d="M292.9,459.3c0.3-0.1,0.7-0.2,1.3-0.2c0.5,0,1.1,0.2,1.8,0.5c0.7,0.4,1.6,1.3,1.9,2.5
				c0.4,1.2,0.3,2.8-0.6,4.5c-1,1.8-2.3,2.6-3.5,2.9c-1.2,0.3-2.4,0-3.2-0.4c-0.6-0.3-1.1-0.8-1.3-1.2c-0.3-0.4-0.4-0.8-0.4-1
				l-2.9,5.3l1.2,0.6l-0.1,0.3l-5.1-2.8l0.1-0.3l1.2,0.6l7.4-13.4l-1.2-0.6l0.1-0.3l3.8,2.1c-0.2,0.3-0.3,0.5-0.3,0.7
				C292.9,459.2,292.9,459.2,292.9,459.3z M289,466.4c0,0.3,0.3,0.8,0.9,1.2c0.9,0.5,1.8,0.2,2.6-0.5c0.8-0.7,1.4-1.6,1.8-2.4
				c0.6-1.1,1-2.2,1-3.1c0.1-0.9-0.2-1.6-0.8-2c-0.6-0.3-1.4-0.2-1.8,0L289,466.4z"/>
			<path class="st3" d="M286.9,473.1L286.9,473.1l-5.2-2.9l0.2-0.4l0.1,0l1.1,0.6l7.3-13.2l-1.2-0.6l0.2-0.4l4,2.2l0,0.1
				c-0.1,0.2-0.2,0.4-0.3,0.6c0.3-0.1,0.6-0.1,1-0.1h0c0.6,0,1.3,0.2,1.8,0.5c0.7,0.4,1.6,1.3,2,2.5c0.4,1.4,0.2,3-0.6,4.6
				c-0.9,1.6-2.1,2.6-3.6,2.9c-1.1,0.3-2.3,0.1-3.2-0.4c-0.8-0.4-1.2-0.9-1.4-1.2c-0.2-0.3-0.3-0.5-0.4-0.8l-2.7,4.9l1.2,0.6
				L286.9,473.1z M282,470.1l4.9,2.7l0-0.1l-1.2-0.6l0.1-0.1l3.1-5.6v0.4c0,0.2,0.2,0.6,0.4,0.9c0.2,0.3,0.6,0.8,1.3,1.2
				c0.9,0.5,2,0.6,3.1,0.4c1.4-0.3,2.6-1.3,3.4-2.8c0.9-1.6,1.1-3,0.6-4.4c-0.4-1.2-1.2-2.1-1.9-2.4c-0.5-0.3-1.1-0.5-1.7-0.5h0
				c-0.5,0-0.9,0.1-1.2,0.2l-0.3,0.1l0.1-0.3c0,0,0-0.1,0.1-0.2c0.1-0.2,0.2-0.4,0.3-0.6l-3.6-2l0,0.1l1.2,0.6l0,0.1l-7.4,13.5
				L282,470.1L282,470.1z M290.8,468c-0.3,0-0.7-0.1-1-0.3c-0.7-0.4-0.9-1.1-0.9-1.3l0,0l0,0l3.8-6.9l0,0c0.3-0.1,0.6-0.2,0.9-0.2
				c0.3,0,0.7,0.1,0.9,0.2c0.6,0.3,0.9,1.1,0.8,2.1c-0.1,0.9-0.4,2.1-1,3.1c-0.4,0.7-1.1,1.8-1.9,2.5
				C291.9,467.7,291.3,468,290.8,468z M289.1,466.5c0,0.2,0.2,0.7,0.8,1.1c0.8,0.4,1.6,0.3,2.5-0.5c0.8-0.7,1.4-1.7,1.8-2.4
				c0.6-1.1,0.9-2.1,1-3.1c0.1-0.6,0-1.5-0.7-1.9c-0.2-0.1-0.5-0.2-0.8-0.2c-0.3,0-0.6,0.1-0.8,0.2L289.1,466.5z"/>
		</g>
		<g>
			<path class="st3" d="M295.1,475c0.3-0.6,1.1-1,1.8-0.7c0.6,0.3,1,1,0.7,1.8c-0.2,0.3-0.4,0.6-0.6,0.6c0.3,0,0.7-0.2,1.3-0.5
				c0.6-0.3,1.3-0.9,2.1-1.7c0-0.1,0-0.3,0-0.7c0-0.4,0-0.8,0-1.4c0-0.6,0-1.2,0-1.9c0-0.7,0-1.4,0-2.2c0-1.7,0-3.7,0-5.8l-1.1-0.5
				l0.1-0.3l5.4,2.4l-0.1,0.3l-1.2-0.5l-0.1,7.4l5-5.2l-1.2-0.5l0.1-0.3l2.6,1.2l-0.1,0.3l-1.1-0.5c-0.2,0.2-0.5,0.6-1,1
				c-0.8,0.9-1.8,1.9-2.9,3c-1.1,1.1-2.1,2.2-3,3c-0.9,0.9-1.5,1.4-2.4,2.1c-0.9,0.7-1.7,1.3-2.5,1.4c-0.4,0.1-0.8,0-1.1-0.1
				C295.2,476.4,294.8,475.7,295.1,475z"/>
			<path class="st3" d="M296.7,477c-0.3,0-0.5-0.1-0.8-0.2c-0.8-0.4-1.2-1.2-0.9-2c0.2-0.5,0.8-0.9,1.3-0.9c0.2,0,0.4,0,0.6,0.1
				c0.3,0.2,0.6,0.4,0.7,0.8c0.1,0.4,0.1,0.7,0,1.1c-0.1,0.1-0.1,0.3-0.2,0.3c0.2-0.1,0.5-0.2,0.7-0.3c0.5-0.3,1.2-0.8,2.1-1.6
				c0-0.1,0-0.2,0-0.4l0-0.3c0-0.2,0-0.4,0-0.6c0-0.2,0-0.5,0-0.8c0-0.3,0-0.6,0-1c0-0.3,0-0.6,0-1c0-0.7,0-1.4,0-2.2
				c0-0.9,0-1.8,0-2.7c0-0.9,0-1.9,0-3l-1.1-0.5l0.2-0.4l5.6,2.5l-0.2,0.4l-1.2-0.5l-0.1,7l4.7-4.9l-1.2-0.5l0.2-0.4l2.8,1.3
				l-0.2,0.4l-0.1,0l-1-0.5l-0.1,0.1c-0.2,0.2-0.5,0.5-0.8,0.8c-0.5,0.6-1.2,1.3-1.9,2c-0.3,0.3-0.7,0.7-1,1.1c-1.1,1.1-2.1,2.2-3,3
				c-0.9,0.9-1.6,1.5-2.4,2.1c-1,0.9-1.8,1.3-2.5,1.4C297,477,296.9,477,296.7,477z M296.5,476.8c0.2,0,0.4,0,0.6,0
				c0.7-0.1,1.4-0.6,2.4-1.4c0.8-0.7,1.5-1.2,2.4-2.1c0.9-0.9,1.9-1.9,3-3c0.3-0.4,0.7-0.7,1-1.1c0.7-0.7,1.3-1.4,1.9-2
				c0.3-0.3,0.6-0.6,0.8-0.8l0.2-0.2l1.1,0.5l0-0.1l-2.4-1.1l0,0.1l1.2,0.6l-0.1,0.1l-5.2,5.4l0.1-7.8l1.3,0.6l0-0.1l-5.3-2.4l0,0.1
				l1.1,0.5v0.1c0,1.1,0,2.1,0,3c0,1,0,1.9,0,2.7c0,0.7,0,1.4,0,2.2c0,0.3,0,0.7,0,1c0,0.3,0,0.7,0,1c0,0.3,0,0.6,0,0.8
				c0,0.2,0,0.4,0,0.6l0,0.3c0,0.2,0,0.4,0,0.4l0,0l0,0c-0.9,0.8-1.6,1.4-2.2,1.7c-0.6,0.3-1,0.5-1.3,0.5L296.5,476.8z M296.3,474.3
				c-0.5,0-0.9,0.3-1.1,0.7c-0.3,0.6,0.1,1.4,0.8,1.7c0.1,0,0.2,0.1,0.3,0.1l0.6-0.2c0.2-0.1,0.4-0.3,0.6-0.6c0.1-0.3,0.2-0.6,0-0.9
				c-0.1-0.3-0.4-0.6-0.6-0.7C296.7,474.3,296.5,474.3,296.3,474.3z"/>
		</g>
		<g>
			<path class="st3" d="M328.9,467.8l-1.3-0.4l0.1-0.3l2.7,0.9l-0.1,0.3l-1.1-0.4l-10.3,12.9l-0.3-0.1l-0.9-16.4l-1.1-0.4l0.1-0.3
				l5.9,1.8l-0.1,0.3l-1.3-0.4l0.6,11.2L328.9,467.8z"/>
			<path class="st3" d="M319,480.9l-0.5-0.1l0-0.1l-0.9-16.3l-1.2-0.4l0.1-0.5l0.1,0l6,1.9l-0.1,0.5l-1.2-0.4l0.6,10.8l6.8-8.5
				l-1.2-0.4l0.1-0.5l0.1,0l2.8,0.9l-0.1,0.5l-1.2-0.4L319,480.9z M318.7,480.7l0.2,0.1l10.3-12.9l1.1,0.3l0-0.1l-2.5-0.8l0,0.1
				l1.3,0.4l-7.3,9.1l0-0.3l-0.6-11.3l1.3,0.4l0-0.1l-5.8-1.8l0,0.1l1.1,0.3l0,0.1L318.7,480.7z"/>
		</g>
		<g>
			<path class="st3" d="M328.1,473.5c0.2,0,0.4,0,0.5,0c0.7,0.2,1.1,0.9,1,1.6c-0.2,0.7-0.9,1.1-1.6,0.9c-0.7-0.2-1.1-0.9-0.9-1.6
				c0.1-0.4,0.4-1,1.1-1.3c0.6-0.4,1.6-0.6,2.9-0.2c1.2,0.3,2,0.8,2.5,1.6c0.5,0.8,0.6,1.9,0.2,3.3l-1.2,4.6
				c-0.1,0.4-0.2,0.7-0.1,0.9c0,0.2,0.1,0.3,0.3,0.4c0.3,0.1,0.5-0.1,0.6-0.3l0.3,0.2c-0.1,0.1-0.3,0.4-0.6,0.5
				c-0.4,0.2-0.9,0.3-1.7,0.1c-1.1-0.3-1.6-0.9-1.8-1.5c-0.6,0.5-1.7,0.7-2.7,0.4c-0.9-0.2-1.6-0.6-2.1-1.2
				c-0.5-0.6-0.7-1.3-0.5-2.3c0.3-1,1.1-1.6,2.2-1.9c1.1-0.3,2.5-0.2,4,0l0.6-2.3c0.2-0.8,0.1-1.4-0.1-1.7c-0.2-0.3-0.6-0.6-0.9-0.6
				C329.4,472.9,328.6,473.1,328.1,473.5z M328.1,482.8c0.4,0.1,1.2-0.2,1.4-0.4c0-0.3,0.1-0.8,0.2-1.6l0.7-2.7
				c-1.6,0-2.7,0.9-3.1,2.4c-0.1,0.5-0.1,1,0,1.4C327.4,482.3,327.7,482.6,328.1,482.8z"/>
			<path class="st3" d="M332.1,484.4c-0.2,0-0.5,0-0.8-0.1c-1.1-0.3-1.6-0.9-1.8-1.5c-0.7,0.4-1.8,0.6-2.7,0.4
				c-0.9-0.2-1.7-0.7-2.2-1.2c-0.5-0.6-0.7-1.5-0.5-2.4c0.3-1,1-1.6,2.2-1.9c0.5-0.1,1.1-0.2,1.8-0.2c0.7,0,1.4,0.1,2.2,0.2l0.6-2.2
				c0.2-0.7,0.2-1.3,0-1.6c-0.2-0.3-0.5-0.5-0.9-0.6c-0.5-0.1-1.1,0-1.6,0.2c0.1,0,0.1,0,0.2,0c0.4,0.1,0.7,0.3,0.9,0.6
				c0.2,0.3,0.2,0.7,0.2,1c-0.2,0.6-0.7,1.1-1.4,1.1c-0.1,0-0.2,0-0.3,0c-0.7-0.2-1.2-0.9-1-1.7c0.1-0.4,0.5-1,1.2-1.4
				c0.8-0.5,1.8-0.6,3-0.3c1.2,0.3,2.1,0.8,2.6,1.6c0.5,0.8,0.6,2,0.2,3.4l-1.2,4.6c-0.1,0.4-0.1,0.7-0.1,0.9c0,0.2,0.1,0.3,0.2,0.3
				c0.2,0.1,0.4-0.1,0.5-0.3l0.1-0.1l0.4,0.3l0,0.1c-0.1,0.2-0.3,0.4-0.7,0.6C332.7,484.4,332.4,484.4,332.1,484.4z M329.6,482.5
				l0,0.1c0.2,0.5,0.6,1.2,1.7,1.5c0.6,0.2,1.1,0.1,1.6-0.1c0.3-0.1,0.5-0.3,0.5-0.4l-0.1-0.1c-0.2,0.2-0.4,0.3-0.7,0.3
				c-0.2-0.1-0.4-0.2-0.4-0.5c0-0.2,0-0.5,0.1-0.9l1.1-4.6c0.3-1.4,0.3-2.5-0.2-3.3c-0.4-0.7-1.2-1.2-2.4-1.5
				c-1.2-0.3-2.1-0.2-2.9,0.2c-0.6,0.4-1,0.9-1.1,1.3c-0.2,0.6,0.2,1.3,0.9,1.4c0.1,0,0.2,0,0.3,0c0.6,0,1-0.4,1.2-0.9
				c0.1-0.3,0-0.6-0.1-0.9c-0.2-0.3-0.4-0.5-0.7-0.5c-0.1,0-0.3-0.1-0.5,0l-0.4,0.1l0.3-0.2c0.6-0.4,1.4-0.6,2.1-0.4
				c0.4,0.1,0.8,0.4,1,0.7c0.2,0.4,0.2,1,0.1,1.8l-0.6,2.4l-0.1,0c-0.9-0.1-1.6-0.2-2.3-0.2c-0.7,0-1.2,0.1-1.7,0.2
				c-1.2,0.3-1.9,0.9-2.1,1.8c-0.2,0.9-0.1,1.6,0.5,2.2c0.5,0.5,1.2,0.9,2.1,1.2c0.9,0.2,2,0.1,2.6-0.4L329.6,482.5z M328.3,482.9
				L328.3,482.9c-0.1,0-0.2,0-0.2,0c-0.4-0.1-0.7-0.4-0.8-0.9c-0.1-0.4-0.1-1,0-1.5c0.4-1.6,1.5-2.4,3-2.4c0,0,0.1,0,0.1,0l0.1,0
				l-0.7,2.8c-0.2,0.6-0.2,1.1-0.2,1.5l0,0l0,0C329.4,482.7,328.7,482.9,328.3,482.9z M330.3,478.2c-1.4,0-2.5,0.8-2.8,2.3
				c-0.1,0.5-0.1,1,0,1.4c0.1,0.4,0.3,0.7,0.7,0.8c0.1,0,0.1,0,0.2,0c0.4,0,0.9-0.2,1.1-0.4c0-0.4,0.1-0.9,0.2-1.5L330.3,478.2z"/>
		</g>
		<g>
			<path class="st3" d="M338.8,485.4l1.3,0.3l-0.1,0.3l-5.7-1.2l0.1-0.3l1.3,0.3l3.4-15.3l-1.3-0.3l0.1-0.3l4.4,1L338.8,485.4z"/>
			<path class="st3" d="M340.1,486.1l-5.8-1.3l0.1-0.5l1.3,0.3l3.3-15.1l-1.3-0.3l0.1-0.5l4.6,1l-3.4,15.6l1.3,0.3L340.1,486.1z
				 M334.5,484.6l5.5,1.2l0-0.1l-1.3-0.3l3.4-15.6l-4.2-0.9l0,0.1l1.3,0.3l-3.4,15.5L334.5,484.6L334.5,484.6z"/>
		</g>
		<g>
			<path class="st3" d="M350.3,485.5c-0.3,0.5-0.8,1-1.5,1.4c-0.7,0.4-1.7,0.6-2.9,0.4c-1.5-0.3-2.5-1.1-3-2.3
				c-0.6-1.1-0.7-2.5-0.5-3.8c0.3-1.5,1-2.8,2.1-3.6c1-0.8,2.4-1.2,3.8-0.9c0.8,0.1,1.6,0.5,2.3,1c0.6,0.6,1,1.3,0.8,2.2
				c-0.2,1-1,1.5-2.1,1.7c-1.1,0.2-2.4,0-3.6-0.1c-0.1,0.8-0.1,1.9,0.1,2.7c0.3,0.9,0.8,1.6,1.8,1.8c0.6,0.1,1.2,0,1.6-0.1
				c0.4-0.2,0.7-0.4,0.9-0.6L350.3,485.5z M348.8,479c0.2-1.1-0.1-2-0.6-2.1c-0.3-0.1-0.8,0.2-1.2,0.9c-0.5,0.7-0.9,1.8-1.2,3.3
				C347.7,481.4,348.5,480.8,348.8,479z"/>
			<path class="st3" d="M346.7,487.5c-0.3,0-0.6,0-0.9-0.1c-1.4-0.3-2.5-1.1-3.1-2.3c-0.6-1.1-0.7-2.5-0.5-3.9
				c0.3-1.5,1-2.8,2.2-3.7c0.9-0.7,1.9-1,3-1c0.3,0,0.6,0,0.9,0.1c0.5,0.1,1.5,0.4,2.3,1c0.7,0.7,1,1.4,0.9,2.3
				c-0.2,1-0.9,1.6-2.2,1.8c-0.3,0-0.7,0.1-1.1,0.1c-0.8,0-1.6-0.1-2.4-0.2c-0.1,0.5-0.2,1.6,0.2,2.6c0.3,1,0.9,1.6,1.7,1.7
				c0.5,0.1,1.1,0,1.5-0.1c0.4-0.2,0.7-0.4,0.8-0.5l0.1-0.1l0.4,0.3l0,0.1c-0.3,0.6-0.9,1.1-1.6,1.5
				C348.2,487.3,347.5,487.5,346.7,487.5z M347.4,476.7c-1.1,0-2,0.3-2.9,1c-1.1,0.8-1.8,2.1-2.1,3.6c-0.2,1.3-0.1,2.7,0.5,3.7
				c0.6,1.2,1.6,2,3,2.2c1.1,0.2,2,0.1,2.9-0.4c0.6-0.3,1.2-0.8,1.5-1.3l-0.1-0.1c-0.2,0.2-0.5,0.4-0.8,0.5
				c-0.5,0.2-1.1,0.3-1.6,0.1c-0.9-0.2-1.6-0.8-1.9-1.8c-0.4-1.1-0.2-2.3-0.2-2.8l0-0.1l0.1,0c0.9,0.1,1.7,0.2,2.5,0.2
				c0.4,0,0.7,0,1-0.1c1.2-0.2,1.8-0.7,2-1.6c0.1-0.8-0.1-1.5-0.8-2.1c-0.6-0.5-1.4-0.8-2.2-1C347.9,476.7,347.6,476.7,347.4,476.7z
				 M346.4,481.3C346.4,481.3,346.4,481.3,346.4,481.3c-0.2,0-0.5,0-0.7,0l-0.1,0l0-0.1c0.4-1.8,0.9-2.8,1.2-3.4
				c0.5-0.7,0.9-1,1.3-0.9c0.5,0.1,1,1,0.7,2.2C348.6,480.7,347.9,481.3,346.4,481.3z M345.8,481.1c0.2,0,0.4,0,0.6,0
				c1.4,0,2-0.6,2.3-2.1c0.2-1.1-0.1-1.9-0.6-2c-0.3-0.1-0.7,0.2-1.1,0.9C346.7,478.4,346.2,479.4,345.8,481.1z"/>
		</g>
		<g>
			<path class="st3" d="M354.3,478.2l-1.3-0.2l0-0.3l4.3,0.5c-0.1,0.5-0.1,0.8-0.1,1.1c0,0.2,0,0.2,0,0.2c0.3-0.3,0.8-0.6,1.5-0.8
				c0.6-0.2,1.3-0.4,2-0.3c2,0.2,3,1.5,2.7,3.8l-0.8,6.8l1.3,0.2l0,0.3l-5.6-0.7l0-0.3l1.2,0.1l0.8-6.5c0.2-1.7,0.1-2.7-1.2-2.9
				c-0.4-0.1-0.8,0.1-1.1,0.2c-0.3,0.2-0.6,0.4-0.7,0.5l-1,8.2l1.2,0.1l0,0.3l-5.6-0.7l0-0.3l1.3,0.2L354.3,478.2z"/>
			<path class="st3" d="M364,489.7L364,489.7l-5.8-0.7l0.1-0.5l1.2,0.1l0.8-6.4c0.2-1.7,0.1-2.6-1.1-2.7c-0.3,0-0.7,0-1.1,0.2
				c-0.3,0.1-0.5,0.3-0.7,0.5l-1,8.1l1.2,0.1l-0.1,0.5l-5.8-0.7l0.1-0.5l1.3,0.2l1.1-9.5l-1.3-0.2l0.1-0.5l4.5,0.5l0,0.1
				c-0.1,0.5-0.1,0.8-0.1,1.1c0,0,0,0,0,0c0.3-0.2,0.7-0.5,1.3-0.7c0.7-0.3,1.4-0.4,2.1-0.3c2.1,0.3,3.1,1.6,2.8,3.9l-0.8,6.7
				l1.3,0.2L364,489.7z M358.4,488.8l5.4,0.7l0-0.1l-1.3-0.2l0-0.1l0.8-6.8c0.3-2.2-0.6-3.4-2.6-3.7c-0.6-0.1-1.3,0-2,0.3
				c-0.7,0.3-1.2,0.7-1.4,0.8l-0.2,0.1l0-0.2c0,0,0-0.1,0-0.2c0-0.3,0-0.6,0.1-1l-4.1-0.5l0,0.1l1.3,0.2l0,0.1l-1.2,9.8l-1.3-0.2
				l0,0.1l5.4,0.6l0-0.1l-1.2-0.1l0-0.1l1-8.3l0,0c0.1-0.1,0.4-0.4,0.7-0.5c0.4-0.2,0.8-0.3,1.2-0.2c1.5,0.2,1.5,1.5,1.3,3l-0.8,6.6
				L358.4,488.8L358.4,488.8z"/>
		</g>
		<g>
			<path class="st3" d="M371.8,489.5c-0.3,0.3-1.2,0.7-2.1,0.6c-0.6,0-1.4-0.1-2-0.6c-0.6-0.5-1-1.4-0.9-2.9l0.4-6.9l-1-0.1l0-0.3
				l1,0.1l0.1-1.4c0.6,0,1.3-0.1,1.9-0.4c0.5-0.3,0.9-0.8,1.1-1.3l0.3,0l-0.2,3.3l2,0.1l0,0.3l-2-0.1l-0.5,8.3
				c-0.1,1,0.4,1.5,0.9,1.5c0.4,0,0.8-0.2,0.9-0.3c0,0,0.1,0.1,0.1,0.1C371.8,489.5,371.8,489.5,371.8,489.5z"/>
			<path class="st3" d="M369.8,490.2c-0.1,0-0.1,0-0.2,0c-0.6,0-1.4-0.1-2.1-0.7c-0.7-0.6-1-1.6-0.9-3l0.4-6.8l-1-0.1l0-0.5l1,0.1
				l0.1-1.4l0.1,0c0.6,0,1.3-0.1,1.8-0.4c0.6-0.3,0.9-0.7,1-1.2l0-0.1l0.5,0l-0.2,3.3l2,0.1l0,0.5l-2-0.1l-0.5,8.2
				c0,0.5,0.1,0.9,0.3,1.2c0.1,0.2,0.3,0.2,0.5,0.2c0,0,0.1,0,0.1,0c0.4,0,0.7-0.2,0.8-0.3l0.1-0.1l0.1,0.1c0,0,0,0.1,0.1,0.1
				c0.1,0.1,0.1,0.2,0.1,0.2l0,0.1h0C371.5,489.9,370.7,490.2,369.8,490.2z M366.2,479.5l1,0.1l-0.4,7c-0.1,1.3,0.2,2.3,0.9,2.9
				c0.6,0.5,1.3,0.6,2,0.6c0.1,0,0.1,0,0.2,0c0.8,0,1.5-0.3,1.8-0.6c0,0,0,0,0,0c0,0,0,0,0,0c-0.2,0.1-0.4,0.3-0.8,0.3
				c0,0-0.1,0-0.1,0c-0.3,0-0.5-0.1-0.7-0.3c-0.2-0.3-0.4-0.7-0.3-1.3l0.5-8.4l2,0.1l0-0.1l-2-0.1l0.2-3.3l-0.1,0
				c-0.1,0.5-0.5,1-1.1,1.3c-0.5,0.3-1.2,0.5-1.8,0.5l-0.1,1.4L366.2,479.5L366.2,479.5z"/>
		</g>
		<g>
			<path class="st3" d="M373.3,479.9v-0.3l4.5,0l-0.1,10.1l1.3,0l0,0.3l-5.8-0.1l0-0.3l1.3,0l0.1-9.8L373.3,479.9z M376.2,474.6
				c-0.9,0-1.7,0.7-1.7,1.7c0,0.9,0.7,1.7,1.7,1.7c0.9,0,1.7-0.8,1.7-1.7C377.9,475.4,377.2,474.6,376.2,474.6z"/>
			<path class="st3" d="M379.1,490.2L379.1,490.2l-6-0.1l0-0.5l0.1,0l1.2,0l0.1-9.6l-1.3,0l0-0.5l0.1,0l4.6,0l0,0.1l-0.1,10l1.3,0
				L379.1,490.2z M373.3,489.9l5.6,0v-0.1l-1.3,0l0-0.1l0.1-10l-4.3,0v0.1l1.3,0l0,0.1l-0.1,9.9l-0.1,0L373.3,489.9L373.3,489.9z
				 M376.2,478.1L376.2,478.1L376.2,478.1c-0.5,0-0.9-0.2-1.3-0.5c-0.3-0.3-0.5-0.8-0.5-1.3c0-1,0.8-1.8,1.8-1.8
				c0.5,0,0.9,0.2,1.3,0.5c0.3,0.3,0.5,0.8,0.5,1.3C378,477.3,377.2,478.1,376.2,478.1z M376.2,474.7c-0.9,0-1.6,0.7-1.6,1.6
				c0,0.4,0.2,0.8,0.5,1.1c0.3,0.3,0.7,0.5,1.1,0.5l0,0.1v-0.1c0.9,0,1.6-0.7,1.6-1.6c0-0.4-0.2-0.8-0.4-1.1
				C377,474.9,376.6,474.7,376.2,474.7z"/>
		</g>
		<g>
			<path class="st3" d="M381.4,480l-1.3,0.1l0-0.3l4.3-0.3c0,0.5,0.1,0.8,0.1,1.1c0,0.2,0,0.2,0,0.2c0.3-0.3,0.7-0.8,1.3-1.1
				c0.5-0.4,1.2-0.6,1.9-0.7c2-0.2,3.2,0.9,3.4,3.2l0.5,6.8l1.3-0.1l0,0.3l-5.6,0.4l0-0.3l1.2-0.1l-0.5-6.5
				c-0.1-1.7-0.4-2.7-1.7-2.6c-0.4,0-0.8,0.2-1,0.4c-0.3,0.2-0.5,0.5-0.6,0.6l0.6,8.3l1.2-0.1l0,0.3l-5.6,0.4l0-0.3l1.3-0.1
				L381.4,480z"/>
			<path class="st3" d="M380.8,490.3l0-0.5l1.3-0.1l-0.7-9.6l-1.3,0.1l0-0.5l4.5-0.3l0,0.1c0,0.5,0.1,0.8,0.1,1.1v0
				c0.2-0.3,0.6-0.6,1.1-1c0.6-0.4,1.3-0.6,2-0.7c2.1-0.2,3.3,1,3.5,3.3l0.5,6.7l1.3-0.1l0,0.5l-5.8,0.4l0-0.5l1.2-0.1l-0.5-6.4
				c-0.1-1.7-0.4-2.6-1.6-2.5c-0.3,0-0.6,0.2-1,0.4c-0.3,0.2-0.5,0.4-0.6,0.6l0.6,8.1l1.2-0.1l0,0.5L380.8,490.3z M380.9,490
				L380.9,490l5.4-0.3l0-0.1l-1.2,0.1l0-0.1l-0.6-8.3l0,0c0.1-0.2,0.4-0.5,0.6-0.7c0.4-0.3,0.8-0.4,1.1-0.5c0.1,0,0.1,0,0.2,0
				c1.3,0,1.6,1.3,1.7,2.7l0.5,6.6l-1.2,0.1l0,0.1l5.4-0.4l0-0.1l-1.3,0.1l0-0.1l-0.5-6.8c-0.2-2.1-1.1-3.1-2.9-3.1
				c-0.1,0-0.2,0-0.4,0c-0.6,0.1-1.3,0.3-1.9,0.7c-0.6,0.4-1.1,0.9-1.2,1.1l-0.2,0.2v-0.3c0,0,0-0.1,0-0.1l0-0.1
				c0-0.2-0.1-0.6-0.1-1l-4.1,0.3l0,0.1l1.3-0.1l0,0.1l0.8,9.9L380.9,490z"/>
		</g>
		<g>
			<path class="st3" d="M403.2,484.8c-0.1,0.6-0.3,1.3-0.9,1.9c-0.5,0.6-1.4,1.2-2.6,1.5c-1.5,0.3-2.7-0.1-3.7-1
				c-1-0.8-1.6-2.1-1.9-3.3c-0.3-1.5-0.1-3,0.6-4.2c0.7-1.2,1.8-2,3.2-2.3c0.8-0.2,1.7-0.2,2.5,0.1c0.8,0.3,1.4,0.8,1.6,1.8
				c0.2,1-0.4,1.8-1.3,2.3c-0.9,0.6-2.2,0.9-3.4,1.2c0.2,0.8,0.6,1.8,1.2,2.5c0.6,0.7,1.3,1.2,2.3,1c0.6-0.1,1.1-0.4,1.4-0.7
				c0.3-0.3,0.5-0.6,0.6-0.8L403.2,484.8z M399.5,479.4c-0.2-1.1-0.9-1.8-1.4-1.7c-0.3,0.1-0.6,0.5-0.8,1.3c-0.2,0.8-0.2,2,0.1,3.5
				C399.3,482,399.8,481.2,399.5,479.4z"/>
			<path class="st3" d="M398.9,488.4c-1,0-2-0.4-2.8-1.1c-0.9-0.8-1.6-2-1.9-3.4c-0.3-1.5-0.1-3,0.6-4.2c0.7-1.2,1.8-2.1,3.3-2.3
				c0.4-0.1,0.7-0.1,1.1-0.1c0.5,0,1,0.1,1.4,0.2c0.9,0.3,1.5,1,1.7,1.8c0.2,1-0.3,1.8-1.4,2.4c-0.9,0.5-2.1,0.9-3.3,1.2
				c0.1,0.5,0.4,1.5,1.1,2.3c0.7,0.8,1.4,1.1,2.2,0.9c0.5-0.1,1-0.4,1.4-0.7c0.3-0.3,0.5-0.6,0.6-0.8l0-0.1l0.5,0.2l0,0.1
				c-0.1,0.6-0.4,1.4-0.9,2c-0.6,0.8-1.5,1.3-2.6,1.5C399.5,488.4,399.2,488.4,398.9,488.4z M399.2,477.4c-0.4,0-0.7,0-1.1,0.1
				c-1.4,0.3-2.5,1.1-3.1,2.2c-0.7,1.2-0.9,2.6-0.6,4.1c0.3,1.3,0.9,2.5,1.8,3.3c1,0.9,2.3,1.2,3.6,1c1.1-0.2,1.9-0.7,2.5-1.4
				c0.5-0.6,0.8-1.2,0.9-1.8l-0.1,0c-0.1,0.2-0.3,0.5-0.6,0.8c-0.4,0.4-0.9,0.6-1.5,0.7c-0.9,0.2-1.7-0.2-2.4-1
				c-0.7-0.9-1.1-2.1-1.2-2.5l0-0.1l0.1,0c1.2-0.3,2.4-0.7,3.3-1.2c1-0.6,1.4-1.3,1.3-2.2c-0.2-0.8-0.7-1.4-1.5-1.7
				C400.1,477.5,399.7,477.4,399.2,477.4z M397.3,482.7l0-0.1c-0.3-1.8-0.3-3-0.1-3.6c0.2-1,0.6-1.3,0.9-1.4c0,0,0.1,0,0.1,0
				c0.6,0,1.2,0.8,1.4,1.8c0.4,1.8-0.2,2.7-2.1,3.2L397.3,482.7z M398.2,477.8C398.2,477.8,398.1,477.8,398.2,477.8
				c-0.4,0.1-0.7,0.5-0.8,1.2c-0.1,0.6-0.2,1.7,0.1,3.4c1.8-0.5,2.2-1.3,1.9-3C399.2,478.4,398.6,477.8,398.2,477.8z"/>
		</g>
	</g>
</g>
</svg>
