<?xml version="1.0" encoding="utf-8"?>
<!-- Generator: Adobe Illustrator 22.1.0, SVG Export Plug-In . SVG Version: 6.00 Build 0)  -->
<svg version="1.1" id="Layer_1" xmlns="http://www.w3.org/2000/svg" xmlns:xlink="http://www.w3.org/1999/xlink" x="0px" y="0px"
	 viewBox="0 0 612 792" style="enable-background:new 0 0 612 792;" xml:space="preserve">
<style type="text/css">
	.st0{fill:#604D48;}
	.st1{fill:#FFFAEF;}
	.st2{fill:#4BAB99;}
	.st3{fill-rule:evenodd;clip-rule:evenodd;fill:#A0928D;}


			.st1:hover
			{
			fill:red;


</style>
<g>
	<g>
		<path class="st0" d="M380.8,524.6c-8.3,0-16.6-1.7-23.3-4.9c-6.9-3.3-14.3-5-22.2-4.9c-9.3,0.1-16.9,2.5-20.7,4l-7,3l-7.1-2.9
			c-3.8-1.4-11.4-3.8-20.7-3.7c-7.8,0-15.3,1.8-22.1,5.1c-6.6,3.3-14.9,5.1-23.2,5.1c-18,0.1-33.3-7.9-41.9-21.9
			c-11.1-18-4.8-34.8,0.7-49.6c2.3-6.3,4.8-12.8,6.2-19.6c2.6-12.9-2.6-24.5-4.9-28.8c-0.7-1.4-1.3-2.2-1.3-2.2l-3.7-5.6l3.7-5.6
			c0,0,0,0,0,0s0.5-0.8,1.2-2.2c2.3-4.4,7.4-16,4.6-28.9c-1.5-6.8-4-13.3-6.4-19.5c-5.7-14.8-12.1-31.5-1.2-49.6
			c8.5-14.1,23.7-22.3,41.7-22.4c8.3,0,16.6,1.7,23.3,4.9c6.9,3.3,14.3,5,22.2,4.9c9.3,0,16.9-2.5,20.7-4l7.1-3l7.1,2.9
			c3.8,1.4,11.4,3.8,20.7,3.7c7.8,0,15.3-1.8,22.1-5.1c6.6-3.3,14.9-5.1,23.2-5.1c18-0.1,33.3,7.9,41.9,21.9
			c11.1,18,4.8,34.8-0.7,49.6c-2.3,6.3-4.8,12.8-6.2,19.6c-2.6,12.9,2.6,24.4,4.9,28.8c0.7,1.4,1.3,2.2,1.3,2.2l3.7,5.6l-3.7,5.6v0
			c0,0-0.5,0.8-1.2,2.2c-2.3,4.4-7.4,16-4.6,28.9c1.5,6.8,4,13.3,6.4,19.5c5.7,14.8,12.1,31.5,1.2,49.6
			C414,516.3,398.8,524.5,380.8,524.6C380.8,524.6,380.8,524.6,380.8,524.6z"/>
		<path class="st1" d="M410.7,399.5c1-2,1.8-3.1,1.8-3.1s-0.7-1.1-1.8-3.1c-3.2-5.9-9.1-19.7-5.9-35.6c5-24.3,20.5-41.9,8.1-62
			c-12.4-20.1-38.7-19.7-52.2-13.1c-21.9,10.8-43,4.8-50.9,1.7l-3.4-1.4l-3.3,1.4c-7.9,3.1-28.9,9.4-50.9-1.2
			c-13.6-6.5-39.9-6.6-52.1,13.6c-12.2,20.3,3.6,37.6,8.8,61.9c3.4,15.8-2.4,29.7-5.5,35.6c-1,2-1.8,3.1-1.8,3.1s0.8,1.1,1.8,3.1
			c3.2,5.9,9.1,19.7,5.9,35.6c-5,24.3-20.5,41.9-8.1,62c12.4,20.1,38.7,19.7,52.2,13.1c21.9-10.8,43-4.8,50.9-1.7l3.3,1.4l3.3-1.4
			c7.9-3.1,28.9-9.4,50.9,1.2c13.6,6.5,39.9,6.6,52.1-13.6c12.2-20.3-3.6-37.6-8.8-61.9C401.8,419.3,407.5,405.5,410.7,399.5z"/>
		<g>
			<g>
				<g>
					<path class="st0" d="M208.1,399.6c0.7,1.4-0.7,3.4-3,4.5c-2.3,1-4.7,0.9-5.3-0.3c-0.6-1.2,0.7-3.1,2.9-4.4
						C204.9,398.1,207.3,398.2,208.1,399.6z"/>
				</g>
				<g>
					<path class="st0" d="M211.2,406.9c0.5,1.5-1.1,3.3-3.5,4.1c-2.4,0.7-4.7,0.3-5.2-0.9c-0.4-1.2,1.1-3,3.4-4
						C208.3,405,210.7,405.4,211.2,406.9z"/>
				</g>
				<g>
					<path class="st0" d="M213.4,414.6c0.3,1.6-1.5,3.2-4,3.6c-2.5,0.4-4.7-0.3-5-1.6c-0.3-1.3,1.4-2.9,3.9-3.6
						C210.7,412.3,213.1,413,213.4,414.6z"/>
				</g>
				<g>
					<path class="st0" d="M214.6,422.5c0.1,1.6-1.9,2.9-4.5,3c-2.6,0.1-4.6-1-4.8-2.2c-0.1-1.3,1.8-2.6,4.3-3
						C212.3,419.9,214.5,420.9,214.6,422.5z"/>
				</g>
				<g>
					<path class="st0" d="M214.7,430.6c-0.1,1.6-2.3,2.6-4.9,2.3c-2.5-0.4-4.4-1.7-4.4-2.9c0.1-1.3,2.2-2.3,4.7-2.3
						C212.7,427.6,214.8,428.9,214.7,430.6z"/>
				</g>
				<g>
					<path class="st0" d="M213.5,438.5c-0.3,1.5-2.7,2.2-5.1,1.6c-2.5-0.6-4.2-2.2-3.9-3.6c0.3-1.3,2.5-2,5-1.6
						C212,435.4,213.8,437,213.5,438.5z"/>
				</g>
				<g>
					<path class="st0" d="M211.5,446c-0.4,1.5-2.8,2-5.2,1.2c-2.4-0.8-4-2.5-3.6-3.8c0.4-1.3,2.7-1.8,5.2-1.2
						C210.3,442.8,212,444.6,211.5,446z"/>
				</g>
				<g>
					<path class="st0" d="M209.1,453.2c-0.5,1.4-2.9,1.8-5.3,0.9c-2.4-0.9-3.9-2.7-3.5-4c0.5-1.3,2.8-1.7,5.2-0.9
						C208,450,209.6,451.8,209.1,453.2z"/>
				</g>
				<g>
					<path class="st0" d="M206.5,460.2c-0.5,1.4-2.8,1.7-5.2,0.9c-2.4-0.9-3.9-2.7-3.4-4.1c0.5-1.4,2.9-1.7,5.3-0.8
						C205.5,457,207,458.9,206.5,460.2z"/>
				</g>
				<g>
					<path class="st0" d="M204.1,467c-0.4,1.3-2.7,1.8-5.2,1c-2.4-0.7-4.1-2.5-3.6-4c0.5-1.4,2.8-1.9,5.2-1
						C203,463.9,204.5,465.7,204.1,467z"/>
				</g>
				<g>
					<path class="st0" d="M202.1,473.7c-0.3,1.3-2.5,1.9-5,1.5c-2.5-0.4-4.3-2.1-4-3.6c0.4-1.5,2.7-2.2,5.2-1.5
						C200.8,470.8,202.5,472.4,202.1,473.7z"/>
				</g>
				<g>
					<path class="st0" d="M201.1,480.2c-0.1,1.2-2.1,2.3-4.7,2.3c-2.5,0.1-4.7-1.3-4.5-2.9c0.1-1.7,2.4-2.7,4.9-2.3
						C199.3,477.7,201.2,479,201.1,480.2z"/>
				</g>
				<g>
					<path class="st0" d="M201.4,486.5c0.2,1.2-1.5,2.6-4,3.4c-2.4,0.7-4.8-0.1-5.1-1.8c-0.3-1.7,1.7-3.2,4.2-3.4
						C199.1,484.5,201.2,485.3,201.4,486.5z"/>
				</g>
				<g>
					<path class="st0" d="M203.3,492.4c0.5,1.1-0.8,3-3,4.2c-2.2,1.3-4.7,1.1-5.4-0.4c-0.7-1.5,0.8-3.5,3.2-4.3
						C200.5,491.1,202.8,491.3,203.3,492.4z"/>
				</g>
				<g>
					<path class="st0" d="M206.5,497.9c0.7,1-0.2,3.1-2.1,4.8c-1.9,1.7-4.4,2-5.4,0.7c-1-1.3,0.1-3.6,2.2-4.9
						C203.5,497.2,205.8,497,206.5,497.9z"/>
				</g>
				<g>
					<path class="st0" d="M210.8,502.6c0.9,0.8,0.5,3.1-1,5.1c-1.5,2.1-3.8,2.9-5.1,1.8c-1.3-1.1-0.7-3.5,1.2-5.3
						C207.7,502.5,209.9,501.8,210.8,502.6z"/>
				</g>
				<g>
					<path class="st0" d="M216,506.3c1.1,0.6,1.1,2.9,0.1,5.2c-1,2.3-3.1,3.7-4.6,2.8c-1.5-0.8-1.4-3.3,0-5.4
						C213,506.9,215,505.7,216,506.3z"/>
				</g>
				<g>
					<path class="st0" d="M222,508.9c1.2,0.4,1.7,2.6,1.1,5.1c-0.6,2.5-2.4,4.2-3.9,3.7c-1.6-0.5-2-2.9-1-5.3
						C219.1,510,220.8,508.5,222,508.9z"/>
				</g>
				<g>
					<path class="st0" d="M228.4,510.3c1.3,0.2,2.2,2.3,2,4.9c-0.2,2.5-1.6,4.5-3.2,4.3c-1.6-0.2-2.5-2.5-1.9-5
						C225.7,512,227.1,510.2,228.4,510.3z"/>
				</g>
				<g>
					<path class="st0" d="M235,510.7c1.3,0,2.5,2,2.7,4.5c0.2,2.5-0.9,4.7-2.5,4.7c-1.6,0-2.8-2.1-2.7-4.6
						C232.6,512.8,233.7,510.8,235,510.7z"/>
				</g>
				<g>
					<path class="st0" d="M241.7,510.1c1.3-0.2,2.8,1.6,3.4,4c0.6,2.5-0.2,4.8-1.8,5.1c-1.6,0.3-3.1-1.6-3.4-4.2
						C239.6,512.5,240.4,510.3,241.7,510.1z"/>
				</g>
				<g>
					<path class="st0" d="M248.1,508.5c1.2-0.4,2.9,1.1,4,3.4c1.1,2.3,0.7,4.8-0.9,5.3c-1.6,0.6-3.4-1.1-4-3.6
						C246.4,511.2,246.9,508.9,248.1,508.5z"/>
				</g>
				<g>
					<path class="st0" d="M254.6,505.6c1.5-0.6,3.4,0.9,4.2,3.3c0.9,2.4,0.6,4.7-0.6,5.2c-1.2,0.5-3.1-0.9-4.2-3.2
						C252.9,508.7,253.1,506.2,254.6,505.6z"/>
				</g>
				<g>
					<path class="st0" d="M262.1,503c1.5-0.4,3.2,1.3,3.8,3.8c0.6,2.5,0,4.7-1.3,5.1c-1.3,0.4-2.9-1.3-3.8-3.7
						C260,505.8,260.5,503.4,262.1,503z"/>
				</g>
				<g>
					<path class="st0" d="M269.8,501.3c1.6-0.2,3,1.7,3.3,4.2c0.3,2.5-0.6,4.7-1.9,4.9c-1.3,0.2-2.8-1.6-3.3-4.1
						C267.4,503.8,268.3,501.5,269.8,501.3z"/>
				</g>
				<g>
					<path class="st0" d="M277.7,500.5c1.6-0.1,2.8,2,2.8,4.6c0,2.6-1.1,4.6-2.5,4.7c-1.3,0-2.6-1.9-2.8-4.5
						C275,502.7,276.1,500.6,277.7,500.5z"/>
				</g>
				<g>
					<path class="st0" d="M285.6,500.7c1.6,0.1,2.6,2.3,2.3,4.9c-0.3,2.5-1.6,4.5-3,4.4c-1.3-0.1-2.3-2.2-2.3-4.8
						C282.7,502.6,284.1,500.6,285.6,500.7z"/>
				</g>
				<g>
					<path class="st0" d="M293.4,501.7c1.5,0.3,2.3,2.6,1.7,5.1c-0.6,2.5-2.1,4.3-3.4,4c-1.3-0.2-2.1-2.4-1.7-5
						C290.4,503.3,291.9,501.4,293.4,501.7z"/>
				</g>
				<g>
					<path class="st0" d="M301.1,503.6c1.5,0.4,2,2.8,1.2,5.2c-0.8,2.4-2.5,4-3.8,3.6c-1.3-0.4-1.8-2.7-1.2-5.1
						C297.8,504.8,299.6,503.1,301.1,503.6z"/>
				</g>
			</g>
			<g>
				<g>
					<path class="st0" d="M414.3,402.6c-0.6,1.2-2.9,1.3-5.3,0.3c-2.3-1-3.7-3-3-4.4c0.7-1.4,3.2-1.5,5.4-0.3
						C413.6,399.5,414.8,401.5,414.3,402.6z"/>
				</g>
				<g>
					<path class="st0" d="M411.6,408.9c-0.4,1.2-2.7,1.7-5.2,1c-2.5-0.7-4.1-2.5-3.6-4c0.5-1.5,2.9-1.9,5.3-0.9
						C410.5,405.9,412.1,407.7,411.6,408.9z"/>
				</g>
				<g>
					<path class="st0" d="M409.8,415.5c-0.3,1.3-2.5,2-5,1.6c-2.5-0.4-4.4-2-4-3.5c0.3-1.6,2.7-2.3,5.1-1.6
						C408.3,412.6,410.1,414.2,409.8,415.5z"/>
				</g>
				<g>
					<path class="st0" d="M408.9,422.1c-0.1,1.3-2.2,2.3-4.7,2.3c-2.6,0-4.6-1.3-4.5-2.9c0.1-1.6,2.3-2.6,4.9-2.3
						C407,419.5,408.9,420.8,408.9,422.1z"/>
				</g>
				<g>
					<path class="st0" d="M408.9,428.8c0.1,1.3-1.8,2.6-4.3,3c-2.5,0.4-4.8-0.6-4.9-2.2c-0.1-1.6,1.9-3,4.5-3
						C406.7,426.5,408.8,427.5,408.9,428.8z"/>
				</g>
				<g>
					<path class="st0" d="M410,435.4c0.3,1.3-1.4,2.9-3.9,3.6c-2.5,0.7-4.8,0-5.1-1.5c-0.4-1.5,1.4-3.2,4-3.6
						C407.4,433.5,409.6,434.1,410,435.4z"/>
				</g>
				<g>
					<path class="st0" d="M411.8,442.2c0.4,1.3-1.2,3.1-3.6,3.9c-2.4,0.8-4.8,0.3-5.2-1.1c-0.5-1.4,1.2-3.2,3.6-3.9
						C409.1,440.4,411.4,440.9,411.8,442.2z"/>
				</g>
				<g>
					<path class="st0" d="M414.2,449c0.5,1.3-1,3.2-3.4,4.1c-2.4,0.9-4.7,0.5-5.3-0.9c-0.5-1.4,1-3.2,3.4-4.1
						C411.3,447.3,413.7,447.6,414.2,449z"/>
				</g>
				<g>
					<path class="st0" d="M416.8,455.8c0.5,1.4-1,3.2-3.4,4.1c-2.4,0.9-4.7,0.5-5.3-0.8c-0.5-1.3,1-3.2,3.4-4.1
						C413.9,454.1,416.2,454.5,416.8,455.8z"/>
				</g>
				<g>
					<path class="st0" d="M419.4,462.9c0.5,1.4-1.1,3.2-3.5,4c-2.4,0.8-4.7,0.3-5.2-1c-0.5-1.3,1.1-3.1,3.5-4
						C416.5,461,418.9,461.5,419.4,462.9z"/>
				</g>
				<g>
					<path class="st0" d="M421.6,470.3c0.4,1.5-1.4,3.2-3.9,3.7c-2.5,0.5-4.7-0.2-5.1-1.5c-0.3-1.3,1.4-2.9,3.8-3.6
						C418.9,468.2,421.3,468.8,421.6,470.3z"/>
				</g>
				<g>
					<path class="st0" d="M423,478.4c0.1,1.7-2,3-4.5,3c-2.6,0-4.6-1.1-4.7-2.3c-0.1-1.2,1.8-2.6,4.3-3
						C420.6,475.7,422.9,476.7,423,478.4z"/>
				</g>
				<g>
					<path class="st0" d="M422.6,486.8c-0.3,1.7-2.6,2.5-5.1,1.8c-2.5-0.7-4.2-2.2-4-3.3c0.2-1.2,2.3-2,4.9-1.9
						C420.9,483.6,422.9,485.1,422.6,486.8z"/>
				</g>
				<g>
					<path class="st0" d="M420.2,495c-0.7,1.6-3.2,1.7-5.4,0.5c-2.2-1.2-3.6-3.1-3.1-4.2c0.5-1.1,2.8-1.4,5.2-0.6
						C419.4,491.5,420.9,493.5,420.2,495z"/>
				</g>
				<g>
					<path class="st0" d="M416.1,502.3c-1,1.4-3.4,1-5.4-0.6c-1.9-1.7-2.9-3.8-2.1-4.8c0.7-1,3-0.8,5.2,0.5
						C416,498.7,417,500.9,416.1,502.3z"/>
				</g>
				<g>
					<path class="st0" d="M410.5,508.5c-1.3,1.1-3.6,0.3-5.1-1.8c-1.5-2.1-2-4.3-1.1-5.1c0.9-0.8,3.1-0.1,5,1.6
						C411.1,504.9,411.7,507.4,410.5,508.5z"/>
				</g>
				<g>
					<path class="st0" d="M403.7,513.4c-1.5,0.8-3.5-0.5-4.6-2.8c-1.1-2.3-1-4.6,0-5.2c1.1-0.6,3.1,0.5,4.5,2.6
						C405.1,510.1,405.2,512.5,403.7,513.4z"/>
				</g>
				<g>
					<path class="st0" d="M396.2,516.7c-1.6,0.5-3.4-1.2-4-3.6c-0.6-2.5-0.1-4.7,1-5.1c1.2-0.4,2.9,1.1,3.9,3.5
						C398.1,513.8,397.7,516.2,396.2,516.7z"/>
				</g>
				<g>
					<path class="st0" d="M388.2,518.6c-1.6,0.2-3.1-1.7-3.3-4.3c-0.2-2.6,0.7-4.7,1.9-4.9c1.3-0.2,2.7,1.6,3.3,4.1
						C390.6,516.1,389.8,518.4,388.2,518.6z"/>
				</g>
				<g>
					<path class="st0" d="M380.1,519.2c-1.6,0-2.8-2.2-2.6-4.7c0.2-2.6,1.4-4.5,2.7-4.5c1.3,0,2.4,2,2.6,4.6
						C382.9,517.1,381.7,519.2,380.1,519.2z"/>
				</g>
				<g>
					<path class="st0" d="M372.1,518.5c-1.6-0.3-2.4-2.6-1.8-5.1c0.6-2.5,2-4.3,3.3-4.1c1.3,0.2,2.1,2.4,1.9,4.9
						C375.2,516.9,373.7,518.8,372.1,518.5z"/>
				</g>
				<g>
					<path class="st0" d="M364.1,516.6c-1.6-0.5-2-3-1-5.3c1-2.3,2.8-3.8,3.9-3.4c1.2,0.4,1.7,2.7,1,5.1
						C367.5,515.4,365.7,517.1,364.1,516.6z"/>
				</g>
				<g>
					<path class="st0" d="M357.1,513.6c-1.2-0.5-1.5-2.8-0.7-5.2c0.9-2.4,2.8-3.9,4.2-3.3c1.5,0.6,1.7,3,0.6,5.3
						C360.1,512.7,358.3,514.1,357.1,513.6z"/>
				</g>
				<g>
					<path class="st0" d="M350.6,511.4c-1.3-0.4-1.9-2.6-1.3-5.1c0.5-2.5,2.2-4.2,3.8-3.8s2.1,2.8,1.3,5.2
						C353.6,510.1,351.9,511.7,350.6,511.4z"/>
				</g>
				<g>
					<path class="st0" d="M344,510c-1.3-0.2-2.2-2.4-1.9-4.9c0.2-2.5,1.7-4.5,3.3-4.3s2.4,2.5,1.9,5
						C346.7,508.4,345.3,510.2,344,510z"/>
				</g>
				<g>
					<path class="st0" d="M337.2,509.4c-1.3,0-2.5-2.1-2.5-4.6c-0.1-2.6,1.2-4.7,2.7-4.6c1.6,0,2.7,2.2,2.5,4.7
						C339.7,507.5,338.5,509.5,337.2,509.4z"/>
				</g>
				<g>
					<path class="st0" d="M330.3,509.7c-1.3,0.1-2.7-1.8-3-4.3c-0.3-2.5,0.6-4.8,2.2-4.9c1.6-0.1,2.9,1.9,3,4.4
						C332.6,507.4,331.6,509.5,330.3,509.7z"/>
				</g>
				<g>
					<path class="st0" d="M323.5,510.6c-1.3,0.3-2.9-1.5-3.5-4c-0.6-2.5,0.1-4.8,1.7-5.1c1.5-0.3,3.1,1.6,3.5,4.1
						C325.6,508.2,324.8,510.4,323.5,510.6z"/>
				</g>
				<g>
					<path class="st0" d="M316.8,512.3c-1.3,0.4-3-1.2-3.9-3.6c-0.9-2.4-0.4-4.8,1.1-5.2c1.5-0.5,3.2,1.2,3.9,3.7
						C318.6,509.6,318.1,511.9,316.8,512.3z"/>
				</g>
			</g>
			<g>
				<g>
					<path class="st0" d="M199.7,391.4c0.6-1.2,2.9-1.3,5.3-0.3c2.3,1,3.7,3,3,4.4c-0.7,1.4-3.2,1.5-5.4,0.3
						C200.4,394.5,199.2,392.5,199.7,391.4z"/>
				</g>
				<g>
					<path class="st0" d="M202.4,385.1c0.4-1.2,2.7-1.7,5.2-1c2.5,0.7,4.1,2.5,3.6,4c-0.5,1.5-2.9,1.9-5.3,0.9
						C203.5,388.1,201.9,386.3,202.4,385.1z"/>
				</g>
				<g>
					<path class="st0" d="M204.2,378.5c0.3-1.3,2.5-2,5-1.6c2.5,0.4,4.4,2,4,3.5c-0.3,1.6-2.7,2.3-5.1,1.6
						C205.7,381.4,203.9,379.8,204.2,378.5z"/>
				</g>
				<g>
					<path class="st0" d="M205.1,371.9c0.1-1.3,2.2-2.3,4.7-2.3c2.6,0,4.6,1.3,4.5,2.9c-0.1,1.6-2.3,2.6-4.9,2.3
						C207,374.5,205.1,373.2,205.1,371.9z"/>
				</g>
				<g>
					<path class="st0" d="M205.1,365.2c-0.1-1.3,1.8-2.6,4.3-3c2.5-0.4,4.8,0.6,4.9,2.2c0.1,1.6-1.9,3-4.5,3
						C207.3,367.5,205.2,366.5,205.1,365.2z"/>
				</g>
				<g>
					<path class="st0" d="M204,358.6c-0.3-1.3,1.4-2.9,3.9-3.6c2.5-0.7,4.8,0,5.1,1.5c0.4,1.5-1.4,3.2-4,3.6
						C206.6,360.5,204.4,359.9,204,358.6z"/>
				</g>
				<g>
					<path class="st0" d="M202.2,351.8c-0.4-1.3,1.2-3.1,3.6-3.9c2.4-0.8,4.8-0.3,5.2,1.1c0.5,1.4-1.2,3.2-3.6,3.9
						C204.9,353.6,202.6,353.1,202.2,351.8z"/>
				</g>
				<g>
					<path class="st0" d="M199.8,345c-0.5-1.3,1-3.1,3.4-4.1c2.4-0.9,4.7-0.5,5.3,0.9c0.5,1.4-1,3.2-3.4,4.1
						C202.7,346.7,200.3,346.4,199.8,345z"/>
				</g>
				<g>
					<path class="st0" d="M197.2,338.2c-0.5-1.4,1-3.2,3.4-4.1c2.4-0.9,4.7-0.6,5.3,0.8c0.5,1.3-1,3.2-3.4,4.1
						C200.1,339.9,197.8,339.5,197.2,338.2z"/>
				</g>
				<g>
					<path class="st0" d="M194.6,331.1c-0.5-1.4,1.1-3.2,3.5-4c2.4-0.8,4.7-0.3,5.2,1c0.5,1.3-1.1,3.1-3.5,4
						C197.5,333,195.1,332.5,194.6,331.1z"/>
				</g>
				<g>
					<path class="st0" d="M192.4,323.6c-0.4-1.5,1.4-3.2,3.9-3.7c2.5-0.5,4.7,0.2,5.1,1.5c0.3,1.3-1.4,2.9-3.8,3.6
						C195.1,325.8,192.7,325.2,192.4,323.6z"/>
				</g>
				<g>
					<path class="st0" d="M191,315.6c-0.1-1.7,2-3,4.5-3c2.6,0,4.6,1.1,4.7,2.3c0.1,1.2-1.8,2.6-4.3,3
						C193.4,318.3,191.1,317.3,191,315.6z"/>
				</g>
				<g>
					<path class="st0" d="M191.4,307.2c0.3-1.7,2.6-2.5,5.1-1.8c2.5,0.7,4.2,2.2,4,3.3c-0.2,1.2-2.3,2-4.9,1.9
						C193.1,310.4,191.1,308.9,191.4,307.2z"/>
				</g>
				<g>
					<path class="st0" d="M193.8,299c0.7-1.6,3.2-1.7,5.4-0.5c2.2,1.2,3.6,3.1,3.1,4.2c-0.5,1.1-2.8,1.4-5.2,0.6
						C194.6,302.5,193.1,300.5,193.8,299z"/>
				</g>
				<g>
					<path class="st0" d="M197.9,291.7c1-1.4,3.4-1,5.4,0.6c1.9,1.7,2.9,3.8,2.1,4.8c-0.7,1-3,0.8-5.2-0.5
						C198,295.3,197,293.1,197.9,291.7z"/>
				</g>
				<g>
					<path class="st0" d="M203.5,285.5c1.3-1.1,3.6-0.3,5.1,1.8c1.5,2,2,4.3,1.1,5.1c-0.9,0.8-3.1,0.1-5-1.6
						C202.9,289.1,202.3,286.6,203.5,285.5z"/>
				</g>
				<g>
					<path class="st0" d="M210.3,280.6c1.5-0.8,3.5,0.5,4.6,2.8c1.1,2.3,1,4.6,0,5.2c-1.1,0.6-3.1-0.5-4.5-2.6
						C208.9,283.9,208.8,281.5,210.3,280.6z"/>
				</g>
				<g>
					<path class="st0" d="M217.8,277.3c1.6-0.5,3.4,1.2,4,3.6c0.6,2.5,0.1,4.7-1,5.1c-1.2,0.4-2.9-1.1-3.9-3.5
						C215.9,280.2,216.3,277.8,217.8,277.3z"/>
				</g>
				<g>
					<path class="st0" d="M225.8,275.4c1.6-0.2,3.1,1.7,3.3,4.3c0.2,2.5-0.7,4.7-1.9,4.9c-1.3,0.2-2.7-1.6-3.3-4.1
						C223.4,277.9,224.2,275.6,225.8,275.4z"/>
				</g>
				<g>
					<path class="st0" d="M233.9,274.8c1.6,0,2.8,2.2,2.6,4.7c-0.2,2.6-1.4,4.5-2.7,4.5c-1.3,0-2.4-2-2.6-4.6
						C231.1,276.9,232.3,274.8,233.9,274.8z"/>
				</g>
				<g>
					<path class="st0" d="M241.9,275.5c1.6,0.3,2.4,2.6,1.8,5.1c-0.6,2.5-2,4.3-3.3,4.1c-1.3-0.2-2.1-2.4-1.9-4.9
						C238.8,277.1,240.3,275.2,241.9,275.5z"/>
				</g>
				<g>
					<path class="st0" d="M249.9,277.4c1.6,0.5,2,3,1,5.3c-1,2.3-2.8,3.8-3.9,3.4c-1.2-0.4-1.7-2.7-1-5.1
						C246.5,278.6,248.3,276.9,249.9,277.4z"/>
				</g>
				<g>
					<path class="st0" d="M256.9,280.4c1.2,0.5,1.5,2.8,0.7,5.2c-0.9,2.4-2.8,3.9-4.2,3.3c-1.5-0.6-1.7-3-0.6-5.3
						C253.9,281.3,255.7,279.9,256.9,280.4z"/>
				</g>
				<g>
					<path class="st0" d="M263.4,282.6c1.3,0.3,1.9,2.6,1.3,5.1c-0.5,2.5-2.2,4.2-3.8,3.8c-1.5-0.4-2.1-2.8-1.3-5.2
						C260.4,283.9,262.1,282.3,263.4,282.6z"/>
				</g>
				<g>
					<path class="st0" d="M270,284c1.3,0.2,2.2,2.4,1.9,4.9c-0.2,2.5-1.7,4.5-3.3,4.3c-1.6-0.2-2.4-2.5-1.9-5
						C267.3,285.6,268.7,283.8,270,284z"/>
				</g>
				<g>
					<path class="st0" d="M276.8,284.6c1.3,0,2.5,2.1,2.5,4.6c0.1,2.6-1.2,4.7-2.7,4.6c-1.6,0-2.7-2.2-2.5-4.7
						C274.3,286.5,275.5,284.5,276.8,284.6z"/>
				</g>
				<g>
					<path class="st0" d="M283.7,284.3c1.3-0.1,2.7,1.8,3,4.3c0.3,2.5-0.6,4.8-2.2,4.9c-1.6,0.1-2.9-1.9-3-4.4
						C281.4,286.6,282.4,284.5,283.7,284.3z"/>
				</g>
				<g>
					<path class="st0" d="M290.5,283.4c1.3-0.3,2.9,1.5,3.5,4c0.6,2.5-0.1,4.8-1.7,5.1c-1.5,0.3-3.1-1.6-3.5-4.1
						C288.4,285.8,289.2,283.6,290.5,283.4z"/>
				</g>
				<g>
					<path class="st0" d="M297.2,281.7c1.3-0.4,3,1.2,3.9,3.6c0.9,2.4,0.4,4.8-1.1,5.2c-1.5,0.5-3.2-1.2-3.9-3.7
						C295.4,284.3,295.9,282.1,297.2,281.7z"/>
				</g>
			</g>
			<g>
				<g>
					<path class="st0" d="M405.9,394.4c-0.7-1.4,0.7-3.4,3-4.5c2.3-1,4.7-0.9,5.3,0.3c0.6,1.2-0.7,3.1-2.9,4.4
						C409.1,395.9,406.7,395.8,405.9,394.4z"/>
				</g>
				<g>
					<path class="st0" d="M402.8,387.1c-0.5-1.5,1.1-3.3,3.5-4.1c2.4-0.7,4.7-0.3,5.2,0.9c0.4,1.2-1.1,3-3.4,4
						C405.7,389,403.3,388.6,402.8,387.1z"/>
				</g>
				<g>
					<path class="st0" d="M400.6,379.5c-0.3-1.6,1.5-3.2,4-3.6c2.5-0.4,4.7,0.3,5,1.6c0.3,1.3-1.4,2.9-3.9,3.6
						C403.3,381.7,400.9,381,400.6,379.5z"/>
				</g>
				<g>
					<path class="st0" d="M399.4,371.5c-0.1-1.6,1.9-2.9,4.5-3c2.6,0,4.6,1,4.8,2.2c0.1,1.3-1.8,2.6-4.3,3
						C401.7,374.1,399.5,373.1,399.4,371.5z"/>
				</g>
				<g>
					<path class="st0" d="M399.3,363.4c0.1-1.6,2.3-2.6,4.9-2.3c2.5,0.3,4.4,1.7,4.4,2.9c-0.1,1.3-2.2,2.3-4.7,2.3
						C401.3,366.4,399.2,365.1,399.3,363.4z"/>
				</g>
				<g>
					<path class="st0" d="M400.5,355.5c0.3-1.5,2.7-2.2,5.1-1.6c2.5,0.6,4.2,2.2,3.9,3.6c-0.3,1.3-2.5,2-5,1.6
						C402,358.6,400.2,357,400.5,355.5z"/>
				</g>
				<g>
					<path class="st0" d="M402.5,348c0.4-1.4,2.8-2,5.2-1.2c2.4,0.8,4,2.5,3.6,3.9c-0.4,1.3-2.7,1.8-5.2,1.2
						C403.7,351.2,402,349.4,402.5,348z"/>
				</g>
				<g>
					<path class="st0" d="M404.9,340.8c0.5-1.4,2.9-1.8,5.3-0.9c2.4,0.9,3.9,2.7,3.5,4c-0.5,1.3-2.8,1.7-5.2,0.9
						C406,344,404.4,342.2,404.9,340.8z"/>
				</g>
				<g>
					<path class="st0" d="M407.5,333.8c0.5-1.3,2.8-1.7,5.2-0.9c2.4,0.9,3.9,2.7,3.4,4.1c-0.5,1.4-2.9,1.7-5.3,0.9
						C408.5,337,407,335.1,407.5,333.8z"/>
				</g>
				<g>
					<path class="st0" d="M409.9,327c0.4-1.3,2.7-1.8,5.2-1c2.4,0.7,4.1,2.5,3.6,4c-0.5,1.4-2.8,1.9-5.2,1
						C411,330.1,409.5,328.3,409.9,327z"/>
				</g>
				<g>
					<path class="st0" d="M411.9,320.3c0.3-1.3,2.5-1.9,5-1.5c2.5,0.4,4.3,2.1,4,3.6c-0.4,1.5-2.7,2.2-5.2,1.5
						C413.2,323.2,411.5,321.6,411.9,320.3z"/>
				</g>
				<g>
					<path class="st0" d="M412.9,313.8c0.1-1.2,2.1-2.3,4.7-2.3c2.5-0.1,4.7,1.2,4.5,2.9c-0.1,1.7-2.4,2.7-4.9,2.3
						C414.7,316.3,412.8,315,412.9,313.8z"/>
				</g>
				<g>
					<path class="st0" d="M412.6,307.5c-0.2-1.2,1.5-2.6,4-3.4c2.4-0.7,4.8,0.1,5.1,1.8c0.3,1.7-1.7,3.2-4.2,3.4
						C414.9,309.5,412.8,308.7,412.6,307.5z"/>
				</g>
				<g>
					<path class="st0" d="M410.7,301.6c-0.5-1.1,0.8-3,3-4.2c2.2-1.3,4.7-1.1,5.4,0.4c0.7,1.6-0.8,3.5-3.2,4.3
						C413.5,302.9,411.2,302.7,410.7,301.6z"/>
				</g>
				<g>
					<path class="st0" d="M407.5,296.1c-0.7-1,0.2-3.1,2.1-4.8c1.9-1.7,4.4-2,5.4-0.7c1,1.3-0.1,3.6-2.2,4.9
						C410.5,296.8,408.2,297.1,407.5,296.1z"/>
				</g>
				<g>
					<path class="st0" d="M403.2,291.4c-0.9-0.8-0.5-3.1,1-5.1c1.5-2.1,3.8-2.9,5.1-1.8c1.3,1.1,0.7,3.5-1.2,5.3
						C406.3,291.5,404.1,292.2,403.2,291.4z"/>
				</g>
				<g>
					<path class="st0" d="M398,287.7c-1.1-0.6-1.1-2.9-0.1-5.2c1-2.3,3.1-3.7,4.6-2.8c1.5,0.8,1.4,3.3,0,5.4
						C401,287.1,399,288.3,398,287.7z"/>
				</g>
				<g>
					<path class="st0" d="M392,285.1c-1.2-0.4-1.7-2.6-1.1-5.1c0.6-2.5,2.4-4.2,3.9-3.7c1.6,0.5,2,2.9,1,5.3
						C394.9,284,393.2,285.5,392,285.1z"/>
				</g>
				<g>
					<path class="st0" d="M385.6,283.6c-1.3-0.2-2.2-2.3-2-4.9c0.2-2.5,1.6-4.5,3.2-4.3c1.6,0.2,2.5,2.5,1.9,5
						C388.3,282,386.9,283.8,385.6,283.6z"/>
				</g>
				<g>
					<path class="st0" d="M379,283.3c-1.3,0-2.5-2-2.7-4.5c-0.2-2.5,0.9-4.7,2.5-4.7c1.6,0,2.8,2.1,2.7,4.6
						C381.4,281.2,380.3,283.2,379,283.3z"/>
				</g>
				<g>
					<path class="st0" d="M372.3,283.9c-1.3,0.2-2.8-1.6-3.4-4c-0.6-2.5,0.2-4.8,1.8-5.1c1.6-0.3,3.1,1.6,3.4,4.2
						C374.4,281.5,373.6,283.7,372.3,283.9z"/>
				</g>
				<g>
					<path class="st0" d="M365.9,285.5c-1.2,0.4-2.9-1.1-4-3.4c-1.1-2.3-0.7-4.8,0.9-5.3c1.6-0.6,3.4,1.1,4,3.6
						C367.6,282.8,367.1,285.1,365.9,285.5z"/>
				</g>
				<g>
					<path class="st0" d="M359.4,288.4c-1.5,0.6-3.4-0.9-4.3-3.3c-0.9-2.4-0.6-4.7,0.6-5.2c1.2-0.5,3.1,0.9,4.2,3.2
						C361.1,285.3,360.9,287.8,359.4,288.4z"/>
				</g>
				<g>
					<path class="st0" d="M351.9,291c-1.5,0.4-3.2-1.3-3.8-3.8c-0.6-2.5,0-4.8,1.3-5.1c1.3-0.4,2.9,1.3,3.8,3.7
						C354,288.2,353.5,290.6,351.9,291z"/>
				</g>
				<g>
					<path class="st0" d="M344.2,292.7c-1.6,0.2-3.1-1.7-3.3-4.2c-0.3-2.5,0.6-4.7,1.9-4.9c1.3-0.2,2.8,1.6,3.3,4.1
						C346.6,290.2,345.7,292.5,344.2,292.7z"/>
				</g>
				<g>
					<path class="st0" d="M336.3,293.5c-1.6,0.1-2.8-2-2.8-4.6c0-2.6,1.1-4.6,2.5-4.7c1.3,0,2.6,1.9,2.8,4.5
						C339,291.3,337.9,293.4,336.3,293.5z"/>
				</g>
				<g>
					<path class="st0" d="M328.4,293.3c-1.6-0.1-2.6-2.3-2.3-4.9c0.3-2.5,1.6-4.5,3-4.4c1.3,0.1,2.3,2.2,2.3,4.8
						C331.3,291.4,329.9,293.4,328.4,293.3z"/>
				</g>
				<g>
					<path class="st0" d="M320.6,292.3c-1.5-0.3-2.3-2.6-1.7-5.1c0.6-2.5,2.1-4.3,3.4-4c1.3,0.3,2.1,2.4,1.7,5
						C323.6,290.7,322.1,292.6,320.6,292.3z"/>
				</g>
				<g>
					<path class="st0" d="M312.9,290.4c-1.5-0.4-2-2.8-1.2-5.2c0.8-2.4,2.5-4,3.8-3.6c1.3,0.4,1.8,2.7,1.2,5.1
						C316.1,289.2,314.4,290.9,312.9,290.4z"/>
				</g>
			</g>
			<path class="st0" d="M307.6,504.3c1.4,0,2.6,2.1,2.6,4.6c0,2.6-1.2,4.6-2.6,4.6s-2.6-2.1-2.6-4.6
				C305,506.4,306.1,504.3,307.6,504.3z"/>
			<path class="st0" d="M306.4,289.7c1.4,0,2.6-2.1,2.6-4.6c0-2.6-1.2-4.6-2.6-4.6c-1.4,0-2.6,2.1-2.6,4.6
				C303.8,287.6,305,289.7,306.4,289.7z"/>
		</g>
	</g>
	<g>
		<path class="st0" d="M291.8,444.1c-1.3,0-2.4,1.1-2.4,2.4c0,1.3,1.1,2.4,2.4,2.4c1.3,0,2.4-1.1,2.4-2.4
			C294.2,445.1,293.1,444.1,291.8,444.1z"/>
		<path class="st0" d="M287,445.1c0,0-58,0.8-58,1.6c0,0.8,58,1,58,1s0.4-0.3,0.4-1.3C287.4,445.4,287,445.1,287,445.1z"/>
		<path class="st0" d="M327,447.5c0,0,58-0.8,58-1.6c0-0.8-58-1-58-1s-0.4,0.3-0.4,1.3C326.6,447.2,327,447.5,327,447.5z"/>
		<path class="st0" d="M322.2,443.9c1.3,0,2.4,1,2.4,2.4c0,1.3-1.1,2.4-2.4,2.4c-1.3,0-2.4-1.1-2.4-2.4
			C319.8,445,320.8,443.9,322.2,443.9z"/>
		<path class="st0" d="M317.1,446.5c-0.9-1.1-4.4-3.3-5.3-2.8c-1.1,0.6-2.3,1.1-3.3,1.6c-0.2-1.4,2.1-2.6,2-3.8
			c-0.1-0.7-2.9-2.3-3.5-2.7c-0.6,0.3-3.4,2-3.5,2.7c-0.1,1.2,2.2,2.3,2,3.7c-1.1-0.4-2.3-0.9-3.4-1.5c-0.9-0.5-4.4,1.7-5.3,2.8
			c1.5,0.6,3,1.4,4.4,2.1c1.4-0.9,2.7-2,4.5-2.3c-0.5,1.5-1.6,2.3-1.6,3c0,0.5,1.6,2,2.8,2.9c1.2-0.9,2.8-2.5,2.8-3
			c0-0.6-1-1.5-1.6-2.9c1.7,0.3,3,1.3,4.5,2.2C314.2,447.9,315.6,447.1,317.1,446.5z"/>
	</g>
	<g id="change10">
		<g>
			<path class="st2" d="M270.9,378.5c0-1.4-0.4-2.2-1.1-2.3l-1.1-0.1v-1.6h9.6c4.2,0,6.4,1.8,6.4,4.8c0,2.2-1.2,3.5-1.9,3.9v0
				c1.4,1,2.1,2.3,2.1,4c0,3.6-2.2,5.5-5.6,5.5h-10.5V391l1.1-0.1c0.8-0.1,1.1-1,1.1-2.3V378.5z M274.7,382.1h3.1
				c1.9,0,2.8-1,2.8-2.5c0-1.8-1.2-3-2.3-3h-2.4c-0.7,0-1.2,0.8-1.2,2.2V382.1z M277.8,390.6c1.8,0,2.8-1.8,2.8-3.5
				c0-1.8-1.1-3.1-2.9-3.1h-3v4.5c0,1.3,0.4,2.1,1.2,2.1H277.8z"/>
			<path class="st2" d="M293.4,384.1v4.7c0,1.2,0.5,2,2.2,2c2.4,0,3-1.5,3-3.3v-1.4h2.1v6.5h-13.4V391l1.1-0.1
				c0.8-0.1,1.1-1,1.1-2.3v-10c0-1.4-0.4-2.2-1.1-2.3l-1.1-0.1v-1.6h13.4v6.3h-2.1v-1.2c0-2.2-1.4-3.3-3-3.3c-1.7,0-2.2,0.7-2.2,2
				v3.8h3.4v2.1H293.4z"/>
			<path class="st2" d="M312.3,388.5c0,1.3,0.3,2.1,1.1,2.3l0.7,0.1v1.6H308V391l1.1-0.1c0.8-0.1,1.1-1,1.1-2.3v-10
				c0-1.4-0.4-2.2-1.1-2.3l-1.1-0.1v-1.6h7.6l2.1,8.9l2-8.9h7.4v1.6l-1.1,0.1c-0.7,0.1-1.1,1-1.1,2.3v10c0,1.3,0.3,2.2,1.1,2.3
				l1.1,0.1v1.6h-7.9V391l0.7-0.1c0.8-0.2,1.1-1,1.1-2.3v-10h-0.1l-3.2,14.1h-2.2l-3.3-14.1h-0.1V388.5z"/>
			<path class="st2" d="M328.8,374.4h8.2v1.6l-1.1,0.1c-0.7,0.1-1,0.6-0.5,1.3l2.2,3.4l2.1-3.3c0.5-0.7,0.3-1.2-0.3-1.4l-1.1-0.1
				v-1.6h6.8v1.6l-1.2,0.1c-0.4,0.1-0.7,0.5-1.1,1.1l-3.8,5.8v5.4c0,1.3,0.3,2.2,1.1,2.3l1.1,0.1v1.6h-8.2V391l1.1-0.1
				c0.9-0.1,1.1-1,1.1-2.3v-4.2l-3.8-6.2c-0.6-1.1-1.1-1.8-1.8-1.9l-0.9-0.1V374.4z"/>
			<path class="st2" d="M235.2,402.4h8.2v1.6l-1.1,0.1c-0.7,0.1-1,0.7-0.7,1.9l2.3,9.9l3.1-9.8c0.4-1.2,0.1-1.9-0.7-2.1l-1.1-0.1
				v-1.6h6.6v1.6l-1.1,0.1c-0.7,0.1-1.1,1.2-1.7,3.2l-4.3,13.2h-3.7l-3.3-14.5c-0.2-1-0.7-1.8-1.4-1.9l-1.1-0.1V402.4z"/>
			<path class="st2" d="M255.6,414.7l-0.3,0.9c-0.5,1.7,0,2.9,0.7,3.2l0.9,0.2v1.6h-7.2V419l0.7-0.2c0.8-0.2,1.4-1.1,2.4-4.1
				l3.9-12.3h3.2l4,13.2c0.6,2,1.2,2.9,1.8,3l1,0.3v1.6h-8.4V419l0.9-0.2c0.9-0.2,1.3-1,0.7-3.2l-0.2-0.9H255.6z M259.1,412.2
				l-1.1-4.4h-0.1l-1.4,4.4H259.1z"/>
			<path class="st2" d="M270.8,406.5c0-1.4-0.4-2.2-1.1-2.3l-1.1-0.1v-1.6h8.2v1.6l-1.1,0.1c-0.7,0.1-1.1,1-1.1,2.3v9.2
				c0,1.6,0.5,2.6,3,2.6c2.4,0,3.2-0.7,3.2-2.1v-1.6h2.1v5.9h-14.3V419l1.1-0.1c0.8-0.1,1.1-1,1.1-2.3V406.5z"/>
			<path class="st2" d="M291.4,412.1v4.7c0,1.2,0.5,2,2.2,2c2.4,0,3-1.5,3-3.3v-1.4h2.1v6.5h-13.4V419l1.1-0.1
				c0.8-0.1,1.1-1,1.1-2.3v-10c0-1.4-0.4-2.2-1.1-2.3l-1.1-0.1v-1.6h13.4v6.3h-2.1v-1.2c0-2.2-1.4-3.3-3-3.3c-1.7,0-2.2,0.7-2.2,2
				v3.8h3.4v2.1H291.4z"/>
			<path class="st2" d="M305.6,416.5c0,1.3,0.3,2.1,1.1,2.3l0.7,0.1v1.6h-6.2V419l1.1-0.1c0.8-0.1,1.1-1,1.1-2.3v-10
				c0-1.4-0.4-2.2-1.1-2.3l-1.1-0.1v-1.6h7.6l4.5,10.4h0v-6.3c0-1.4-0.4-2.2-1.1-2.3l-1.1-0.1v-1.6h6.5v1.6l-1.1,0.1
				c-0.7,0.1-1.1,1-1.1,2.3v14.1h-3.9l-5.9-14.1h-0.1V416.5z"/>
			<path class="st2" d="M320.3,402.4H335v7.3h-2v-1.6c0-1.7-0.5-3.6-2-3.6c-1.3,0-1.4,1.7-1.4,2.8v9.2c0,1.3,0.3,2.2,1.2,2.3
				l1.1,0.1v1.6h-8.2V419l1.1-0.1c0.8-0.1,1.1-1,1.1-2.3v-9.2c0-1.1-0.1-2.8-1.4-2.8c-1.5,0-2,1.9-2,3.6v1.6h-2V402.4z"/>
			<path class="st2" d="M339.1,406.5c0-1.4-0.4-2.2-1.1-2.3l-1.1-0.1v-1.6h8.2v1.6l-1.1,0.1c-0.7,0.1-1.1,1-1.1,2.3v10
				c0,1.3,0.3,2.2,1.1,2.3l1.1,0.1v1.6h-8.2V419l1.1-0.1c0.8-0.1,1.1-1,1.1-2.3V406.5z"/>
			<path class="st2" d="M351.3,416.5c0,1.3,0.3,2.1,1.1,2.3l0.7,0.1v1.6H347V419l1.1-0.1c0.8-0.1,1.1-1,1.1-2.3v-10
				c0-1.4-0.4-2.2-1.1-2.3l-1.1-0.1v-1.6h7.6l4.5,10.4h0v-6.3c0-1.4-0.4-2.2-1.1-2.3l-1.1-0.1v-1.6h6.5v1.6l-1.1,0.1
				c-0.7,0.1-1.1,1-1.1,2.3v14.1h-3.9l-5.9-14.1h-0.1V416.5z"/>
			<path class="st2" d="M371.4,412.1v4.7c0,1.2,0.5,2,2.2,2c2.4,0,3-1.5,3-3.3v-1.4h2.1v6.5h-13.4V419l1.1-0.1
				c0.8-0.1,1.1-1,1.1-2.3v-10c0-1.4-0.4-2.2-1.1-2.3l-1.1-0.1v-1.6h13.4v6.3h-2.1v-1.2c0-2.2-1.4-3.3-3-3.3c-1.7,0-2.2,0.7-2.2,2
				v3.8h3.4v2.1H371.4z"/>
		</g>
	</g>
	<g>
		<g>
			<path class="st0" d="M232.5,481.5V480l0.9-0.1c0.8-0.1,1-0.9,1-2v-9h-2.8v-1.7h0.7c1.5,0,2.6-0.4,3.3-1.8h2.2v12.4
				c0,1.2,0.2,1.9,1,2l1,0.1v1.5H232.5z"/>
			<path class="st0" d="M241.7,474.9l7-9.5h3.1v9.5h2.6v1.9h-2.6v1c0,1.2,0.2,1.9,1,2l0.9,0.1v1.5h-7.1V480l0.8-0.1
				c0.8-0.1,1-0.9,1-2v-1h-6.7V474.9z M248.4,474.9v-5.7l-4.1,5.7H248.4z"/>
			<path class="st0" d="M270.6,469.9c0-2-1.8-2.9-3.2-2.9c-1.5,0-2,0.8-2,1.8v3.3h3v1.8h-3v4c0,1.2,0.3,1.8,1.3,2l0.9,0.2v1.5h-7.5
				V480l1-0.1c0.7-0.1,1-0.9,1-2V469c0-1.2-0.4-1.9-1-2l-1-0.1v-1.5h12.7v5.6h-2.2V469.9z"/>
			<path class="st0" d="M280,473.9v4.2c0,1,0.5,1.8,2,1.8c2.1,0,2.6-1.3,2.6-2.9v-1.3h1.9v5.8h-11.8V480l1-0.1c0.7-0.1,1-0.9,1-2
				V469c0-1.2-0.4-1.9-1-2l-1-0.1v-1.5h11.8v5.6h-1.9v-1.1c0-1.9-1.2-2.9-2.6-2.9c-1.5,0-2,0.6-2,1.8v3.3h3v1.8H280z"/>
			<path class="st0" d="M290.6,469c0-1.2-0.4-1.9-1-2l-1-0.1v-1.5h8.5c3.7,0,5.6,1.6,5.6,4.3c0,1.9-1.1,3.1-1.7,3.5v0
				c1.3,0.9,1.8,2.1,1.8,3.5c0,3.2-2,4.8-5,4.8h-9.2V480l1-0.1c0.7-0.1,1-0.9,1-2V469z M293.9,472.1h2.7c1.7,0,2.5-0.9,2.5-2.2
				c0-1.6-1.1-2.7-2-2.7H295c-0.6,0-1,0.7-1,1.9V472.1z M296.6,479.7c1.6,0,2.5-1.6,2.5-3.1c0-1.6-1-2.7-2.6-2.7h-2.6v4
				c0,1.2,0.4,1.8,1,1.8H296.6z"/>
			<path class="st0" d="M310.4,474.5v3.4c0,1.2,0.3,2,1.4,2.1l0.7,0.1v1.5h-7.4V480l1-0.1c0.7-0.1,1-0.9,1-2V469c0-1.2-0.4-1.9-1-2
				l-1-0.1v-1.5h8.5c3.8,0,5.6,1.6,5.6,4.3c0,2-1,3.2-2.2,3.7v0.1c1,0.6,1.4,1.6,1.6,3c0.1,1.5,0.3,2.1,0.8,2.1
				c0.5,0,0.6-0.8,0.6-1.4V476h1.7v1.2c0,3.5-1.1,4.5-2.9,4.5c-2.2,0-3-1-3.4-4.1c-0.2-1.5-0.7-3.1-2-3.1H310.4z M311.5,467.6
				c-0.6,0-1,0.3-1,1.5v2.9h3.2c1,0,2-0.8,2-2.2c0-1.6-1.1-2.3-2-2.3H311.5z"/>
			<path class="st0" d="M321.6,465.4h7.2v1.5l-1,0.1c-0.6,0.1-1,0.8-1,2v5.4c0,4,0.4,5.5,2.8,5.5c1.6,0,2.7-0.8,2.7-4V469
				c0-1-0.2-1.9-1-2l-0.9-0.1v-1.5h5.8v1.5l-1,0.1c-0.8,0.1-1,1.1-1,2v6.5c0,4.8-1.7,6.1-4.8,6.1c-4.7,0-6-2.1-6-6.6v-6
				c0-1.2-0.4-1.9-1-2l-1-0.1V465.4z"/>
			<path class="st0" d="M341.6,476.3l-0.2,0.8c-0.5,1.5,0,2.6,0.7,2.8l0.8,0.2v1.5h-6.4V480l0.7-0.2c0.8-0.2,1.3-1,2.1-3.6l3.5-10.8
				h2.8L349,477c0.5,1.8,1,2.5,1.6,2.7l0.8,0.3v1.5H344V480l0.8-0.2c0.8-0.2,1.1-0.9,0.7-2.8l-0.2-0.8H341.6z M344.6,474l-1-3.9
				h-0.1l-1.3,3.9H344.6z"/>
			<path class="st0" d="M358.3,474.5v3.4c0,1.2,0.3,2,1.4,2.1l0.7,0.1v1.5H353V480l1-0.1c0.7-0.1,1-0.9,1-2V469c0-1.2-0.4-1.9-1-2
				l-1-0.1v-1.5h8.5c3.8,0,5.6,1.6,5.6,4.3c0,2-1,3.2-2.2,3.7v0.1c1,0.6,1.4,1.6,1.6,3c0.1,1.5,0.3,2.1,0.8,2.1
				c0.5,0,0.6-0.8,0.6-1.4V476h1.7v1.2c0,3.5-1.1,4.5-2.9,4.5c-2.2,0-3-1-3.4-4.1c-0.2-1.5-0.7-3.1-2-3.1H358.3z M359.4,467.6
				c-0.6,0-1,0.3-1,1.5v2.9h3.2c1,0,2-0.8,2-2.2c0-1.6-1-2.3-2-2.3H359.4z"/>
			<path class="st0" d="M368.1,465.4h7.2v1.5l-0.9,0.1c-0.7,0.1-0.8,0.5-0.5,1.1l1.9,3l1.9-2.9c0.4-0.6,0.3-1.1-0.3-1.2l-0.9-0.1
				v-1.5h6v1.5l-1,0.1c-0.4,0.1-0.6,0.5-1,0.9l-3.3,5.1v4.8c0,1.2,0.2,1.9,1,2l1,0.1v1.5h-7.3V480l1-0.1c0.8-0.1,1-0.9,1-2v-3.7
				l-3.4-5.5c-0.6-1-0.9-1.6-1.6-1.7l-0.8-0.1V465.4z"/>
		</g>
	</g>
	<path class="st3" d="M371.2,317.7c0.5-0.1,0.9-0.2,1.4-0.3c0,0.3,0,0.5,0,0.5s3.1,1.9,5.2,0.5c2.1-1.3,4.7-5.1,4.7-5.1
		s-2.9-0.4-6.7,0.1c-2,0.3-2.8,1.6-3.1,2.7c-0.1,0-0.2-0.1-0.2-0.1c-0.8-0.2-1.5-0.2-2.3-0.2c-1.3,0.1-2.3,0.4-3.4,0.9
		c-2.1,1-3.8,3.1-4,5.5c0,0.4-2.8,1.7-3.2,1.9c-1.1,0.6-2.3,1.3-3.4,1.8c0.1-0.3,0.2-0.6,0.3-0.8c0.1-0.1,0.4-0.8,0.7-1.6
		c1.1-0.4,2.6-1.3,3-2.8c0.6-2.4,0-7,0-7s-2.5,1.7-4.9,4.6c-1.4,1.7-0.9,3.3-0.3,4.4c0,0,0,0.1,0,0.1c-0.3,0.8-1.5,2.9-1.5,4.2
		c-1.5,0.6-2.9,1.1-4.3,2c-0.9,0.6-2,0.9-3,1.3c-2.6,0.9-5.1,1.8-7.8,2.6c-2.3,0.7-4.7,0.8-7,1.4c-2.4,0.6-4.8,0.9-7.2,1.5
		c-2.7,0.6-5.5,0.9-8.3,1.1c-5,0.3-9.5,0-14.4-0.5c-2.9-0.3-5.5-0.8-8.4-1.2c-3.4-0.4-6.8-0.9-10.2-1.6c-0.2,0-0.8-0.1-1.5-0.2
		c-0.8-0.5-2.3-0.8-3.1-1.1c-0.4-0.1-5.7-1.8-5.6-1.9c0.3-0.8,0.8-1.5,1.2-2.3c0.6-0.5,2.9-2.9,2.4-5.1c-0.6-2.5-3.4-6.1-3.4-6.1
		s-1.6,2.9-2.5,6.9c-0.5,2.3,0.6,3.4,1.7,4c-0.3,0.4-0.6,0.8-1.1,1.2c-2.4-0.4-5.3-2.2-6.6-3.8c0.2-0.5,0.4-0.9,0.6-1.4
		c0.1,0,0.1,0,0.1,0s3.1-2.7,2.5-5.2c-0.6-2.5-3.4-6.1-3.4-6.1s-1.5,2.9-2.5,6.9c-0.4,1.6,0.1,2.6,0.8,3.3c-0.1,0.5,0,0.9,0.2,1.3
		c-2.3-0.2-3.4-2.8-5.4-3.9c0.6-0.2,1.6-1.2,2.4-2.2l0,0c0,0,3.1-2.7,2.5-5.2c-0.6-2.5-3.4-6.1-3.4-6.1s-1.6,2.9-2.5,6.9
		c-0.4,1.8,0.2,2.8,1,3.5c-0.4,0.5-0.8,1-1.3,1.3c0.1-1,0.4-4-1.2-5.4c-2-1.6-6.4-2.8-6.4-2.8s0.5,3.3,2.2,7c0.3,0.6,0.6,1,0.9,1.3
		c-0.8-0.5-1.6-0.9-2.6-0.8c-2.5,0.2-6.5,2.6-6.5,2.6s2.7,1.9,6.5,3.3c2.7,1,4-0.8,4.6-1.9c1,0,2-0.1,2.8-0.2
		c1.6,1.2,2.7,2.6,4.2,3.8c-1,0.4-2.4,0.2-3.6,0c-0.9-0.8-2.1-1.6-3.4-1.5c-2.6,0.2-6.5,2.6-6.5,2.6s2.7,1.9,6.5,3.3
		c2.6,1,3.9-0.6,4.5-1.7c1,0,2,0,3,0.1c-2.4,0.7-5,2.3-5,2.3s2.1,1.5,5.2,2.8c-0.3,0-0.5-0.1-0.8-0.1c-2.5,0.2-6.5,2.6-6.5,2.6
		s2.7,1.9,6.5,3.3c0.1,0,0.3,0.1,0.4,0.1c-0.7,0.2-1.4,0.5-2,0.7c-1.8-1-4.2-1.3-6.4-1.1c-0.9-0.9-2.3-2-3.8-1.9
		c-2.5,0.2-6.5,2.6-6.5,2.6s2.7,1.9,6.5,3.3c2.7,1,4-0.8,4.5-1.9c0.8,0,1.6,0,2.4,0.2c-0.3-0.1-1.5,3-2,3.3
		c-1.3,0.9-3.1,0.8-4.6,0.7c-0.5,0-0.9,0-1.4,0c0-0.3,0.1-0.5,0.1-0.5s-2.8-2.4-5.1-1.4c-2.3,1-5.5,4.3-5.5,4.3s2.8,0.9,6.6,1
		c2.1,0.1,3-1.1,3.5-2.1c0.1,0,0.2,0.1,0.2,0.1c0.7,0.3,1.5,0.5,2.2,0.6c1.3,0.1,2.3,0,3.5-0.3c2.3-0.6,4.3-2.4,4.9-4.8
		c0.1-0.4,3.1-1.2,3.5-1.3c1.2-0.5,2.5-0.9,3.7-1.2c1.2-0.3,2.4-0.6,3.6-0.8c-0.2,0.2-0.6,0.6-0.9,0.9c-1.2,0-2.9,0.3-3.8,1.5
		c-1.5,2-2.5,6.5-2.5,6.5s2.9-0.7,6.2-2.6c2-1.1,2.1-2.8,1.8-4c0,0,0,0,0.1-0.1c0.8-0.9,2.4-2.2,2.8-3.3c0,0,0,0,0,0c0,0,0,0,0.1,0
		c1.1-0.5,2.4-0.5,3.5-0.8c1.1-0.4,2.2-0.9,3.3-1.2c0.7,0.1,1.5,0.2,1.8,0.3c1.1,0.4,2.1,0.9,3.1,1.5c0.2,0.1,0.3,0.2,0.5,0.3
		c0,0.2,0,0.4,0,0.6c0.2,0.9,0.5,1.9,0.7,2.8c0,0.1,0.1,0.4,0.2,0.9c-0.7,1-1.5,2.5-1,4c0.8,2.4,3.9,5.8,3.9,5.8s1.1-2.8,1.5-6.5
		c0.2-2.2-1.1-3.3-2.2-3.8c0,0,0-0.1,0-0.1c-0.1-0.5-0.2-1.2-0.4-2c0.9,0.6,1.7,1.3,2.6,2c0.7,0.5,5.5,3.3,5.6,3.9
		c0,0.3,0,0.6,0,0.8c-1.1,0.4-2.7,1.2-3.2,2.6c-0.8,2.4-0.3,7-0.3,7s2.5-1.6,5.1-4.4c1.6-1.7,1.1-3.4,0.4-4.5
		c1.2,0.1,2.5,1.9,4.1,2.3c0.2,1.3-0.5,3.2-0.7,4.7c-0.6,0.4-1.2,1-1.5,1.8c-0.8,2.4-0.4,7-0.4,7s2.5-1.6,5.1-4.4
		c2.6-2.8-0.4-5.6-0.4-5.6s-0.1,0-0.2,0c0-0.5,0.1-1.1,0.3-1.7c0-0.2,0.9,0.7,1.8,1.5c-0.2,0.1-0.3,0.2-0.3,0.2s-0.2,3.6,2,4.9
		c2.2,1.2,6.8,1.8,6.8,1.8s-1-2.8-3.2-5.9c-1-1.4-2.2-1.7-3.3-1.6c-0.4-0.6-1.3-1-1.9-1.4c0.6-0.1,1.2-0.1,1.7,0
		c0.7,0.9,1.6,1.8,2.9,1.9c2.5,0.2,6.9-1.3,6.9-1.3s-2.1-2.1-5.4-4c-2.2-1.2-3.8-0.1-4.7,0.8c-1.7-0.2-3.4-0.2-4.5,0.2
		c-1.2-0.9-2.5-1.8-4-2.6c0.4-0.3,1-0.4,1.6-0.4c0.6,0.8,1.5,1.5,2.6,1.6c2.5,0.2,6.9-1.2,6.9-1.2s-2.1-2.1-5.4-4
		c-2.4-1.4-4.2,0.2-4.9,1.1c-1.6,0.1-3,0.3-4,0.8c-3.2-2.1-5.6-4.6-9-6.5c0,0,0,0,0,0c5,0.7,9.9,1.1,14.9,1.7c3.4,0.4,6.9,1,10.4,1
		c3.4,0,6.7-0.6,10-1.1c3.9-0.5,7.8-1.2,11.7-2.2c2.1-0.5,4.1-1,6.2-1.6c0.5,0.7,1.5,1.3,2.1,1.7c0.1,0.1,0.3,0.2,0.7,0.5
		c0.2,1.2,0.8,2.8,2.2,3.5c2.3,1.1,6.9,1.2,6.9,1.2s-1.2-2.7-3.7-5.6c-1.4-1.7-3.1-1.5-4.3-1.1c0,0-0.1,0-0.1,0
		c-0.2-0.1-0.7-0.5-1.3-0.9c1.4-0.5,2.9-1,4.3-1.5c1.9,1.8,5.3,1.7,7.5,2.5c0.1,0,0.8,0.3,1.7,0.6c0.5,1.1,1.5,2.5,3.1,2.8
		c2.5,0.4,7-0.7,7-0.7s-1.9-2.3-5.1-4.4c-1.9-1.3-3.4-0.6-4.4,0.1c0,0-0.1,0-0.1,0c-1.6-0.5-3.2-0.8-4.8-1.3c-0.7-0.2-1.3-0.6-2-0.9
		c0,0,0.1,0,0.1-0.1c1.3-0.7,3.1-0.3,4.6-0.4c1.5-0.1,3-0.2,4.6-0.3c0.7,1.1,2,2.9,3.8,3c2.5,0.2,6.8-1.5,6.8-1.5s-2.3-2.3-5.9-4.3
		c-2.3-1.3-3.8-0.1-4.6,0.9c-1.1,0.1-2.3,0.3-3.4,0.3c2.2-1.5,4.7-2.6,7-4c2,0.7,4.3,0.5,6.5,0c1.1,0.8,2.6,1.6,4.1,1.2
		c2.5-0.7,6-3.7,6-3.7s-3-1.4-7-2.2c-2.8-0.5-3.8,1.4-4.2,2.6c-0.8,0.2-1.6,0.3-2.4,0.2c0.3,0,1-3.2,1.4-3.6
		C368,318.1,369.7,317.9,371.2,317.7z M252.6,318.8c-0.1,0-0.1,0-0.2,0c-0.1-0.1-0.2-0.1-0.3-0.2
		C252.3,318.7,252.5,318.7,252.6,318.8z M268.1,329.7c-0.3,0.3-0.7,0.4-1.1,0.5c-0.6-0.8-2.2-2.5-4-2.7c0.2-0.1,0.4-0.3,0.5-0.5
		C265.1,327.9,266.2,329,268.1,329.7z M264.5,337.5c0.2-0.3,0.4-0.6,0.5-0.9c0.4,0,0.9,0.1,1.3,0.2
		C265.8,337.1,265.1,337.3,264.5,337.5z M272.7,335.6c-1.6,0-3.2-0.4-4.7-0.6c-1.3-0.1-2.6-0.3-3.9-0.4c-0.4-0.4-1-0.9-1.6-1.3
		c1.8,0.6,3,0,3.8-0.9c1.6-0.2,3.5-0.9,5-0.6c2.1,0.4,3.5,2.2,6.2,2.7C276,334.2,274.3,335.6,272.7,335.6z"/>
	<g>
		<path class="st0" d="M302,314.7c0.9-0.1,1.6,0,2.2,0.2c0.6,0.3,1.2,0.6,1.8,1c0,0,0.1,0.1,0.1,0.1c0,0,0.1,0.1,0.1,0.1
			c0.1,0.1,0.3,0.2,0.5,0.2c0.2,0.1,0.3,0.1,0.5,0.1c0.2,0,0.3,0.1,0.5,0.1c0.2,0,0.3,0.1,0.5,0.2c-0.1,0.1-0.3,0.2-0.5,0.3
			c-0.2,0.1-0.4,0.1-0.7,0.2c0,0-0.1,0-0.1,0c0,0-0.1,0-0.1,0l-0.1,0c-0.3,0.1-0.5,0.1-0.8,0.2c-0.2,0.1-0.4,0.2-0.5,0.3
			c-0.4,0.4-0.6,0.9-0.8,1.5c-0.2,0.5-0.3,1.1-0.3,1.6c0,0.1,0,0.2,0,0.4c0,0.1,0,0.2,0,0.4c0.1,0.6,0,1.2-0.1,1.8
			c-0.1,0.6-0.3,1.1-0.4,1.6c-0.3,0.9-0.8,1.6-1.4,2.1c-0.6,0.5-1.3,0.9-2,1.2c-0.4,0.1-0.8,0.3-1.2,0.4c-0.4,0.1-0.8,0.2-1.1,0.2
			c-0.2,0-0.3,0.1-0.5,0.1c-0.2,0-0.3,0-0.5,0c-0.1,0-0.3,0-0.4,0.1c-0.1,0-0.2,0-0.4,0.1c-0.1,0-0.2,0-0.2,0c-0.1,0-0.1,0-0.2,0.1
			c-0.3,0.1-0.5,0.2-0.8,0.2c-0.2,0.1-0.5,0.1-0.7,0.1c-0.2,0-0.4,0.1-0.6,0.1c-0.2,0-0.4,0-0.6,0c-0.4,0-0.7,0-1.1-0.1
			c-0.4,0-0.7-0.1-1.2-0.1c0.2,0.6,0.4,1.1,0.6,1.5c0.2,0.4,0.4,0.8,0.6,1.1c0,0,0,0,0,0.1c0,0,0,0,0,0.1c0.2,0.3,0.3,0.5,0.5,0.8
			c0.2,0.3,0.3,0.7,0.5,1.1c0.1,0.1,0.2,0.2,0.3,0.2c0.1,0,0.3,0,0.5,0c0.2,0,0.3-0.1,0.5-0.1c0.2,0,0.4-0.1,0.5-0.1
			c0.2,0,0.3-0.1,0.5-0.1c0.2,0,0.3-0.1,0.5-0.1c0,0,0,0.1,0,0.1c0,0-0.1,0.1-0.1,0.1c-0.1,0.1-0.1,0.1-0.2,0.2
			c-0.1,0.1-0.1,0.1-0.2,0.1c0,0,0,0,0,0c0,0,0,0,0,0c-0.1,0-0.1,0.1-0.2,0.1c-0.1,0-0.1,0-0.2,0c0,0-0.1,0-0.1,0c0,0-0.1,0-0.1,0
			c0,0-0.1,0-0.1,0c0,0,0,0,0,0.1c0.2,0.1,0.3,0.1,0.5,0.2c0.1,0,0.2,0.1,0.2,0.1c0.1,0,0.2,0,0.3,0c0,0,0.1,0,0.1,0
			c0,0,0.1,0,0.2,0c0,0,0.1,0,0.2,0c0.1,0,0.1,0,0.2,0c0,0,0.1,0,0.1,0c0,0,0.1,0,0.1,0c0.1,0,0.1,0,0.2,0c0.1,0,0.1,0,0.1,0
			c0.1,0,0.1,0.1,0.2,0.1c0,0,0.1,0,0.1,0c0,0-0.1,0.1-0.1,0.1c-0.1,0-0.1,0-0.2,0.1c0,0-0.1,0-0.1,0c-0.1,0-0.2,0-0.3,0.1
			c-0.1,0-0.1,0.1-0.1,0.2l0,0l0,0c0,0-0.1,0-0.3,0c-0.2,0-0.4-0.1-0.6-0.1c-0.2,0-0.3-0.1-0.5-0.1c-0.2,0-0.3,0-0.3,0l0,0
			c-0.1,0,0,0.1,0,0.1c0.1,0.1,0.2,0.1,0.3,0.1c0,0,0,0,0.1,0.1c0.1,0.1,0.3,0.1,0.4,0.1c0.1,0,0.1,0,0.1,0.1c-0.1,0-0.2,0-0.3,0
			c-0.1,0-0.2,0-0.3,0c-0.2,0-0.4,0-0.6-0.1c-0.2-0.1-0.4-0.2-0.5-0.3c0,0,0,0-0.1,0c0,0,0,0-0.1,0c-0.1-0.1-0.3-0.2-0.4-0.3
			c-0.1-0.1-0.3-0.2-0.5-0.2c-0.1,0-0.1,0-0.2,0c-0.1,0-0.1,0-0.2,0c0,0-0.1,0-0.1,0c0,0-0.1,0-0.1,0c0,0,0,0-0.1,0c0,0,0,0-0.1,0
			c-0.1,0-0.1,0-0.2,0.1c-0.1,0-0.1,0-0.1,0c0,0,0,0-0.1,0c0,0,0,0-0.1,0c0,0-0.1,0-0.1,0c0,0-0.1,0-0.1,0c0,0,0,0-0.1-0.1
			c0,0,0,0,0-0.1c0,0,0-0.1,0-0.1c0,0,0,0,0-0.1c0,0,0,0,0,0c0,0,0,0-0.1,0c0.1,0,0.2-0.1,0.2-0.1c0.1,0,0.1,0,0.2,0
			c0.1,0,0.1,0,0.2,0c0.1,0,0.1,0,0.2,0c0.1,0,0.1,0,0.2,0c0,0,0.1,0,0.1,0c0.1,0,0.2,0,0.2-0.1c0,0,0.1-0.1,0-0.1
			c-0.1-0.4-0.2-0.8-0.5-1.3c-0.3-0.5-0.6-1-0.9-1.6c-0.1-0.2-0.2-0.4-0.3-0.5c-0.1-0.2-0.2-0.4-0.3-0.5c0,0-0.1-0.1-0.1-0.1
			c0,0-0.1-0.1-0.1-0.1c0,0,0,0-0.1-0.1c0,0,0,0-0.1-0.1c-0.1-0.1-0.2-0.2-0.3-0.3c0,0-0.1,0.1-0.1,0.1c0,0-0.1,0.1-0.1,0.1
			c-0.1,0.1-0.1,0.1-0.2,0.1c-0.1,0-0.1,0.1-0.2,0.1c-0.1,0.1-0.2,0.1-0.3,0.2c-0.1,0.1-0.1,0.2-0.2,0.3c0,0,0,0,0,0.1c0,0,0,0,0,0
			c0,0,0,0,0,0c0.1,0.4,0.2,0.8,0.4,1.2c0.2,0.4,0.4,0.8,0.6,1.3c0.2,0.4,0.4,0.8,0.5,1.2c0.2,0.4,0.3,0.8,0.4,1.2
			c0,0.2,0.2,0.3,0.4,0.4c0.2,0.1,0.4,0.1,0.7,0.1c0,0,0.1,0,0.2,0c0.1,0,0.1,0,0.2,0c0.2,0,0.3,0,0.5,0c0.2,0,0.3,0.1,0.5,0.1
			c0.1,0,0.3,0.1,0.4,0.1c0.1,0,0.2,0.1,0.3,0.1l-0.2,0.1c-0.1,0.1-0.2,0.1-0.3,0c-0.1,0-0.3-0.1-0.5-0.1c-0.1,0-0.2-0.1-0.3-0.1
			c-0.1,0-0.2,0-0.3,0c0,0-0.1,0-0.1,0c0,0-0.1,0-0.1,0l0,0c0,0,0,0.1,0,0.1c0,0,0.1,0.1,0.3,0.2c0,0,0.1,0,0.2,0.1
			c0.1,0,0.1,0,0.2,0.1c0,0,0.1,0,0.1,0c0,0,0.1,0,0.2,0c0.2,0.1,0.5,0.1,0.9,0.2l0,0c0,0,0,0,0,0c0,0,0,0,0,0c0,0,0,0.1-0.1,0.1
			c0,0-0.1,0.1-0.2,0c-0.1,0-0.3-0.1-0.4-0.2c-0.2-0.1-0.3-0.1-0.5-0.1l0,0c-0.3-0.1-0.6-0.2-0.9-0.3c-0.3-0.1-0.4-0.1-0.5-0.1
			c0,0,0,0.1,0,0.2c0.1,0.1,0.2,0.2,0.3,0.3c0,0,0.1,0.1,0.1,0.1c0,0,0.1,0.1,0.1,0.1c0,0,0,0,0.1,0c0,0,0,0,0.1,0
			c0.1,0,0.2,0.1,0.2,0.1c0.1,0,0.1,0.1,0,0.1c0,0,0,0-0.1,0c0,0,0,0-0.1,0l0,0c0,0-0.1,0-0.1,0c0,0-0.1,0.1-0.1,0.1
			c0,0-0.1-0.1-0.1-0.1c0,0-0.1-0.1-0.1-0.1c0,0-0.1,0-0.1-0.1c0,0-0.1-0.1-0.1-0.1c-0.1-0.1-0.2-0.2-0.4-0.3
			c-0.1-0.1-0.2-0.3-0.3-0.4c0,0,0-0.1-0.1-0.1c0-0.1,0-0.1-0.1-0.2c0,0,0,0,0-0.1c0,0,0,0,0-0.1c0-0.1-0.1-0.2-0.1-0.3
			c-0.1-0.1-0.1-0.2-0.2-0.2c-0.1,0-0.2-0.1-0.4-0.1c-0.2,0-0.3,0-0.5,0c0,0-0.1,0-0.1,0c0,0-0.1,0-0.1,0c-0.2,0-0.3,0-0.4,0
			c-0.1,0-0.2,0-0.3,0c0,0,0,0,0-0.1c0,0,0-0.1,0-0.1l0,0c0-0.1,0.1-0.1,0.1-0.1c0,0,0,0-0.1,0c0,0,0.1,0,0.1-0.1c0,0,0.1,0,0.1,0
			c0.1,0,0.2,0,0.2,0c0.1,0,0.2,0,0.2,0c0,0,0,0,0,0c0,0,0,0,0,0c0.1,0,0.1,0,0.2,0c0.1,0,0.2,0,0.3,0c0.1,0,0.1,0,0.2-0.1
			c0.1,0,0.1-0.1,0.2-0.1c0,0,0-0.1,0-0.1c0-0.1,0-0.1,0-0.1c0-0.2-0.1-0.3-0.1-0.5c0-0.1-0.1-0.3-0.2-0.4c-0.3-0.4-0.5-0.9-0.8-1.5
			c-0.3-0.6-0.5-1.2-0.7-1.8c0-0.2-0.1-0.3-0.1-0.5c0-0.2-0.1-0.3-0.1-0.5c0,0,0,0,0-0.1c0,0,0,0,0-0.1c0-0.1,0-0.1,0.1-0.2
			c0.1,0,0.1-0.1,0.2-0.2c0.1-0.1,0.2-0.2,0.4-0.3c0-0.1-0.1-0.2-0.4-0.3c-0.3-0.1-0.6-0.3-1-0.4c-0.2-0.1-0.4-0.2-0.6-0.3
			c-0.2-0.1-0.4-0.2-0.7-0.3c0,0,0,0-0.1,0c0,0-0.1,0-0.1-0.1c-0.1,0-0.1-0.1-0.2-0.1c-0.1,0-0.2-0.1-0.3-0.1
			c-0.1,0-0.2,0.1-0.3,0.1c-0.1,0-0.2,0.1-0.3,0.1c-0.2,0.1-0.5,0.1-0.7,0.2c-0.3,0.1-0.5,0.1-0.8,0.2c-0.1,0-0.3,0-0.4,0.1
			c-0.1,0-0.3,0.1-0.4,0.1c-0.3,0-0.5,0.1-0.7,0.1c-0.2,0-0.5,0-0.7,0c0-0.1,0.1-0.1,0.1-0.2c0-0.1,0.1-0.2,0.1-0.2
			c0-0.1,0-0.1,0.1-0.2c0-0.1,0.1-0.1,0.1-0.2c0.1-0.1,0.1-0.1,0.2-0.2c0.1-0.1,0.2-0.2,0.4-0.3c0,0,0.1-0.1,0.1-0.1
			c0.1,0,0.1-0.1,0.2-0.1c0.2-0.2,0.4-0.3,0.6-0.4c0.2-0.1,0.3-0.2,0.4-0.2c-0.1,0-0.1,0-0.2,0c0,0-0.1,0-0.1,0c0,0,0,0-0.1,0
			c0,0,0,0-0.1,0c-0.1,0-0.3,0-0.4,0c-0.2,0-0.5-0.1-0.9-0.1c0,0-0.1,0-0.1,0c0,0-0.1,0-0.1,0c-0.1,0-0.2-0.1-0.4-0.1
			c-0.1,0-0.3-0.1-0.4-0.2c-0.2-0.1-0.4-0.2-0.6-0.3c-0.2-0.1-0.4-0.1-0.5-0.1l0,0l0,0c-0.1,0-0.4,0.1-0.6,0.1
			c-0.3,0.1-0.6,0.1-1,0.2c-0.4,0.1-0.8,0.1-1.3,0.1c-0.5,0-0.9,0.1-1.4,0.1c-0.5,0-1.1,0-1.6,0c-0.5,0-1-0.1-1.5-0.2
			c-0.1,0-0.3,0-0.4,0c-0.1,0-0.2,0-0.3,0c0,0,0,0-0.1,0c0,0,0,0-0.1,0c-0.2,0-0.3,0-0.5,0c-0.2,0-0.4,0-0.7-0.1c0,0,0-0.1-0.1-0.1
			c0,0-0.1,0-0.2,0c-0.1,0-0.1-0.1-0.2-0.1c0,0-0.1,0-0.1-0.1c0,0,0-0.1,0-0.1c0,0,0-0.1,0-0.1c0-0.1,0-0.2,0.1-0.3
			c0.1-0.1,0.1-0.2,0.2-0.3c0.1-0.1,0.1-0.2,0.2-0.3c0.1-0.1,0.1-0.2,0.1-0.3l0,0c0,0,0-0.1,0-0.1c0-0.1,0-0.1-0.1-0.2
			c0-0.1-0.1-0.1-0.1-0.2c0-0.1-0.1-0.1-0.1-0.2c0-0.1-0.1-0.2-0.1-0.2c0,0,0,0,0-0.1c0,0,0,0,0,0c0,0,0,0,0,0
			c0-0.2,0.1-0.3,0.2-0.3c0.1-0.1,0.3-0.1,0.5-0.1c0,0,0.1,0,0.1,0c0.1,0,0.1,0,0.1,0c0.1,0,0.2,0,0.3,0c0.1,0,0.2,0,0.3,0
			c0.1,0,0.3,0.1,0.5,0.1l10.3,0.5c1.1-0.2,2.1-0.5,3.1-0.8c1-0.3,1.9-0.7,2.8-1.1c0.3-0.1,0.7-0.3,1-0.4c0.3-0.1,0.7-0.3,1-0.4
			c0.7-0.2,1.3-0.5,2-0.7c0.7-0.2,1.4-0.4,2.1-0.5c0.2-0.1,0.4-0.1,0.6-0.2c0.2-0.1,0.4-0.1,0.6-0.2c0.5-0.2,0.9-0.5,1.4-0.8
			c0.5-0.3,0.9-0.6,1.3-0.9c0.6-0.5,1.2-0.9,1.8-1.3C301,315.1,301.6,314.8,302,314.7L302,314.7z"/>
		<path class="st0" d="M316.5,315.4c0.5,0.1,1,0.3,1.6,0.8c0.6,0.4,1.2,0.9,1.8,1.4c0.4,0.3,0.8,0.6,1.3,0.9
			c0.4,0.3,0.9,0.6,1.3,0.8c0.2,0.1,0.4,0.2,0.6,0.3c0.2,0.1,0.4,0.1,0.6,0.2c0.7,0.2,1.4,0.4,2.1,0.6c0.7,0.2,1.4,0.5,2,0.8
			c0.3,0.1,0.7,0.3,1,0.4c0.3,0.1,0.7,0.3,1,0.4c0.9,0.4,1.9,0.8,2.8,1.2c1,0.4,2,0.7,3.1,1l10.4-0.1c0.2,0,0.3-0.1,0.5-0.1
			c0.1,0,0.2,0,0.4,0c0.1,0,0.2,0,0.4,0c0,0,0.1,0,0.1,0c0.1,0,0.1,0,0.1,0c0.2,0,0.3,0.1,0.5,0.2c0.1,0.1,0.2,0.2,0.2,0.4
			c0,0,0,0,0,0c0,0,0,0,0,0.1c0,0,0,0,0,0.1c0,0.1,0,0.2-0.1,0.2c0,0.1-0.1,0.1-0.1,0.2c0,0.1-0.1,0.1-0.1,0.2
			c0,0.1-0.1,0.1-0.1,0.2c0,0,0,0,0,0.1l0,0c0,0.1,0,0.2,0.1,0.3c0.1,0.1,0.1,0.2,0.2,0.3c0.1,0.1,0.1,0.2,0.2,0.3
			c0.1,0.1,0.1,0.2,0.1,0.3c0,0,0,0,0,0.1c0,0,0,0.1-0.1,0.1c0,0,0,0-0.1,0.1c0,0-0.1,0-0.2,0.1c-0.1,0-0.1,0-0.2,0
			c0,0-0.1,0-0.1,0.1c-0.3,0-0.5,0.1-0.7,0.1c-0.2,0-0.4,0-0.5,0c0,0-0.1,0-0.1,0c0,0,0,0-0.1,0c-0.1,0-0.2,0-0.3,0
			c-0.1,0-0.2,0-0.4,0c-0.5,0.1-0.9,0.1-1.5,0.1c-0.5,0-1.1,0-1.6-0.1c-0.5,0-1-0.1-1.4-0.2c-0.5-0.1-0.9-0.1-1.3-0.2
			c-0.4-0.1-0.7-0.1-1-0.2c-0.3-0.1-0.5-0.1-0.6-0.2l0,0l0,0c-0.1,0-0.3,0-0.5,0.1c-0.2,0.1-0.4,0.2-0.6,0.3
			c-0.1,0.1-0.3,0.1-0.4,0.2c-0.1,0-0.3,0.1-0.4,0.1c0,0-0.1,0-0.1,0c0,0-0.1,0-0.1,0c-0.4,0-0.8,0.1-0.9,0.1c-0.2,0-0.3,0-0.5,0
			c0,0,0,0-0.1,0c0,0,0,0-0.1,0c0,0-0.1,0-0.1,0c0,0-0.1,0-0.2,0c0.1,0,0.2,0.1,0.4,0.2c0.2,0.1,0.4,0.3,0.6,0.4
			c0.1,0,0.1,0.1,0.2,0.1c0.1,0,0.1,0.1,0.1,0.1c0.1,0.1,0.3,0.2,0.4,0.3c0.1,0.1,0.2,0.2,0.2,0.2c0.1,0.1,0.1,0.2,0.1,0.2
			c0,0.1,0.1,0.1,0.1,0.2c0,0.1,0.1,0.2,0.1,0.2c0,0.1,0,0.1,0.1,0.2c-0.2,0-0.5,0-0.7,0c-0.2,0-0.5-0.1-0.7-0.1
			c-0.1,0-0.3-0.1-0.4-0.1c-0.1,0-0.3-0.1-0.4-0.1c-0.3-0.1-0.5-0.1-0.8-0.2c-0.3-0.1-0.5-0.2-0.7-0.2c-0.1,0-0.2-0.1-0.3-0.1
			c-0.1,0-0.2-0.1-0.3-0.1c-0.1,0-0.2,0.1-0.3,0.1c-0.1,0-0.2,0.1-0.2,0.1c0,0-0.1,0-0.1,0c0,0,0,0-0.1,0c-0.2,0.1-0.5,0.2-0.7,0.3
			c-0.2,0.1-0.4,0.2-0.6,0.2c-0.4,0.1-0.8,0.3-1,0.4c-0.3,0.1-0.4,0.2-0.4,0.3c0.1,0.1,0.3,0.2,0.4,0.3c0.1,0.1,0.1,0.1,0.2,0.2
			c0.1,0.1,0.1,0.1,0.1,0.2c0,0,0,0.1,0,0.1c0,0,0,0,0,0.1c0,0.2-0.1,0.3-0.1,0.5c-0.1,0.2-0.1,0.3-0.2,0.5
			c-0.2,0.6-0.4,1.2-0.7,1.8c-0.3,0.6-0.6,1.1-0.8,1.5c-0.1,0.1-0.1,0.3-0.2,0.4c0,0.1-0.1,0.3-0.1,0.5c0,0,0,0.1,0,0.1
			c0,0.1,0,0.1,0,0.1c0.1,0.1,0.2,0.1,0.2,0.1c0.1,0,0.1,0.1,0.2,0.1c0.1,0,0.2,0,0.3,0c0.1,0,0.2,0,0.2,0c0,0,0,0,0,0c0,0,0,0,0,0
			c0.1,0,0.1,0,0.2,0c0.1,0,0.2,0,0.2,0c0,0,0.1,0,0.1,0c0.1,0,0.1,0,0.1,0.1c0,0-0.1,0-0.1,0c0,0,0,0.1,0.1,0.1l0,0
			c0,0,0,0.1,0,0.1c0,0,0,0.1,0,0.1c-0.1,0-0.2,0-0.3,0c-0.1,0-0.3,0-0.4-0.1c0,0-0.1,0-0.1,0c0,0-0.1,0-0.1,0c-0.2,0-0.3,0-0.5,0
			c-0.2,0-0.3,0-0.4,0.1c-0.1,0.1-0.2,0.1-0.2,0.2c-0.1,0.1-0.1,0.2-0.1,0.3c0,0,0,0,0,0.1c0,0,0,0,0,0.1c0,0.1-0.1,0.1-0.1,0.2
			c0,0.1,0,0.1-0.1,0.1c-0.1,0.2-0.2,0.3-0.4,0.4c-0.1,0.1-0.2,0.2-0.4,0.3c0,0-0.1,0-0.1,0.1c0,0-0.1,0.1-0.1,0.1
			c0,0-0.1,0-0.1,0.1c0,0-0.1,0.1-0.1,0.1c0,0-0.1-0.1-0.1-0.1c0,0-0.1,0-0.1,0l0,0c0,0,0,0-0.1,0c0,0,0,0-0.1,0c0,0,0-0.1,0-0.1
			c0.1,0,0.2-0.1,0.3-0.1c0,0,0,0,0.1,0c0,0,0,0,0.1,0c0,0,0.1-0.1,0.1-0.1c0,0,0.1-0.1,0.1-0.1c0.1-0.1,0.2-0.2,0.3-0.3
			c0.1-0.1,0.1-0.2,0.1-0.2c0,0-0.2,0-0.5,0.1c-0.3,0.1-0.6,0.2-0.9,0.3l0,0c-0.2,0-0.3,0.1-0.5,0.1c-0.2,0.1-0.3,0.1-0.4,0.1
			c-0.1,0-0.2,0-0.2-0.1c0,0-0.1-0.1-0.1-0.1c0,0,0,0,0-0.1c0,0,0,0,0-0.1l0,0c0.4-0.1,0.7-0.1,0.9-0.2c0.1,0,0.1,0,0.2,0
			c0,0,0.1,0,0.1,0c0.1,0,0.2,0,0.2,0c0.1,0,0.1,0,0.2-0.1c0.2-0.1,0.3-0.1,0.3-0.2c0,0,0-0.1,0-0.1l0,0c0,0-0.1,0-0.1,0
			c0,0-0.1,0-0.1,0c-0.1,0-0.2,0-0.3,0c-0.1,0-0.2,0-0.3,0.1c-0.2,0-0.3,0.1-0.5,0.1c-0.1,0-0.3,0-0.3,0l-0.2-0.1
			c0.1,0,0.2,0,0.3-0.1c0.1,0,0.3-0.1,0.4-0.1c0.2,0,0.3-0.1,0.5-0.1c0.2,0,0.3,0,0.5,0c0,0,0.1,0,0.2,0c0.1,0,0.1,0,0.2,0
			c0.2,0,0.5,0,0.7-0.1c0.2,0,0.3-0.2,0.4-0.4c0.1-0.4,0.2-0.8,0.4-1.2c0.2-0.4,0.4-0.8,0.6-1.2c0.2-0.4,0.4-0.8,0.6-1.3
			c0.2-0.4,0.3-0.8,0.4-1.2c0,0,0,0,0,0c0,0,0,0,0,0c0,0,0,0,0-0.1c0-0.1-0.1-0.2-0.2-0.3c-0.1-0.1-0.2-0.2-0.3-0.2
			c0-0.1-0.1-0.1-0.2-0.1c-0.1,0-0.1-0.1-0.2-0.2c0,0-0.1-0.1-0.1-0.1c0,0-0.1-0.1-0.1-0.1c-0.1,0.1-0.2,0.2-0.3,0.3
			c0,0,0,0-0.1,0.1c0,0,0,0-0.1,0.1c0,0.1-0.1,0.1-0.1,0.1c0,0-0.1,0.1-0.1,0.1c-0.1,0.2-0.2,0.4-0.3,0.5c-0.1,0.2-0.2,0.4-0.3,0.5
			c-0.3,0.6-0.7,1.1-1,1.6c-0.3,0.5-0.5,0.9-0.5,1.3c0,0.1,0,0.1,0,0.1c0,0,0.1,0.1,0.2,0.1c0,0,0.1,0,0.1,0c0,0,0.1,0,0.2,0
			c0,0,0.1,0,0.2,0c0.1,0,0.1,0,0.2,0c0.1,0,0.1,0,0.2,0.1c0.1,0,0.1,0.1,0.2,0.1c0,0-0.1,0-0.1,0c0,0,0,0,0,0c0,0,0,0,0,0.1
			c0,0,0,0.1,0,0.1c0,0,0,0,0,0.1c0,0,0,0-0.1,0.1c0,0-0.1,0-0.1,0c0,0-0.1,0-0.1,0c0,0,0,0-0.1,0c0,0,0,0-0.1,0c0,0-0.1,0-0.1,0
			c-0.1,0-0.1,0-0.2-0.1c0,0,0,0-0.1,0c0,0,0,0-0.1,0c0,0-0.1,0-0.1,0c0,0-0.1,0-0.1,0c-0.1,0-0.2,0-0.2,0c-0.1,0-0.1,0-0.2,0
			c-0.2,0-0.3,0.1-0.5,0.2c-0.1,0.1-0.3,0.2-0.4,0.3c0,0,0,0-0.1,0c0,0,0,0-0.1,0c-0.2,0.1-0.4,0.2-0.5,0.3
			c-0.2,0.1-0.4,0.1-0.6,0.1c-0.1,0-0.2,0-0.3,0c-0.1,0-0.2,0-0.3,0c0,0,0,0,0.1,0c0.1,0,0.2-0.1,0.4-0.1c0,0,0.1,0,0.1-0.1
			c0.1,0,0.3-0.1,0.3-0.1c0.1-0.1,0.1-0.1,0-0.1l0,0c0,0-0.1,0-0.3,0c-0.2,0-0.3,0-0.5,0.1c-0.2,0.1-0.4,0.1-0.6,0.1
			c-0.2,0-0.3,0-0.3,0l0,0l0,0c0-0.1,0-0.2-0.1-0.2c-0.1,0-0.2-0.1-0.3-0.1c0,0-0.1,0-0.1,0c-0.1,0-0.1,0-0.2-0.1
			c0,0-0.1-0.1-0.1-0.1c0,0,0.1,0,0.1,0c0,0,0.1,0,0.2-0.1c0,0,0.1,0,0.2,0c0.1,0,0.1,0,0.2,0c0,0,0,0,0.1,0c0,0,0.1,0,0.1,0
			c0.1,0,0.1,0,0.2,0c0.1,0,0.1,0,0.2,0c0.1,0,0.1,0,0.2,0c0,0,0.1,0,0.1,0c0.1,0,0.2,0,0.3,0c0.1,0,0.2,0,0.2-0.1
			c0.1,0,0.3-0.1,0.5-0.1c0,0,0-0.1,0-0.1c0,0-0.1,0-0.1,0c0,0,0,0-0.1,0c0,0-0.1,0-0.1,0c0,0-0.1,0-0.2,0c-0.1,0-0.1,0-0.2-0.1
			c0,0,0,0,0,0c0,0,0,0,0,0c-0.1,0-0.1-0.1-0.2-0.1c-0.1-0.1-0.1-0.1-0.2-0.2c0-0.1-0.1-0.1-0.1-0.2c0,0,0-0.1,0-0.1
			c0.1,0,0.3,0.1,0.5,0.1c0.2,0.1,0.4,0.1,0.5,0.1c0.2,0.1,0.3,0.1,0.5,0.2c0.2,0.1,0.3,0.1,0.5,0.1c0.2,0,0.4,0,0.5,0
			c0.1,0,0.2-0.1,0.3-0.2c0.2-0.4,0.3-0.7,0.5-1c0.2-0.3,0.4-0.6,0.5-0.8c0,0,0,0,0-0.1c0,0,0,0,0-0.1c0.2-0.4,0.4-0.7,0.7-1.1
			c0.2-0.4,0.4-0.9,0.6-1.5c-0.4,0-0.8,0.1-1.2,0.1c-0.4,0-0.7,0.1-1.1,0.1c-0.2,0-0.4,0-0.6,0c-0.2,0-0.4,0-0.6-0.1
			c-0.2,0-0.5-0.1-0.7-0.2c-0.2-0.1-0.5-0.2-0.8-0.3c-0.1,0-0.1-0.1-0.2-0.1c-0.1,0-0.2,0-0.2,0c-0.1,0-0.2,0-0.4-0.1
			c-0.1,0-0.3,0-0.4-0.1c-0.1,0-0.3,0-0.5,0c-0.2,0-0.3-0.1-0.5-0.1c-0.4-0.1-0.7-0.2-1.2-0.3c-0.4-0.1-0.8-0.2-1.2-0.4
			c-0.7-0.3-1.4-0.7-2-1.2c-0.6-0.5-1.1-1.3-1.4-2.2c-0.2-0.5-0.3-1.1-0.4-1.6c-0.1-0.6-0.1-1.2,0-1.8c0-0.1,0-0.2,0-0.4
			c0-0.1,0-0.3,0-0.4c0-0.5-0.1-1.1-0.2-1.6c-0.1-0.5-0.4-1-0.7-1.5c-0.1-0.1-0.3-0.2-0.5-0.3c-0.2-0.1-0.5-0.2-0.8-0.2l-0.1,0
			c0,0-0.1,0-0.1,0c0,0-0.1,0-0.1,0c-0.2-0.1-0.4-0.2-0.7-0.3c-0.2-0.1-0.4-0.2-0.5-0.3c0.2-0.1,0.4-0.1,0.5-0.1
			c0.2,0,0.3-0.1,0.5-0.1c0.2,0,0.4,0,0.5-0.1c0.2,0,0.3-0.1,0.5-0.2c0.1,0,0.1-0.1,0.2-0.1c0,0,0.1-0.1,0.1-0.1
			c0.6-0.4,1.2-0.7,1.9-0.9C314.9,315.3,315.7,315.2,316.5,315.4L316.5,315.4z"/>
	</g>
</g>
</svg>
