<?xml version="1.0" encoding="utf-8"?>
<!-- Generator: Adobe Illustrator 22.1.0, SVG Export Plug-In . SVG Version: 6.00 Build 0)  -->
<svg version="1.1" id="img1" xmlns="http://www.w3.org/2000/svg" xmlns:xlink="http://www.w3.org/1999/xlink" x="0px" y="0px"
	 viewBox="0 0 612 792" style="enable-background:new 0 0 612 792;" xml:space="preserve">
<style type="text/css">
	.st0{fill:none;}
	.st1{fill:#A0928D;}
	.st2{fill:#604D48;}
	.st3{fill:#FFFAEF;}
	.st4{fill:#77655F;}
	.st5{fill:#F7AEB4;}
	.st6{fill:#D3A2AB;}
	.st7{fill:#ED1C24;}

	.st6:hover
	{
		fill:red;
	}

</style>
<g>
	<g>
		<path class="st0" d="M417.5,433.2c1,7.6-4.4,14.8-12,15.9l-4.9,0.7c-7.6,1.1-15.5,8.1-17.4,15.5l-1.3,4.8c-2,7.4-9.7,12-17.2,10.1
			l-4.8-1.2c-7.5-1.9-17.4,1.5-22.1,7.7l-3,3.9c-4.7,6.1-13.5,7.4-19.7,2.7l-4-3c-6.2-4.6-16.7-5.2-23.3-1.4l-4.3,2.5
			c-6.7,3.9-15.3,1.6-19.2-5l-2.5-4.3c-3.9-6.6-13.4-11.2-21-10.2l-4.9,0.7c-7.6,1-14.8-4.4-15.9-12l-0.7-4.9
			c-1.1-7.6-8.1-15.5-15.5-17.4l-4.8-1.3c-7.4-2-12-9.7-10.1-17.2l1.2-4.8c1.9-7.5-1.5-17.4-7.7-22.1l-3.9-3
			c-6.1-4.7-7.4-13.5-2.7-19.7l3-4c4.6-6.2,5.2-16.7,1.4-23.3l-2.5-4.3c-3.9-6.7-1.6-15.3,5-19.2l4.3-2.5c6.6-3.9,11.2-13.4,10.2-21
			l-0.7-4.9c-1-7.6,4.4-14.8,12-15.9l4.9-0.7c7.6-1.1,15.5-8.1,17.4-15.5l1.3-4.8c2-7.4,9.7-12,17.2-10.1l4.8,1.2
			c7.5,1.9,17.4-1.5,22.1-7.7l3-3.9c4.7-6.1,13.5-7.4,19.7-2.7l4,3c6.2,4.6,16.7,5.2,23.3,1.4l4.3-2.5c6.7-3.9,15.3-1.6,19.2,5
			l2.5,4.3c3.9,6.6,13.4,11.2,21,10.2l4.9-0.7c7.6-1,14.8,4.4,15.9,12l0.7,4.9c1.1,7.6,8.1,15.5,15.5,17.4l4.8,1.3
			c7.4,2,12,9.7,10.1,17.2l-1.2,4.8c-1.9,7.5,1.5,17.4,7.7,22.1l3.9,3c6.1,4.7,7.4,13.5,2.7,19.7l-3,4c-4.6,6.2-5.2,16.7-1.4,23.3
			l2.5,4.3c3.9,6.7,1.6,15.3-5,19.2l-4.3,2.5c-6.6,3.9-11.2,13.4-10.2,21L417.5,433.2z"/>
		<path class="st0" d="M417.5,433.2c1,7.6-4.4,14.8-12,15.9l-4.9,0.7c-7.6,1.1-15.5,8.1-17.4,15.5l-1.3,4.8c-2,7.4-9.7,12-17.2,10.1
			l-4.8-1.2c-7.5-1.9-17.4,1.5-22.1,7.7l-3,3.9c-4.7,6.1-13.5,7.4-19.7,2.7l-4-3c-6.2-4.6-16.7-5.2-23.3-1.4l-4.3,2.5
			c-6.7,3.9-15.3,1.6-19.2-5l-2.5-4.3c-3.9-6.6-13.4-11.2-21-10.2l-4.9,0.7c-7.6,1-14.8-4.4-15.9-12l-0.7-4.9
			c-1.1-7.6-8.1-15.5-15.5-17.4l-4.8-1.3c-7.4-2-12-9.7-10.1-17.2l1.2-4.8c1.9-7.5-1.5-17.4-7.7-22.1l-3.9-3
			c-6.1-4.7-7.4-13.5-2.7-19.7l3-4c4.6-6.2,5.2-16.7,1.4-23.3l-2.5-4.3c-3.9-6.7-1.6-15.3,5-19.2l4.3-2.5c6.6-3.9,11.2-13.4,10.2-21
			l-0.7-4.9c-1-7.6,4.4-14.8,12-15.9l4.9-0.7c7.6-1.1,15.5-8.1,17.4-15.5l1.3-4.8c2-7.4,9.7-12,17.2-10.1l4.8,1.2
			c7.5,1.9,17.4-1.5,22.1-7.7l3-3.9c4.7-6.1,13.5-7.4,19.7-2.7l4,3c6.2,4.6,16.7,5.2,23.3,1.4l4.3-2.5c6.7-3.9,15.3-1.6,19.2,5
			l2.5,4.3c3.9,6.6,13.4,11.2,21,10.2l4.9-0.7c7.6-1,14.8,4.4,15.9,12l0.7,4.9c1.1,7.6,8.1,15.5,15.5,17.4l4.8,1.3
			c7.4,2,12,9.7,10.1,17.2l-1.2,4.8c-1.9,7.5,1.5,17.4,7.7,22.1l3.9,3c6.1,4.7,7.4,13.5,2.7,19.7l-3,4c-4.6,6.2-5.2,16.7-1.4,23.3
			l2.5,4.3c3.9,6.7,1.6,15.3-5,19.2l-4.3,2.5c-6.6,3.9-11.2,13.4-10.2,21L417.5,433.2z"/>
	</g>
	<g>
		<path class="st1" d="M417.5,445.2c1,7.6-4.4,14.8-12,15.9l-4.9,0.7c-7.6,1.1-15.5,8.1-17.4,15.5l-1.3,4.8c-2,7.4-9.7,12-17.2,10.1
			l-4.8-1.2c-7.5-1.9-17.4,1.5-22.1,7.7l-3,3.9c-4.7,6.1-13.5,7.4-19.7,2.7l-4-3c-6.2-4.6-16.7-5.2-23.3-1.4l-4.3,2.5
			c-6.7,3.9-15.3,1.6-19.2-5l-2.5-4.3c-3.9-6.6-13.4-11.2-21-10.2l-4.9,0.7c-7.6,1-14.8-4.4-15.9-12l-0.7-4.9
			c-1.1-7.6-8.1-15.5-15.5-17.4l-4.8-1.3c-7.4-2-12-9.7-10.1-17.2l1.2-4.8c1.9-7.5-1.5-17.4-7.7-22.1l-3.9-3
			c-6.1-4.7-7.4-13.5-2.7-19.7l3-4c4.6-6.2,5.2-16.7,1.4-23.3l-2.5-4.3c-3.9-6.7-1.6-15.3,5-19.2l4.3-2.5c6.6-3.9,11.2-13.4,10.2-21
			l-0.7-4.9c-1-7.6,4.4-14.8,12-15.9l4.9-0.7c7.6-1.1,15.5-8.1,17.4-15.5l1.3-4.8c2-7.4,9.7-12,17.2-10.1l4.8,1.2
			c7.5,1.9,17.4-1.5,22.1-7.7l3-3.9c4.7-6.1,13.5-7.4,19.7-2.7l4,3c6.2,4.6,16.7,5.2,23.3,1.4l4.3-2.5c6.7-3.9,15.3-1.6,19.2,5
			l2.5,4.3c3.9,6.6,13.4,11.2,21,10.2l4.9-0.7c7.6-1,14.8,4.4,15.9,12l0.7,4.9c1.1,7.6,8.1,15.5,15.5,17.4l4.8,1.3
			c7.4,2,12,9.7,10.1,17.2l-1.2,4.8c-1.9,7.5,1.5,17.4,7.7,22.1l3.9,3c6.1,4.7,7.4,13.5,2.7,19.7l-3,4c-4.6,6.2-5.2,16.7-1.4,23.3
			l2.5,4.3c3.9,6.7,1.6,15.3-5,19.2l-4.3,2.5c-6.6,3.9-11.2,13.4-10.2,21L417.5,445.2z"/>
		<path class="st1" d="M417.5,445.2c1,7.6-4.4,14.8-12,15.9l-4.9,0.7c-7.6,1.1-15.5,8.1-17.4,15.5l-1.3,4.8c-2,7.4-9.7,12-17.2,10.1
			l-4.8-1.2c-7.5-1.9-17.4,1.5-22.1,7.7l-3,3.9c-4.7,6.1-13.5,7.4-19.7,2.7l-4-3c-6.2-4.6-16.7-5.2-23.3-1.4l-4.3,2.5
			c-6.7,3.9-15.3,1.6-19.2-5l-2.5-4.3c-3.9-6.6-13.4-11.2-21-10.2l-4.9,0.7c-7.6,1-14.8-4.4-15.9-12l-0.7-4.9
			c-1.1-7.6-8.1-15.5-15.5-17.4l-4.8-1.3c-7.4-2-12-9.7-10.1-17.2l1.2-4.8c1.9-7.5-1.5-17.4-7.7-22.1l-3.9-3
			c-6.1-4.7-7.4-13.5-2.7-19.7l3-4c4.6-6.2,5.2-16.7,1.4-23.3l-2.5-4.3c-3.9-6.7-1.6-15.3,5-19.2l4.3-2.5c6.6-3.9,11.2-13.4,10.2-21
			l-0.7-4.9c-1-7.6,4.4-14.8,12-15.9l4.9-0.7c7.6-1.1,15.5-8.1,17.4-15.5l1.3-4.8c2-7.4,9.7-12,17.2-10.1l4.8,1.2
			c7.5,1.9,17.4-1.5,22.1-7.7l3-3.9c4.7-6.1,13.5-7.4,19.7-2.7l4,3c6.2,4.6,16.7,5.2,23.3,1.4l4.3-2.5c6.7-3.9,15.3-1.6,19.2,5
			l2.5,4.3c3.9,6.6,13.4,11.2,21,10.2l4.9-0.7c7.6-1,14.8,4.4,15.9,12l0.7,4.9c1.1,7.6,8.1,15.5,15.5,17.4l4.8,1.3
			c7.4,2,12,9.7,10.1,17.2l-1.2,4.8c-1.9,7.5,1.5,17.4,7.7,22.1l3.9,3c6.1,4.7,7.4,13.5,2.7,19.7l-3,4c-4.6,6.2-5.2,16.7-1.4,23.3
			l2.5,4.3c3.9,6.7,1.6,15.3-5,19.2l-4.3,2.5c-6.6,3.9-11.2,13.4-10.2,21L417.5,445.2z"/>
	</g>
	<g>
		<path class="st2" d="M417.5,433.2c1,7.6-4.4,14.8-12,15.9l-4.9,0.7c-7.6,1.1-15.5,8.1-17.4,15.5l-1.3,4.8c-2,7.4-9.7,12-17.2,10.1
			l-4.8-1.2c-7.5-1.9-17.4,1.5-22.1,7.7l-3,3.9c-4.7,6.1-13.5,7.4-19.7,2.7l-4-3c-6.2-4.6-16.7-5.2-23.3-1.4l-4.3,2.5
			c-6.7,3.9-15.3,1.6-19.2-5l-2.5-4.3c-3.9-6.6-13.4-11.2-21-10.2l-4.9,0.7c-7.6,1-14.8-4.4-15.9-12l-0.7-4.9
			c-1.1-7.6-8.1-15.5-15.5-17.4l-4.8-1.3c-7.4-2-12-9.7-10.1-17.2l1.2-4.8c1.9-7.5-1.5-17.4-7.7-22.1l-3.9-3
			c-6.1-4.7-7.4-13.5-2.7-19.7l3-4c4.6-6.2,5.2-16.7,1.4-23.3l-2.5-4.3c-3.9-6.7-1.6-15.3,5-19.2l4.3-2.5c6.6-3.9,11.2-13.4,10.2-21
			l-0.7-4.9c-1-7.6,4.4-14.8,12-15.9l4.9-0.7c7.6-1.1,15.5-8.1,17.4-15.5l1.3-4.8c2-7.4,9.7-12,17.2-10.1l4.8,1.2
			c7.5,1.9,17.4-1.5,22.1-7.7l3-3.9c4.7-6.1,13.5-7.4,19.7-2.7l4,3c6.2,4.6,16.7,5.2,23.3,1.4l4.3-2.5c6.7-3.9,15.3-1.6,19.2,5
			l2.5,4.3c3.9,6.6,13.4,11.2,21,10.2l4.9-0.7c7.6-1,14.8,4.4,15.9,12l0.7,4.9c1.1,7.6,8.1,15.5,15.5,17.4l4.8,1.3
			c7.4,2,12,9.7,10.1,17.2l-1.2,4.8c-1.9,7.5,1.5,17.4,7.7,22.1l3.9,3c6.1,4.7,7.4,13.5,2.7,19.7l-3,4c-4.6,6.2-5.2,16.7-1.4,23.3
			l2.5,4.3c3.9,6.7,1.6,15.3-5,19.2l-4.3,2.5c-6.6,3.9-11.2,13.4-10.2,21L417.5,433.2z"/>
		<path class="st3" d="M323.6,498c-3.5,0-6.8-1.1-9.6-3.2l-4-3c-3-2.2-7.3-3.5-11.7-3.5c-3.5,0-6.8,0.8-9.4,2.3l-4.3,2.5
			c-2.4,1.4-5.2,2.2-8,2.2c-5.7,0-11-3-13.9-7.9l-2.5-4.3c-3.2-5.3-10.5-9.3-17.1-9.3c-0.7,0-1.3,0-1.9,0.1l-4.9,0.7
			c-0.7,0.1-1.4,0.1-2.1,0.1c-8,0-14.8-5.9-16-13.8l-0.7-4.9c-1-6.8-7.4-14-14.1-15.8l-4.8-1.3c-8.5-2.3-13.7-11-11.5-19.6l1.2-4.8
			c1.7-6.7-1.5-15.8-6.9-20l-3.9-3c-7-5.3-8.4-15.4-3.1-22.5l3-4c4.1-5.5,4.7-15.2,1.2-21.1l-2.5-4.3c-4.4-7.6-1.9-17.5,5.7-22
			l4.3-2.5c5.9-3.5,10.1-12.2,9.2-19l-0.7-4.9c-1.2-8.7,5-16.9,13.7-18.1l4.9-0.7c6.8-1,14-7.4,15.8-14.1l1.3-4.8
			c1.9-7.1,8.3-12,15.6-12c1.3,0,2.7,0.2,4,0.5l4.8,1.2c1.2,0.3,2.5,0.5,3.9,0.5c6.1,0,12.8-3,16.1-7.4l3-3.9c3-4,7.8-6.3,12.9-6.3
			c3.5,0,6.8,1.1,9.6,3.2l4,3c3,2.2,7.3,3.5,11.7,3.5c3.5,0,6.8-0.8,9.4-2.3l4.3-2.5c2.4-1.4,5.2-2.2,8-2.2c5.7,0,11,3,13.9,7.9
			l2.5,4.3c3.2,5.3,10.5,9.3,17.1,9.3c0.7,0,1.3,0,1.9-0.1l4.9-0.7c0.7-0.1,1.4-0.1,2.1-0.1c8,0,14.8,5.9,16,13.8l0.7,4.9
			c1,6.8,7.4,14,14.1,15.8l4.8,1.3c8.5,2.3,13.7,11,11.5,19.6l-1.2,4.8c-1.7,6.7,1.5,15.8,6.9,20l3.9,3c7,5.3,8.4,15.4,3.1,22.5
			l-3,4c-4.1,5.5-4.7,15.2-1.2,21.1l2.5,4.3c4.4,7.6,1.9,17.5-5.7,22L428,409c-5.9,3.5-10.1,12.2-9.2,19l0.7,4.9
			c1.2,8.7-5,16.9-13.7,18.1l-4.9,0.7c-6.8,1-14,7.4-15.8,14.1l-1.3,4.8c-1.9,7.1-8.3,12-15.6,12c-1.3,0-2.7-0.2-4-0.5l-4.8-1.2
			c-1.2-0.3-2.5-0.5-3.9-0.5c-6.1,0-12.8,3-16.1,7.4l-3,3.9C333.4,495.7,328.6,498,323.6,498z M298.3,484.4c5.3,0,10.5,1.6,14.1,4.3
			l4,3c2.1,1.6,4.6,2.4,7.2,2.4c3.8,0,7.4-1.8,9.7-4.7l3-3.9c4.1-5.4,11.8-9,19.3-9c1.7,0,3.4,0.2,4.9,0.6l4.8,1.2
			c1,0.2,2,0.4,3,0.4c5.5,0,10.4-3.7,11.8-9l1.3-4.8c2.2-8.2,10.7-15.8,19.1-17l4.9-0.7c6.6-0.9,11.2-7,10.3-13.6l-0.7-4.9
			c-1.1-8.4,3.9-18.7,11.1-23l4.3-2.5c5.7-3.4,7.6-10.8,4.3-16.5l-2.5-4.3c-4.2-7.3-3.6-18.8,1.5-25.5l3-4c4-5.3,2.9-12.9-2.3-16.9
			l-3.9-3c-6.7-5.1-10.5-16-8.4-24.1l1.2-4.8c1.6-6.4-2.2-13-8.6-14.7l-4.8-1.3c-8.2-2.2-15.8-10.7-17-19.1l-0.7-4.9
			c-0.9-6.5-7-11.2-13.6-10.3l-4.9,0.7c-0.8,0.1-1.6,0.2-2.5,0.2c-8,0-16.7-4.8-20.5-11.3l-2.5-4.3c-2.2-3.7-6.2-5.9-10.5-5.9
			c-2.1,0-4.2,0.6-6,1.6l-4.3,2.5c-3.1,1.8-7.2,2.8-11.4,2.8c-5.3,0-10.5-1.6-14.1-4.3l-4-3c-2.1-1.6-4.6-2.4-7.2-2.4
			c-3.8,0-7.4,1.8-9.7,4.7l-3,3.9c-4.1,5.4-11.8,9-19.3,9c-1.7,0-3.4-0.2-4.9-0.6l-4.8-1.2c-1-0.2-2-0.4-3-0.4
			c-5.5,0-10.4,3.7-11.8,9l-1.3,4.8c-2.2,8.2-10.7,15.8-19.1,17l-4.9,0.7c-6.6,0.9-11.2,7-10.3,13.6l0.7,4.9
			c1.1,8.4-3.9,18.7-11.1,23l-4.3,2.5c-5.7,3.4-7.6,10.8-4.3,16.5l2.5,4.3c4.2,7.3,3.6,18.8-1.5,25.5l-3,4c-4,5.3-2.9,12.9,2.3,16.9
			l3.9,3c6.7,5.1,10.5,16,8.4,24.1l-1.2,4.8c-1.6,6.4,2.2,13,8.6,14.7l4.8,1.3c8.2,2.2,15.8,10.7,17,19.1l0.7,4.9
			c0.9,6.5,7,11.2,13.6,10.3l4.9-0.7c0.8-0.1,1.6-0.2,2.5-0.2c8,0,16.7,4.8,20.5,11.3l2.5,4.3c2.2,3.7,6.2,5.9,10.5,5.9
			c2.1,0,4.2-0.6,6-1.6l4.3-2.5C290,485.4,294.1,484.4,298.3,484.4z"/>
	</g>
	<g>
		<path class="st2" d="M236,361.9v0.2c0,0.6,0,1.1,0,1.7l6-0.1c0-0.5,0-1,0-1.5v-0.2L236,361.9z M236.1,358.5c0,0.6-0.1,1.1-0.1,1.7
			l6,0.2c0-0.5,0-1,0.1-1.5L236.1,358.5z M236.3,355.2c-0.1,0.6-0.1,1.1-0.1,1.7l6,0.4c0-0.5,0.1-1,0.1-1.5L236.3,355.2L236.3,355.2
			z M236.7,351.9c-0.1,0.6-0.2,1.1-0.2,1.7l6,0.7c0.1-0.5,0.1-1,0.2-1.5L236.7,351.9z M237.3,348.6c-0.1,0.5-0.2,1.1-0.3,1.6l5.9,1
			c0.1-0.5,0.2-1,0.3-1.5L237.3,348.6z M238,345.3c-0.1,0.5-0.3,1.1-0.4,1.6l5.9,1.3c0.1-0.5,0.2-1,0.3-1.5L238,345.3z M238.9,342.1
			c-0.2,0.5-0.3,1.1-0.5,1.6l5.8,1.6c0.1-0.5,0.3-1,0.4-1.5L238.9,342.1z M239.9,338.9c-0.2,0.5-0.4,1.1-0.5,1.6l5.7,1.8
			c0.2-0.5,0.3-1,0.5-1.5L239.9,338.9z M241.1,335.7c-0.2,0.5-0.4,1-0.6,1.6l5.6,2.1c0.2-0.5,0.4-1,0.6-1.4L241.1,335.7z
			 M242.4,332.7c-0.2,0.5-0.5,1-0.7,1.5l5.5,2.4c0.2-0.5,0.4-0.9,0.6-1.4L242.4,332.7L242.4,332.7z M243.9,329.6
			c-0.3,0.5-0.5,1-0.7,1.5l5.4,2.6c0.2-0.5,0.5-0.9,0.7-1.4L243.9,329.6z M245.5,326.7c-0.3,0.5-0.6,1-0.8,1.5l5.3,2.9
			c0.2-0.4,0.5-0.9,0.8-1.3L245.5,326.7z M247.2,323.9c-0.3,0.5-0.6,0.9-0.9,1.4l5.1,3.1c0.3-0.4,0.5-0.9,0.8-1.3L247.2,323.9z
			 M249.1,321.1c-0.3,0.5-0.6,0.9-1,1.4l5,3.4c0.3-0.4,0.6-0.8,0.9-1.3L249.1,321.1z M251.1,318.4c-0.3,0.4-0.7,0.9-1,1.3l4.8,3.6
			c0.3-0.4,0.6-0.8,0.9-1.2L251.1,318.4z M253.2,315.8c-0.4,0.4-0.7,0.8-1.1,1.3l4.6,3.8c0.3-0.4,0.7-0.8,1-1.2L253.2,315.8z
			 M255.4,313.3c-0.4,0.4-0.8,0.8-1.1,1.2l4.5,4c0.3-0.4,0.7-0.8,1-1.1L255.4,313.3z M257.8,310.9c-0.4,0.4-0.8,0.8-1.2,1.2l4.3,4.2
			c0.4-0.4,0.7-0.7,1.1-1.1L257.8,310.9z M260.3,308.7c-0.4,0.4-0.8,0.7-1.3,1.1l4.1,4.4c0.4-0.3,0.8-0.7,1.1-1L260.3,308.7z
			 M262.8,306.5c-0.4,0.3-0.9,0.7-1.3,1.1l3.8,4.6c0.4-0.3,0.8-0.7,1.2-1L262.8,306.5z M265.5,304.5c-0.5,0.3-0.9,0.7-1.4,1l3.6,4.8
			c0.4-0.3,0.8-0.6,1.2-0.9L265.5,304.5z M268.3,302.6c-0.5,0.3-0.9,0.6-1.4,0.9l3.4,5c0.4-0.3,0.8-0.6,1.3-0.9L268.3,302.6z
			 M271.1,300.8c-0.5,0.3-1,0.6-1.4,0.9l3.2,5.1c0.4-0.3,0.9-0.5,1.3-0.8L271.1,300.8z M274.1,299.2c-0.5,0.3-1,0.5-1.5,0.8l2.9,5.3
			c0.4-0.2,0.9-0.5,1.4-0.7L274.1,299.2z M277.1,297.7c-0.5,0.2-1,0.5-1.5,0.7l2.7,5.4c0.5-0.2,0.9-0.4,1.4-0.7L277.1,297.7
			L277.1,297.7z M280.2,296.4c-0.5,0.2-1,0.4-1.6,0.7l2.4,5.5c0.5-0.2,0.9-0.4,1.4-0.6L280.2,296.4z M283.3,295.2
			c-0.5,0.2-1.1,0.4-1.6,0.6l2.1,5.6c0.5-0.2,1-0.4,1.4-0.5L283.3,295.2z M286.5,294.1c-0.5,0.2-1.1,0.3-1.6,0.5l1.9,5.7
			c0.5-0.2,1-0.3,1.5-0.5L286.5,294.1z M289.8,293.2c-0.5,0.1-1.1,0.3-1.6,0.4l1.6,5.8c0.5-0.1,1-0.3,1.5-0.4L289.8,293.2z
			 M293,292.5c-0.5,0.1-1.1,0.2-1.6,0.3l1.3,5.9c0.5-0.1,1-0.2,1.5-0.3L293,292.5z M296.3,291.9c-0.6,0.1-1.1,0.2-1.7,0.3l1,5.9
			c0.5-0.1,1-0.2,1.5-0.2L296.3,291.9z M299.7,291.5c-0.6,0.1-1.1,0.1-1.7,0.2l0.8,6c0.5-0.1,1-0.1,1.5-0.2L299.7,291.5z M303,291.2
			c-0.6,0-1.1,0.1-1.7,0.1l0.5,6c0.5,0,1-0.1,1.5-0.1L303,291.2z M306.3,291.1c-0.6,0-1.1,0-1.7,0l0.2,6c0.5,0,1,0,1.5,0
			L306.3,291.1z M309.7,291.2c-0.6,0-1.1,0-1.7,0l-0.1,6c0.5,0,1,0,1.5,0L309.7,291.2z M313,291.4c-0.6,0-1.1-0.1-1.7-0.1l-0.4,6
			c0.5,0,1,0.1,1.5,0.1L313,291.4z M316.4,291.7c-0.6-0.1-1.1-0.1-1.7-0.2l-0.6,6c0.5,0.1,1,0.1,1.5,0.2L316.4,291.7z M319.7,292.3
			c-0.6-0.1-1.1-0.2-1.7-0.3l-0.9,5.9c0.5,0.1,1,0.2,1.5,0.3L319.7,292.3z M323,292.9c-0.5-0.1-1.1-0.2-1.6-0.4l-1.2,5.9
			c0.5,0.1,1,0.2,1.5,0.3L323,292.9z M326.2,293.8c-0.5-0.2-1.1-0.3-1.6-0.4l-1.5,5.8c0.5,0.1,1,0.3,1.5,0.4L326.2,293.8z
			 M329.4,294.7c-0.5-0.2-1.1-0.3-1.6-0.5l-1.8,5.7c0.5,0.2,1,0.3,1.5,0.5L329.4,294.7z M332.6,295.9c-0.5-0.2-1-0.4-1.6-0.6l-2,5.7
			c0.5,0.2,1,0.4,1.4,0.5L332.6,295.9z M335.7,297.2c-0.5-0.2-1-0.4-1.5-0.7l-2.3,5.5c0.5,0.2,0.9,0.4,1.4,0.6L335.7,297.2z
			 M338.7,298.6c-0.5-0.3-1-0.5-1.5-0.7l-2.6,5.4c0.5,0.2,0.9,0.4,1.4,0.7L338.7,298.6z M341.6,300.2c-0.5-0.3-1-0.5-1.5-0.8
			l-2.8,5.3c0.5,0.2,0.9,0.5,1.3,0.7L341.6,300.2z M344.5,301.9c-0.5-0.3-0.9-0.6-1.4-0.9l-3.1,5.2c0.4,0.3,0.9,0.5,1.3,0.8
			L344.5,301.9z M347.3,303.7c-0.5-0.3-0.9-0.6-1.4-0.9l-3.3,5c0.4,0.3,0.9,0.6,1.3,0.9L347.3,303.7z M350,305.7
			c-0.4-0.3-0.9-0.7-1.3-1l-3.5,4.9c0.4,0.3,0.8,0.6,1.2,0.9L350,305.7z M352.6,307.8c-0.4-0.4-0.9-0.7-1.3-1.1l-3.8,4.7
			c0.4,0.3,0.8,0.6,1.2,1L352.6,307.8L352.6,307.8z M355.2,310c-0.4-0.4-0.8-0.8-1.2-1.1l-4,4.5c0.4,0.3,0.8,0.7,1.1,1L355.2,310z
			 M357.6,312.3c-0.4-0.4-0.8-0.8-1.2-1.2l-4.2,4.3c0.4,0.4,0.7,0.7,1.1,1.1L357.6,312.3z M359.9,314.7c-0.4-0.4-0.8-0.8-1.1-1.2
			l-4.4,4.1c0.4,0.4,0.7,0.8,1,1.1L359.9,314.7z M362,317.3c-0.4-0.4-0.7-0.9-1.1-1.3l-4.6,3.9c0.3,0.4,0.7,0.8,1,1.2L362,317.3z
			 M364.1,319.9c-0.3-0.4-0.7-0.9-1-1.3l-4.7,3.7c0.3,0.4,0.6,0.8,0.9,1.2L364.1,319.9z M366,322.7c-0.3-0.5-0.6-0.9-0.9-1.4
			l-4.9,3.5c0.3,0.4,0.6,0.8,0.9,1.3L366,322.7z M367.8,325.5c-0.3-0.5-0.6-1-0.9-1.4l-5.1,3.2c0.3,0.4,0.5,0.9,0.8,1.3L367.8,325.5
			z M369.5,328.4c-0.3-0.5-0.5-1-0.8-1.5l-5.2,3c0.3,0.4,0.5,0.9,0.7,1.3L369.5,328.4z M371,331.4c-0.2-0.5-0.5-1-0.7-1.5l-5.3,2.7
			c0.2,0.5,0.5,0.9,0.7,1.4L371,331.4z M372.4,334.5c-0.2-0.5-0.4-1-0.7-1.5l-5.5,2.5c0.2,0.5,0.4,0.9,0.6,1.4L372.4,334.5
			L372.4,334.5z M373.6,337.6c-0.2-0.5-0.4-1-0.6-1.6l-5.6,2.2c0.2,0.5,0.4,1,0.6,1.4L373.6,337.6L373.6,337.6z M374.7,340.8
			c-0.2-0.5-0.3-1.1-0.5-1.6l-5.7,1.9c0.2,0.5,0.3,1,0.5,1.5L374.7,340.8z M375.7,344c-0.1-0.5-0.3-1.1-0.4-1.6l-5.8,1.7
			c0.1,0.5,0.3,1,0.4,1.5L375.7,344z M376.4,347.3c-0.1-0.5-0.2-1.1-0.4-1.6l-5.8,1.4c0.1,0.5,0.2,1,0.3,1.5L376.4,347.3z
			 M377.1,350.6c-0.1-0.6-0.2-1.1-0.3-1.7l-5.9,1.1c0.1,0.5,0.2,1,0.3,1.5L377.1,350.6L377.1,350.6z M377.5,353.9
			c-0.1-0.6-0.1-1.1-0.2-1.7l-5.9,0.8c0.1,0.5,0.1,1,0.2,1.5L377.5,353.9z M377.8,357.2c0-0.6-0.1-1.1-0.1-1.7l-6,0.5
			c0,0.5,0.1,1,0.1,1.5L377.8,357.2z M378,360.6c0-0.6,0-1.1-0.1-1.7l-6,0.3c0,0.5,0,1,0.1,1.5L378,360.6z M378,363.9
			c0-0.6,0-1.1,0-1.7l-6,0c0,0.5,0,1,0,1.5L378,363.9z M377.8,367.3c0-0.6,0.1-1.1,0.1-1.7l-6-0.3c0,0.5-0.1,1-0.1,1.5L377.8,367.3z
			 M377.5,370.6c0.1-0.6,0.1-1.1,0.2-1.7l-6-0.6c0,0.5-0.1,1-0.2,1.5L377.5,370.6z M377,373.9c0.1-0.5,0.2-1.1,0.3-1.7l-5.9-0.8
			c-0.1,0.5-0.2,1-0.2,1.5L377,373.9z M376.4,377.2c0.1-0.5,0.2-1.1,0.3-1.6l-5.9-1.1c-0.1,0.5-0.2,1-0.3,1.5L376.4,377.2z
			 M375.6,380.5c0.1-0.5,0.3-1.1,0.4-1.6l-5.8-1.4c-0.1,0.5-0.2,1-0.4,1.5L375.6,380.5z M374.7,383.7c0.2-0.5,0.3-1.1,0.5-1.6
			l-5.8-1.7c-0.1,0.5-0.3,1-0.4,1.5L374.7,383.7z M373.6,386.9c0.2-0.5,0.4-1,0.6-1.6l-5.7-2c-0.2,0.5-0.3,1-0.5,1.4L373.6,386.9z
			 M372.3,390c0.2-0.5,0.4-1,0.6-1.5l-5.6-2.2c-0.2,0.5-0.4,0.9-0.6,1.4L372.3,390z M370.9,393c0.2-0.5,0.5-1,0.7-1.5l-5.5-2.5
			c-0.2,0.5-0.4,0.9-0.7,1.4L370.9,393z M369.4,396c0.3-0.5,0.5-1,0.8-1.5l-5.3-2.7c-0.2,0.5-0.5,0.9-0.7,1.4L369.4,396z
			 M367.7,398.9c0.3-0.5,0.6-1,0.9-1.4l-5.2-3c-0.3,0.4-0.5,0.9-0.8,1.3L367.7,398.9z M365.9,401.7c0.3-0.5,0.6-0.9,0.9-1.4
			l-5.1-3.2c-0.3,0.4-0.6,0.9-0.8,1.3L365.9,401.7z M364,404.5c0.3-0.4,0.7-0.9,1-1.4l-4.9-3.5c-0.3,0.4-0.6,0.8-0.9,1.2L364,404.5z
			 M362,407.1c0.4-0.4,0.7-0.9,1-1.3l-4.7-3.7c-0.3,0.4-0.6,0.8-1,1.2L362,407.1z M359.8,409.6c0.4-0.4,0.7-0.8,1.1-1.3l-4.6-3.9
			c-0.3,0.4-0.7,0.8-1,1.2L359.8,409.6z M357.5,412.1c0.4-0.4,0.8-0.8,1.2-1.2l-4.4-4.1c-0.4,0.4-0.7,0.7-1.1,1.1L357.5,412.1z
			 M355.1,414.4c0.4-0.4,0.8-0.8,1.2-1.1l-4.2-4.3c-0.4,0.4-0.7,0.7-1.1,1.1L355.1,414.4z M352.5,416.6c0.4-0.4,0.9-0.7,1.3-1.1
			l-4-4.5c-0.4,0.3-0.8,0.7-1.2,1L352.5,416.6z M349.9,418.7c0.4-0.3,0.9-0.7,1.3-1l-3.7-4.7c-0.4,0.3-0.8,0.6-1.2,0.9L349.9,418.7z
			 M347.2,420.7c0.5-0.3,0.9-0.6,1.4-1l-3.5-4.9c-0.4,0.3-0.8,0.6-1.3,0.9L347.2,420.7z M344.4,422.5c0.5-0.3,0.9-0.6,1.4-0.9
			l-3.3-5c-0.4,0.3-0.9,0.6-1.3,0.8L344.4,422.5L344.4,422.5z M341.5,424.2c0.5-0.3,1-0.6,1.5-0.8l-3-5.2c-0.4,0.3-0.9,0.5-1.3,0.8
			L341.5,424.2z M338.5,425.8c0.5-0.3,1-0.5,1.5-0.8l-2.8-5.3c-0.5,0.2-0.9,0.5-1.4,0.7L338.5,425.8z M335.5,427.2
			c0.5-0.2,1-0.5,1.5-0.7l-2.5-5.4c-0.5,0.2-0.9,0.4-1.4,0.6L335.5,427.2z M332.4,428.5c0.5-0.2,1-0.4,1.6-0.6l-2.3-5.6
			c-0.5,0.2-0.9,0.4-1.4,0.6L332.4,428.5z M329.2,429.6c0.5-0.2,1.1-0.4,1.6-0.5l-2-5.7c-0.5,0.2-1,0.3-1.5,0.5L329.2,429.6
			L329.2,429.6z M326,430.6c0.5-0.2,1.1-0.3,1.6-0.5l-1.7-5.7c-0.5,0.1-1,0.3-1.5,0.4L326,430.6z M322.7,431.4
			c0.5-0.1,1.1-0.3,1.6-0.4l-1.5-5.8c-0.5,0.1-1,0.2-1.5,0.4L322.7,431.4z M319.4,432.1c0.6-0.1,1.1-0.2,1.6-0.3l-1.2-5.9
			c-0.5,0.1-1,0.2-1.5,0.3L319.4,432.1z M316.1,432.6c0.6-0.1,1.1-0.1,1.7-0.2l-0.9-5.9c-0.5,0.1-1,0.1-1.5,0.2L316.1,432.6z
			 M312.8,432.9c0.6,0,1.1-0.1,1.7-0.2l-0.6-6c-0.5,0.1-1,0.1-1.5,0.1L312.8,432.9z M309.4,433.1c0.6,0,1.1,0,1.7-0.1l-0.3-6
			c-0.5,0-1,0.1-1.5,0.1L309.4,433.1z M306.1,433.1c0.3,0,0.6,0,0.9,0c0.3,0,0.5,0,0.8,0l-0.1-6c-0.2,0-0.5,0-0.7,0
			c-0.3,0-0.6,0-0.8,0L306.1,433.1z M302.8,433c0.6,0,1.1,0.1,1.7,0.1l0.2-6c-0.5,0-1,0-1.5-0.1L302.8,433z M299.4,432.7
			c0.6,0.1,1.1,0.1,1.7,0.2l0.5-6c-0.5,0-1-0.1-1.5-0.1L299.4,432.7z M296.1,432.3c0.6,0.1,1.1,0.2,1.7,0.2l0.8-6
			c-0.5-0.1-1-0.1-1.5-0.2L296.1,432.3z M292.8,431.7c0.5,0.1,1.1,0.2,1.6,0.3l1.1-5.9c-0.5-0.1-1-0.2-1.5-0.3L292.8,431.7z
			 M289.5,431c0.5,0.1,1.1,0.3,1.6,0.4l1.3-5.9c-0.5-0.1-1-0.2-1.5-0.4L289.5,431z M286.3,430.1c0.5,0.2,1.1,0.3,1.6,0.5l1.6-5.8
			c-0.5-0.1-1-0.3-1.5-0.4L286.3,430.1z M283.1,429c0.5,0.2,1.1,0.4,1.6,0.5l1.9-5.7c-0.5-0.2-1-0.3-1.4-0.5L283.1,429z M280,427.8
			c0.5,0.2,1,0.4,1.6,0.6l2.2-5.6c-0.5-0.2-1-0.4-1.4-0.6L280,427.8z M276.9,426.5c0.5,0.2,1,0.5,1.5,0.7l2.4-5.5
			c-0.5-0.2-0.9-0.4-1.4-0.6L276.9,426.5z M273.9,425c0.5,0.3,1,0.5,1.5,0.8l2.7-5.4c-0.5-0.2-0.9-0.5-1.4-0.7L273.9,425z
			 M271,423.3c0.5,0.3,1,0.6,1.4,0.8l2.9-5.2c-0.4-0.3-0.9-0.5-1.3-0.8L271,423.3z M268.2,421.6c0.5,0.3,0.9,0.6,1.4,0.9l3.2-5.1
			c-0.4-0.3-0.9-0.5-1.3-0.8L268.2,421.6z M265.4,419.7c0.4,0.3,0.9,0.6,1.4,1l3.4-4.9c-0.4-0.3-0.8-0.6-1.3-0.9L265.4,419.7z
			 M262.7,417.7c0.4,0.3,0.9,0.7,1.3,1l3.6-4.8c-0.4-0.3-0.8-0.6-1.2-0.9L262.7,417.7z M260.2,415.5c0.4,0.4,0.8,0.7,1.3,1.1
			l3.9-4.6c-0.4-0.3-0.8-0.7-1.2-1L260.2,415.5z M257.7,413.2c0.4,0.4,0.8,0.8,1.2,1.1l4.1-4.4c-0.4-0.3-0.8-0.7-1.1-1.1
			L257.7,413.2z M255.4,410.9c0.4,0.4,0.8,0.8,1.2,1.2l4.3-4.2c-0.4-0.4-0.7-0.7-1.1-1.1L255.4,410.9z M253.1,408.4
			c0.4,0.4,0.7,0.8,1.1,1.3l4.5-4c-0.3-0.4-0.7-0.8-1-1.2L253.1,408.4z M251,405.8c0.3,0.4,0.7,0.9,1,1.3l4.6-3.8
			c-0.3-0.4-0.6-0.8-1-1.2L251,405.8z M249,403.1c0.3,0.5,0.6,0.9,1,1.4l4.8-3.6c-0.3-0.4-0.6-0.8-0.9-1.2L249,403.1z M247.1,400.3
			c0.3,0.5,0.6,0.9,0.9,1.4l5-3.3c-0.3-0.4-0.6-0.9-0.8-1.3L247.1,400.3z M245.4,397.4c0.3,0.5,0.6,1,0.9,1.4l5.1-3.1
			c-0.3-0.4-0.5-0.9-0.8-1.3L245.4,397.4z M243.8,394.5c0.3,0.5,0.5,1,0.8,1.5l5.3-2.9c-0.2-0.5-0.5-0.9-0.7-1.4L243.8,394.5z
			 M242.3,391.4c0.2,0.5,0.5,1,0.7,1.5l5.4-2.6c-0.2-0.5-0.4-0.9-0.7-1.4L242.3,391.4z M241,388.3c0.2,0.5,0.4,1,0.6,1.6l5.5-2.3
			c-0.2-0.5-0.4-0.9-0.6-1.4L241,388.3z M239.8,385.2c0.2,0.5,0.4,1.1,0.6,1.6l5.6-2.1c-0.2-0.5-0.4-1-0.5-1.5L239.8,385.2z
			 M238.8,382c0.2,0.5,0.3,1.1,0.5,1.6l5.7-1.8c-0.2-0.5-0.3-1-0.4-1.5L238.8,382z M238,378.7c0.1,0.5,0.3,1.1,0.4,1.6l5.8-1.5
			c-0.1-0.5-0.3-1-0.4-1.5L238,378.7z M237.3,375.5c0.1,0.5,0.2,1.1,0.3,1.6l5.9-1.3c-0.1-0.5-0.2-1-0.3-1.5L237.3,375.5z
			 M236.7,372.2c0.1,0.6,0.2,1.1,0.3,1.7l5.9-1c-0.1-0.5-0.2-1-0.2-1.5L236.7,372.2z M236.3,368.8c0.1,0.6,0.1,1.1,0.2,1.7l6-0.7
			c-0.1-0.5-0.1-1-0.2-1.5L236.3,368.8z M236.1,365.5c0,0.6,0.1,1.1,0.1,1.7l6-0.4c0-0.5-0.1-1-0.1-1.5L236.1,365.5z"/>
	</g>
	<path class="st2" d="M362.4,362.1c0,30.6-24.8,55.4-55.4,55.4c-30.6,0-55.4-24.8-55.4-55.4c0-30.6,24.8-55.4,55.4-55.4
		C337.6,306.7,362.4,331.5,362.4,362.1z"/>
	<polygon class="st4" points="331.7,363 356.3,359.6 331.5,358.8 355.2,351.3 330.6,354.7 352.7,343.3 329,350.9 348.8,335.9
		326.7,347.3 343.8,329.2 323.9,344.2 337.7,323.5 320.6,341.6 330.7,318.9 317,339.6 323,315.5 313,338.3 314.9,313.5 308.9,337.6
		306.5,312.8 304.7,337.6 298.2,313.6 300.6,338.4 290.1,315.8 296.6,339.8 282.5,319.3 293,341.9 275.6,324.1 289.8,344.6
		269.6,329.9 287,347.7 264.7,336.7 284.9,351.3 261,344.2 283.3,355.2 258.6,352.3 282.5,359.3 257.7,360.6 282.4,363.5 258.1,369
		282.9,367.6 259.9,377.1 284.2,371.6 263.1,384.9 286.1,375.4 267.6,392 288.6,378.7 273.2,398.2 291.7,381.6 279.8,403.4
		295.2,383.9 287.1,407.4 299,385.6 295.1,410.1 303.1,386.6 303.3,411.5 307.3,386.9 311.7,411.4 311.4,386.5 319.9,409.9
		315.5,385.4 327.8,407 319.3,383.6 335.1,402.8 322.7,381.3 341.5,397.5 325.7,378.3 347,391.2 328.2,374.9 351.3,384 330,371.2
		354.4,376.2 331.2,367.2 356.1,368 	"/>
	<g id="change">
		<path class="st5" d="M250,567.7l-17.9-39.1l-40.9,1.1c57.8-89.3,66-136.7,66.1-137.2l-0.1,0.4l69.4,9.4
			C325.8,408.4,316.7,464.8,250,567.7z"/>
		<path class="st5" d="M364,567.7l17.9-39.1l40.9,1.1c-57.8-89.3-66-136.7-66.1-137.2l0.1,0.4l-69.4,9.4
			C288.2,408.4,297.3,464.8,364,567.7z"/>
		<g>

				<ellipse transform="matrix(0.7071 -0.7071 0.7071 0.7071 -166.1525 323.1495)" class="st3" cx="307" cy="362.1" rx="106" ry="106"/>
			<path class="st6" d="M307,471.1c-60.1,0-109-48.9-109-109c0-60.1,48.9-109,109-109c60.1,0,109,48.9,109,109
				C416,422.2,367.1,471.1,307,471.1z M307,259.1c-56.8,0-103,46.2-103,103c0,56.8,46.2,103,103,103c56.8,0,103-46.2,103-103
				C410,305.3,363.8,259.1,307,259.1z"/>
		</g>
		<path class="st6" d="M338.4,374.5l-21.1-9c0.9-1,1.5-2.1,2-3.1h12.2c3.4,8,9,5.9,9.3,3c0.2-2.4-2.6-3.4-2.6-3.4c0,0,2.8-1,2.6-3.4
			c-0.2-2.9-5.8-5.1-9.3,3h-11.8c0.5-1.5,0.6-3,0.3-4.3l18.4-7.4c8.5,8.7,14.7,3.1,13.5-0.8c-1-3.2-5-3-5.1-3c0.1,0,3.1-2.7,1.6-5.7
			c-1.8-3.6-10-3.5-10.4,8.4l-18.4,7.4c-0.6-1.5-1.6-2.7-2.8-3.5l7.7-7.7c8.2,3.4,10.7-2.1,8.8-4.4c-1.6-1.8-4.2-0.6-4.3-0.6
			c0,0,1.3-2.7-0.5-4.3c-2.2-1.9-7.7,0.5-4.5,8.5l-7.9,7.9c-0.5-0.2-1.1-0.4-1.6-0.4c-1-0.1-2,0.1-2.8,0.4l9-21
			c12.2,0.1,12.6-8.2,9-10.1c-2.9-1.5-5.7,1.4-5.7,1.5c0-0.1,0.2-4.1-2.9-5.2c-3.8-1.3-9.5,4.6-1.4,13.2l-9.7,22.7
			c-1.2,1-2,2.3-2.4,3.2v-19c8-3.4,5.9-9,3-9.2c-2.4-0.2-3.4,2.6-3.4,2.6c0,0-1-2.8-3.4-2.6c-2.9,0.2-5.1,5.8,3,9.3v18.9
			c-0.4-0.8-1.1-2-2.1-2.9l-9.3-23.2c8.3-8.4,2.8-14.4-1.1-13.2c-3.2,1-3,5-3,5.1c-0.1-0.1-2.7-3.1-5.7-1.6
			c-3.7,1.8-3.5,10.2,8.8,10.4l8.6,21.4c-0.9-0.4-1.9-0.6-3-0.6c-0.6,0-1.2,0.2-1.7,0.4l-7.9-7.9c3.1-8-2.3-10.4-4.5-8.5
			c-1.8,1.6-0.6,4.2-0.6,4.3c0,0-2.7-1.3-4.3,0.5c-1.9,2.3,0.6,7.8,8.8,4.4l7.6,7.6c-1.2,0.7-2.1,1.8-2.7,3.2l-18.3-7.8
			c-0.1-11.8-8.2-12.2-10.1-8.6c-1.5,2.9,1.4,5.7,1.5,5.7c-0.1,0-4.1-0.2-5.2,2.9c-1.3,3.9,4.7,9.7,13.5,1.1l18.2,7.8
			c-0.3,1.4-0.3,3,0.3,4.6h-11.8c-3.4-8-9-5.9-9.3-3c-0.2,2.4,2.6,3.4,2.6,3.4c0,0-2.8,1-2.6,3.4c0.2,2.9,5.8,5.1,9.3-3h12.2
			c0.4,1,1,2,1.8,2.9l-21.2,8.5c-8.4-8.3-14.4-2.8-13.2,1.1c1,3.2,5,3,5.1,3c-0.1,0.1-3.1,2.7-1.6,5.7c1.8,3.7,10.2,3.5,10.4-8.8
			l21.4-8.6c0.7,0.7,1.5,1.4,2.4,2.1l-10.5,10.5c-8-3.1-10.4,2.3-8.5,4.5c1.6,1.8,4.2,0.6,4.3,0.6c0,0-1.3,2.7,0.5,4.3
			c2.3,1.9,7.8-0.6,4.4-8.8l10.6-10.6c0.7,0.4,1.4,0.9,2.1,1.3l-9.6,22.6c-11.8,0.1-12.2,8.2-8.6,10.1c2.9,1.5,5.7-1.4,5.7-1.5
			c0,0.1-0.2,4.1,2.9,5.2c3.9,1.3,9.7-4.7,1.1-13.5l9.5-22.3c0.9,0.5,1.8,0.9,2.9,1.3v14.4c-8,3.4-5.9,9-3,9.3
			c2.4,0.2,3.4-2.6,3.4-2.6c0,0,1,2.8,3.4,2.6c2.9-0.2,5.1-5.8-3-9.3v-14.4c1-0.4,1.9-0.8,2.7-1.2l9.1,22.5
			c-8.7,8.5-3.1,14.7,0.8,13.5c3.2-1,3-5,3-5.1c0.1,0.1,2.7,3.1,5.7,1.6c3.6-1.8,3.5-10-8.4-10.4l-9.2-22.8c0.8-0.5,1.6-0.9,2.3-1.4
			l10.6,10.6c-3.4,8.2,2.1,10.7,4.4,8.8c1.8-1.6,0.6-4.2,0.6-4.3c0,0,2.7,1.3,4.3-0.5c1.9-2.2-0.5-7.7-8.5-4.5l-10.5-10.5
			c0.9-0.6,1.6-1.3,2.2-1.9l21.4,9.1c-0.1,12.2,8.2,12.6,10.1,9c1.5-2.9-1.4-5.7-1.5-5.7c0.1,0,4.1,0.2,5.2-2.9
			C352.9,372.1,347,366.4,338.4,374.5z"/>
	</g>
	<g>
		<polygon class="st2" points="230.4,346.3 217.2,344.6 217.4,343.4 216.9,343.4 216.2,349.1 216.6,349.2 216.8,348 223.2,348.8
			222.6,353.6 216.2,352.8 216.3,351.6 215.9,351.5 215.1,357.3 215.6,357.3 215.7,356.1 228.9,357.8 228.7,359 229.2,359.1
			229.9,353.4 229.5,353.3 229.3,354.5 223.1,353.7 223.7,348.9 229.9,349.7 229.8,350.9 230.3,350.9 231,345.2 230.5,345.1 		"/>
		<path class="st2" d="M234.8,332l-15.1,1l-0.1,0l-0.1,0.4l11.4,10.6l-0.3,1.1l0.4,0.1l0.9-2.7l-0.4-0.1l-0.4,1.1l-3.9-3.6l1.3-4
			l5.2-0.3l-0.4,1.1l0.4,0.1l1.8-5.5l0-0.1l-0.4-0.1L234.8,332z M223.2,336.1l4.8-0.3l-1.2,3.6L223.2,336.1z"/>
		<path class="st2" d="M237.5,326.6l-4-2.1c0.7-1.1,1.6-2.7,1.6-4.4c0-1.7-0.8-3.1-2.6-4c-0.9-0.5-1.9-0.6-2.9-0.4
			c-0.8,0.2-1.5,0.6-2.2,1.3c-0.5,0.5-1,1.2-1.4,1.8c-0.2,0.4-0.4,0.8-0.6,1.3l0,0.1c-0.2,0.5-0.4,0.9-0.6,1.3l-1.5,2.8l0.4,0.2
			l0.6-1.1l11.7,6.2l-0.6,1.1l0.4,0.2l2.7-5l0-0.1l-0.4-0.2L237.5,326.6z M225.8,320.3c0.4-0.8,1-1.4,1.7-1.7c1-0.3,2.1-0.2,3.4,0.5
			c1.2,0.7,2,1.4,2.5,2.2c0.5,0.9,0.4,1.9-0.3,3L225.8,320.3z"/>
		<path class="st2" d="M243.9,316.2l-3.6-2.7c0.9-0.9,2-2.4,2.3-4.1c0.3-1.7-0.3-3.2-2-4.4c-0.8-0.6-1.6-0.9-2.4-0.9
			c-0.1,0-0.2,0-0.3,0c-0.8,0.1-1.6,0.4-2.4,0.9c-0.6,0.4-1.2,1-1.6,1.5c-0.3,0.3-0.5,0.7-0.8,1.1l-0.1,0.1
			c-0.3,0.4-0.6,0.8-0.8,1.2l-1.9,2.5l-0.1,0.1l0.4,0.3l0.7-1l10.6,8l-0.7,1l0.4,0.3l3.5-4.6l-0.4-0.3L243.9,316.2z M233.3,308.2
			c0.5-0.8,1.2-1.3,2-1.4c1-0.2,2.1,0.2,3.3,1c1.1,0.8,1.8,1.7,2.1,2.5c0.3,1,0.1,1.9-0.7,2.9L233.3,308.2z"/>
		<polygon class="st2" points="254.7,304.3 250,299.3 248.2,292.1 249,291.3 248.7,291 246.6,292.9 247,293.2 247.8,292.5
			249.4,299 242.8,297.2 243.7,296.4 243.3,296 239,300.2 238.9,300.3 239.2,300.6 240,299.8 248,302.1 252.2,306.6 251.3,307.4
			251.7,307.7 255.8,303.8 255.8,303.8 255.5,303.4 		"/>
		<polygon class="st2" points="266.9,279.8 266.7,279.4 264.2,280.9 264.5,281.2 265.5,280.7 267,290.4 259.4,284.2 260.4,283.6
			260.2,283.2 255.2,286.1 255.1,286.2 255.4,286.6 256.3,286 267.9,295.5 268.3,295.2 265.9,280.4 		"/>
		<path class="st2" d="M284.2,287.3l-10.4-11.1l0,0l-0.4,0.1l-0.9,15.5l-1,0.4l0.2,0.4l2.6-1l-0.2-0.4l-1.1,0.4l0.3-5.3l3.9-1.5
			l3.6,3.8l-1.1,0.4l0.2,0.4l5.4-2.1l0.1,0l-0.2-0.4L284.2,287.3z M277,284.4l-3.6,1.4l0.3-4.9L277,284.4z"/>
		<path class="st2" d="M294.7,281.3L294.7,281.3c0.2,1.5,0,2.5-0.6,3.2c-0.7,0.7-1.8,1-2.7,1.2l-1.3,0.3l-2.7-13l1.3-0.3l-0.1-0.5
			l-5.8,1.2l0.1,0.5l1.2-0.2l2.7,13l-1.2,0.2l0.1,0.5l10.2-2.2l-0.8-4L294.7,281.3z"/>
		<path class="st2" d="M306.7,280.4L306.7,280.4c0,1.5-0.3,2.5-1.1,3c-0.8,0.6-1.9,0.7-2.8,0.8l-1.7,0.1l-0.4-6.4l0.8-0.1
			c0.5,0,1.1-0.1,1.5,0c1.3,0,1.9,0.7,2.1,2l0,0.1l0.5,0l-0.3-4.7l0-0.1l-0.5,0l0,0.1c0,1.1-0.6,1.8-1.8,2c-0.3,0.1-0.8,0.1-1.4,0.1
			l-0.9,0.1l-0.4-6.3l1.2-0.1c0.3,0,0.7,0,1.1,0c0.8,0,1.3,0.1,1.7,0.3c0.8,0.4,1.2,1.1,1.4,2.4l0,0.1l0.5,0l-0.2-3.5l-10.2,0.6
			l-0.1,0l0,0.5l1.2-0.1l0.8,13.3l-1.2,0.1l0,0.5l10.7-0.7l0.1,0l-0.2-4.1L306.7,280.4z"/>
		<polygon class="st2" points="319.3,271.6 320.5,271.7 319.8,279.2 315.6,270.8 315.6,270.8 310.4,270.3 310.3,270.3 310.3,270.7
			311.5,270.8 310.2,284 309,283.9 308.9,284.4 311.8,284.7 311.9,284.2 310.7,284.1 312,271.2 319.1,285.6 319.1,285.7
			319.6,285.7 321,271.8 322.2,271.9 322.2,271.5 319.4,271.2 		"/>
		<path class="st2" d="M335,275.6c0.6,0.6,0.8,1.5,0.6,2.7l0,0.1l0.5,0.1l0.9-3.3l-11.8-3.2l-0.1,0l-0.9,3.3l0.5,0.1l0-0.1
			c0.4-1.2,1-1.8,1.9-2.1c0.2,0,0.4-0.1,0.6-0.1c0.6,0,1.4,0.2,2.1,0.4l-3.5,12.8l-1.2-0.3l-0.1,0.4l5.5,1.5l0.1,0l0.1-0.4l-1.2-0.3
			l3.5-12.8C333.4,274.7,334.4,275,335,275.6z"/>
		<polygon class="st2" points="343.3,278.3 344.4,278.8 344.5,278.4 339.2,276.2 339,276.6 340.1,277 335.1,289.3 334,288.9
			333.8,289.3 339.2,291.5 339.3,291.1 338.2,290.6 		"/>
		<polygon class="st2" points="358.5,286.5 358.7,286.1 356.2,284.6 356,285 357,285.7 353.2,292.1 352.9,282.8 352.9,282.7
			348.4,280 348.2,280.4 349.2,281 342.5,292.5 341.4,291.9 341.2,292.3 343.7,293.7 343.9,293.3 342.9,292.7 349.5,281.5
			349.9,297.7 349.9,297.7 350.3,298 357.5,285.9 		"/>
		<path class="st2" d="M363.5,303.2c-0.9,0.9-1.8,1.4-2.6,1.4c-0.1,0-0.1,0-0.2,0c-0.9-0.1-1.9-0.8-2.6-1.4l-1.3-1.1l4.2-4.9
			l0.6,0.5c0.4,0.3,0.8,0.7,1.1,1c0.9,0.9,0.9,1.8,0.1,2.9l-0.1,0.1l0.3,0.3l3-3.6l0.1-0.1l-0.3-0.3l-0.1,0.1
			c-0.8,0.8-1.7,0.9-2.7,0.1c-0.3-0.1-0.7-0.5-1.1-0.9l-0.7-0.6l4.1-4.8l0.9,0.8c0.8,0.7,1.6,1.4,1.9,2.1c0.3,0.8,0.1,1.6-0.6,2.7
			l-0.1,0.1l0.4,0.3l2.2-2.6l-7.8-6.6l-0.1-0.1l-0.3,0.4l0.9,0.8l-8.6,10.1l-0.9-0.8l-0.3,0.4l8.1,6.9l0.1,0.1l2.6-3.1L363.5,303.2
			L363.5,303.2z"/>
		<path class="st2" d="M371.9,300.4c-0.7,0.2-1.5,0.1-2.1-0.4l-0.1-0.1l-0.3,0.4l0.1,0.1c0.6,0.4,1.2,0.6,1.9,0.6l0,0
			c0.7,0,1.3-0.2,1.8-0.7c0.4-0.4,0.7-0.9,0.6-1.5c0-0.5-0.2-0.9-0.5-1.2c-0.3-0.3-0.7-0.5-1.1-0.5c-0.4,0-0.8,0.2-1.1,0.5
			c-0.3,0.3-0.5,0.7-0.5,1.2c0,0.4,0.2,0.8,0.4,1.1C371.3,300.2,371.6,300.4,371.9,300.4z"/>
		<path class="st2" d="M375.4,311.6c0.1-1-0.2-2.1-0.5-3c-0.8-2.5-0.8-3.6,0.1-4.3c0.4-0.4,1-0.6,1.5-0.6c0,0,0.1,0,0.1,0
			c0.6,0,1.1,0.3,1.5,0.8c0.7,0.8,0.9,1.7,0.7,2.5c-0.2,0.8-0.7,1.7-1.6,2.5l-0.1,0.1l0.3,0.4l2.5-2l0,0l0-0.1
			c-0.1-0.6-0.2-1.1-0.5-1.7c-0.3-0.8-0.7-1.5-1.2-2.1c-0.8-0.9-1.8-1.6-2.9-1.7c-0.2,0-0.4,0-0.6,0c-1,0-1.9,0.3-2.7,1
			c-0.8,0.7-1.3,1.4-1.4,2.2c-0.1,0.8,0,1.7,0.4,3c0.8,2.7,0.7,4.1-0.5,5c-0.5,0.4-1.2,0.6-1.8,0.5c-0.7-0.1-1.3-0.4-1.7-1
			c-0.8-0.9-1-2-0.8-3c0.2-1,0.9-2,2-3l0.1-0.1l-0.3-0.4l-3.2,2.6l0,0l0,0.1c0.1,0.5,0.3,1.3,0.7,2c0.3,0.6,0.7,1.4,1.3,2.1
			c0.9,1.1,1.9,1.8,3,2.1c0.3,0.1,0.7,0.1,1,0.1c0.9,0,1.8-0.3,2.7-1C374.7,313.6,375.3,312.7,375.4,311.6z"/>
		<path class="st2" d="M382.4,331.6c1.2,0,2.4-0.3,3.7-1c1.9-1,3.2-2.5,3.6-4.5c0.4-1.8,0-3.8-1-5.8c-0.1-0.2-0.2-0.4-0.3-0.6
			c-0.1-0.2-0.3-0.5-0.5-1l-1.6-3.3l-0.4,0.2l0.5,1.1l-11.9,5.9l-0.5-1.1l-0.4,0.2l1.3,2.6c0.3,0.6,0.5,1.1,0.7,1.5l0.1,0.2
			c0.1,0.3,0.3,0.6,0.4,0.9c1.1,2.2,2.4,3.6,4.1,4.3C380.8,331.5,381.6,331.6,382.4,331.6z M378.6,328.5c-1.2-0.4-2-1.3-2.7-2.9
			l11.9-5.9c0.9,1.5,1.1,2.7,0.8,3.8c-0.4,1.4-1.9,2.7-4.4,3.9C381.8,328.6,380,329,378.6,328.5z"/>
		<path class="st2" d="M383.6,346l11.9-9.4l0.1,0l-0.1-0.4L380,334l-0.3-1.1l-0.4,0.1l0.8,2.7l0.4-0.1l-0.3-1.1l5.3,0.7l1.2,4
			l-4.1,3.2l-0.3-1.1l-0.4,0.1l1.7,5.6l0.4-0.1L383.6,346z M387.1,339l-1.1-3.7l4.8,0.7L387.1,339z"/>
		<polygon class="st2" points="398.5,354.4 398.1,354.5 398.2,355.6 392,353 397.3,348.9 397.5,350 397.9,349.9 397.2,343.9
			397.2,343.9 396.7,343.9 396.9,345 390.3,350.1 384.2,350.8 384.1,349.6 383.6,349.7 384.3,355.3 384.3,355.4 384.8,355.4
			384.6,354.2 391.4,353.3 398.3,356.2 398.4,357.3 398.9,357.2 		"/>
	</g>
	<g>
		<path class="st2" d="M225.5,387.8l0.2,0.6l0,0c0.1,0.4,0.3,0.9,0.4,1.3c0.3,1.2-0.2,2-1.4,2.5l-0.1,0l0.1,0.4l4.4-1.5l0.1,0
			l-0.1-0.4l-0.1,0c-1.1,0.3-1.9-0.1-2.4-1.3c-0.1-0.3-0.3-0.8-0.4-1.2l-0.2-0.7l6-2l0.3,1c0.3,1,0.6,2,0.5,2.8
			c-0.2,0.8-0.8,1.5-1.9,2l-0.1,0l0.1,0.4l3.3-1.1l-3.2-9.6l0-0.1l-0.4,0.1l0.4,1.1l-12.6,4.2l-0.4-1.1l-0.4,0.1l1.8,5.5l0,0.1
			l0.4-0.1l-0.4-1.3L225.5,387.8z"/>
		<path class="st2" d="M235.2,408.5c1.9-1,3.2-2.5,3.8-4.2c0.6-1.8,0.4-3.9-0.7-5.9c-1-1.9-2.5-3.3-4.3-3.9c-1.9-0.7-4-0.4-6.2,0.7
			c-1.9,1-3.1,2.5-3.6,4.3c-0.5,1.8-0.2,3.7,0.8,5.6c1,1.8,2.5,3.2,4.2,3.9c0.8,0.3,1.6,0.5,2.4,0.5
			C232.8,409.5,234,409.2,235.2,408.5z M233.2,405.3c-0.7,0.4-1.7,0.9-2.8,1.2c-0.7,0.2-1.3,0.3-1.9,0.3c-0.3,0-0.6,0-0.9-0.1
			c-0.9-0.2-1.6-0.8-2.1-1.8c-0.6-1.2-0.6-2.3,0.2-3.4c0.7-1.1,2-2.1,3.8-3.1c1.1-0.6,2-1,2.9-1.3c0.9-0.3,1.7-0.5,2.4-0.5
			c0.2,0,0.5,0,0.7,0c1.1,0.2,1.8,0.7,2.3,1.7c0.7,1.2,0.5,2.5-0.4,3.7C236.6,403.2,235.2,404.3,233.2,405.3z"/>
		<path class="st2" d="M241.7,416.6c0.6,0.5,1.3,0.8,1.9,1c1,0.2,2,0,2.8-0.6c1.3-1.1,1.3-2.4,1.2-3.4c-0.3-1.5-1.2-2.7-1.5-3
			c-0.4-0.5-0.7-0.9-1-1.2c-0.3-0.3-0.6-0.7-0.9-1l-2.1-2.6l-0.4,0.3l0.8,0.9l-10.3,8.4l-0.8-0.9l-0.4,0.3l3.6,4.5l0.4-0.3l-0.8-0.9
			l4.8-3.9c0.8,0.9,1.2,1.6,1.1,2.2c-0.1,0.7-0.7,1.4-2.1,2.6c-1.6,1.3-1.8,2.6-0.7,4.1c0.6,0.7,1.3,1,1.7,1c0.1,0,0.2,0,0.3,0
			c0.4,0,0.8-0.1,1-0.2l0.1,0l-0.1-0.4h-0.1c0,0-0.1,0-0.2,0c0,0-0.1,0-0.2,0c0,0,0,0,0,0c-0.2,0-0.3-0.1-0.4-0.2
			c-0.2-0.3-0.2-0.5,0-0.8c0.2-0.3,0.7-0.8,1.3-1.3c0.9-0.7,1.3-1.4,1.5-2.2C242.4,418.3,242.2,417.5,241.7,416.6z M244.4,414.1
			c-0.8,0.7-1.6,1-2.4,1c-0.9,0-1.7-0.5-2.5-1.4l5.1-4.2c0.8,0.8,1.1,1.5,1.2,2.2C245.9,412.5,245.4,413.3,244.4,414.1z"/>
		<path class="st2" d="M251.4,416.7L251.4,416.7L251,417l0.9,0.8l-8.7,10l-0.9-0.8l-0.3,0.3l8,7l0.1,0.1l2.6-3l0.1-0.1l-0.4-0.3
			l-0.1,0.1c-0.9,0.9-1.8,1.4-2.6,1.4c-0.1,0-0.2,0-0.3,0c-0.9-0.1-1.9-0.8-2.5-1.4l-1.3-1.1l4.2-4.9l0.6,0.5c0.4,0.3,0.8,0.7,1.1,1
			c0.9,0.9,0.9,1.8,0,2.9l-0.1,0.1l0.3,0.3l3.1-3.6l-0.3-0.3l-0.1,0.1c-0.8,0.8-1.7,0.8-2.7,0.1c-0.3-0.1-0.7-0.5-1.1-0.9l-0.7-0.6
			l4.2-4.8l0.9,0.8c0.8,0.7,1.5,1.4,1.9,2.2c0.3,0.8,0.1,1.7-0.7,2.7l-0.1,0.1l0.4,0.3l2.3-2.6L251.4,416.7z"/>
		<polygon class="st2" points="270.8,431.6 271,431.2 268.6,429.7 268.4,430.1 269.4,430.7 261.5,436.6 263.4,427 264.4,427.6
			264.7,427.2 259.8,424.2 259.7,424.1 259.5,424.5 260.4,425.1 257.4,439.7 257.4,439.7 257.8,440 269.8,431 		"/>
		<path class="st2" d="M279,438.2l0.4,0.2l1.3-3.2l-9.4-4l-0.1,0l-0.2,0.4l1.1,0.5l-5.2,12.2l-1.1-0.5l-0.2,0.4l9.9,4.2l1.6-3.7
			l-0.4-0.2l0,0.1c-0.6,1.3-1.4,2-2.3,2.2c-0.2,0-0.3,0-0.5,0c-0.6,0-1.3-0.2-2.3-0.6l-1.5-0.6l2.5-5.9l0.8,0.3
			c0.4,0.2,1,0.4,1.3,0.6c1.1,0.6,1.4,1.4,0.9,2.7l0,0.1l0.4,0.2l1.8-4.3l0-0.1l-0.4-0.2l0,0.1c-0.5,1-1.3,1.3-2.5,0.9
			c-0.3-0.1-0.8-0.3-1.3-0.5l-0.8-0.3l2.5-5.8l1.1,0.5c1,0.4,1.9,0.8,2.4,1.5C279.4,436,279.4,436.9,279,438.2L279,438.2z"/>
		<path class="st2" d="M288.5,437.2c-0.6-0.1-1.1-0.2-1.5-0.3c-0.4-0.1-0.9-0.2-1.3-0.3l-3.1-0.7l-0.1,0l-0.1,0.5l1.2,0.3l-3.1,12.9
			l-1.2-0.3l-0.1,0.4l5.5,1.3l0.1,0l0.1-0.4l-1.2-0.3l1.4-6.1c1.1,0.3,1.9,0.5,2.3,1.1c0.4,0.6,0.3,1.5-0.1,3.4
			c-0.2,1-0.2,1.7,0.1,2.3c0.3,0.7,0.9,1.1,1.9,1.3c0.3,0.1,0.5,0.1,0.8,0.1c0.5,0,0.9-0.1,1.2-0.3c0.5-0.3,0.8-0.7,0.9-1l0-0.1
			l-0.3-0.2l-0.1,0c0,0-0.1,0.1-0.1,0.2c0,0-0.1,0.1-0.1,0.1c-0.2,0.1-0.3,0.2-0.5,0.1c-0.3-0.1-0.5-0.3-0.5-0.6
			c0-0.4,0.1-1,0.3-1.8c0.3-1.1,0.2-1.9-0.1-2.6c-0.4-0.7-1-1.2-2-1.5c0,0,0.1,0,0.1,0c0.7,0,1.4-0.1,2-0.4c0.9-0.4,1.6-1.2,1.8-2.2
			c0.4-1.6-0.4-2.7-1.2-3.4C290.3,437.7,288.9,437.3,288.5,437.2z M289.3,441.1c-0.4,1.9-1.5,2.8-3,2.8c-0.3,0-0.7,0-1.1-0.1
			l1.5-6.4c1.1,0.2,1.8,0.5,2.3,1C289.5,439,289.6,439.9,289.3,441.1z"/>
		<path class="st2" d="M300,439.4l-0.1,3.4l0,0.1l0.5,0l0-0.1c0.1-1.3,0.5-2,1.3-2.5c0.6-0.3,1.5-0.4,2.3-0.4c0.1,0,0.2,0,0.4,0
			l-0.2,13.3l-1.2,0l0,0.5l5.7,0.1l0.1,0l0-0.5l-1.2,0l0.2-13.3c1,0,2,0.1,2.7,0.5c0.7,0.4,1.1,1.2,1.3,2.5l0,0.1l0.5,0l0.1-3.4
			l0-0.1l-12.2-0.2L300,439.4z"/>
		<path class="st2" d="M325.9,439.2c-1.2-0.9-2.6-1.4-4.2-1.4c-0.5,0-1.1,0-1.6,0.1c-2.2,0.4-3.9,1.4-5.1,2.9
			c-1.2,1.6-1.7,3.7-1.3,6.1c0.4,2.1,1.4,3.8,2.9,4.8c1.1,0.8,2.5,1.2,4,1.2c0.5,0,1,0,1.6-0.1c2.1-0.4,3.9-1.3,5-2.7
			c1.3-1.6,1.8-3.6,1.4-5.9C328.3,442,327.4,440.3,325.9,439.2z M325.3,448c0,1.1-0.2,2-0.7,2.7c-0.5,0.8-1.3,1.3-2.4,1.5
			c-0.2,0-0.4,0.1-0.6,0.1c0,0,0,0,0,0c-1,0-1.8-0.4-2.5-1.3c-0.8-1-1.4-2.6-1.7-4.6c-0.2-1.2-0.3-2.2-0.3-3.1
			c0-1.2,0.2-2.3,0.6-3.1c0.5-1,1.3-1.5,2.3-1.7c0.2,0,0.4-0.1,0.6-0.1c1.1,0,2,0.5,2.7,1.6c0.7,1.1,1.3,2.7,1.7,5
			C325.2,445.8,325.4,446.9,325.3,448z"/>
		<path class="st2" d="M344.8,440.1l-0.2-0.4l-5.3,2l-0.1,0l0.2,0.4l1.1-0.4l0.8,2c0.3,0.8,0.5,1.4,0.4,2c0,0.6-0.4,1.1-1.2,1.4
			c-1.4,0.6-2.7,0.3-3.8-0.7c-0.9-0.8-1.6-2.1-2.3-3.9c-0.3-0.7-0.7-1.8-0.9-3c-0.2-1.3-0.2-2.3,0.1-3.2c0.3-1.1,1.1-1.8,2.2-2.2
			c0.6-0.2,1.1-0.3,1.5-0.3c1.3,0,2.4,0.9,3.2,2.6l0,0.1l0.4-0.2l-1.2-3l0-0.1l-0.1,0c-0.4-0.1-0.8-0.1-1.2-0.1
			c-1,0-2.1,0.2-3.1,0.6c-2.1,0.8-3.7,2.2-4.5,3.9c-0.9,1.8-0.9,4-0.1,6.2c0.7,1.9,2.1,3.3,3.8,4.1c0.8,0.3,1.7,0.5,2.6,0.5
			c1,0,2.1-0.2,3.1-0.6c0.5-0.2,1.4-0.6,2.4-1.3c1-0.7,1.7-1.5,2.2-2.2l0,0l-1.3-3.5L344.8,440.1z"/>
		<path class="st2" d="M356.6,434.2l-0.4,0.2l0,0.1c0.7,1.2,0.8,2.3,0.4,3.1c-0.4,0.9-1.3,1.5-2.1,2l-1.4,0.9l-3.3-5.5l0.7-0.4
			c0.4-0.3,0.9-0.6,1.3-0.7c1.1-0.5,2-0.3,2.8,0.8l0.1,0.1l0.4-0.2l-2.5-4.1l-0.4,0.2l0,0.1c0.5,1,0.3,1.8-0.7,2.6
			c-0.2,0.2-0.7,0.5-1.2,0.8l-0.8,0.5l-3.3-5.4l1-0.6c0.9-0.6,1.8-1,2.6-1.1c0.9,0,1.6,0.4,2.4,1.5l0.1,0.1l0.4-0.2l-1.8-3l-8.8,5.3
			l-0.1,0.1l0.2,0.4l1-0.6l6.9,11.4l-1,0.6l0.2,0.4l9.1-5.5l0.1-0.1L356.6,434.2L356.6,434.2z"/>
		<path class="st2" d="M366.7,430.8l-8.5-10.2c0.8-0.7,1.6-1.2,2.3-1.4c0.8-0.2,1.7,0.2,2.6,1.1l0.1,0.1l0.4-0.3l-2.2-2.6l-0.1-0.1
			l-9.4,7.8l-0.1,0.1l2.2,2.6l0.1,0.1l0.4-0.3l-0.1-0.1c-0.7-1-0.9-1.9-0.6-2.7c0.3-0.7,1-1.4,1.8-2l8.5,10.2l-0.9,0.8l0.3,0.4
			l4.3-3.6l0.1-0.1l-0.3-0.4L366.7,430.8z"/>
		<polygon class="st2" points="380.6,416.1 370.4,407.6 371.2,406.6 370.8,406.3 367.2,410.7 367.1,410.8 367.5,411.1 368.2,410.1
			373.2,414.3 370.1,418 365.1,413.8 365.9,412.9 365.5,412.6 361.8,417 362.2,417.3 362.9,416.4 373.1,425 372.3,425.9
			372.7,426.2 376.3,421.8 376.4,421.8 376,421.5 375.3,422.4 370.4,418.3 373.6,414.6 378.4,418.7 377.6,419.6 378,419.9
			381.7,415.5 381.3,415.2 		"/>
		<path class="st2" d="M385.6,400.9L385.6,400.9c1.3,0.8,1.9,1.6,2,2.5c0.1,1-0.4,2-0.9,2.8l-0.8,1.4l-5.6-3.2l0.4-0.7
			c0.2-0.4,0.5-0.9,0.8-1.2c0.7-1,1.6-1.2,2.8-0.6l0.1,0l0.2-0.4l-4.1-2.3l-0.1,0l-0.2,0.4l0.1,0.1c0.9,0.6,1.1,1.5,0.6,2.6
			c-0.1,0.3-0.4,0.8-0.6,1.2l-0.4,0.8l-5.5-3.1l0.6-1c0.5-0.9,1.1-1.8,1.7-2.2c0.7-0.5,1.6-0.4,2.8,0.1l0.1,0l0.2-0.4l-3-1.7
			l-5.1,8.9l0,0.1l0.4,0.2l0.6-1l11.5,6.6l-0.6,1l0.4,0.2l5.3-9.3l0-0.1l-3.5-2L385.6,400.9z"/>
		<path class="st2" d="M394.9,387.5c-0.2-0.5-0.6-0.8-0.8-1l-0.1,0l-0.2,0.3l0,0.1c0,0,0.1,0.1,0.1,0.1c0,0,0.1,0.1,0.1,0.2
			c0.1,0.2,0.1,0.3,0.1,0.5c-0.1,0.3-0.3,0.4-0.6,0.4c0,0-0.1,0-0.1,0c-0.4,0-1-0.2-1.8-0.5c-1-0.4-1.9-0.4-2.6-0.2
			c-0.7,0.3-1.3,0.9-1.8,1.8c0.1-0.8,0.1-1.5-0.1-2.2c-0.3-1-1-1.7-2-2.1c-1.2-0.5-2.5-0.2-3.5,0.7c-0.9,0.8-1.6,2-1.9,2.8
			c-0.2,0.6-0.4,1.1-0.5,1.5c-0.1,0.4-0.3,0.9-0.4,1.3l-1.1,3.1l0.5,0.2l0.4-1.1l12.4,4.6l-0.4,1.1l0.4,0.2l2-5.3l0-0.1l-0.4-0.2
			l-0.4,1.1l-5.8-2.1c0.4-1.1,0.7-1.8,1.3-2.1c0.6-0.3,1.5-0.2,3.3,0.5c0.6,0.2,1.1,0.3,1.6,0.3c1.1,0,1.8-0.6,2.3-1.8
			C395.2,388.6,395.1,387.9,394.9,387.5z M379.7,390.2c0.3-1.1,0.7-1.8,1.3-2.1c0.7-0.5,1.6-0.5,2.8,0c1.1,0.4,1.9,1,2.2,1.8
			c0.3,0.7,0.3,1.6-0.1,2.7L379.7,390.2z"/>
	</g>
	<g id="heart">
		<path class="st7" d="M224.7,366.8c-2.4-0.4-3.4,2.3-3.4,2.3c0-0.1-1.2-2.6-3.6-2c-2.5,0.7-2.5,3.9-0.7,5.5
			c1.9,1.7,3.6,3.1,4.7,5.5l0,0c0,0,0,0,0,0c0,0,0,0,0,0l0,0c0.9-2.4,2.4-4,4.1-5.9C227.5,370.5,227.3,367.3,224.7,366.8z"/>
		<path class="st7" d="M395.8,367.4c-2.2-1-3.8,1.3-3.9,1.4c0-0.1-0.5-2.9-3-2.8c-2.6,0-3.4,3.1-2,5.2c1.4,2.1,2.7,3.9,3.1,6.5l0,0
			c0,0,0,0,0,0c0,0,0,0,0,0l0,0c1.4-2.1,3.4-3.3,5.5-4.7C397.6,371.7,398.1,368.5,395.8,367.4z"/>
	</g>
</g>
</svg>
